<svg width="16" height="16" viewBox="0 0 16 16" fill="none" xmlns="http://www.w3.org/2000/svg">
<g clip-path="url(#clip0_1410_7739)">
<path fill-rule="evenodd" clip-rule="evenodd" d="M3.92162 5.09117L2.44741 13.8184H13.5512L12.077 5.09117H3.92162ZM13.3064 3.63663H2.69216L0.726562 15.273H15.272L13.3064 3.63663Z" fill="#FAFAFA"/>
<path fill-rule="evenodd" clip-rule="evenodd" d="M9.19301 2.54517C8.95079 2.35141 8.59285 2.18208 7.99929 2.18208C7.40573 2.18208 7.04779 2.35141 6.80557 2.54517C6.54055 2.75719 6.32516 3.07251 6.16006 3.46877C6.13688 3.52442 6.11519 3.58047 6.09491 3.63663H9.90367C9.88339 3.58047 9.8617 3.52442 9.83851 3.46877C9.67342 3.07251 9.45803 2.75719 9.19301 2.54517ZM11.425 3.63663C11.0912 2.36746 10.2286 0.727539 7.99929 0.727539C5.76994 0.727539 4.90734 2.36746 4.57358 3.63663C4.3629 4.43776 4.36293 5.09117 4.36293 5.09117H11.6357C11.6357 5.09117 11.6357 4.43776 11.425 3.63663Z" fill="#FAFAFA"/>
<path fill-rule="evenodd" clip-rule="evenodd" d="M6.18111 6.54517C6.18111 6.54517 6.18111 6.54576 5.45383 6.54572C4.72656 6.54569 4.72656 6.54634 4.72656 6.54634L4.72657 6.54872L4.72659 6.55284L4.72671 6.56429C4.72684 6.57333 4.72707 6.58514 4.72749 6.59956C4.72833 6.62837 4.72992 6.6677 4.73294 6.71605C4.73897 6.81253 4.75076 6.94628 4.77392 7.10519C4.81972 7.41928 4.91265 7.85056 5.10566 8.29176C5.29884 8.73332 5.60386 9.21075 6.08689 9.57876C6.57948 9.95407 7.21396 10.1821 7.99929 10.1821C8.78462 10.1821 9.4191 9.95407 9.91169 9.57876C10.3947 9.21075 10.6997 8.73332 10.8929 8.29176C11.0859 7.85056 11.1789 7.41928 11.2247 7.10519C11.2478 6.94628 11.2596 6.81253 11.2656 6.71605C11.2687 6.6677 11.2702 6.62837 11.2711 6.59956C11.2715 6.58514 11.2717 6.57333 11.2719 6.56429L11.272 6.55284L11.272 6.54872L11.272 6.54707C11.272 6.54707 11.272 6.54569 10.5447 6.54572C9.81747 6.54576 9.81747 6.54517 9.81747 6.54517L9.81747 6.54378L9.81716 6.55722C9.81676 6.57102 9.81587 6.5942 9.81392 6.62539C9.81001 6.688 9.80192 6.78152 9.78533 6.89534C9.75159 7.12671 9.68546 7.4227 9.56031 7.70877C9.43532 7.99448 9.26308 8.24433 9.03018 8.42177C8.80686 8.59192 8.48676 8.72754 7.99929 8.72754C7.51182 8.72754 7.19172 8.59192 6.96839 8.42177C6.7355 8.24433 6.56326 7.99448 6.43827 7.70877C6.31312 7.4227 6.24698 7.12671 6.21325 6.89534C6.19666 6.78152 6.18857 6.688 6.18466 6.62539C6.18271 6.5942 6.18182 6.57102 6.18142 6.55722L6.18111 6.54384L6.18111 6.54517ZM6.18111 6.54384L6.1811 6.54281L6.18111 6.54384Z" fill="#FAFAFA"/>
</g>
<defs>
<clipPath id="clip0_1410_7739">
<rect width="16" height="16" fill="white"/>
</clipPath>
</defs>
</svg>