<svg width="20" height="20" viewBox="0 0 20 20" fill="none" xmlns="http://www.w3.org/2000/svg">
<g clip-path="url(#clip0_2994_9240)">
<path fill-rule="evenodd" clip-rule="evenodd" d="M4.903 6.3636L3.06024 17.2727H16.9399L15.0972 6.3636H4.903ZM16.634 4.54542H3.36618L0.90918 19.0909H19.091L16.634 4.54542Z" fill="#FAFAFA"/>
<path fill-rule="evenodd" clip-rule="evenodd" d="M11.4922 3.1811C11.1895 2.93889 10.742 2.72724 10.0001 2.72724C9.25814 2.72724 8.81071 2.93889 8.50794 3.1811C8.17666 3.44612 7.90743 3.84028 7.70106 4.3356C7.67208 4.40516 7.64496 4.47522 7.61961 4.54542H12.3806C12.3552 4.47522 12.3281 4.40516 12.2991 4.3356C12.0927 3.84028 11.8235 3.44612 11.4922 3.1811ZM14.2822 4.54542C13.865 2.95895 12.7868 0.909058 10.0001 0.909058C7.21341 0.909058 6.13516 2.95895 5.71795 4.54542C5.4546 5.54684 5.45463 6.3636 5.45463 6.3636H14.5455C14.5455 6.3636 14.5456 5.54684 14.2822 4.54542Z" fill="#FAFAFA"/>
<path fill-rule="evenodd" clip-rule="evenodd" d="M7.72736 8.18109C7.72736 8.18109 7.72736 8.18183 6.81827 8.18178C5.90918 8.18174 5.90918 8.18256 5.90918 8.18256L5.90919 8.18553L5.90921 8.19069L5.90937 8.205C5.90952 8.21629 5.90981 8.23106 5.91034 8.24908C5.91139 8.2851 5.91338 8.33426 5.91715 8.3947C5.92469 8.5153 5.93942 8.68249 5.96838 8.88112C6.02562 9.27373 6.14179 9.81283 6.38306 10.3643C6.62452 10.9163 7.0058 11.5131 7.60958 11.9731C8.22533 12.4422 9.01843 12.7272 10.0001 12.7272C10.9818 12.7272 11.7748 12.4422 12.3906 11.9731C12.9944 11.5131 13.3757 10.9163 13.6171 10.3643C13.8584 9.81283 13.9746 9.27373 14.0318 8.88112C14.0608 8.68249 14.0755 8.5153 14.083 8.3947C14.0868 8.33426 14.0888 8.2851 14.0898 8.24908C14.0904 8.23106 14.0907 8.21629 14.0908 8.205L14.091 8.19069L14.091 8.18553L14.091 8.18347C14.091 8.18347 14.091 8.18174 13.1819 8.18178C12.2728 8.18183 12.2728 8.18109 12.2728 8.18109L12.2728 8.17936L12.2724 8.19616C12.2719 8.21341 12.2708 8.24238 12.2684 8.28137C12.2635 8.35963 12.2534 8.47654 12.2326 8.61881C12.1905 8.90802 12.1078 9.27801 11.9514 9.6356C11.7951 9.99273 11.5798 10.305 11.2887 10.5268C11.0095 10.7395 10.6094 10.9091 10.0001 10.9091C9.39075 10.9091 8.99063 10.7395 8.71147 10.5268C8.42035 10.305 8.20505 9.99273 8.04881 9.6356C7.89237 9.27801 7.80971 8.90802 7.76754 8.61881C7.7468 8.47654 7.73669 8.35963 7.7318 8.28137C7.72937 8.24238 7.72825 8.21341 7.72775 8.19616L7.72737 8.17943L7.72736 8.18109ZM7.72737 8.17943L7.72735 8.17815L7.72737 8.17943Z" fill="#FAFAFA"/>
</g>
<defs>
<clipPath id="clip0_2994_9240">
<rect width="20" height="20" fill="white"/>
</clipPath>
</defs>
</svg>