<svg width="16" height="16" viewBox="0 0 16 16" fill="none" xmlns="http://www.w3.org/2000/svg">
<path fill-rule="evenodd" clip-rule="evenodd" d="M5.83673 12.815C5.87065 12.7908 5.9113 12.7778 5.95298 12.7778H11.8C11.9105 12.7778 12 12.6882 12 12.5778V5.2C12 5.08954 11.9105 5 11.8 5H2.2C2.08954 5 2 5.08954 2 5.2V15.1669C2 15.3296 2.18387 15.4242 2.31625 15.3297L5.83673 12.815ZM3.55556 12.1442C3.55556 12.3069 3.73943 12.4015 3.8718 12.3069L5.33823 11.2595C5.37215 11.2352 5.4128 11.2222 5.45448 11.2222H10.2444C10.3549 11.2222 10.4444 11.1327 10.4444 11.0222V6.75556C10.4444 6.6451 10.3549 6.55556 10.2444 6.55556H3.75556C3.6451 6.55556 3.55556 6.6451 3.55556 6.75556V12.1442Z" fill="#ffffff"/>
<path fill-rule="evenodd" clip-rule="evenodd" d="M4.55556 2.2C4.55556 2.08954 4.6451 2 4.75556 2H14.8C14.9105 2 15 2.08954 15 2.2V10.0222C15 10.1327 14.9105 10.2222 14.8 10.2222H11.6444C11.534 10.2222 11.4444 10.1327 11.4444 10.0222V8.86667C11.4444 8.75621 11.534 8.66667 11.6444 8.66667H13.2444C13.3549 8.66667 13.4444 8.57712 13.4444 8.46667V3.75556C13.4444 3.6451 13.3549 3.55556 13.2444 3.55556H6.31111C6.20065 3.55556 6.11111 3.6451 6.11111 3.75556V5.35556C6.11111 5.46601 6.02157 5.55556 5.91111 5.55556H4.75556C4.6451 5.55556 4.55556 5.46601 4.55556 5.35556V2.2Z" fill="#ffffff"/>
</svg>
