<svg width="16" height="16" viewBox="0 0 16 16" fill="none" xmlns="http://www.w3.org/2000/svg">
<g clip-path="url(#clip0_4519_4874)">
<path fill-rule="evenodd" clip-rule="evenodd" d="M7.49389 0.517131C7.76459 0.334085 8.11942 0.334085 8.39012 0.51713L10.1126 1.68187C10.2217 1.75558 10.3472 1.80126 10.4781 1.81487L12.5463 2.02984C12.8713 2.06363 13.1431 2.2917 13.2328 2.60593L13.8037 4.60539C13.8398 4.73192 13.9066 4.84759 13.9981 4.94215L15.4442 6.43625C15.6715 6.67105 15.7331 7.02048 15.5999 7.31886L14.7519 9.21747C14.6983 9.33763 14.6751 9.46916 14.6844 9.60042L14.8319 11.6745C14.855 12.0005 14.6776 12.3078 14.3837 12.4507L12.5138 13.3601C12.3954 13.4176 12.2931 13.5035 12.2159 13.61L10.9956 15.2937C10.8038 15.5583 10.4704 15.6796 10.1534 15.6002L8.1877 15.1077C8.11254 15.0855 7.91929 15.0518 7.74758 15.0948L5.73057 15.6002C5.41359 15.6796 5.08016 15.5583 4.88839 15.2937L3.66811 13.61C3.59088 13.5035 3.48857 13.4176 3.37023 13.3601L1.50027 12.4507C1.2064 12.3078 1.02899 12.0005 1.05216 11.6745L1.19959 9.60042C1.20892 9.46916 1.18572 9.33763 1.13206 9.21747L0.284133 7.31886C0.150876 7.02048 0.21249 6.67105 0.439762 6.43625L1.88592 4.94215C1.97744 4.84759 2.04422 4.73192 2.08035 4.60539L2.6512 2.60593C2.74091 2.2917 3.01272 2.06363 3.33775 2.02984L5.40596 1.81487C5.53685 1.80126 5.66236 1.75558 5.77137 1.68187L7.49389 0.517131ZM7.40931 9.21493L5.22876 7.03438L4.09739 8.16575L7.51683 11.5852L11.8921 6.22445L10.663 5.20016L7.40931 9.21493Z" fill="white"/>
</g>
<defs>
<clipPath id="clip0_4519_4874">
<rect width="16" height="16" fill="white"/>
</clipPath>
</defs>
</svg>
