<svg width="16" height="16" viewBox="0 0 16 16" fill="none" xmlns="http://www.w3.org/2000/svg">
<path fill-rule="evenodd" clip-rule="evenodd" d="M7.55228 3.55272C6.58826 2.58953 5.18968 2.20243 3.86755 2.53296C1.12384 3.21889 0.0113462 6.51472 1.77808 8.72313L1.99954 8.99997L7.85809 14.8585C7.9362 14.9367 8.06283 14.9367 8.14093 14.8585L13.9995 8.99997L14.221 8.72315C15.9877 6.51473 14.8752 3.21889 12.1315 2.53297C10.8095 2.20246 9.41098 2.58949 8.44696 3.55254L8.44557 3.55393L7.99954 3.99997L7.55345 3.55388L7.55228 3.55272ZM12.8801 7.99805L13.0497 7.78611C14.1337 6.43115 13.4511 4.40903 11.7677 3.98818C10.9562 3.7853 10.0977 4.02309 9.50624 4.61459L8.14098 5.97987C8.06288 6.05797 7.93624 6.05797 7.85814 5.97987L6.4928 4.61455C5.90131 4.02307 5.04286 3.7853 4.23135 3.98818C2.54798 4.40902 1.86542 6.43114 2.94938 7.78609L3.11895 7.99806L7.8581 12.7372C7.9362 12.8153 8.06284 12.8153 8.14094 12.7372L12.8801 7.99805Z" fill="#DBDBDB"/>
</svg>