<svg width="20" height="20" viewBox="0 0 20 20" fill="none" xmlns="http://www.w3.org/2000/svg">
<path fill-rule="evenodd" clip-rule="evenodd" d="M9.44084 4.44089C8.23582 3.23691 6.48759 2.75304 4.83492 3.1662C1.40529 4.02362 0.0146711 8.1434 2.22308 10.9039L2.49992 11.25L9.8231 18.5732C9.92073 18.6708 10.079 18.6708 10.1767 18.5732L17.4999 11.25L17.7767 10.9039C19.9852 8.14342 18.5945 4.02362 15.1649 3.16621C13.5123 2.75307 11.7642 3.23686 10.5592 4.44068L10.5575 4.44242L9.99992 4.99996L9.4423 4.44236L9.44084 4.44089ZM16.1007 9.99756L16.3126 9.73264C17.6676 8.03894 16.8144 5.51128 14.7101 4.98523C13.6957 4.73163 12.6227 5.02886 11.8833 5.76823L10.1767 7.47483C10.0791 7.57247 9.92079 7.57247 9.82316 7.47484L8.11649 5.76819C7.37713 5.02884 6.30406 4.73162 5.28968 4.98522C3.18546 5.51128 2.33226 8.03893 3.68721 9.73261L3.89918 9.99757L9.82311 15.9215C9.92074 16.0192 10.079 16.0192 10.1767 15.9215L16.1007 9.99756Z" fill="#FFCF4B"/>
</svg>