<svg width="20" height="20" viewBox="0 0 20 20" fill="none" xmlns="http://www.w3.org/2000/svg">
<path fill-rule="evenodd" clip-rule="evenodd" d="M9.4406 4.44114C8.23557 3.23715 6.48734 2.75328 4.83468 3.16645C1.40505 4.02386 0.0144269 8.14365 2.22284 10.9042L2.49967 11.2502L9.82286 18.5734C9.92049 18.6711 10.0788 18.6711 10.1764 18.5734L17.4997 11.2502L17.7765 10.9042C19.9849 8.14366 18.5943 4.02386 15.1646 3.16646C13.5121 2.75332 11.764 3.2371 10.5589 4.44092L10.5572 4.44266L9.99967 5.00021L9.44206 4.4426L9.4406 4.44114ZM16.1004 9.99781L16.3124 9.73288C17.6673 8.03919 16.8141 5.51153 14.7099 4.98547C13.6955 4.73187 12.6224 5.0291 11.883 5.76848L10.1765 7.47508C10.0788 7.57271 9.92055 7.57271 9.82292 7.47508L8.11624 5.76843C7.37688 5.02908 6.30382 4.73187 5.28943 4.98547C3.18522 5.51152 2.33202 8.03917 3.68697 9.73286L3.89893 9.99782L9.82287 15.9218C9.9205 16.0194 10.0788 16.0194 10.1764 15.9218L16.1004 9.99781Z" fill="#FF197A"/>
</svg>