<svg width="16" height="16" viewBox="0 0 16 16" fill="none" xmlns="http://www.w3.org/2000/svg">
<g clip-path="url(#clip0_4612_1447)">
<path fill-rule="evenodd" clip-rule="evenodd" d="M7.01174 11.7606C9.63485 11.7606 11.7613 9.63411 11.7613 7.01101C11.7613 4.3879 9.63485 2.26145 7.01174 2.26145C4.38863 2.26145 2.26218 4.3879 2.26218 7.01101C2.26218 9.63411 4.38863 11.7606 7.01174 11.7606ZM7.01174 13.222C10.442 13.222 13.2227 10.4412 13.2227 7.01101C13.2227 3.58079 10.442 0.800049 7.01174 0.800049C3.58152 0.800049 0.800781 3.58079 0.800781 7.01101C0.800781 10.4412 3.58152 13.222 7.01174 13.222Z" fill="#FFCF4B"/>
<path fill-rule="evenodd" clip-rule="evenodd" d="M14.1674 15.2L10.5139 11.5465L11.5473 10.5132L15.2008 14.1667L14.1674 15.2Z" fill="#FFCF4B"/>
</g>
<defs>
<clipPath id="clip0_4612_1447">
<rect width="16" height="16" fill="white"/>
</clipPath>
</defs>
</svg>
