<svg width="20" height="20" viewBox="0 0 20 20" fill="none" xmlns="http://www.w3.org/2000/svg">
<path fill-rule="evenodd" clip-rule="evenodd" d="M8.7637 14.7006C12.0426 14.7006 14.7006 12.0426 14.7006 8.7637C14.7006 5.48481 12.0426 2.82675 8.7637 2.82675C5.48481 2.82675 2.82675 5.48481 2.82675 8.7637C2.82675 12.0426 5.48481 14.7006 8.7637 14.7006ZM8.7637 16.5274C13.0515 16.5274 16.5274 13.0515 16.5274 8.7637C16.5274 4.47593 13.0515 1 8.7637 1C4.47593 1 1 4.47593 1 8.7637C1 13.0515 4.47593 16.5274 8.7637 16.5274Z" fill="#FF197A"/>
<path fill-rule="evenodd" clip-rule="evenodd" d="M17.7083 19L13.1414 14.4331L14.4331 13.1414L19 17.7083L17.7083 19Z" fill="#FF197A"/>
</svg>
