<svg width="16" height="16" viewBox="0 0 16 16" fill="none" xmlns="http://www.w3.org/2000/svg">
<path fill-rule="evenodd" clip-rule="evenodd" d="M10.4496 5.61617C10.3407 5.60621 10.2458 5.53775 10.202 5.43752L8.36517 1.23303C8.22545 0.913209 7.7718 0.913208 7.63207 1.23303L5.79525 5.43752C5.75146 5.53775 5.65659 5.60621 5.54766 5.61617L0.934434 6.03794C0.583278 6.07004 0.442438 6.50782 0.709001 6.73866L4.18239 9.74649C4.26623 9.81909 4.30317 9.93202 4.27845 10.0401L3.26047 14.4925C3.18237 14.8341 3.55006 15.1039 3.85247 14.9268L7.84708 12.5887C7.94068 12.5339 8.05656 12.5339 8.15017 12.5887L12.1448 14.9268C12.4472 15.1039 12.8149 14.8341 12.7368 14.4925L11.7188 10.0401C11.6941 9.93202 11.731 9.81909 11.8149 9.74649L15.2882 6.73866C15.5548 6.50782 15.414 6.07004 15.0628 6.03794L10.4496 5.61617ZM12.3195 7.59259C12.5195 7.41946 12.4138 7.09112 12.1505 7.06705L9.55511 6.82976C9.44618 6.8198 9.35131 6.75135 9.30752 6.65111L8.27353 4.28432C8.16874 4.04446 7.8285 4.04446 7.72371 4.28432L6.68973 6.65111C6.64594 6.75135 6.55106 6.8198 6.44213 6.82976L3.84677 7.06705C3.58341 7.09112 3.47777 7.41946 3.6777 7.59259L5.62968 9.28294C5.71352 9.35554 5.75047 9.46847 5.72575 9.57659L5.15346 12.0796C5.09488 12.3358 5.37065 12.5381 5.59746 12.4054L7.84708 11.0886C7.94068 11.0339 8.05656 11.0339 8.15017 11.0886L10.3998 12.4054C10.6266 12.5381 10.9024 12.3358 10.8438 12.0796L10.2715 9.57659C10.2468 9.46847 10.2837 9.35554 10.3676 9.28294L12.3195 7.59259Z" fill="#0A0A0A"/>
</svg>
