<svg width="20" height="20" viewBox="0 0 20 20" fill="none" xmlns="http://www.w3.org/2000/svg">
<path fill-rule="evenodd" clip-rule="evenodd" d="M7.625 3.825C7.625 3.71454 7.53546 3.625 7.425 3.625H3.825C3.71454 3.625 3.625 3.71454 3.625 3.825V7.425C3.625 7.53546 3.71454 7.625 3.825 7.625H7.425C7.53546 7.625 7.625 7.53546 7.625 7.425V3.825ZM2.075 1.875C1.96454 1.875 1.875 1.96454 1.875 2.075V9.175C1.875 9.28546 1.96454 9.375 2.075 9.375H9.175C9.28546 9.375 9.375 9.28546 9.375 9.175V2.075C9.375 1.96454 9.28546 1.875 9.175 1.875H2.075Z" fill="#0A0A0A"/>
<path fill-rule="evenodd" clip-rule="evenodd" d="M7.625 12.575C7.625 12.4645 7.53546 12.375 7.425 12.375H3.825C3.71454 12.375 3.625 12.4645 3.625 12.575V16.175C3.625 16.2855 3.71454 16.375 3.825 16.375H7.425C7.53546 16.375 7.625 16.2855 7.625 16.175V12.575ZM2.075 10.625C1.96454 10.625 1.875 10.7145 1.875 10.825V17.925C1.875 18.0355 1.96454 18.125 2.075 18.125H9.175C9.28546 18.125 9.375 18.0355 9.375 17.925V10.825C9.375 10.7145 9.28546 10.625 9.175 10.625H2.075Z" fill="#0A0A0A"/>
<path fill-rule="evenodd" clip-rule="evenodd" d="M16.375 3.825C16.375 3.71454 16.2855 3.625 16.175 3.625H12.575C12.4645 3.625 12.375 3.71454 12.375 3.825V7.425C12.375 7.53546 12.4645 7.625 12.575 7.625H16.175C16.2855 7.625 16.375 7.53546 16.375 7.425V3.825ZM10.825 1.875C10.7145 1.875 10.625 1.96454 10.625 2.075V9.175C10.625 9.28546 10.7145 9.375 10.825 9.375H17.925C18.0355 9.375 18.125 9.28546 18.125 9.175V2.075C18.125 1.96454 18.0355 1.875 17.925 1.875H10.825Z" fill="#0A0A0A"/>
<path fill-rule="evenodd" clip-rule="evenodd" d="M16.375 12.575C16.375 12.4645 16.2855 12.375 16.175 12.375H12.575C12.4645 12.375 12.375 12.4645 12.375 12.575V16.175C12.375 16.2855 12.4645 16.375 12.575 16.375H16.175C16.2855 16.375 16.375 16.2855 16.375 16.175V12.575ZM10.825 10.625C10.7145 10.625 10.625 10.7145 10.625 10.825V17.925C10.625 18.0355 10.7145 18.125 10.825 18.125H17.925C18.0355 18.125 18.125 18.0355 18.125 17.925V10.825C18.125 10.7145 18.0355 10.625 17.925 10.625H10.825Z" fill="#0A0A0A"/>
</svg>
