<svg width="16" height="16" viewBox="0 0 16 16" fill="none" xmlns="http://www.w3.org/2000/svg">
<path fill-rule="evenodd" clip-rule="evenodd" d="M6.1 3.1C6.1 2.98954 6.01046 2.9 5.9 2.9H3.1C2.98954 2.9 2.9 2.98954 2.9 3.1V5.9C2.9 6.01046 2.98954 6.1 3.1 6.1H5.9C6.01046 6.1 6.1 6.01046 6.1 5.9V3.1ZM1.7 1.5C1.58954 1.5 1.5 1.58954 1.5 1.7V7.3C1.5 7.41046 1.58954 7.5 1.7 7.5H7.3C7.41046 7.5 7.5 7.41046 7.5 7.3V1.7C7.5 1.58954 7.41046 1.5 7.3 1.5H1.7Z" fill="white"/>
<path fill-rule="evenodd" clip-rule="evenodd" d="M6.1 10.1C6.1 9.98954 6.01046 9.9 5.9 9.9H3.1C2.98954 9.9 2.9 9.98954 2.9 10.1V12.9C2.9 13.0105 2.98954 13.1 3.1 13.1H5.9C6.01046 13.1 6.1 13.0105 6.1 12.9V10.1ZM1.7 8.5C1.58954 8.5 1.5 8.58954 1.5 8.7V14.3C1.5 14.4105 1.58954 14.5 1.7 14.5H7.3C7.41046 14.5 7.5 14.4105 7.5 14.3V8.7C7.5 8.58954 7.41046 8.5 7.3 8.5H1.7Z" fill="white"/>
<path fill-rule="evenodd" clip-rule="evenodd" d="M13.1 3.1C13.1 2.98954 13.0105 2.9 12.9 2.9H10.1C9.98954 2.9 9.9 2.98954 9.9 3.1V5.9C9.9 6.01046 9.98954 6.1 10.1 6.1H12.9C13.0105 6.1 13.1 6.01046 13.1 5.9V3.1ZM8.7 1.5C8.58954 1.5 8.5 1.58954 8.5 1.7V7.3C8.5 7.41046 8.58954 7.5 8.7 7.5H14.3C14.4105 7.5 14.5 7.41046 14.5 7.3V1.7C14.5 1.58954 14.4105 1.5 14.3 1.5H8.7Z" fill="white"/>
<path fill-rule="evenodd" clip-rule="evenodd" d="M13.1 10.1C13.1 9.98954 13.0105 9.9 12.9 9.9H10.1C9.98954 9.9 9.9 9.98954 9.9 10.1V12.9C9.9 13.0105 9.98954 13.1 10.1 13.1H12.9C13.0105 13.1 13.1 13.0105 13.1 12.9V10.1ZM8.7 8.5C8.58954 8.5 8.5 8.58954 8.5 8.7V14.3C8.5 14.4105 8.58954 14.5 8.7 14.5H14.3C14.4105 14.5 14.5 14.4105 14.5 14.3V8.7C14.5 8.58954 14.4105 8.5 14.3 8.5H8.7Z" fill="white"/>
</svg>
