<svg width="16" height="16" viewBox="0 0 16 16" fill="none" xmlns="http://www.w3.org/2000/svg">
<g clip-path="url(#clip0_4519_6820)">
<path fill-rule="evenodd" clip-rule="evenodd" d="M3.50694 5.09093L4.23509 13.8182H11.701L12.501 5.09093H3.50694ZM15.1988 3.63639H0.798828V5.09093H1.99883L2.79883 15.2727H13.1988L13.9988 5.09093H15.1988V3.63639Z" fill="#0A0A0A"/>
<path fill-rule="evenodd" clip-rule="evenodd" d="M9.19259 2.54493C8.95038 2.35116 8.59243 2.18184 7.99887 2.18184C7.40531 2.18184 7.04737 2.35116 6.80515 2.54493C6.54013 2.75694 6.32475 3.07227 6.15965 3.46853C6.13646 3.52418 6.11477 3.58023 6.09449 3.63639H9.90325C9.88297 3.58023 9.86128 3.52418 9.8381 3.46853C9.673 3.07227 9.45761 2.75694 9.19259 2.54493ZM11.4246 3.63639C11.0908 2.36721 10.2282 0.727295 7.99887 0.727295C5.76953 0.727295 4.90692 2.36721 4.57316 3.63639C4.36248 4.43752 4.36251 5.09093 4.36251 5.09093H11.6352C11.6352 5.09093 11.6353 4.43752 11.4246 3.63639Z" fill="#0A0A0A"/>
<path d="M6.79961 6.40015V12.0001H5.59961L5.59963 6.40015H6.79961Z" fill="#0A0A0A"/>
<path d="M10.3996 6.40015V12.0001H9.19958V6.40015H10.3996Z" fill="#0A0A0A"/>
</g>
<defs>
<clipPath id="clip0_4519_6820">
<rect width="16" height="16" fill="white"/>
</clipPath>
</defs>
</svg>
