<svg id="tzm-icon" width="16" height="16" viewBox="0 0 16 16" fill="none" xmlns="http://www.w3.org/2000/svg">
  <path fill-rule="evenodd" clip-rule="evenodd" d="M7.99996 3.19995C6.23265 3.19995 4.79996 4.63264 4.79996 6.39995C4.79996 8.16726 6.23265 9.59995 7.99996 9.59995C9.76727 9.59995 11.2 8.16726 11.2 6.39995C11.2 4.63264 9.76728 3.19995 7.99996 3.19995ZM7.99996 1.59995C5.349 1.59995 3.19996 3.74898 3.19996 6.39995C3.19996 9.05092 5.349 11.1999 7.99996 11.1999C10.6509 11.2 12.8 9.05092 12.8 6.39995C12.8 3.74899 10.6509 1.59995 7.99996 1.59995Z" fill="#FF197A"/>
  <path fill-rule="evenodd" clip-rule="evenodd" d="M12.2611 12.2086C12.2611 12.2086 12.2606 12.209 12.7999 12.8C13.3391 13.3909 13.3386 13.3914 13.3386 13.3914L13.3368 13.393L13.3338 13.3957L13.3258 13.4028C13.3197 13.4083 13.3117 13.4153 13.302 13.4237C13.2826 13.4404 13.2561 13.4627 13.2228 13.4898C13.1562 13.5439 13.0618 13.6171 12.9404 13.703C12.698 13.8745 12.3467 14.0975 11.8934 14.3188C10.9862 14.7618 9.66654 15.2 7.99988 15.1999C6.33322 15.1999 5.01354 14.7618 4.10634 14.3188C3.65311 14.0975 3.30174 13.8745 3.05933 13.703C2.93801 13.6171 2.84359 13.5439 2.77695 13.4898C2.74362 13.4627 2.71719 13.4404 2.69778 13.4237C2.68807 13.4153 2.68011 13.4083 2.67391 13.4028L2.66594 13.3957L2.66295 13.393L2.6617 13.3919C2.6617 13.3919 2.66062 13.3909 3.19988 12.7999C3.73914 12.209 3.73866 12.2086 3.73866 12.2086L3.73746 12.2075L3.73639 12.2065L3.74285 12.2122C3.75061 12.2188 3.76483 12.2309 3.78538 12.2476C3.82653 12.281 3.89289 12.3328 3.98355 12.3969C4.16509 12.5254 4.44246 12.7024 4.80839 12.8811C5.53952 13.2381 6.61983 13.5999 7.99988 13.5999C9.37993 13.5999 10.4602 13.2381 11.1914 12.8811C11.5573 12.7024 11.8347 12.5254 12.0162 12.3969C12.1069 12.3328 12.1732 12.281 12.2144 12.2476C12.2349 12.2309 12.2492 12.2188 12.2569 12.2122L12.2637 12.2063L12.2623 12.2075L12.2611 12.2086Z" fill="#FF197A"/>
</svg>