<svg id="utp-box" width="129" height="146" viewBox="0 0 129 146" fill="none" xmlns="http://www.w3.org/2000/svg">
  <path d="M59.055 2.15089C60.0466 1.5809 61.357 0.832794 61.9236 0.547791C63.3048 -0.200317 66.1025 -0.164688 67.5191 0.547791C70.9189 2.29338 125.812 34.3552 126.484 34.9964C128.397 36.7777 128.326 34.9608 128.326 73.0075C128.326 111.054 128.397 109.237 126.484 111.019C125.812 111.66 71.0252 143.615 67.4483 145.503C66.5629 145.93 65.713 146.073 64.261 145.966C62.4194 145.788 60.4008 144.684 32.7065 128.617C15.0346 118.357 2.78118 111.019 2.24996 110.377C2.24996 110.377 1.53575 109.851 1.36459 109.344C0.83328 107.77 0.833374 103.288 0.833374 103.288V89.5728V75.8575V70.1576V54.661V43.1009C0.833374 43.1009 0.833542 39.584 0.833374 37.6774C0.833207 35.7708 5.72059 33.1084 5.72059 33.1084L14.6805 27.9072C22.1884 23.5611 23.7466 22.7773 24.3487 23.0979L88.4137 58.4C88.5908 71.4385 88.4137 87.5422 88.4137 87.5422L105.484 77.7099L105.554 63.4958V49.4516L73.7875 30.8284C56.2573 20.6755 41.9143 12.3038 41.9143 12.2325C41.9143 12.1613 42.9768 11.5201 44.2517 10.772L46.5537 9.41823L57.2489 3.18399L59.055 2.15089Z" fill="url(#paint0_linear_2630_10680)"/>
  <defs>
    <linearGradient id="paint0_linear_2630_10680" x1="65.1067" y1="196.417" x2="65.1067" y2="-6.69708e-07" gradientUnits="userSpaceOnUse">
      <stop stop-color="#FF197A"/>
      <stop offset="0.407587" stop-color="#FF6C45"/>
      <stop offset="1" stop-color="#FFB119"/>
    </linearGradient>
  </defs>
</svg>