<svg id="utp-check" width="149" height="146" viewBox="0 0 149 146" fill="none" xmlns="http://www.w3.org/2000/svg">
<path fill-rule="evenodd" clip-rule="evenodd" d="M78.3268 2.13765C76.1574 -0.71255 71.8706 -0.712551 69.7013 2.13765L56.768 19.1301C55.483 20.8185 53.3316 21.6018 51.2623 21.1348L30.4365 16.4343C26.9433 15.6458 23.6594 18.4024 23.8289 21.9807L24.8399 43.3142C24.9404 45.4339 23.7956 47.4174 21.9104 48.3902L2.93655 58.1811C-0.245991 59.8233 -0.990389 64.0466 1.43875 66.6787L15.9209 82.371C17.3598 83.9302 17.7574 86.1858 16.9383 88.1433L8.6946 107.844C7.31185 111.149 9.45526 114.863 13.0073 115.317L34.1843 118.025C36.2884 118.295 38.0423 119.767 38.6726 121.793L45.0163 142.186C46.0804 145.606 50.1087 147.073 53.1217 145.137L71.0845 133.594C72.8693 132.448 75.1588 132.448 76.9436 133.594L94.9064 145.137C97.9194 147.073 101.948 145.606 103.012 142.186L109.355 121.793C109.986 119.767 111.74 118.295 113.844 118.025L135.021 115.317C138.573 114.863 140.716 111.149 139.333 107.844L131.09 88.1433C130.271 86.1858 130.668 83.9302 132.107 82.371L146.589 66.6787C149.018 64.0466 148.274 59.8233 145.092 58.1811L126.118 48.3902C124.232 47.4174 123.088 45.4339 123.188 43.3142L124.199 21.9807C124.369 18.4024 121.085 15.6458 117.592 16.4343L96.7658 21.1348C94.6965 21.6018 92.5451 20.8185 91.26 19.1301L78.3268 2.13765ZM42.2948 74.3183L50.2904 65.9033L67.6843 82.4528L100.087 49.9148L108.223 58.0493L67.8246 98.5815L42.2948 74.3183Z" fill="url(#paint0_linear_2630_10674)"/>
  <defs>
    <linearGradient id="paint0_linear_2630_10674" x1="73.3837" y1="192.639" x2="73.3837" y2="4.5625" gradientUnits="userSpaceOnUse">
      <stop stop-color="#FF197A"/>
      <stop offset="0.407587" stop-color="#FF6C45"/>
      <stop offset="1" stop-color="#FFB119"/>
    </linearGradient>
  </defs>
</svg>