<svg id="utp-discount" width="126" height="146" viewBox="0 0 126 146" fill="none" xmlns="http://www.w3.org/2000/svg">
  <path fill-rule="evenodd" clip-rule="evenodd" d="M125.33 84.7621C125.33 118.583 97.4784 146 63.1215 146C28.7645 146 0.91272 118.639 0.91272 84.7621C0.91272 74.7865 4.55421 60.8644 12.4441 49.8117C18.3425 41.5488 26.5528 36.4814 30.1903 34.2363C31.2042 33.6106 31.8628 33.2041 32.0171 33.0087C32.0171 33.9235 31.9644 34.9568 31.9083 36.0557C31.5753 42.5821 31.1245 51.4174 40.9041 51.4174C46.6171 51.4174 50.5775 45.7044 50.881 40.9249C50.8912 40.7643 50.9014 40.5825 50.9127 40.3806C51.2384 34.5723 52.4971 12.1248 81.5302 0C83.2498 8.46378 86.9172 23.4024 110.764 49.8117C119.769 59.784 125.33 69.7065 125.33 84.7621ZM73.8642 62.8885L40.8664 110.509H52.533L85.5308 62.8885H73.8642ZM38.9334 87.2429C40.8664 88.2406 43.0524 88.7395 45.4916 88.7395C47.9307 88.7395 50.1168 88.2406 52.0497 87.2429C53.9827 86.1998 55.5014 84.6804 56.6059 82.6849C57.7565 80.6894 58.3317 78.2857 58.3317 75.4739C58.3317 72.662 57.7565 70.281 56.6059 68.3308C55.5014 66.3353 53.9827 64.816 52.0497 63.7729C50.1168 62.7298 47.9307 62.2082 45.4916 62.2082C43.0524 62.2082 40.8664 62.7298 38.9334 63.7729C37.0005 64.816 35.4588 66.3353 34.3082 68.3308C33.2037 70.281 32.6514 72.662 32.6514 75.4739C32.6514 78.2857 33.2037 80.6894 34.3082 82.6849C35.4588 84.6804 37.0005 86.1998 38.9334 87.2429ZM47.5626 80.1679C46.9643 80.9842 46.274 81.3924 45.4916 81.3924C44.7552 81.3924 44.0649 80.9842 43.4206 80.1679C42.7763 79.3062 42.4541 77.7415 42.4541 75.4739C42.4541 73.2062 42.7763 71.6643 43.4206 70.8479C44.0649 69.9862 44.7552 69.5554 45.4916 69.5554C46.274 69.5554 46.9643 69.9862 47.5626 70.8479C48.2069 71.6643 48.529 73.2062 48.529 75.4739C48.529 77.7415 48.2069 79.3062 47.5626 80.1679ZM74.3474 109.692C76.2804 110.69 78.4664 111.189 80.9056 111.189C83.3447 111.189 85.5308 110.69 87.4637 109.692C89.3967 108.649 90.9154 107.13 92.0199 105.134C93.1705 103.139 93.7457 100.735 93.7457 97.9234C93.7457 95.1115 93.1705 92.7305 92.0199 90.7804C90.9154 88.7849 89.3967 87.2655 87.4637 86.2224C85.5308 85.1793 83.3447 84.6578 80.9056 84.6578C78.4664 84.6578 76.2804 85.1793 74.3474 86.2224C72.4145 87.2655 70.8728 88.7849 69.7222 90.7804C68.6177 92.7305 68.0654 95.1115 68.0654 97.9234C68.0654 100.735 68.6177 103.139 69.7222 105.134C70.8728 107.13 72.4145 108.649 74.3474 109.692ZM82.9766 102.617C82.3783 103.434 81.688 103.842 80.9056 103.842C80.1692 103.842 79.4789 103.434 78.8346 102.617C78.1903 101.756 77.8681 100.191 77.8681 97.9234C77.8681 95.6558 78.1903 94.1138 78.8346 93.2974C79.4789 92.4357 80.1692 92.0049 80.9056 92.0049C81.688 92.0049 82.3783 92.4357 82.9766 93.2974C83.6209 94.1138 83.943 95.6558 83.943 97.9234C83.943 100.191 83.6209 101.756 82.9766 102.617Z" fill="url(#paint0_linear_2630_10665)"/>
  <defs>
    <linearGradient id="paint0_linear_2630_10665" x1="78.4906" y1="193.81" x2="78.4906" y2="-6.26022e-08" gradientUnits="userSpaceOnUse">
      <stop stop-color="#FF197A"/>
      <stop offset="0.407587" stop-color="#FF6C45"/>
      <stop offset="1" stop-color="#FFB119"/>
    </linearGradient>
  </defs>
</svg>