<svg id="utp-doc" width="150" height="146" viewBox="0 0 150 146" fill="none" xmlns="http://www.w3.org/2000/svg">
  <path fill-rule="evenodd" clip-rule="evenodd" d="M120.447 0H7.5816C3.57852 0 0.333374 3.24514 0.333374 7.24822V128.397C0.333374 138.119 8.21443 146 17.9362 146H127.695V7.24823C127.695 3.24514 124.45 0 120.447 0ZM105.95 33.1347V44.5248L22.078 44.5248V33.1347L105.95 33.1347ZM105.95 59.0213V70.4113L22.078 70.4113V59.0213H105.95ZM105.95 96.2978V84.9078L22.078 84.9078V96.2978L105.95 96.2978Z" fill="url(#paint0_linear_2630_10655)"/>
  <path d="M32.0307 111.872L25.3424 118.56V129.432C25.3424 137.429 18.8602 144.447 10.864 144.447L10.9741 144.49C13.5228 145.488 16.2356 146 18.9727 146L127.251 146C139.665 146 149.729 132.189 149.729 119.775C149.729 118.997 149.42 118.251 148.871 117.701L143.041 111.872C141.828 110.659 139.861 110.659 138.648 111.872L134.156 116.364C132.943 117.577 130.976 117.577 129.763 116.364L125.272 111.872C124.058 110.659 122.092 110.659 120.878 111.872L116.387 116.364C115.174 117.577 113.207 117.577 111.994 116.364L107.502 111.872C106.289 110.659 104.322 110.659 103.109 111.872L98.6172 116.364C97.4041 117.577 95.4372 117.577 94.2241 116.364L89.7324 111.872C88.5193 110.659 86.5525 110.659 85.3393 111.872L80.8476 116.364C79.6345 117.577 77.6677 117.577 76.4546 116.364L71.9629 111.872C70.7497 110.659 68.7829 110.659 67.5698 111.872L63.0781 116.364C61.865 117.577 59.8981 117.577 58.685 116.364L54.1933 111.872C52.9802 110.659 51.0133 110.659 49.8002 111.872L45.3085 116.364C44.0954 117.577 42.1286 117.577 40.9154 116.364L36.4238 111.872C35.2106 110.659 33.2438 110.659 32.0307 111.872Z" fill="url(#paint1_linear_2630_10655)"/>
  <defs>
    <linearGradient id="paint0_linear_2630_10655" x1="148.482" y1="170.127" x2="139.675" y2="7.01476" gradientUnits="userSpaceOnUse">
      <stop stop-color="#FF197A"/>
      <stop offset="0.407587" stop-color="#FF6C45"/>
      <stop offset="1" stop-color="#FFB119"/>
    </linearGradient>
    <linearGradient id="paint1_linear_2630_10655" x1="118.139" y1="158.504" x2="111.519" y2="103.077" gradientUnits="userSpaceOnUse">
      <stop stop-color="#FF197A"/>
      <stop offset="0.407587" stop-color="#FF6C45"/>
      <stop offset="1" stop-color="#FFB119"/>
    </linearGradient>
  </defs>
</svg>