<svg id="utp-original" width="146" height="146" viewBox="0 0 146 146" fill="none" xmlns="http://www.w3.org/2000/svg">
  <path fill-rule="evenodd" clip-rule="evenodd" d="M72.9999 146C108.75 146 138.497 120.302 144.778 86.3708L131.904 89.8205C126.177 109.794 110.416 126.367 88.8679 132.141C67.3195 137.915 45.3836 131.442 30.4376 117.008L17.536 120.465C30.9246 136.095 50.8056 146 72.9999 146ZM10.0811 110.039L145.997 73.6208C145.999 73.4141 146 73.2071 146 73C146 59.752 142.471 47.3282 136.302 36.6175L0 73.1394C0.0251684 86.6068 3.69718 99.2185 10.0811 110.039ZM116.21 29.5776L128.988 26.1538C115.597 10.1665 95.4858 0 72.9999 0C36.9704 0 7.03735 26.1017 1.07854 60.4271L13.9068 56.9897C19.4336 36.6512 35.329 19.7017 57.1717 13.849C79.0141 7.99633 101.254 14.7267 116.21 29.5776ZM103.423 33.0039L26.6943 53.5633C32.5064 39.735 44.4203 28.6537 60.0187 24.4742C75.6171 20.2946 91.4759 23.9347 103.423 33.0039ZM86.0209 121.516C70.7466 125.609 55.223 122.204 43.3661 113.544L118.975 93.2847C113.037 106.712 101.295 117.423 86.0209 121.516ZM13.1144 90.6991C14.4479 95.6756 19.1796 98.2506 24.4033 96.851C29.627 95.4513 32.4373 90.8553 31.1038 85.8789C29.7538 80.8406 25.0387 78.3273 19.8149 79.727C14.5912 81.1267 11.7644 85.6608 13.1144 90.6991ZM25.6328 87.3448C26.196 89.4467 25.1408 91.3196 23.0699 91.8745C21.0607 92.4128 19.1486 91.335 18.5854 89.2332C18.0222 87.1313 19.1393 85.2418 21.1484 84.7035C23.2193 84.1486 25.0696 85.243 25.6328 87.3448ZM43.1475 73.8726C42.457 73.892 41.814 73.9649 41.1958 74.1306C39.4648 74.5944 38.0933 75.6576 37.4128 77.1982L36.7801 75.5788L31.7728 76.9205L36.1623 93.3026L41.6333 91.8366L39.5793 84.171C38.8836 81.5746 39.9576 79.8954 42.4304 79.2329C43.0795 79.0589 43.7452 78.9468 44.4975 78.9109L43.1475 73.8726ZM44.1441 69.0338C44.6079 70.7647 46.159 71.608 48.0136 71.1111C49.8372 70.6224 50.7898 69.1083 50.326 67.3774C49.8622 65.6464 48.2802 64.8114 46.4565 65.3001C44.6019 65.797 43.6803 67.3029 44.1441 69.0338ZM50.0475 89.5821L55.5185 88.1161L51.1289 71.734L45.6579 73.2L50.0475 89.5821ZM66.9457 67.4959L67.1247 68.9056C65.4974 68.149 63.6627 67.9781 61.6844 68.5081C57.2026 69.709 54.8145 74.0262 56.0155 78.5081C57.2412 83.0827 61.4635 85.3637 65.8835 84.1793C67.5217 83.7403 68.8895 82.9101 69.8879 81.8143L69.9955 82.2161C70.5256 84.1944 69.2595 85.5275 67.2504 86.0658C65.8903 86.4302 64.639 86.3349 64.071 85.3276L58.7854 86.7438C60.2971 90.778 64.2023 91.7525 68.6533 90.5598C73.7225 89.2016 76.678 85.3949 75.2203 79.9548L71.5513 66.2619L66.9457 67.4959ZM68.1961 75.3768C68.7013 77.2623 67.7675 78.9702 65.6966 79.5251C63.6256 80.08 61.9939 79.0596 61.4887 77.1741C60.9835 75.2886 61.8946 73.6199 63.9656 73.065C66.0365 72.5101 67.6909 73.4913 68.1961 75.3768ZM73.967 61.0428C74.4308 62.7737 75.982 63.617 77.8365 63.1201C79.6602 62.6314 80.6128 61.1173 80.149 59.3863C79.6852 57.6554 78.1031 56.8204 76.2795 57.309C74.4249 57.806 73.5032 59.3118 73.967 61.0428ZM79.8705 81.591L85.3415 80.1251L80.9519 63.743L75.4809 65.2089L79.8705 81.591ZM103.126 65.0566C101.983 60.7911 99.2514 58.5084 95.0168 59.643C93.0076 60.1814 91.4054 61.3726 90.5892 63.1484L89.9068 61.3435L84.8685 62.6935L89.2581 79.0756L94.7291 77.6097L92.3438 68.7077C91.8469 66.8531 92.7089 65.4958 94.5326 65.0071C96.1399 64.5764 97.293 65.2944 97.79 67.149L100.2 76.1437L105.702 74.6695L103.126 65.0566ZM117.366 53.9859L117.547 55.5275C115.911 54.74 113.967 54.5321 111.989 55.0621C107.291 56.321 104.788 60.7022 106.146 65.7714C107.446 70.6242 111.708 73.4245 116.561 72.1242C118.539 71.5942 120.065 70.4896 121.119 68.9815L121.755 70.368L126.361 69.1339L121.971 52.7518L117.366 53.9859ZM118.726 62.4005C119.289 64.5024 118.234 66.3753 116.132 66.9385C114.03 67.5017 112.18 66.4073 111.617 64.3055C111.054 62.2036 112.109 60.3307 114.211 59.7675C116.313 59.2043 118.163 60.2987 118.726 62.4005ZM130.28 68.0839L135.782 66.6097L129.984 44.9729L124.482 46.4472L130.28 68.0839Z" fill="url(#paint0_linear_2630_10643)"/>
  <defs>
    <linearGradient id="paint0_linear_2630_10643" x1="91.0352" y1="178.069" x2="146.511" y2="71.4199" gradientUnits="userSpaceOnUse">
      <stop stop-color="#FF197A"/>
      <stop offset="1" stop-color="#FFCF4B"/>
    </linearGradient>
  </defs>
</svg>