<svg id="trash" width="18" height="20" viewBox="0 0 18 20" fill="none" xmlns="http://www.w3.org/2000/svg">
  <path fill-rule="evenodd" clip-rule="evenodd" d="M3.38416 6.36372L4.29435 17.2728H13.6267L14.6267 6.36372H3.38416ZM17.999 4.54554H-0.000976562V6.36372H1.49902L2.49902 19.091H15.499L16.499 6.36372H17.999V4.54554Z" fill="#0A0A0A"/>
  <path fill-rule="evenodd" clip-rule="evenodd" d="M10.4912 3.18122C10.1885 2.93901 9.74103 2.72736 8.99908 2.72736C8.25713 2.72736 7.8097 2.93901 7.50693 3.18122C7.17565 3.44624 6.90642 3.8404 6.70005 4.33572C6.67107 4.40528 6.64395 4.47534 6.6186 4.54554H11.3796C11.3542 4.47534 11.3271 4.40528 11.2981 4.33572C11.0917 3.8404 10.8225 3.44624 10.4912 3.18122ZM13.2812 4.54554C12.864 2.95908 11.7858 0.90918 8.99908 0.90918C6.2124 0.90918 5.13414 2.95908 4.71694 4.54554C4.45359 5.54696 4.45362 6.36372 4.45362 6.36372H13.5445C13.5445 6.36372 13.5446 5.54696 13.2812 4.54554Z" fill="#0A0A0A"/>
  <path d="M7.5 8V15H6L6.00003 8H7.5Z" fill="#0A0A0A"/>
  <path d="M12 8V15H10.5V8H12Z" fill="#0A0A0A"/>
</svg>