<svg id="utp-truck" width="169" height="146" viewBox="0 0 169 146" fill="none" xmlns="http://www.w3.org/2000/svg">
  <path d="M1.23508 1.07584C0.669387 1.92661 0.666626 3.06097 0.666626 3.06097V62.4514C0.668275 64.0871 0.669987 65.6916 0.671775 67.265H74.6997V57.623L101.259 77.424L74.6997 96.0184V86.3764H0.701585C0.761183 114.059 0.888624 127.778 1.24008 128.198C2.29876 129.561 3.71033 129.913 8.34206 129.913C8.72444 129.913 9.07662 129.915 9.40117 129.917H9.40508C11.4044 129.927 12.3539 129.932 12.8526 129.462C13.3036 129.037 13.386 128.223 13.5429 126.672C13.5706 126.399 13.6007 126.102 13.6355 125.78C13.8119 124.549 14.6941 122 15.6646 120.021C17.6055 115.933 21.5756 111.8 25.3692 109.909C39.3085 102.875 55.8503 111.844 57.7913 127.451L58.1 129.913H111.435L111.964 126.528C113.685 115.713 123.125 107.491 133.888 107.491C139.975 107.491 144.695 109.382 149.327 113.69C152.679 116.812 155.547 122.044 155.988 125.736C156.023 126.061 156.053 126.361 156.08 126.638C156.238 128.209 156.32 129.032 156.776 129.461C157.277 129.932 158.229 129.927 160.227 129.917C160.55 129.915 160.901 129.913 161.281 129.913C165.913 129.913 167.325 129.561 168.383 128.198C168.78 127.671 168.913 122.835 168.957 108.986V81.8748C168.957 78.0157 167.608 74.2773 165.142 71.3031L150.479 53.6164C142.98 43.9883 136.363 35.8549 135.833 35.5472C135.128 35.1515 131.555 35.0196 123.306 34.9757H116.464V2.54993C116.464 2.54993 116.633 1.64303 115.78 0.792262C115.089 0.103293 113.905 0 113.905 0H3.51164C3.51164 0 1.80078 0.225075 1.23508 1.07584Z" fill="url(#paint0_linear_2630_10686)"/>
  <path d="M149.919 130.574C149.919 139.094 142.994 146 134.451 146C125.908 146 118.983 139.094 118.983 130.574C118.983 122.055 125.908 115.148 134.451 115.148C142.994 115.148 149.919 122.055 149.919 130.574Z" fill="url(#paint1_linear_2630_10686)"/>
  <path d="M35.1725 146C43.7153 146 50.6406 139.094 50.6406 130.574C50.6406 122.055 43.7153 115.148 35.1725 115.148C26.6297 115.148 19.7043 122.055 19.7043 130.574C19.7043 139.094 26.6297 146 35.1725 146Z" fill="url(#paint2_linear_2630_10686)"/>
  <defs>
    <linearGradient id="paint0_linear_2630_10686" x1="85.0553" y1="201.855" x2="85.0553" y2="-1.18863e-05" gradientUnits="userSpaceOnUse">
      <stop stop-color="#FF197A"/>
      <stop offset="0.407587" stop-color="#FF6C45"/>
      <stop offset="1" stop-color="#FFB119"/>
    </linearGradient>
    <linearGradient id="paint1_linear_2630_10686" x1="85.0553" y1="201.855" x2="85.0553" y2="-1.18863e-05" gradientUnits="userSpaceOnUse">
      <stop stop-color="#FF197A"/>
      <stop offset="0.407587" stop-color="#FF6C45"/>
      <stop offset="1" stop-color="#FFB119"/>
    </linearGradient>
    <linearGradient id="paint2_linear_2630_10686" x1="85.0553" y1="201.855" x2="85.0553" y2="-1.18863e-05" gradientUnits="userSpaceOnUse">
      <stop stop-color="#FF197A"/>
      <stop offset="0.407587" stop-color="#FF6C45"/>
      <stop offset="1" stop-color="#FFB119"/>
    </linearGradient>
  </defs>
</svg>