<svg width="942" height="398" viewBox="0 0 942 398" fill="none" xmlns="http://www.w3.org/2000/svg">
<g clip-path="url(#clip0_2944_29527)">
<rect width="942" height="398" rx="4" fill="#0A0A0A"/>
<g clip-path="url(#clip1_2944_29527)">
<g filter="url(#filter0_f_2944_29527)">
<path d="M300.194 44.6363C299.162 47.7773 300.084 51.3348 300.084 51.3348L348.774 237.469C350.12 242.594 351.441 247.621 352.736 252.551L579.035 190.44L571.13 160.221L668.552 199.995L602.608 280.555L594.703 250.336L368.496 312.422C391.373 399.133 403.01 442.022 404.429 443.044C408.783 446.428 413.386 446.346 427.545 442.459C428.714 442.139 429.792 441.849 430.786 441.582L430.798 441.579C436.918 439.935 439.825 439.154 440.964 437.262C441.994 435.55 441.578 432.93 440.787 427.939C440.647 427.058 440.496 426.103 440.339 425.066C439.869 421.06 440.475 412.328 441.82 405.314C444.401 390.871 453.149 374.588 463.196 365.48C500.041 331.739 557.961 345.969 576.69 393.254L579.652 400.711L742.694 355.962L741.537 344.908C737.929 309.569 760.046 275.883 792.948 266.852C811.557 261.745 827.536 263.71 845.227 273.327C858.034 280.297 871.088 294.288 875.464 305.492C875.837 306.481 876.175 307.395 876.487 308.239C878.256 313.031 879.183 315.541 880.927 316.502C882.844 317.56 885.75 316.745 891.851 315.036C892.837 314.759 893.907 314.459 895.07 314.14C909.229 310.254 913.256 307.967 915.375 302.808C916.156 300.821 912.596 285.554 901.377 242.114L879.15 157.145C875.986 145.05 868.797 134.465 858.821 127.213L799.496 84.084C768.679 60.2005 741.784 40.2616 739.913 39.7412C737.431 39.0933 726.401 41.6778 701.149 48.461L680.233 54.2015L653.649 -47.4233C653.649 -47.4233 653.423 -50.4076 650.118 -52.3582C647.441 -53.9378 643.738 -53.2683 643.738 -53.2683L306.271 39.3544C306.271 39.3544 301.226 41.4953 300.194 44.6363Z" fill="url(#paint0_linear_2944_29527)"/>
<path d="M860.879 325.745C867.864 352.446 852.356 379.901 826.241 387.069C800.126 394.236 773.294 378.402 766.309 351.701C759.325 325.001 774.833 297.545 800.948 290.378C827.063 283.21 853.895 299.045 860.879 325.745Z" fill="url(#paint1_linear_2944_29527)"/>
<path d="M522.753 470.366C548.867 463.198 564.376 435.743 557.391 409.042C550.407 382.342 523.574 366.507 497.459 373.675C471.345 380.842 455.836 408.298 462.821 434.998C469.805 461.699 496.638 477.533 522.753 470.366Z" fill="url(#paint2_linear_2944_29527)"/>
</g>
</g>
</g>
<defs>
<filter id="filter0_f_2944_29527" x="285.703" y="-67.4092" width="643.773" height="553.499" filterUnits="userSpaceOnUse" color-interpolation-filters="sRGB">
<feFlood flood-opacity="0" result="BackgroundImageFix"/>
<feBlend mode="normal" in="SourceGraphic" in2="BackgroundImageFix" result="shape"/>
<feGaussianBlur stdDeviation="7" result="effect1_foregroundBlur_2944_29527"/>
</filter>
<linearGradient id="paint0_linear_2944_29527" x1="721.034" y1="603.568" x2="547.969" y2="-26.9833" gradientUnits="userSpaceOnUse">
<stop stop-color="#FF197A"/>
<stop offset="0.407587" stop-color="#FF6C45"/>
<stop offset="1" stop-color="#FFB119"/>
</linearGradient>
<linearGradient id="paint1_linear_2944_29527" x1="721.034" y1="603.568" x2="547.969" y2="-26.9833" gradientUnits="userSpaceOnUse">
<stop stop-color="#FF197A"/>
<stop offset="0.407587" stop-color="#FF6C45"/>
<stop offset="1" stop-color="#FFB119"/>
</linearGradient>
<linearGradient id="paint2_linear_2944_29527" x1="721.034" y1="603.568" x2="547.969" y2="-26.9833" gradientUnits="userSpaceOnUse">
<stop stop-color="#FF197A"/>
<stop offset="0.407587" stop-color="#FF6C45"/>
<stop offset="1" stop-color="#FFB119"/>
</linearGradient>
<clipPath id="clip0_2944_29527">
<rect width="942" height="398" rx="4" fill="white"/>
</clipPath>
<clipPath id="clip1_2944_29527">
<rect width="942" height="398" fill="white"/>
</clipPath>
</defs>
</svg>
