<svg width="363" height="314" viewBox="0 0 363 314" fill="none" xmlns="http://www.w3.org/2000/svg">
<g clip-path="url(#clip0_1762_18306)">
<rect width="363" height="314" rx="4" fill="#0A0A0A"/>
<g filter="url(#filter0_f_1762_18306)">
<path d="M48.6254 142.393C48.1091 143.927 48.5702 145.665 48.5702 145.665L72.9349 236.595C73.6084 239.099 74.2693 241.555 74.9175 243.963L188.157 213.62L184.201 198.858L232.951 218.289L199.953 257.644L195.997 242.881L82.8034 273.211C94.2514 315.571 100.074 336.523 100.784 337.023C102.963 338.675 105.267 338.635 112.352 336.737C112.937 336.58 113.476 336.439 113.973 336.308L113.979 336.307C117.042 335.503 118.496 335.122 119.066 334.198C119.582 333.361 119.374 332.081 118.978 329.644C118.908 329.213 118.832 328.746 118.754 328.24C118.518 326.283 118.822 322.017 119.495 318.59C120.786 311.535 125.164 303.58 130.191 299.131C148.628 282.648 177.612 289.599 186.983 312.699L188.466 316.342L270.052 294.481L269.473 289.081C267.667 271.818 278.735 255.361 295.199 250.95C304.511 248.454 312.506 249.414 321.359 254.112C327.768 257.517 334.3 264.352 336.49 269.825C336.676 270.309 336.845 270.755 337.001 271.168C337.887 273.509 338.35 274.735 339.223 275.204C340.183 275.721 341.637 275.323 344.689 274.488C345.183 274.353 345.719 274.206 346.301 274.05C353.386 272.152 355.401 271.035 356.461 268.514C356.852 267.544 355.07 260.085 349.456 238.864L338.334 197.355C336.751 191.447 333.154 186.276 328.162 182.733L298.475 161.664C283.054 149.996 269.596 140.256 268.66 140.001C267.418 139.685 261.899 140.947 249.262 144.261L238.796 147.065L225.494 97.4199C225.494 97.4199 225.381 95.962 223.727 95.0091C222.387 94.2374 220.534 94.5644 220.534 94.5644L51.6664 139.812C51.6664 139.812 49.1417 140.858 48.6254 142.393Z" fill="url(#paint0_linear_1762_18306)"/>
<path d="M329.192 279.72C332.687 292.763 324.926 306.176 311.859 309.677C298.791 313.179 285.364 305.444 281.869 292.4C278.374 279.356 286.134 265.944 299.202 262.442C312.27 258.941 325.697 266.676 329.192 279.72Z" fill="url(#paint1_linear_1762_18306)"/>
<path d="M159.993 350.37C173.061 346.868 180.821 333.456 177.326 320.412C173.831 307.368 160.405 299.633 147.337 303.134C134.269 306.636 126.509 320.048 130.004 333.092C133.499 346.136 146.926 353.871 159.993 350.37Z" fill="url(#paint2_linear_1762_18306)"/>
</g>
</g>
<defs>
<filter id="filter0_f_1762_18306" x="41.3809" y="87.4961" width="322.132" height="270.716" filterUnits="userSpaceOnUse" color-interpolation-filters="sRGB">
<feFlood flood-opacity="0" result="BackgroundImageFix"/>
<feBlend mode="normal" in="SourceGraphic" in2="BackgroundImageFix" result="shape"/>
<feGaussianBlur stdDeviation="3.5" result="effect1_foregroundBlur_1762_18306"/>
</filter>
<linearGradient id="paint0_linear_1762_18306" x1="259.213" y1="415.441" x2="176.403" y2="106.389" gradientUnits="userSpaceOnUse">
<stop stop-color="#FF197A"/>
<stop offset="0.407587" stop-color="#FF6C45"/>
<stop offset="1" stop-color="#FFB119"/>
</linearGradient>
<linearGradient id="paint1_linear_1762_18306" x1="259.213" y1="415.441" x2="176.403" y2="106.389" gradientUnits="userSpaceOnUse">
<stop stop-color="#FF197A"/>
<stop offset="0.407587" stop-color="#FF6C45"/>
<stop offset="1" stop-color="#FFB119"/>
</linearGradient>
<linearGradient id="paint2_linear_1762_18306" x1="259.213" y1="415.441" x2="176.403" y2="106.389" gradientUnits="userSpaceOnUse">
<stop stop-color="#FF197A"/>
<stop offset="0.407587" stop-color="#FF6C45"/>
<stop offset="1" stop-color="#FFB119"/>
</linearGradient>
<clipPath id="clip0_1762_18306">
<rect width="363" height="314" rx="4" fill="white"/>
</clipPath>
</defs>
</svg>
