<svg width="942" height="398" viewBox="0 0 942 398" fill="none" xmlns="http://www.w3.org/2000/svg">
<g clip-path="url(#clip0_2944_29540)">
<rect width="942" height="398" rx="4" fill="#0A0A0A"/>
<g clip-path="url(#clip1_2944_29540)">
<g filter="url(#filter0_f_2944_29540)">
<path d="M646.291 -5.90615C649.13 -8.6927 652.887 -12.358 654.547 -13.8144C658.543 -17.5428 668.049 -19.9195 673.494 -18.8054C686.594 -16.0128 901.636 42.0169 904.497 43.5566C912.593 47.7948 910.701 41.7951 945.307 168.759C979.913 295.722 978.501 289.596 973.645 297.246C971.95 299.986 815.496 455.489 805.101 464.98C802.492 467.196 799.744 468.43 794.73 469.368C788.332 470.417 780.492 468.532 672.099 439.619C602.926 421.145 554.758 407.585 552.376 405.919C552.376 405.919 549.479 404.801 548.438 403.261C545.207 398.482 541.131 383.525 541.131 383.525L528.656 337.757L516.181 291.988L510.996 272.967L496.901 221.254L486.387 182.678C486.387 182.678 483.188 170.941 481.453 164.579C479.719 158.217 493.847 144.973 493.847 144.973L519.456 119.624C540.926 98.4243 545.49 94.419 547.82 94.9519L796.869 155.613C809.328 198.965 823.376 252.862 823.376 252.862L872.235 204.826L859.546 157.329L846.772 110.463L722.263 76.6513C653.667 58.4069 597.484 43.2634 597.419 43.0257C597.354 42.7879 600.368 39.7004 604.005 36.0668L610.569 29.4961L641.115 -0.847602L646.291 -5.90615Z" fill="url(#paint0_linear_2944_29540)"/>
</g>
<g filter="url(#filter1_f_2944_29540)">
<path d="M250.35 308.214C250.773 306.669 251.336 304.633 251.619 303.79C252.254 301.683 255.103 298.953 257.246 298.259C262.424 296.628 349.944 274.136 351.267 274.107C354.986 273.981 353.083 272.251 391.436 309.955C429.79 347.658 428.03 345.788 427.902 349.443C427.872 350.744 404.992 436.57 403.299 441.977C402.839 443.276 402.128 444.257 400.56 445.587C398.529 447.231 395.386 448.132 351.341 459.587C323.227 466.89 303.508 471.73 302.327 471.62C302.327 471.62 301.079 471.805 300.395 471.471C298.274 470.437 293.756 465.995 293.756 465.995L279.93 452.403L266.104 438.812L260.358 433.163L244.737 417.806L233.084 406.35C233.084 406.35 229.538 402.865 227.616 400.976C225.694 399.086 227.925 391.617 227.925 391.617L231.692 377.605C234.86 365.876 235.637 363.559 236.566 363.282L336.576 334.934C349.897 347.68 365.953 363.813 365.953 363.813L373.207 337.195L358.949 323.039L344.792 309.122L294.074 322.07C266.211 329.338 243.349 335.22 243.277 335.15C243.205 335.079 243.627 333.393 244.155 331.392L245.105 327.774L249.575 311.024L250.35 308.214Z" fill="url(#paint1_linear_2944_29540)"/>
</g>
<g filter="url(#filter2_f_2944_29540)">
<path d="M143.645 -22.9261C144.596 -23.1759 145.852 -23.5018 146.387 -23.6112C147.702 -23.9216 150.02 -23.2799 151.038 -22.3861C153.474 -20.2118 191.943 18.07 192.359 18.7426C193.551 20.6204 193.898 19.1167 185.403 50.2823C176.909 81.4479 177.373 79.9752 175.386 81.0155C174.683 81.3935 122.01 95.5737 118.615 96.3371C117.784 96.4934 117.045 96.4241 115.862 96.0186C114.371 95.4695 112.94 94.1229 93.5073 74.8985C81.1089 62.625 72.5622 53.9308 72.2638 53.2892C72.2638 53.2892 71.7876 52.702 71.7585 52.2491C71.6684 50.8433 72.6691 47.172 72.6691 47.172L75.7314 35.9372L78.7936 24.7024L80.0662 20.0334L83.5262 7.33954L86.1072 -2.12984C86.1072 -2.12984 86.8926 -5.01067 87.3181 -6.57246C87.7437 -8.13425 92.4006 -9.24511 92.4006 -9.24511L101.009 -11.5438C108.22 -13.4601 109.691 -13.7609 110.12 -13.3664L155.489 29.5779C152.725 40.297 148.983 53.4495 148.983 53.4495L165.367 49.1329L168.599 37.5051L171.735 26.0008L149.488 3.79048C137.183 -8.36441 127.13 -18.3624 127.146 -18.4208C127.162 -18.4791 128.188 -18.7718 129.415 -19.1054L131.631 -19.7103L141.913 -22.4753L143.645 -22.9261Z" fill="url(#paint2_linear_2944_29540)"/>
</g>
</g>
</g>
<defs>
<filter id="filter0_f_2944_29540" x="467.305" y="-33.0814" width="522.902" height="516.659" filterUnits="userSpaceOnUse" color-interpolation-filters="sRGB">
<feFlood flood-opacity="0" result="BackgroundImageFix"/>
<feBlend mode="normal" in="SourceGraphic" in2="BackgroundImageFix" result="shape"/>
<feGaussianBlur stdDeviation="7" result="effect1_foregroundBlur_2944_29540"/>
</filter>
<filter id="filter1_f_2944_29540" x="216.836" y="264.062" width="221.113" height="217.609" filterUnits="userSpaceOnUse" color-interpolation-filters="sRGB">
<feFlood flood-opacity="0" result="BackgroundImageFix"/>
<feBlend mode="normal" in="SourceGraphic" in2="BackgroundImageFix" result="shape"/>
<feGaussianBlur stdDeviation="5" result="effect1_foregroundBlur_2944_29540"/>
</filter>
<filter id="filter2_f_2944_29540" x="63.7539" y="-31.6904" width="137.234" height="136.105" filterUnits="userSpaceOnUse" color-interpolation-filters="sRGB">
<feFlood flood-opacity="0" result="BackgroundImageFix"/>
<feBlend mode="normal" in="SourceGraphic" in2="BackgroundImageFix" result="shape"/>
<feGaussianBlur stdDeviation="4" result="effect1_foregroundBlur_2944_29540"/>
</filter>
<linearGradient id="paint0_linear_2944_29540" x1="843.482" y1="636.972" x2="670.44" y2="-19.9602" gradientUnits="userSpaceOnUse">
<stop stop-color="#FF197A"/>
<stop offset="0.407587" stop-color="#FF6C45"/>
<stop offset="1" stop-color="#FFB119"/>
</linearGradient>
<linearGradient id="paint1_linear_2944_29540" x1="452.269" y1="494.747" x2="257.651" y2="296.775" gradientUnits="userSpaceOnUse">
<stop stop-color="#FF197A"/>
<stop offset="0.407587" stop-color="#FF6C45"/>
<stop offset="1" stop-color="#FFB119"/>
</linearGradient>
<linearGradient id="paint2_linear_2944_29540" x1="105.301" y1="137.53" x2="147.777" y2="-23.726" gradientUnits="userSpaceOnUse">
<stop stop-color="#FF197A"/>
<stop offset="0.407587" stop-color="#FF6C45"/>
<stop offset="1" stop-color="#FFB119"/>
</linearGradient>
<clipPath id="clip0_2944_29540">
<rect width="942" height="398" rx="4" fill="white"/>
</clipPath>
<clipPath id="clip1_2944_29540">
<rect width="942" height="398" fill="white" transform="translate(1)"/>
</clipPath>
</defs>
</svg>
