<svg width="363" height="314" viewBox="0 0 363 314" fill="none" xmlns="http://www.w3.org/2000/svg">
<g clip-path="url(#clip0_1762_18395)">
<rect width="363" height="314" rx="4" fill="#0A0A0A"/>
<g filter="url(#filter0_f_1762_18395)">
<path d="M300.602 85.1507C302.065 83.69 304.001 81.7687 304.856 81.0053C306.916 79.0509 311.814 77.8051 314.62 78.3891C321.371 79.8529 432.183 110.271 433.658 111.079C437.83 113.3 436.854 110.155 454.687 176.708C472.52 243.261 471.792 240.05 469.29 244.06C468.416 245.496 387.795 327.009 382.438 331.984C381.094 333.146 379.677 333.793 377.094 334.284C373.797 334.834 369.757 333.846 313.901 318.69C278.256 309.006 253.434 301.898 252.207 301.025C252.207 301.025 250.714 300.439 250.178 299.632C248.513 297.126 246.412 289.286 246.412 289.286L239.984 265.295L233.555 241.304L230.884 231.333L223.62 204.226L218.202 184.004C218.202 184.004 216.554 177.852 215.66 174.517C214.766 171.182 222.046 164.24 222.046 164.24L235.243 150.952C246.307 139.84 248.659 137.74 249.859 138.019L378.196 169.817C384.616 192.542 391.855 220.794 391.855 220.794L417.032 195.614L410.494 170.717L403.911 146.15L339.751 128.426C304.403 118.863 275.451 110.925 275.418 110.8C275.384 110.676 276.938 109.057 278.812 107.152L282.194 103.708L297.935 87.8024L300.602 85.1507Z" fill="url(#paint0_linear_1762_18395)"/>
</g>
<g filter="url(#filter1_f_1762_18395)">
<path d="M96.2871 215.013C96.5049 214.203 96.7953 213.136 96.9408 212.694C97.2679 211.59 98.7362 210.158 99.8404 209.794C102.509 208.939 147.608 197.15 148.29 197.134C150.207 197.068 149.226 196.161 168.99 215.925C188.754 235.689 187.847 234.709 187.781 236.625C187.765 237.307 175.975 282.296 175.103 285.13C174.866 285.811 174.499 286.325 173.692 287.022C172.645 287.884 171.025 288.356 148.328 294.361C133.841 298.189 123.68 300.726 123.071 300.669C123.071 300.669 122.428 300.765 122.076 300.591C120.983 300.048 118.655 297.72 118.655 297.72L111.53 290.595L104.405 283.471L101.444 280.51L93.3945 272.46L87.3895 266.455C87.3895 266.455 85.5626 264.628 84.5721 263.638C83.5817 262.647 84.7312 258.732 84.7312 258.732L86.6723 251.387C88.3051 245.239 88.7055 244.024 89.184 243.879L140.72 229.019C147.585 235.7 155.858 244.158 155.858 244.158L159.596 230.205L152.249 222.784L144.954 215.489L118.818 222.276C104.46 226.086 92.6791 229.169 92.6421 229.132C92.6051 229.095 92.8225 228.212 93.0946 227.162L93.5842 225.266L95.8879 216.486L96.2871 215.013Z" fill="url(#paint1_linear_1762_18395)"/>
</g>
<g filter="url(#filter2_f_1762_18395)">
<path d="M18.4884 184.606C18.9787 184.475 19.6261 184.304 19.9015 184.247C20.5792 184.084 21.7735 184.42 22.2983 184.889C23.5537 186.029 43.377 206.096 43.5915 206.448C44.2057 207.433 44.3843 206.644 40.0069 222.981C35.6295 239.318 35.8689 238.546 34.8448 239.091C34.4829 239.289 7.33968 246.722 5.59037 247.122C5.16196 247.204 4.7815 247.168 4.17186 246.955C3.40356 246.668 2.66597 245.962 -7.34779 235.885C-13.7368 229.451 -18.141 224.893 -18.2947 224.557C-18.2947 224.557 -18.5401 224.249 -18.5551 224.012C-18.6016 223.275 -18.0859 221.351 -18.0859 221.351L-16.5079 215.461L-14.9299 209.572L-14.2741 207.125L-12.4911 200.471L-11.1611 195.507L-10.5371 193.178C-10.3178 192.36 -7.91809 191.777 -7.91809 191.777L-3.48189 190.572C0.234009 189.568 0.991624 189.41 1.21261 189.617L24.592 212.128C23.1677 217.747 21.2391 224.641 21.2391 224.641L29.6818 222.378L31.3475 216.283L32.9634 210.253L21.4993 198.61C15.1587 192.239 9.97842 186.998 9.98661 186.968C9.99481 186.937 10.5237 186.784 11.1558 186.609L12.2976 186.292L17.5959 184.842L18.4884 184.606Z" fill="url(#paint2_linear_1762_18395)"/>
</g>
</g>
<defs>
<filter id="filter0_f_1762_18395" x="208.584" y="71.2441" width="269.026" height="270.15" filterUnits="userSpaceOnUse" color-interpolation-filters="sRGB">
<feFlood flood-opacity="0" result="BackgroundImageFix"/>
<feBlend mode="normal" in="SourceGraphic" in2="BackgroundImageFix" result="shape"/>
<feGaussianBlur stdDeviation="3.5" result="effect1_foregroundBlur_1762_18395"/>
</filter>
<filter id="filter1_f_1762_18395" x="78.1699" y="191.11" width="115.635" height="115.585" filterUnits="userSpaceOnUse" color-interpolation-filters="sRGB">
<feFlood flood-opacity="0" result="BackgroundImageFix"/>
<feBlend mode="normal" in="SourceGraphic" in2="BackgroundImageFix" result="shape"/>
<feGaussianBlur stdDeviation="3" result="effect1_foregroundBlur_1762_18395"/>
</filter>
<filter id="filter2_f_1762_18395" x="-22.5581" y="180.205" width="70.4736" height="70.958" filterUnits="userSpaceOnUse" color-interpolation-filters="sRGB">
<feFlood flood-opacity="0" result="BackgroundImageFix"/>
<feBlend mode="normal" in="SourceGraphic" in2="BackgroundImageFix" result="shape"/>
<feGaussianBlur stdDeviation="2" result="effect1_foregroundBlur_1762_18395"/>
</filter>
<linearGradient id="paint0_linear_1762_18395" x1="402.216" y1="422.141" x2="310.154" y2="78.5588" gradientUnits="userSpaceOnUse">
<stop stop-color="#FF197A"/>
<stop offset="0.407587" stop-color="#FF6C45"/>
<stop offset="1" stop-color="#FFB119"/>
</linearGradient>
<linearGradient id="paint1_linear_1762_18395" x1="200.337" y1="312.792" x2="98.3057" y2="210.76" gradientUnits="userSpaceOnUse">
<stop stop-color="#FF197A"/>
<stop offset="0.407587" stop-color="#FF6C45"/>
<stop offset="1" stop-color="#FFB119"/>
</linearGradient>
<linearGradient id="paint2_linear_1762_18395" x1="-1.27049" y1="268.716" x2="21.328" y2="184.377" gradientUnits="userSpaceOnUse">
<stop stop-color="#FF197A"/>
<stop offset="0.407587" stop-color="#FF6C45"/>
<stop offset="1" stop-color="#FFB119"/>
</linearGradient>
<clipPath id="clip0_1762_18395">
<rect width="363" height="314" rx="4" fill="white"/>
</clipPath>
</defs>
</svg>
