<svg width="665" height="313" viewBox="0 0 665 313" fill="none" xmlns="http://www.w3.org/2000/svg">
<g clip-path="url(#clip0_2948_29910)">
<path d="M126.306 277.908C125.138 280.904 123.351 282.724 120.944 283.368C118.679 283.974 116.219 283.289 113.565 281.314C110.873 279.2 108.593 274.664 106.725 267.707C104.857 260.749 104.578 255.753 105.887 252.719C107.159 249.545 108.927 247.655 111.192 247.05C113.599 246.406 116.077 247.16 118.627 249.312C121.282 251.287 123.543 255.753 125.411 262.711C127.279 269.668 127.577 274.734 126.306 277.908Z" fill="url(#paint0_linear_2948_29910)"/>
<path d="M253.732 317.66C252.564 320.657 250.777 322.477 248.37 323.121C246.105 323.726 243.646 323.042 240.991 321.067C238.299 318.953 236.02 314.417 234.151 307.46C232.283 300.502 232.004 295.506 233.313 292.471C234.585 289.298 236.353 287.408 238.618 286.802C241.025 286.159 243.503 286.913 246.054 289.065C248.708 291.04 250.969 295.506 252.837 302.463C254.706 309.421 255.004 314.486 253.732 317.66Z" fill="url(#paint1_linear_2948_29910)"/>
<path fill-rule="evenodd" clip-rule="evenodd" d="M369.298 228.043C397.161 331.812 334.078 438.84 228.398 467.098C122.718 495.355 14.5062 434.312 -13.4029 330.372C-21.6212 299.765 -21.8899 254.054 -6.72686 213.653C4.60887 183.45 25.6885 161.149 35.0277 151.269C37.6307 148.515 39.3216 146.727 39.6354 146C40.389 148.807 41.0781 152.021 41.811 155.438C46.1635 175.737 52.0558 203.216 82.1371 195.173C99.7101 190.474 107.185 169.688 104.181 154.774C104.08 154.273 103.962 153.706 103.83 153.078C100.047 134.989 85.4255 65.0802 164.74 4C177.003 28.5542 200.59 71.3725 295.7 132.788C331.614 155.979 356.894 181.849 369.298 228.043ZM192.972 203.259L130.705 376.507L166.59 366.911L228.858 193.663L192.972 203.259ZM105.592 306.712C112.359 308.184 119.494 307.916 126.997 305.91C134.5 303.904 140.813 300.576 145.936 295.924C151.023 291.134 154.442 285.224 156.196 278.193C158.091 271.124 157.88 263.275 155.564 254.648C153.247 246.021 149.516 239.189 144.37 234.151C139.329 228.937 133.406 225.525 126.601 223.914C119.796 222.303 112.642 222.501 105.139 224.507C97.6366 226.513 91.3421 229.911 86.2559 234.702C81.1697 239.492 77.6791 245.422 75.784 252.49C73.9932 259.382 74.2561 267.142 76.5726 275.769C78.8891 284.397 82.5682 291.317 87.6096 296.532C92.7926 301.708 98.7866 305.102 105.592 306.712ZM233.018 346.465C239.785 347.936 246.921 347.669 254.423 345.663C261.926 343.657 268.239 340.328 273.363 335.677C278.449 330.887 281.869 324.976 283.622 317.945C285.517 310.876 285.306 303.028 282.99 294.401C280.673 285.773 276.942 278.941 271.797 273.904C266.755 268.69 260.832 265.277 254.027 263.667C247.222 262.056 240.068 262.254 232.566 264.26C225.063 266.266 218.768 269.664 213.682 274.454C208.596 279.245 205.105 285.174 203.21 292.243C201.419 299.135 201.682 306.895 203.999 315.522C206.315 324.149 209.994 331.07 215.036 336.284C220.219 341.461 226.213 344.854 233.018 346.465Z" fill="url(#paint2_linear_2948_29910)"/>
<path fill-rule="evenodd" clip-rule="evenodd" d="M662.153 189.805C648.414 240.972 595.599 271.307 544.187 257.56C492.775 243.813 462.213 191.274 475.974 140.023C480.027 124.931 491.131 105.325 507.428 91.7604C519.611 81.6197 533.955 77.2383 540.31 75.2972C542.082 74.7562 543.232 74.4047 543.543 74.171C543.171 75.5548 542.672 77.0971 542.142 78.7371C538.992 88.4777 534.729 101.664 549.363 105.577C557.912 107.863 566.159 100.805 568.555 93.695C568.635 93.4562 568.724 93.1852 568.823 92.8843C571.67 84.2272 582.673 50.7704 631.043 44.0435C630.178 57.5363 629.598 81.6042 654.554 131.1C663.978 149.79 668.269 167.027 662.153 189.805ZM594.03 136.121L525.307 194.962L542.765 199.63L611.488 140.789L594.03 136.121ZM531.866 158.99C534.353 161.273 537.422 162.902 541.072 163.878C544.722 164.854 548.196 164.974 551.493 164.238C554.81 163.433 557.699 161.742 560.163 159.165C562.695 156.607 564.532 153.2 565.675 148.946C566.817 144.692 566.923 140.86 565.994 137.449C565.152 133.988 563.496 131.082 561.027 128.73C558.559 126.379 555.499 124.715 551.849 123.739C548.2 122.763 544.716 122.678 541.4 123.482C538.084 124.287 535.16 125.969 532.628 128.527C530.182 131.036 528.389 134.417 527.247 138.671C526.104 142.925 525.954 146.783 526.796 150.244C527.708 153.723 529.397 156.638 531.866 158.99ZM547.653 151.739C546.426 152.734 545.227 153.076 544.056 152.763C542.954 152.468 542.087 151.574 541.455 150.082C540.841 148.52 540.994 146.024 541.915 142.593C542.837 139.163 543.945 136.959 545.241 135.981C546.555 134.936 547.763 134.56 548.865 134.855C550.036 135.168 550.894 136.096 551.439 137.639C552.071 139.132 551.927 141.593 551.006 145.024C550.085 148.455 548.967 150.693 547.653 151.739ZM575.74 207.123C578.227 209.406 581.296 211.036 584.946 212.012C588.596 212.988 592.07 213.108 595.367 212.371C598.683 211.567 601.573 209.876 604.037 207.299C606.569 204.74 608.406 201.334 609.549 197.08C610.691 192.826 610.797 188.993 609.868 185.583C609.026 182.122 607.37 179.215 604.901 176.864C602.433 174.512 599.373 172.849 595.723 171.873C592.073 170.897 588.59 170.811 585.274 171.616C581.958 172.421 579.034 174.102 576.501 176.661C574.056 179.169 572.263 182.551 571.12 186.805C569.978 191.059 569.828 194.916 570.67 198.377C571.581 201.856 573.271 204.772 575.74 207.123ZM591.527 199.872C590.3 200.868 589.101 201.209 587.93 200.896C586.828 200.602 585.961 199.708 585.329 198.215C584.715 196.654 584.868 194.158 585.789 190.727C586.71 187.296 587.819 185.092 589.115 184.115C590.429 183.069 591.637 182.694 592.739 182.988C593.91 183.301 594.768 184.229 595.313 185.772C595.945 187.265 595.801 189.727 594.88 193.158C593.959 196.588 592.841 198.826 591.527 199.872Z" fill="url(#paint3_linear_2948_29910)"/>
</g>
<defs>
<linearGradient id="paint0_linear_2948_29910" x1="559.428" y1="601.156" x2="463.199" y2="-21.3416" gradientUnits="userSpaceOnUse">
<stop stop-color="#FF197A"/>
<stop offset="0.407587" stop-color="#FF6C45"/>
<stop offset="1" stop-color="#FFB119"/>
</linearGradient>
<linearGradient id="paint1_linear_2948_29910" x1="559.428" y1="601.156" x2="463.199" y2="-21.3416" gradientUnits="userSpaceOnUse">
<stop stop-color="#FF197A"/>
<stop offset="0.407587" stop-color="#FF6C45"/>
<stop offset="1" stop-color="#FFB119"/>
</linearGradient>
<linearGradient id="paint2_linear_2948_29910" x1="559.428" y1="601.156" x2="463.199" y2="-21.3416" gradientUnits="userSpaceOnUse">
<stop stop-color="#FF197A"/>
<stop offset="0.407587" stop-color="#FF6C45"/>
<stop offset="1" stop-color="#FFB119"/>
</linearGradient>
<linearGradient id="paint3_linear_2948_29910" x1="547.819" y1="336.067" x2="626.349" y2="42.7867" gradientUnits="userSpaceOnUse">
<stop stop-color="#FF197A"/>
<stop offset="0.407587" stop-color="#FF6C45"/>
<stop offset="1" stop-color="#FFB119"/>
</linearGradient>
<clipPath id="clip0_2948_29910">
<rect width="665" height="313" fill="white"/>
</clipPath>
</defs>
</svg>
