<svg width="660" height="460" viewBox="0 0 660 460" fill="none" xmlns="http://www.w3.org/2000/svg">
<g clip-path="url(#clip0_1615_20517)">
<path d="M26.5178 223.575H65.3521L148.292 302.003L100.367 223.575H137.939L174.396 302.003L171.039 223.575H221.973L228.475 273.031L202.414 309.166L264.806 362.209H238.061L182.034 315.996L213.23 362.209H192.861L159.119 315.996L164.842 362.209H142.205L135.594 312.267L0.5 223.575H26.5178Z" fill="#0A0A0A"/>
<path d="M339.288 362.209H276.875L230.17 223.575H387.187L366.986 265.343L276.896 264.583L297.03 295.851L356.298 295.2L355.025 320.584L300.272 321.235L294.73 343.661H336.742L339.288 362.209Z" fill="#0A0A0A"/>
<path d="M351.002 343.661C351.002 343.661 365.391 345.613 368.569 339.428C371.757 333.243 395.135 223.575 395.135 223.575H574.736L431.014 362.209H400.428L473.475 246.111L432.084 256.484L388.949 347.893L374.945 360.257C374.945 360.257 361.968 362.373 353.688 362.209L351.002 343.661Z" fill="#0A0A0A"/>
<path d="M588.964 223.575L439.176 362.215H476.812L478.641 346.586H513.656L507.922 362.215H527.532L659.347 223.575H588.953H588.964ZM495.202 327.709L534.186 283.115L523.221 327.709H495.202Z" fill="#0A0A0A"/>
<path d="M248.246 425.992L146.955 369.045H219.307L253.434 396.381H298.934L279.345 369.045H336.741L342.475 425.992H319.56L303.994 406.793H260.185L283.143 425.992H248.246Z" fill="#0A0A0A"/>
<path d="M349.933 369.045H381.728L393.101 397.519L448.998 369.045H538.457L432.598 425.992H409.051L435.123 392.28L367.938 425.992H355.208L349.933 369.045Z" fill="#0A0A0A"/>
<path d="M313.419 450.726C313.419 450.726 275.708 450.113 271.888 441.331C268.647 433.867 284.181 429.372 284.181 429.372H401.946L364.502 460H330.151L341.148 451.016L335.692 451.043L316.756 460H285.657L313.408 450.726H313.419ZM313.793 435.294C313.793 435.294 302.282 437.788 302.528 441.205C302.774 444.623 317.73 446.231 326.321 446.209L346.979 446.231L362.149 435.294H313.793Z" fill="#0A0A0A"/>
<path d="M264.269 21.757L289.006 0.00543971H311.99L307.212 21.757H295.281L304.849 3.46642L295.121 5.55286L284.035 21.757H264.269Z" fill="#0A0A0A"/>
<path d="M341.567 0.00547622H320.112L311.987 21.7571H333.849L326.857 13.6468L346.346 12.9568C358.746 4.89027 341.578 0 341.578 0L341.567 0.00547622ZM337.27 9.96673H325.468L329.626 3.97574H337.494L340.712 5.75004C342.861 9.0522 337.248 9.96673 337.248 9.96673H337.27Z" fill="#0A0A0A"/>
<path d="M353.424 22.5511L355.284 0.00543971H362.682L365.055 15.2567L373.65 0.00543971H379.027L400.375 22.5511H384.682L375.564 8.1924L369 22.5511H353.424Z" fill="#0A0A0A"/>
<path d="M294.009 58.7434L288.129 72.2697C288.129 72.2697 311.808 75.3638 319.612 60.2111L325.181 32.1837H338.544V72.2697H365.58L349.673 25.3385H315.956L307.051 53.6889C307.051 53.6889 303.865 59.7182 294.009 58.738V58.7434Z" fill="#0A0A0A"/>
<path d="M362.083 25.3385L373.222 71.4538H389.118L400.375 40.4967L415.523 71.4538H484.549L402.481 25.3385H393.576L381.485 47.5008L373.222 25.3385H362.083Z" fill="#0A0A0A"/>
<path d="M64.513 218.436H26.9798H0.5L148.814 123.27L157.216 75.6924H193.103L170.91 117.082L207.813 75.6924H222.437L193.178 118.385L244.704 75.6924H279.533L194.279 147.064L221.017 218.436H172.666L179.184 131.747L138.318 218.436H102.057L156.917 132.07L64.513 218.436Z" fill="#0A0A0A"/>
<path d="M290.898 75.6924L214.816 149.353L227.389 218.436H271.636L270.041 176.723L300.604 165.524L332.356 218.436H387.389L312 75.6924H290.898ZM275.707 144.457L298.498 115.324L303.875 144.457H275.707Z" fill="#0A0A0A"/>
<path d="M398.022 75.6924H326.858L394.924 218.436H499.025L447.646 171.505H411.193L377.829 138.592H426.041L410.754 112.843H374.493L370.677 97.5426L404.394 93.2875L398.022 75.6924Z" fill="#0A0A0A"/>
<path d="M505.387 218.436H563.114L459.128 114.475L549.437 192.703H564.392L508.089 114.475L627.533 218.436H659.347L489.638 75.6924H462.667L503.856 129.891L437.406 75.6924H407.249L505.387 218.436Z" fill="#0A0A0A"/>
<path d="M292.427 32.1837L296.244 25.3385H259.341L161.451 72.2697H238.036C252.67 72.2697 280.027 71.4538 288.13 57.4401C296.244 43.4264 285.104 39.6807 285.104 39.6807L266.332 39.3521L271.1 32.0195L292.417 32.1837H292.427ZM276.467 47.1777C280.23 55.8137 266.343 58.4203 266.343 58.4203H228.842L244.428 46.1974C252.863 45.3815 276.456 47.1777 276.456 47.1777H276.467Z" fill="#0A0A0A"/>
</g>
<defs>
<clipPath id="clip0_1615_20517">
<rect width="659" height="460" fill="white" transform="translate(0.5)"/>
</clipPath>
</defs>
</svg>
