<?xml version="1.0" standalone="no"?>
<!DOCTYPE svg PUBLIC "-//W3C//DTD SVG 1.1//EN" "http://www.w3.org/Graphics/SVG/1.1/DTD/svg11.dtd" >
<svg xmlns="http://www.w3.org/2000/svg" xmlns:xlink="http://www.w3.org/1999/xlink" version="1.1">
<metadata>
Created by FontForge 20200314 at Thu Feb  1 03:20:26 2024
 By Unknown
Copyright 2023 The NT Somic project
</metadata>
<defs>
<font id="NTSomic-Bold" horiz-adv-x="550" >
  <font-face 
    font-family="NT Somic Bold"
    font-weight="700"
    font-stretch="normal"
    units-per-em="1000"
    panose-1="0 0 0 0 0 0 0 0 0 0"
    ascent="800"
    descent="-200"
    x-height="500"
    cap-height="700"
    bbox="-115 -239 1167 1022"
    underline-thickness="50"
    underline-position="-125"
    unicode-range="U+000A-2212"
  />
<missing-glyph horiz-adv-x="938" 
d="M311 187q-10 -17 -17.5 -35t-7.5 -40q0 -26 11.5 -49t33.5 -40t53 -27t71 -10q45 0 82 14t64 38.5t41.5 59t14.5 76.5h-125q0 -25 -17 -42t-44 -17q-25 0 -39 14t-14 34q0 23 17 35.5t38 12.5h184v116h-201l-24 -86h-9v145h-128v-166h117v-9zM545 546q0 -12 -13.5 -18.5
t-29 -14.5t-29 -21t-13.5 -39q0 -45 43.5 -67t119.5 -22h34v111h-25q-20 0 -32.5 10t-12.5 25t12 25.5t26.5 22t26.5 25.5t12 36q0 15 -7 30.5t-22 28t-38.5 20.5t-57.5 8q-25 0 -46 -5t-41 -17l-29 -104h-8v117h-120v-274h128v58q0 49 21.5 75.5t53.5 26.5q25 0 36 -13
t11 -24zM106 624q0 128 66 192t187 64h220q121 0 187 -64t66 -192v-548q0 -128 -66 -192t-187 -64h-220q-121 0 -187 64t-66 192v548z" />
    <glyph glyph-name="uni04570457" unicode="&#x457;&#x457;" horiz-adv-x="492" 
d="M60 500h130v-500h-130v500zM302 500h130v-500h-130v500zM-39 581q31 0 53.5 22t22.5 54t-22.5 54t-53.5 22t-53.5 -22t-22.5 -54t22.5 -54t53.5 -22zM151 581q31 0 53.5 22t22.5 54t-22.5 54t-53.5 22t-53.5 -22t-22.5 -54t22.5 -54t53.5 -22zM341 581q31 0 53.5 22
t22.5 54t-22.5 54t-53.5 22t-53.5 -22t-22.5 -54t22.5 -54t53.5 -22zM531 581q31 0 53.5 22t22.5 54t-22.5 54t-53.5 22t-53.5 -22t-22.5 -54t22.5 -54t53.5 -22z" />
    <glyph glyph-name="uni04070407" unicode="&#x407;&#x407;" horiz-adv-x="596" 
d="M78 700h142v-700h-142v700zM376 700h142v-700h-142v700zM-8 777q-32 0 -55 22t-23 56t23 56t55 22t55 -22t23 -56t-23 -56t-55 -22zM196 777q-32 0 -55 22t-23 56t23 56t55 22t55 -22t23 -56t-23 -56t-55 -22zM400 777q-32 0 -55 22t-23 56t23 56t55 22t55 -22t23 -56
t-23 -56t-55 -22zM604 777q-32 0 -55 22t-23 56t23 56t55 22t55 -22t23 -56t-23 -56t-55 -22z" />
    <glyph glyph-name="uni04560457" unicode="&#x456;&#x457;" horiz-adv-x="508" 
d="M60 500h128v-500h-128v500zM308 500h128v-500h-128v500zM46 660q0 31 21.5 52.5t52.5 21.5t52.5 -21.5t21.5 -52.5t-21.5 -52.5t-52.5 -21.5t-52.5 21.5t-21.5 52.5zM228 660q0 31 21.5 52.5t52.5 21.5t52.5 -21.5t21.5 -52.5t-21.5 -52.5t-52.5 -21.5t-52.5 21.5
t-21.5 52.5zM410 660q0 31 21.5 52.5t52.5 21.5t52.5 -21.5t21.5 -52.5t-21.5 -52.5t-52.5 -21.5t-52.5 21.5t-21.5 52.5z" />
    <glyph glyph-name=".notdef" horiz-adv-x="938" 
d="M311 187q-10 -17 -17.5 -35t-7.5 -40q0 -26 11.5 -49t33.5 -40t53 -27t71 -10q45 0 82 14t64 38.5t41.5 59t14.5 76.5h-125q0 -25 -17 -42t-44 -17q-25 0 -39 14t-14 34q0 23 17 35.5t38 12.5h184v116h-201l-24 -86h-9v145h-128v-166h117v-9zM545 546q0 -12 -13.5 -18.5
t-29 -14.5t-29 -21t-13.5 -39q0 -45 43.5 -67t119.5 -22h34v111h-25q-20 0 -32.5 10t-12.5 25t12 25.5t26.5 22t26.5 25.5t12 36q0 15 -7 30.5t-22 28t-38.5 20.5t-57.5 8q-25 0 -46 -5t-41 -17l-29 -104h-8v117h-120v-274h128v58q0 49 21.5 75.5t53.5 26.5q25 0 36 -13
t11 -24zM106 624q0 128 66 192t187 64h220q121 0 187 -64t66 -192v-548q0 -128 -66 -192t-187 -64h-220q-121 0 -187 64t-66 192v548z" />
    <glyph glyph-name=".null" horiz-adv-x="0" 
 />
    <glyph glyph-name=".null" horiz-adv-x="0" 
 />
    <glyph glyph-name="uni000D" unicode="&#xd;" horiz-adv-x="0" 
 />
    <glyph glyph-name="space" unicode=" " horiz-adv-x="260" 
 />
    <glyph glyph-name="n" unicode="n" horiz-adv-x="576" 
d="M390 0v282q0 54 -23 83t-70 29q-48 0 -77.5 -31t-29.5 -90v-273h-130v500h130v-60q52 74 143 74q42 0 76 -14t59 -40t38.5 -61.5t13.5 -79.5v-319h-130z" />
    <glyph glyph-name="o" unicode="o" horiz-adv-x="604" 
d="M302 -14q-58 0 -107 20t-84.5 55t-55 83.5t-19.5 105.5t19.5 105.5t55 83.5t84.5 55t107 20q59 0 107.5 -20t84 -55t55 -83.5t19.5 -105.5t-19.5 -105.5t-55 -83.5t-84 -55t-107.5 -20zM302 106q29 0 53.5 10.5t42.5 30t28 46t10 57.5q0 32 -10 58t-28 45.5t-42.5 30
t-53.5 10.5t-53.5 -10.5t-42.5 -30t-28 -45.5t-10 -58q0 -31 10 -57.5t28 -46t42.5 -30t53.5 -10.5z" />
    <glyph glyph-name="t" unicode="t" horiz-adv-x="386" 
d="M227 216q0 -54 23 -77t75 -23h33v-122h-51q-109 0 -159.5 51.5t-50.5 160.5v178h-83v116h83v140h130v-140h127v-116h-127v-168z" />
    <glyph glyph-name="N" unicode="N" horiz-adv-x="746" 
d="M78 0v700h150l304 -477v477h136v-700h-150l-304 477v-477h-136z" />
    <glyph glyph-name="H" unicode="H" horiz-adv-x="740" 
d="M78 700h144v-263h296v263h144v-700h-144v305h-296v-305h-144v700z" />
    <glyph glyph-name="O" unicode="O" horiz-adv-x="828" 
d="M415 -16q-81 0 -148 27.5t-116 76.5t-76 116t-27 146t27 146t76 116t116 76.5t148 27.5q80 0 147 -27.5t115.5 -76.5t75.5 -116t27 -146t-27 -146t-75.5 -116t-115.5 -76.5t-147 -27.5zM417 118q48 0 87.5 17.5t68.5 49t45 74t16 93.5q0 49 -16 91t-45 73t-68.5 48.5
t-87.5 17.5q-50 0 -91 -17.5t-70.5 -48.5t-45.5 -73t-16 -91q0 -51 16 -93.5t45.5 -74t70.5 -49t91 -17.5z" />
    <glyph glyph-name="h" unicode="h" horiz-adv-x="576" 
d="M390 0v282q0 54 -23 83t-70 29q-48 0 -77.5 -31t-29.5 -90v-273h-130v722h130v-282q52 74 143 74q42 0 76 -14t59 -40t38.5 -61.5t13.5 -79.5v-319h-130z" />
    <glyph glyph-name="u" unicode="u" horiz-adv-x="576" 
d="M186.023 500v-281.982q0 -53.9971 22.999 -82.9951t69.9961 -28.998q47.9971 0 77.4951 30.998t29.498 89.9941v272.983h129.992v-499.97h-129.992v59.9971q-51.9971 -73.9961 -142.991 -73.9961q-41.998 0 -75.9951 13.999q-33.998 13.999 -58.9971 39.998
q-24.998 25.998 -38.4971 61.4961q-13.5 35.498 -13.5 79.4951v318.98h129.992z" />
    <glyph glyph-name="d" unicode="d" horiz-adv-x="622" 
d="M299.02 106q-27.998 0 -51.9971 10.5q-23.998 10.5 -41.4971 30t-27.498 46q-10 26.5 -10 57.5q0 32 10 58q9.99902 26 27.498 45.5t41.4971 30q23.999 10.5 51.9971 10.5q28.998 0 53.4971 -10.5q24.498 -10.5 41.9971 -30t27.498 -45.5q10 -26 10 -58q0 -31 -10 -57.5
q-9.99902 -26.5 -27.498 -46t-41.9971 -30q-24.499 -10.5 -53.4971 -10.5zM268.021 -14q51.9971 0 93.4941 21q41.498 21 70.4961 60v-67h129.992v722h-129.992v-289q-28.998 39 -69.9961 60q-40.9971 21 -92.9941 21q-49.9971 0 -92.4941 -19.5q-42.498 -19.5 -73.9961 -54
t-48.9961 -83q-17.499 -48.5 -17.499 -107.5q0 -58 17.499 -107q17.498 -49 48.4961 -83.5q30.999 -34.5 73.4961 -54t92.4941 -19.5z" />
    <glyph glyph-name="b" unicode="b" horiz-adv-x="622" 
d="M323 106q28 0 52 10.5t41.5 30t27.5 46t10 57.5q0 32 -10 58t-27.5 45.5t-41.5 30t-52 10.5q-29 0 -53.5 -10.5t-42 -30t-27.5 -45.5t-10 -58q0 -31 10 -57.5t27.5 -46t42 -30t53.5 -10.5zM354 -14q-52 0 -93.5 21t-70.5 60v-67h-130v722h130v-289q29 39 70 60t93 21
q50 0 92.5 -19.5t74 -54t49 -83t17.5 -107.5q0 -58 -17.5 -107t-48.5 -83.5t-73.5 -54t-92.5 -19.5z" />
    <glyph glyph-name="p" unicode="p" horiz-adv-x="622" 
d="M323 106q28 0 52 10.5t41.5 30t27.5 46t10 57.5q0 32 -10 58t-27.5 45.5t-41.5 30t-52 10.5q-29 0 -53.5 -10.5t-42 -30t-27.5 -45.5t-10 -58q0 -31 10 -57.5t27.5 -46t42 -30t53.5 -10.5zM354 -14q-52 0 -93.5 21t-70.5 60v-267h-130v700h130v-67q29 39 70 60t93 21
q50 0 92.5 -19.5t74 -54t49 -83t17.5 -107.5q0 -58 -17.5 -107t-48.5 -83.5t-73.5 -54t-92.5 -19.5z" />
    <glyph glyph-name="q" unicode="q" horiz-adv-x="622" 
d="M299.02 106q-27.998 0 -51.9971 10.5q-23.998 10.5 -41.4971 30t-27.498 46q-10 26.5 -10 57.5q0 32 10 58q9.99902 26 27.498 45.5t41.4971 30q23.999 10.5 51.9971 10.5q28.998 0 53.4971 -10.5q24.498 -10.5 41.9971 -30t27.498 -45.5q10 -26 10 -58q0 -31 -10 -57.5
q-9.99902 -26.5 -27.498 -46t-41.9971 -30q-24.499 -10.5 -53.4971 -10.5zM268.021 -14q51.9971 0 93.4941 21q41.498 21 70.4961 60v-267h129.992v700h-129.992v-67q-28.998 39 -69.9961 60q-40.9971 21 -92.9941 21q-49.9971 0 -92.4941 -19.5q-42.498 -19.5 -73.9961 -54
t-48.9961 -83q-17.499 -48.5 -17.499 -107.5q0 -58 17.499 -107q17.498 -49 48.4961 -83.5q30.999 -34.5 73.4961 -54t92.4941 -19.5z" />
    <glyph glyph-name="c" unicode="c" horiz-adv-x="566" 
d="M36 250q0 58 20 106.5t55 83.5t84.5 54.5t107.5 19.5q82 0 143 -38t90 -107l-112 -57q-17 40 -48 61t-73 21q-30 0 -55 -10.5t-42.5 -30t-27.5 -45.5t-10 -58q0 -31 10 -57.5t27.5 -46t42 -30t54.5 -10.5q42 0 74 21.5t48 63.5l113 -54q-28 -72 -89.5 -111.5
t-145.5 -39.5q-58 0 -107 19.5t-84 54.5t-55 83.5t-20 106.5z" />
    <glyph glyph-name="e" unicode="e" horiz-adv-x="578" 
d="M167 306h249q-8 46 -39.5 73t-80.5 27q-48 0 -82 -26.5t-47 -73.5zM304 -14q-59 0 -108.5 19.5t-85 54.5t-55 84t-19.5 107q0 59 20 107.5t55 83t83 53.5t105 19q56 0 101.5 -18t77.5 -51t50 -78.5t18 -100.5q0 -11 -1 -24t-3 -28h-378q10 -54 47 -85t94 -31
q42 0 74.5 17.5t52.5 52.5l91 -72q-38 -54 -93.5 -82t-125.5 -28z" />
    <glyph glyph-name="a" unicode="a" horiz-adv-x="546" 
d="M366 221l-100 -4q-53 -2 -80.5 -18t-27.5 -48q0 -28 21.5 -44t59.5 -16q57 0 92 35t35 93v2zM32 140q0 76 59 119.5t168 47.5l107 4v5q0 42 -27.5 67.5t-75.5 25.5q-39 0 -68 -18t-46 -54l-102 50q29 63 85.5 95t134.5 32q105 0 164 -55t59 -151v-308h-124v62
q-55 -76 -159 -76q-40 0 -72 11t-55 31.5t-35.5 49t-12.5 62.5z" />
    <glyph glyph-name="g" unicode="g" horiz-adv-x="546" 
d="M167 339q0 -32 25.5 -53t70.5 -21t70 21t25 53t-25 53t-70 21t-70.5 -21t-25.5 -53zM138 -55q0 -26 32.5 -40t90.5 -14q63 0 102 16t39 43q0 25 -33.5 37.5t-95.5 12.5q-65 0 -100 -14t-35 -41zM449 433q29 -41 29 -94q0 -38 -15.5 -70t-43.5 -55.5t-68 -36.5t-88 -13
q-40 0 -76 9q-18 -11 -18 -30t24 -28t84 -10q125 -1 191 -39.5t66 -111.5q0 -39 -19 -70.5t-55 -53t-87 -33t-115 -11.5q-116 0 -178 36.5t-62 105.5q0 43 24 73t69 44q-44 34 -44 81q0 24 11 43.5t32 40.5q-29 21 -46 53t-17 76q0 38 15.5 70.5t43.5 55.5t68 36t89 13
q70 0 120 -26l76 81l66 -64z" />
    <glyph glyph-name="l" unicode="l" horiz-adv-x="250" 
d="M60 0v722h130v-722h-130z" />
    <glyph glyph-name="i" unicode="i" horiz-adv-x="250" 
d="M60 500h130v-500h-130v500zM126 573h-2q-33 0 -56 22.5t-23 57.5t23 57.5t56 22.5h2q33 0 56 -22.5t23 -57.5t-23 -57.5t-56 -22.5z" />
    <glyph glyph-name="f" unicode="f" horiz-adv-x="376" 
d="M223 500h125v-116h-125v-384h-130v384h-79v116h79v16q0 212 207 212h44v-118h-34q-48 0 -67.5 -22.5t-19.5 -74.5v-13z" />
    <glyph glyph-name="s" unicode="s" horiz-adv-x="503" 
d="M261 -14q-81 0 -141 33.5t-94 99.5l96 59q20 -40 56 -61t84 -21q39 0 63 13t24 35q0 21 -22 32t-55 19t-71.5 17t-71.5 25.5t-55 44t-22 73.5q0 72 54.5 115.5t148.5 43.5q148 0 212 -115l-96 -61q-17 32 -46 50t-71 18q-36 0 -58 -12.5t-22 -31.5t22 -29t55.5 -18
t72 -17t72 -26t55.5 -45.5t22 -75.5q0 -37 -15 -67.5t-43 -52t-67 -33.5t-87 -12z" />
    <glyph glyph-name="r" unicode="r" horiz-adv-x="378" 
d="M358 506v-118h-29q-32 0 -57.5 -7t-43.5 -23.5t-28 -44t-10 -68.5v-245h-130v500h130v-75q41 81 136 81h32z" />
    <glyph glyph-name="j" unicode="j" horiz-adv-x="248" 
d="M59 500h130v-498q0 -102 -50.5 -155t-146.5 -53h-36v122h20q48 0 65.5 25.5t17.5 76.5v482zM124 573q-33 0 -56 22.5t-23 57.5t23 57.5t56 22.5h2q33 0 56 -22.5t23 -57.5t-23 -57.5t-56 -22.5h-2z" />
    <glyph glyph-name="m" unicode="m" horiz-adv-x="858" 
d="M366 0v286q0 53 -20.5 80.5t-60.5 27.5q-44 0 -69.5 -31.5t-25.5 -85.5v-277h-130v500h130v-56q24 36 58.5 53t75.5 17q48 0 84.5 -21t58.5 -58q55 79 152 79q41 0 74.5 -14t57.5 -39t37.5 -60t13.5 -78v-323h-130v286q0 53 -20.5 80.5t-60.5 27.5q-44 0 -69.5 -31.5
t-25.5 -85.5v-277h-130z" />
    <glyph glyph-name="k" unicode="k" 
d="M369 500h157l-191 -198l199 -302h-140l-141 217l-63 -65v-152h-130v722h130v-414z" />
    <glyph glyph-name="v" unicode="v" 
d="M208 0l-192 500h141l119 -338l119 338h139l-192 -500h-134z" />
    <glyph glyph-name="y" unicode="y" 
d="M130 -200l82 211l-196 489h139l123 -331l118 331h138l-273 -700h-131z" />
    <glyph glyph-name="z" unicode="z" horiz-adv-x="491" 
d="M40 122l254 260h-242v118h397v-121l-254 -261h256v-118h-411v122z" />
    <glyph glyph-name="w" unicode="w" horiz-adv-x="818" 
d="M178 0l-156 500h134l95 -327l102 327h116l102 -327l95 327h130l-156 -500h-125l-106 333l-106 -333h-125z" />
    <glyph glyph-name="x" unicode="x" horiz-adv-x="540" 
d="M347 256l177 -256h-149l-106 166l-106 -166h-147l177 256l-167 244h145l100 -157l100 157h143z" />
    <glyph glyph-name="uni0430" unicode="&#x430;" horiz-adv-x="546" 
d="M366 221l-100 -4q-53 -2 -80.5 -18t-27.5 -48q0 -28 21.5 -44t59.5 -16q57 0 92 35t35 93v2zM32 140q0 76 59 119.5t168 47.5l107 4v5q0 42 -27.5 67.5t-75.5 25.5q-39 0 -68 -18t-46 -54l-102 50q29 63 85.5 95t134.5 32q105 0 164 -55t59 -151v-308h-124v62
q-55 -76 -159 -76q-40 0 -72 11t-55 31.5t-35.5 49t-12.5 62.5z" />
    <glyph glyph-name="uni0435" unicode="&#x435;" horiz-adv-x="583" 
d="M167 306h249q-8 46 -39.5 73t-80.5 27q-48 0 -82 -26.5t-47 -73.5zM304 -14q-59 0 -108.5 19.5t-85 54.5t-55 84t-19.5 107q0 59 20 107.5t55 83t83 53.5t105 19q56 0 101.5 -18t77.5 -51t50 -78.5t18 -100.5q0 -11 -1 -24t-3 -28h-378q10 -54 47 -85t94 -31
q42 0 74.5 17.5t52.5 52.5l91 -72q-38 -54 -93.5 -82t-125.5 -28z" />
    <glyph glyph-name="uni043E" unicode="&#x43e;" horiz-adv-x="604" 
d="M302 -14q-58 0 -107 20t-84.5 55t-55 83.5t-19.5 105.5t19.5 105.5t55 83.5t84.5 55t107 20q59 0 107.5 -20t84 -55t55 -83.5t19.5 -105.5t-19.5 -105.5t-55 -83.5t-84 -55t-107.5 -20zM302 106q29 0 53.5 10.5t42.5 30t28 46t10 57.5q0 32 -10 58t-28 45.5t-42.5 30
t-53.5 10.5t-53.5 -10.5t-42.5 -30t-28 -45.5t-10 -58q0 -31 10 -57.5t28 -46t42.5 -30t53.5 -10.5z" />
    <glyph glyph-name="uni0440" unicode="&#x440;" horiz-adv-x="626" 
d="M323 106q28 0 52 10.5t41.5 30t27.5 46t10 57.5q0 32 -10 58t-27.5 45.5t-41.5 30t-52 10.5q-29 0 -53.5 -10.5t-42 -30t-27.5 -45.5t-10 -58q0 -31 10 -57.5t27.5 -46t42 -30t53.5 -10.5zM354 -14q-52 0 -93.5 21t-70.5 60v-267h-130v700h130v-67q29 39 70 60t93 21
q50 0 92.5 -19.5t74 -54t49 -83t17.5 -107.5q0 -58 -17.5 -107t-48.5 -83.5t-73.5 -54t-92.5 -19.5z" />
    <glyph glyph-name="uni0441" unicode="&#x441;" horiz-adv-x="566" 
d="M36 250q0 58 20 106.5t55 83.5t84.5 54.5t107.5 19.5q82 0 143 -38t90 -107l-112 -57q-17 40 -48 61t-73 21q-30 0 -55 -10.5t-42.5 -30t-27.5 -45.5t-10 -58q0 -31 10 -57.5t27.5 -46t42 -30t54.5 -10.5q42 0 74 21.5t48 63.5l113 -54q-28 -72 -89.5 -111.5
t-145.5 -39.5q-58 0 -107 19.5t-84 54.5t-55 83.5t-20 106.5z" />
    <glyph glyph-name="uni0443" unicode="&#x443;" 
d="M130 -200l82 211l-196 489h139l123 -331l118 331h138l-273 -700h-131z" />
    <glyph glyph-name="uni043F" unicode="&#x43f;" horiz-adv-x="576" 
d="M60 500h456v-500h-130v382h-196v-382h-130v500z" />
    <glyph glyph-name="uni0445" unicode="&#x445;" horiz-adv-x="540" 
d="M347 256l177 -256h-149l-106 166l-106 -166h-147l177 256l-167 244h145l100 -157l100 157h143z" />
    <glyph glyph-name="uni0438" unicode="&#x438;" horiz-adv-x="580" 
d="M190 500v-312l201 312h129v-500h-130v312l-201 -312h-129v500h130z" />
    <glyph glyph-name="uni043D" unicode="&#x43d;" horiz-adv-x="576" 
d="M516 500v-500h-130v205h-196v-205h-130v500h130v-177h196v177h130z" />
    <glyph glyph-name="uni0446" unicode="&#x446;" horiz-adv-x="612" 
d="M60 0v500h130v-382h192v382h130v-382h74v-242h-128v124h-398z" />
    <glyph glyph-name="uni043B" unicode="&#x43b;" horiz-adv-x="567" 
d="M20 118h6q25 0 41 8.5t25.5 30t13 60t3.5 98.5v185h400v-500h-130v382h-148v-86q0 -79 -8.5 -136t-30.5 -93.5t-60 -53.5t-97 -17h-15v122z" />
    <glyph glyph-name="uni0434" unicode="&#x434;" horiz-adv-x="621" 
d="M391 118v264h-152v-37q0 -47 -2 -81t-5.5 -60t-9.5 -46t-14 -40h183zM26 -124v242h48q9 15 17 34t13 49t8 75t3 112v112h406v-382h74v-242h-128v124h-313v-124h-128z" />
    <glyph glyph-name="uni0444" unicode="&#x444;" horiz-adv-x="726" 
d="M300 722h126v-209q59 -3 108 -23.5t83.5 -55t53.5 -81.5t19 -103t-19 -103t-53.5 -81.5t-83.5 -55t-108 -23.5v-187h-126v187q-59 3 -108 23.5t-83.5 55t-53.5 81.5t-19 103t19 103t53.5 81.5t83.5 55t108 23.5v209zM426 103q60 4 98 44t38 103t-38 103t-98 44v-294z
M300 103v294q-60 -4 -98 -44t-38 -103t38 -103t98 -44z" />
    <glyph glyph-name="uni0447" unicode="&#x447;" horiz-adv-x="551" 
d="M491 0h-130v185q-26 -11 -58 -17.5t-64 -6.5q-90 0 -143.5 49t-53.5 145v145h130v-110q0 -53 22 -80.5t74 -27.5q27 0 50.5 6t42.5 17v195h130v-500z" />
    <glyph glyph-name="uni0448" unicode="&#x448;" horiz-adv-x="774" 
d="M60 0v500h130v-382h132v382h130v-382h132v382h130v-500h-654z" />
    <glyph glyph-name="uni0449" unicode="&#x449;" horiz-adv-x="814" 
d="M60 0v500h130v-383h132v383h130v-383h132v383h130v-383h74v-241h-128v124h-600z" />
    <glyph glyph-name="uni0442" unicode="&#x442;" horiz-adv-x="468" 
d="M450 500v-118h-151v-382h-130v382h-151v118h432z" />
    <glyph glyph-name="uni0433" unicode="&#x433;" horiz-adv-x="414" 
d="M60 500h336v-118h-206v-382h-130v500z" />
    <glyph glyph-name="uni043A" unicode="&#x43a;" horiz-adv-x="548" 
d="M252 202h-62v-202h-130v500h130v-184h65l134 184h138l-177 -238l182 -262h-142z" />
    <glyph glyph-name="uni0436" unicode="&#x436;" horiz-adv-x="798" 
d="M267 313h68v187h128v-187h68l114 187h132l-148 -239l153 -261h-138l-116 205h-65v-205h-128v205h-65l-116 -205h-138l153 261l-148 239h132z" />
    <glyph glyph-name="uni044C" unicode="&#x44c;" horiz-adv-x="509" 
d="M180 108h104q35 0 55 19t20 49t-20 49t-55 19h-104v-136zM300 0h-240v500h120v-148h120q41 0 74.5 -13.5t57 -37t36.5 -55.5t13 -70t-13 -70t-36.5 -55.5t-57 -37t-74.5 -13.5z" />
    <glyph glyph-name="uni0431" unicode="&#x431;" horiz-adv-x="617" 
d="M319 105q29 0 53 10t41 28t27 43t10 56t-10 56t-27 43t-41 27.5t-53 9.5q-58 0 -94.5 -37t-36.5 -99t36.5 -99.5t94.5 -37.5zM318 -14q-62 0 -112 21t-85.5 61.5t-55 100t-19.5 135.5v30q0 93 18.5 161t57.5 114.5t100 72t146 32.5l167 13l6 -127l-167 -11
q-53 -3 -91 -15t-63.5 -33.5t-38.5 -54t-15 -76.5q60 84 175 84q53 0 97.5 -18t76 -51t49 -79t17.5 -102q0 -58 -19 -105.5t-53.5 -81.5t-83 -52.5t-107.5 -18.5z" />
    <glyph glyph-name="period" unicode="." horiz-adv-x="220" 
d="M28 74q0 36 23.5 59t58.5 23t58.5 -23t23.5 -59t-23.5 -59t-58.5 -23t-58.5 23t-23.5 59z" />
    <glyph glyph-name="comma" unicode="," horiz-adv-x="228" 
d="M28 74q0 35 23.5 57.5t58.5 22.5q39 0 64.5 -29.5t25.5 -80.5q0 -53 -29.5 -108t-83.5 -103l-55 53q32 29 51.5 55t30.5 53q-36 0 -61 21t-25 59z" />
    <glyph glyph-name="E" unicode="E" horiz-adv-x="588" 
d="M78 700h462v-132h-318v-139h278v-132h-278v-165h318v-132h-462v700z" />
    <glyph glyph-name="L" unicode="L" horiz-adv-x="576" 
d="M78 700h144v-568h318v-132h-462v700z" />
    <glyph glyph-name="F" unicode="F" horiz-adv-x="578" 
d="M78 700h452v-132h-308v-152h268v-132h-268v-284h-144v700z" />
    <glyph glyph-name="T" unicode="T" horiz-adv-x="620" 
d="M588 700v-132h-206v-568h-144v568h-206v132h556z" />
    <glyph glyph-name="P" unicode="P" horiz-adv-x="639" 
d="M218 360h133q50 0 79.5 30t29.5 76t-29.5 76t-79.5 30h-133v-212zM78 0v700h282q54 0 98.5 -16.5t77 -47.5t50 -74t17.5 -96t-17.5 -96.5t-50 -74t-77 -47t-98.5 -16.5h-142v-232h-140z" />
    <glyph glyph-name="D" unicode="D" horiz-adv-x="735" 
d="M78 700h260q76 0 140 -26.5t110.5 -73.5t72.5 -111t26 -139t-26 -139t-72.5 -111t-110.5 -73.5t-140 -26.5h-260v700zM222 568v-436h99q51 0 91.5 16t69 44.5t44 68.5t15.5 89t-15.5 89t-44 68.5t-69 44.5t-91.5 16h-99z" />
    <glyph glyph-name="C" unicode="C" horiz-adv-x="760" 
d="M413 -16q-81 0 -148 27.5t-115 76.5t-75 116t-27 146t27 146t75 116t115 76.5t148 27.5q112 0 195 -52t123 -146l-125 -65q-24 62 -73.5 95.5t-118.5 33.5q-49 0 -89.5 -17t-69.5 -48t-45 -73.5t-16 -93.5t16 -93.5t45 -73.5t69.5 -48t89.5 -17q69 0 119 34t74 97
l126 -62q-39 -96 -123 -149.5t-197 -53.5z" />
    <glyph glyph-name="G" unicode="G" horiz-adv-x="795" 
d="M753 322q0 -76 -24.5 -138.5t-68.5 -106.5t-106.5 -68.5t-139.5 -24.5q-82 0 -149.5 28t-115.5 77t-74.5 116t-26.5 146q0 78 26.5 145t74.5 116t115.5 76.5t149.5 27.5q106 0 185 -46t123 -133l-117 -69q-28 58 -76 88t-114 30q-50 0 -91.5 -17.5t-71 -48.5t-46 -74.5
t-16.5 -96.5q0 -52 16.5 -95.5t46.5 -74.5t71.5 -48t91.5 -17q78 0 129.5 39.5t63.5 107.5h-255v126h395q2 -20 3 -35.5t1 -29.5z" />
    <glyph glyph-name="S" unicode="S" horiz-adv-x="626" 
d="M319 -16q-107 0 -184 45t-118 132l119 68q56 -116 184 -116q60 0 96.5 23t36.5 60q0 25 -17.5 41.5t-45.5 28t-64 20t-74 19.5t-74 25.5t-64 37t-45.5 55.5t-17.5 81t18.5 87.5t53 67t83 42.5t108.5 15q188 0 275 -156l-117 -68q-48 97 -161 97q-53 0 -84.5 -20.5
t-31.5 -53.5q0 -24 17.5 -39.5t45.5 -26.5t64.5 -19.5t74 -19.5t74 -25.5t64.5 -38t45.5 -57t17.5 -82.5q0 -51 -20 -92.5t-57 -70.5t-88 -44.5t-114 -15.5z" />
    <glyph glyph-name="M" unicode="M" horiz-adv-x="914" 
d="M457 286l197 414h182v-700h-138v488l-194 -402h-94l-194 402v-488h-138v700h182z" />
    <glyph glyph-name="uni043C" unicode="&#x43c;" horiz-adv-x="688" 
d="M345 224l133 276h150v-500h-118v329l-132 -262h-68l-132 262v-329h-118v500h152z" />
    <glyph glyph-name="uni041D" unicode="&#x41d;" horiz-adv-x="740" 
d="M78 700h144v-263h296v263h144v-700h-144v305h-296v-305h-144v700z" />
    <glyph glyph-name="uni0418" unicode="&#x418;" horiz-adv-x="740" 
d="M662 0h-144v467l-292 -467h-148v700h144v-467l292 467h148v-700z" />
    <glyph glyph-name="uni041F" unicode="&#x41f;" horiz-adv-x="740" 
d="M78 700h584v-700h-144v568h-296v-568h-144v700z" />
    <glyph glyph-name="uni0426" unicode="&#x426;" horiz-adv-x="784" 
d="M222 700v-568h290v568h144v-568h94v-278h-144v146h-528v700h144z" />
    <glyph glyph-name="uni041B" unicode="&#x41b;" horiz-adv-x="725" 
d="M18 138h12q32 0 53.5 14t34 49.5t17.5 94.5t5 149v255h507v-700h-144v568h-220v-152q0 -123 -14 -205t-43.5 -130.5t-76 -68.5t-111.5 -20h-20v146z" />
    <glyph glyph-name="uni0414" unicode="&#x414;" horiz-adv-x="792" 
d="M518 132v437h-224v-90q0 -118 -11.5 -209t-33.5 -138h269zM34 -146v278h62q15 23 25.5 61t17 86.5t9.5 104.5t3 116v201h513v-569h94v-278h-144v146h-436v-146h-144z" />
    <glyph glyph-name="uni041C" unicode="&#x41c;" horiz-adv-x="914" 
d="M457 286l197 414h182v-700h-138v488l-194 -402h-94l-194 402v-488h-138v700h182z" />
    <glyph glyph-name="W" unicode="W" horiz-adv-x="1022" 
d="M213 0l-195 700h157l124 -484l131 484h162l132 -484l123 484h157l-195 -700h-157l-141 516l-141 -516h-157z" />
    <glyph glyph-name="V" unicode="V" horiz-adv-x="690" 
d="M269 0l-251 700h157l171 -517l171 517h155l-251 -700h-152z" />
    <glyph glyph-name="uni0439" unicode="&#x439;" horiz-adv-x="580" 
d="M190 500v-312l201 312h129v-500h-130v312l-201 -312h-129v500h130zM289 584q-80 0 -129 43.5t-55 119.5h108q3 -35 24 -52t52 -17t52.5 17t25.5 52h108q-6 -76 -56 -119.5t-130 -43.5z" />
    <glyph glyph-name="uni041E" unicode="&#x41e;" horiz-adv-x="828" 
d="M415 -16q-81 0 -148 27.5t-116 76.5t-76 116t-27 146t27 146t76 116t116 76.5t148 27.5q80 0 147 -27.5t115.5 -76.5t75.5 -116t27 -146t-27 -146t-75.5 -116t-115.5 -76.5t-147 -27.5zM417 118q48 0 87.5 17.5t68.5 49t45 74t16 93.5q0 49 -16 91t-45 73t-68.5 48.5
t-87.5 17.5q-50 0 -91 -17.5t-70.5 -48.5t-45.5 -73t-16 -91q0 -51 16 -93.5t45.5 -74t70.5 -49t91 -17.5z" />
    <glyph glyph-name="uni0424" unicode="&#x424;" horiz-adv-x="920" 
d="M391 530q-96 -1 -148.5 -49t-52.5 -128t52.5 -128t148.5 -49v354zM529 176q96 1 148.5 49t52.5 128t-52.5 128t-148.5 49v-354zM529 -14h-138v64q-79 1 -143 22.5t-108 61.5t-68 95.5t-24 123.5t24 123.5t68 95.5t108 61.5t143 22.5v58h138v-58q80 -1 143.5 -22.5
t107.5 -61.5t68 -95.5t24 -123.5t-24 -123.5t-68 -95.5t-107.5 -61.5t-143.5 -22.5v-64z" />
    <glyph glyph-name="uni0428" unicode="&#x428;" horiz-adv-x="976" 
d="M78 700h144v-568h194v568h144v-568h194v568h144v-700h-820v700z" />
    <glyph glyph-name="uni0429" unicode="&#x429;" horiz-adv-x="1026" 
d="M78 700h144v-568h194v568h144v-568h194v568h144v-568h94v-278h-144v146h-770v700z" />
    <glyph glyph-name="uni0420" unicode="&#x420;" horiz-adv-x="639" 
d="M218 360h133q50 0 79.5 30t29.5 76t-29.5 76t-79.5 30h-133v-212zM78 0v700h282q54 0 98.5 -16.5t77 -47.5t50 -74t17.5 -96t-17.5 -96.5t-50 -74t-77 -47t-98.5 -16.5h-142v-232h-140z" />
    <glyph glyph-name="uni0421" unicode="&#x421;" horiz-adv-x="760" 
d="M413 -16q-81 0 -148 27.5t-115 76.5t-75 116t-27 146t27 146t75 116t115 76.5t148 27.5q112 0 195 -52t123 -146l-125 -65q-24 62 -73.5 95.5t-118.5 33.5q-49 0 -89.5 -17t-69.5 -48t-45 -73.5t-16 -93.5t16 -93.5t45 -73.5t69.5 -48t89.5 -17q69 0 119 34t74 97
l126 -62q-39 -96 -123 -149.5t-197 -53.5z" />
    <glyph glyph-name="uni0415" unicode="&#x415;" horiz-adv-x="588" 
d="M78 700h462v-132h-318v-139h278v-132h-278v-165h318v-132h-462v700z" />
    <glyph glyph-name="uni0422" unicode="&#x422;" horiz-adv-x="620" 
d="M588 700v-132h-206v-568h-144v568h-206v132h556z" />
    <glyph glyph-name="uni0427" unicode="&#x427;" horiz-adv-x="724" 
d="M646 0h-144v278q-35 -21 -80.5 -33.5t-99.5 -12.5q-121 0 -187.5 66.5t-66.5 191.5v210h144v-197q0 -66 36.5 -99.5t103.5 -33.5q43 0 82.5 14t67.5 38v278h144v-700z" />
    <glyph glyph-name="A" unicode="A" horiz-adv-x="690" 
d="M256 274h174l-87 260zM419 700l253 -700h-150l-50 150h-258l-50 -150h-146l253 700h148z" />
    <glyph glyph-name="uni0410" unicode="&#x410;" horiz-adv-x="690" 
d="M256 274h174l-87 260zM419 700l253 -700h-150l-50 150h-258l-50 -150h-146l253 700h148z" />
    <glyph glyph-name="B" unicode="B" horiz-adv-x="651" 
d="M216 300v-178h161q43 0 69.5 24t26.5 65t-26.5 65t-69.5 24h-161zM216 418h145q37 0 61 22t24 58t-24 58t-61 22h-145v-160zM78 700h295q48 0 87.5 -13t67.5 -37t43.5 -57.5t15.5 -74.5q0 -54 -26 -93t-74 -58q64 -19 96 -62.5t32 -107.5q0 -44 -15.5 -80t-44.5 -62
t-71.5 -40.5t-95.5 -14.5h-310v700z" />
    <glyph glyph-name="uni0419" unicode="&#x419;" horiz-adv-x="751" 
d="M662 0h-144v467l-292 -467h-148v700h144v-467l292 467h148v-700zM375 777q-91 0 -145 43.5t-62 117.5h120q4 -27 27 -46t61 -19t60.5 19t26.5 46h120q-8 -73 -62.5 -117t-145.5 -44z" />
    <glyph glyph-name="uni044B" unicode="&#x44b;" horiz-adv-x="731" 
d="M541 500h130v-500h-130v500zM180 108h100q35 0 55 19t20 49t-20 49t-55 19h-100v-136zM296 0h-236v500h120v-148h116q41 0 74.5 -13.5t57 -37t36.5 -55.5t13 -70t-13 -70t-36.5 -55.5t-57 -37t-74.5 -13.5z" />
    <glyph glyph-name="Y" unicode="Y" horiz-adv-x="650" 
d="M253 0v273l-235 427h153l155 -304l155 304h151l-235 -427v-273h-144z" />
    <glyph glyph-name="uni0412" unicode="&#x412;" horiz-adv-x="651" 
d="M216 300v-178h161q43 0 69.5 24t26.5 65t-26.5 65t-69.5 24h-161zM216 418h145q37 0 61 22t24 58t-24 58t-61 22h-145v-160zM78 700h295q48 0 87.5 -13t67.5 -37t43.5 -57.5t15.5 -74.5q0 -54 -26 -93t-74 -58q64 -19 96 -62.5t32 -107.5q0 -44 -15.5 -80t-44.5 -62
t-71.5 -40.5t-95.5 -14.5h-310v700z" />
    <glyph glyph-name="uni042C" unicode="&#x42c;" horiz-adv-x="645" 
d="M78 0v700h140v-230h150q54 0 98.5 -17t76 -47.5t49 -74t17.5 -96.5t-17.5 -96.5t-49 -74t-76 -47.5t-99.5 -17h-289zM218 129h136q51 0 81.5 28.5t30.5 77.5t-30.5 77.5t-81.5 28.5h-136v-212z" />
    <glyph glyph-name="uni0411" unicode="&#x411;" horiz-adv-x="639" 
d="M218 306v-178h143q48 0 73.5 25.5t25.5 63.5t-25.5 63.5t-73.5 25.5h-143zM78 700h457v-134h-317v-132h155q52 0 94.5 -15.5t72.5 -43.5t46.5 -68t16.5 -90q0 -49 -16.5 -89t-46.5 -68.5t-72.5 -44t-94.5 -15.5h-295v700z" />
    <glyph glyph-name="uni0423" unicode="&#x423;" horiz-adv-x="634" 
d="M324 351l142 349h150l-307 -700h-144l91 206l-238 494h154z" />
    <glyph glyph-name="uni0413" unicode="&#x413;" horiz-adv-x="549" 
d="M78 700h435v-132h-291v-568h-144v700z" />
    <glyph glyph-name="X" unicode="X" horiz-adv-x="656" 
d="M18 0l218 361l-203 339h158l138 -235l138 235h156l-203 -339l218 -361h-164l-147 254l-147 -254h-162z" />
    <glyph glyph-name="U" unicode="U" horiz-adv-x="734" 
d="M367 -16q-63 0 -116 19t-92 55.5t-61 90.5t-22 124v427h144v-416q0 -83 41 -124.5t107 -41.5t106 41.5t40 124.5v416h144v-427q0 -70 -22 -124t-61 -90.5t-92 -55.5t-116 -19z" />
    <glyph glyph-name="R" unicode="R" horiz-adv-x="660" 
d="M216 366h143q41 0 71 26.5t30 74.5t-30 76.5t-71 28.5h-143v-206zM340 238h-124v-238h-138v700h284q54 0 98.5 -16.5t76 -47t49 -73.5t17.5 -96q0 -76 -34 -129t-94 -79l167 -259h-154z" />
    <glyph glyph-name="uni0425" unicode="&#x425;" horiz-adv-x="656" 
d="M18 0l218 361l-203 339h158l138 -235l138 235h156l-203 -339l218 -361h-164l-147 254l-147 -254h-162z" />
    <glyph glyph-name="K" unicode="K" horiz-adv-x="694" 
d="M324 323l-102 -116v-207h-144v700h144v-306l263 306h172l-243 -275l262 -425h-159z" />
    <glyph glyph-name="uni041A" unicode="&#x41a;" horiz-adv-x="675" 
d="M434 368l219 -368h-158l-178 303h-95v-303h-144v700h144v-273h98l177 273h156z" />
    <glyph glyph-name="uni0416" unicode="&#x416;" horiz-adv-x="1004" 
d="M825 0l-163 304h-88v-304h-144v304h-88l-163 -304h-157l202 366l-202 334h155l161 -272h92v272h144v-272h92l161 272h155l-202 -334l202 -366h-157z" />
    <glyph glyph-name="Q" unicode="Q" horiz-adv-x="840" 
d="M421 120q29 0 54.5 6.5t48.5 17.5l-87 101l89 77l83 -96q31 56 31 124q0 49 -16 91t-45 73t-69.5 48.5t-88.5 17.5q-49 0 -89.5 -17.5t-70 -48.5t-45.5 -73t-16 -91t16 -91t45.5 -73t70 -48.5t89.5 -17.5zM421 -16q-81 0 -148 27.5t-116 76.5t-76 116t-27 146t27 146
t76 116t116 76.5t148 27.5q80 0 147 -27.5t115.5 -76.5t75.5 -116t27 -146q0 -69 -21 -129t-59 -107l67 -78l-89 -77l-67 77q-42 -25 -91 -38.5t-105 -13.5z" />
    <glyph glyph-name="Z" unicode="Z" horiz-adv-x="667" 
d="M79 700h530v-141l-387 -427h387v-132h-551v142l387 426h-366v132z" />
    <glyph glyph-name="I" unicode="I" horiz-adv-x="300" 
d="M78 700h144v-700h-144v700z" />
    <glyph glyph-name="J" unicode="J" horiz-adv-x="626" 
d="M299 122q49 0 78 31.5t29 85.5v461h144v-466q0 -56 -17.5 -102t-50.5 -78.5t-79 -50t-103 -17.5t-103 18t-79 51t-50.5 81t-17.5 108v16l142 12v-15q0 -68 29 -101.5t78 -33.5z" />
    <glyph glyph-name="uni044A" unicode="&#x44a;" horiz-adv-x="588" 
d="M259 500v-148h120q41 0 74.5 -13.5t57 -37t36.5 -55.5t13 -70t-13 -70t-36.5 -55.5t-57 -37t-74.5 -13.5h-240v382h-121v118h241zM259 108h104q35 0 55 19t20 49t-20 49t-55 19h-104v-136z" />
    <glyph glyph-name="uni0432" unicode="&#x432;" horiz-adv-x="521" 
d="M180 98h127q28 0 43 16.5t15 39.5t-15 39t-43 16h-127v-111zM180 305h113q26 0 39.5 15t13.5 34t-13.5 33.5t-39.5 14.5h-113v-97zM60 0v500h254q70 0 111.5 -34t41.5 -91q0 -38 -19.5 -66.5t-54.5 -42.5q45 -15 69.5 -47t24.5 -77q0 -32 -12 -58t-33.5 -45t-52 -29
t-67.5 -10h-262z" />
    <glyph glyph-name="uni044D" unicode="&#x44d;" horiz-adv-x="565" 
d="M263 -14q-82 0 -143 38.5t-90 107.5l107 52q17 -39 49.5 -61.5t77.5 -22.5q49 0 83.5 27t48.5 72h-204v106h203q-14 44 -48.5 69.5t-82.5 25.5q-45 0 -77.5 -22.5t-49.5 -61.5l-107 52q29 69 90 107.5t143 38.5q58 0 107 -20t84 -55t55 -83.5t20 -105.5t-20 -105.5
t-55 -83.5t-84 -55t-107 -20z" />
    <glyph glyph-name="uni042D" unicode="&#x42d;" horiz-adv-x="760" 
d="M347 -16q-113 0 -197 53.5t-123 149.5l126 62q24 -63 74 -97t119 -34q83 0 140 47.5t74 125.5h-321v126h319q-18 75 -74.5 120t-137.5 45q-69 0 -118.5 -33.5t-73.5 -95.5l-125 65q40 94 123 146t195 52q81 0 148 -27.5t115 -76.5t75 -116t27 -146t-27 -146t-75 -116
t-115 -76.5t-148 -27.5z" />
    <glyph glyph-name="uni042E" unicode="&#x42e;" horiz-adv-x="1123" 
d="M720 118q46 0 84.5 17.5t66 49t43 74t15.5 93.5q0 49 -15.5 91t-43 73t-66 48.5t-84.5 17.5q-48 0 -87.5 -17.5t-68 -48.5t-44 -73t-15.5 -91q0 -51 15.5 -93.5t44 -74t68 -49t87.5 -17.5zM718 -16q-72 0 -134 23.5t-108.5 65.5t-76 100t-37.5 127h-140v-300h-144v700
h144v-264h146q13 62 44 113.5t76.5 88.5t104 57.5t125.5 20.5q78 0 143.5 -27.5t113 -76.5t74 -116t26.5 -146t-26.5 -146t-74 -116t-113 -76.5t-143.5 -27.5z" />
    <glyph glyph-name="uni042F" unicode="&#x42f;" horiz-adv-x="662" 
d="M446 366v206h-143q-41 0 -71 -28.5t-30 -76.5t30 -74.5t71 -26.5h143zM584 0h-138v238h-127l-149 -238h-152l167 260q-59 26 -92.5 79t-33.5 128q0 53 17.5 96t49 73.5t76 47t98.5 16.5h284v-700z" />
    <glyph glyph-name="uni044E" unicode="&#x44e;" horiz-adv-x="834" 
d="M535 106q28 0 52 11t41.5 30t27.5 46t10 58q0 32 -10 58t-27.5 45t-41.5 29.5t-52 10.5t-52 -10.5t-41.5 -29.5t-27.5 -45t-10 -58q0 -31 10 -58t27.5 -46t41.5 -30t52 -11zM538 -14q-50 0 -93 15t-76 42t-55 65t-31 84h-93v-192h-130v500h130v-190h93q9 45 31.5 82.5
t55.5 64.5t76 42t92 15q57 0 105 -20t82.5 -55t53.5 -83.5t19 -105.5t-19 -105.5t-53.5 -83.5t-82.5 -55t-105 -20z" />
    <glyph glyph-name="uni0417" unicode="&#x417;" horiz-adv-x="635" 
d="M319 -16q-110 0 -186.5 50t-118.5 147l125 59q25 -64 69 -96t110 -32q64 0 102 27.5t38 73.5q0 39 -28.5 60t-85.5 21h-139v130h135q49 0 75 21t26 56q0 41 -32.5 65t-87.5 24q-57 0 -98.5 -28t-63.5 -83l-123 60q84 177 288 177q59 0 106 -14t81 -40t52 -62t18 -81
q0 -109 -106 -155q58 -19 91 -62.5t33 -104.5q0 -47 -20.5 -86.5t-57.5 -67.5t-88.5 -43.5t-113.5 -15.5z" />
    <glyph glyph-name="uni0437" unicode="&#x437;" horiz-adv-x="491" 
d="M249 -14q-88 0 -147.5 38t-87.5 110l109 43q14 -41 44.5 -62.5t77.5 -21.5q42 0 66 17t24 45q0 23 -18 36.5t-53 13.5h-100v105h97q31 0 47.5 12.5t16.5 32.5q0 24 -21.5 39t-59.5 15q-85 0 -111 -77l-106 44q58 138 224 138q91 0 143 -39t52 -104q0 -81 -82 -110
q44 -14 68.5 -46t24.5 -77q0 -69 -56.5 -110.5t-151.5 -41.5z" />
    <glyph glyph-name="uni042A" unicode="&#x42a;" horiz-adv-x="750" 
d="M183 0v568h-147v132h287v-230h150q54 0 98.5 -17t76 -47.5t49 -74t17.5 -96.5t-17.5 -96.5t-49 -74t-76 -47.5t-99.5 -17h-289zM323 129h136q51 0 81.5 28.5t30.5 77.5t-30.5 77.5t-81.5 28.5h-136v-212z" />
    <glyph glyph-name="uni042B" unicode="&#x42b;" horiz-adv-x="905" 
d="M827 700v-700h-144v700h144zM78 0v700h140v-230h146q54 0 98.5 -17t76 -47.5t49 -74t17.5 -96.5t-17.5 -96.5t-49 -74t-76 -47.5t-99.5 -17h-285zM218 129h132q51 0 81.5 28.5t30.5 77.5t-30.5 77.5t-81.5 28.5h-132v-212z" />
    <glyph glyph-name="uni044F" unicode="&#x44f;" horiz-adv-x="532" 
d="M349 392h-107q-35 0 -55 -18t-20 -47t20 -47t55 -18h107v130zM225 500h247v-500h-123v154h-98l-88 -154h-143l110 176q-41 22 -63.5 61t-22.5 90q0 38 13 69.5t36.5 54.5t57 36t74.5 13z" />
    <glyph glyph-name="breve" unicode="&#x2d8;" horiz-adv-x="410" 
d="M204 584q-80 0 -129 43.5t-55 119.5h108q3 -35 24 -52t52 -17t52.5 17t25.5 52h108q-6 -76 -56 -119.5t-130 -43.5z" />
    <glyph glyph-name="exclam" unicode="!" horiz-adv-x="260" 
d="M48 74q0 36 23.5 59t58.5 23t58.5 -23t23.5 -59t-23.5 -59t-58.5 -23t-58.5 23t-23.5 59zM63 700h138l-9 -496h-120z" />
    <glyph glyph-name="uni0490" unicode="&#x490;" horiz-adv-x="559" 
d="M86 700h295v128h140v-260h-291v-568h-144v700z" />
    <glyph glyph-name="uni0404" unicode="&#x404;" horiz-adv-x="760" 
d="M413.021 -16q112.993 0 196.987 53.5q83.9951 53.5 122.993 149.5l-125.992 62q-23.999 -63 -73.9961 -97t-118.992 -34q-82.9951 0 -139.992 47.5q-56.9961 47.5 -73.9951 125.5h320.98v126h-318.98q17.999 75 74.4951 120q56.4971 45 137.492 45
q68.9951 0 118.492 -33.5t73.4961 -95.5l124.992 65q-39.998 94 -122.992 146q-82.9951 52 -194.988 52q-80.9951 0 -147.991 -27.5t-114.993 -76.5t-74.9951 -116q-26.999 -67 -26.999 -146t26.999 -146q26.998 -67 74.9951 -116t114.993 -76.5t147.991 -27.5z" />
    <glyph glyph-name="uni0406" unicode="&#x406;" horiz-adv-x="300" 
d="M78 700h144v-700h-144v700z" />
    <glyph glyph-name="uni0407" unicode="&#x407;" horiz-adv-x="300" 
d="M78 700h144v-700h-144v700zM39 774q-33 0 -56.5 22.5t-23.5 57.5t23.5 57.5t56.5 22.5t56.5 -22.5t23.5 -57.5t-23.5 -57.5t-56.5 -22.5zM261 774q-33 0 -56.5 22.5t-23.5 57.5t23.5 57.5t56.5 22.5t56.5 -22.5t23.5 -57.5t-23.5 -57.5t-56.5 -22.5z" />
    <glyph glyph-name="uni0491" unicode="&#x491;" horiz-adv-x="414" 
d="M274 618h122v-236h-206v-382h-130v500h214v118z" />
    <glyph glyph-name="uni0454" unicode="&#x454;" horiz-adv-x="565" 
d="M302 -14q-58 0 -107 20t-84 55t-55 83.5t-20 105.5t20 105.5t55 83.5t84 55t107 20q82 0 143 -38.5t90 -107.5l-107 -52q-17 39 -49.5 61.5t-77.5 22.5q-48 0 -82.5 -26t-48.5 -71h202v-102h-204q14 -46 48.5 -73.5t84.5 -27.5q45 0 77.5 22.5t49.5 61.5l107 -52
q-29 -69 -90 -107.5t-143 -38.5z" />
    <glyph glyph-name="uni0456" unicode="&#x456;" horiz-adv-x="250" 
d="M60 500h130v-500h-130v500zM126 573h-2q-33 0 -56 22.5t-23 57.5t23 57.5t56 22.5h2q33 0 56 -22.5t23 -57.5t-23 -57.5t-56 -22.5z" />
    <glyph glyph-name="uni0457" unicode="&#x457;" horiz-adv-x="250" 
d="M60 500h130v-500h-130v500zM-46 661q0 32 22 54t54 22t54 -22t22 -54t-22 -54t-54 -22t-54 22t-22 54zM144 661q0 32 22 54t54 22t54 -22t22 -54t-22 -54t-54 -22t-54 22t-22 54z" />
    <glyph glyph-name="uni0451" unicode="&#x451;" horiz-adv-x="585" 
d="M167 306h249q-8 46 -39.5 73t-80.5 27q-48 0 -82 -26.5t-47 -73.5zM304 -14q-59 0 -108.5 19.5t-85 54.5t-55 84t-19.5 107q0 59 20 107.5t55 83t83 53.5t105 19q56 0 101.5 -18t77.5 -51t50 -78.5t18 -100.5q0 -11 -1 -24t-3 -28h-378q10 -54 47 -85t94 -31
q42 0 74.5 17.5t52.5 52.5l91 -72q-38 -54 -93.5 -82t-125.5 -28zM194 575q-32 0 -55.5 22.5t-23.5 56.5t23.5 56.5t55.5 22.5t55.5 -22.5t23.5 -56.5t-23.5 -56.5t-55.5 -22.5zM408 575q-32 0 -55.5 22.5t-23.5 56.5t23.5 56.5t55.5 22.5t55.5 -22.5t23.5 -56.5
t-23.5 -56.5t-55.5 -22.5z" />
    <glyph glyph-name="quotedbl" unicode="&#x22;" horiz-adv-x="412" 
d="M54 700h110l-11 -298h-88zM248 700h110l-11 -298h-88z" />
    <glyph glyph-name="numbersign" unicode="#" horiz-adv-x="668" 
d="M385 288l21 130h-124l-22 -130h125zM24 190v98h127l21 130h-114v98h131l31 188l107 -15l-29 -173h125l31 188l107 -15l-29 -173h114v-98h-130l-22 -130h117v-98h-133l-33 -196l-107 15l30 181h-124l-33 -196l-107 15l30 181h-110z" />
    <glyph glyph-name="dollar" unicode="$" horiz-adv-x="626" 
d="M381 -100h-130v89q-81 13 -140.5 56.5t-93.5 115.5l119 68q56 -116 184 -116q60 0 96.5 23t36.5 60q0 25 -17.5 41.5t-45.5 28t-64 20t-74 19.5t-74 25.5t-64 37t-45.5 55.5t-17.5 81q0 84 53 138.5t147 68.5v89h130v-89q138 -24 208 -151l-117 -68q-48 97 -161 97
q-53 0 -84.5 -20.5t-31.5 -53.5q0 -24 17.5 -39.5t45.5 -26.5t64.5 -19.5t74 -19.5t74 -25.5t64.5 -38t45.5 -57t17.5 -82.5q0 -45 -15.5 -82t-43.5 -65t-68 -46.5t-90 -25.5v-88z" />
    <glyph glyph-name="percent" unicode="%" horiz-adv-x="837" 
d="M222 -16l479 671l-90 61l-479 -671zM198 338q-40 0 -72.5 14.5t-55 39.5t-34.5 59t-12 74t12 74t34.5 59t55 39.5t72.5 14.5t72.5 -14.5t55 -39.5t34.5 -59t12 -74t-12 -74t-34.5 -59t-55 -39.5t-72.5 -14.5zM198 447q26 0 43 21.5t17 56.5t-17 56.5t-43 21.5t-43 -21.5
t-17 -56.5t17 -56.5t43 -21.5zM635 -12q-40 0 -72.5 14.5t-55 39.5t-34.5 59t-12 74t12 74t34.5 59t55 39.5t72.5 14.5t72.5 -14.5t55 -39.5t34.5 -59t12 -74t-12 -74t-34.5 -59t-55 -39.5t-72.5 -14.5zM635 97q26 0 43 22t17 57q0 34 -17 55.5t-43 21.5t-43 -21.5
t-17 -55.5q0 -35 17 -57t43 -22z" />
    <glyph glyph-name="ampersand" unicode="&#x26;" horiz-adv-x="680" 
d="M255 308q-35 -19 -58 -42.5t-23 -60.5q0 -45 35.5 -73.5t95.5 -28.5q61 0 111 33zM288 438q45 20 76 43.5t31 60.5q0 32 -23 50t-56 18q-37 0 -58 -21t-21 -55q0 -22 11.5 -43.5t39.5 -52.5zM318 716q51 0 88.5 -15t61.5 -40t36 -57.5t12 -66.5q0 -37 -12.5 -64.5
t-33.5 -48.5t-48 -37t-56 -29l132 -136q16 25 30 53t25 59l107 -45q-36 -90 -78 -153l70 -72l-90 -83l-63 67q-42 -33 -91.5 -48.5t-107.5 -15.5q-64 0 -113.5 17t-82.5 46.5t-50 69t-17 83.5q0 38 11.5 67t31 51.5t45 40t53.5 31.5q-26 31 -45.5 70t-19.5 82q0 32 13 63
t38.5 56t64 40t89.5 15z" />
    <glyph glyph-name="quotesingle" unicode="'" horiz-adv-x="218" 
d="M54 700h110l-11 -298h-88z" />
    <glyph glyph-name="parenleft" unicode="(" horiz-adv-x="308" 
d="M46 289q0 65 11.5 129.5t32 125.5t50 115.5t65.5 100.5l99 -76q-63 -84 -96.5 -186.5t-33.5 -208.5t33.5 -208.5t96.5 -186.5l-99 -76q-36 46 -65.5 100.5t-50 115.5t-32 125.5t-11.5 129.5z" />
    <glyph glyph-name="parenright" unicode=")" horiz-adv-x="308" 
d="M262 289q0 -65 -11 -129.5t-31.5 -125.5t-49.5 -115.5t-65 -100.5l-101 76q63 85 96.5 186.5t33.5 208.5q0 106 -33.5 208.5t-96.5 186.5l101 76q36 -46 65 -100.5t49.5 -115.5t31.5 -125.5t11 -129.5z" />
    <glyph glyph-name="asterisk" unicode="*" horiz-adv-x="436" 
d="M344 405l-89 65l7 -114h-90l7 114l-89 -65l-49 73l100 56l-100 55l49 73l89 -66l-7 114h90l-7 -114l89 66l49 -73l-100 -55l100 -56z" />
    <glyph glyph-name="plus" unicode="+" horiz-adv-x="546" 
d="M30 421h180v194h126v-194h180v-116h-180v-194h-126v194h-180v116z" />
    <glyph glyph-name="slash" unicode="/" horiz-adv-x="474" 
d="M18 -151l314 923l126 -36l-314 -923z" />
    <glyph glyph-name="zero" unicode="0" horiz-adv-x="708" 
d="M354 -16q-69 0 -125 26.5t-95 74.5t-60.5 115.5t-21.5 149.5t21.5 149.5t60.5 115.5t95 74.5t125 26.5t125 -26.5t95 -74.5t60.5 -115.5t21.5 -149.5t-21.5 -149.5t-60.5 -115.5t-95 -74.5t-125 -26.5zM354 584q-38 0 -68 -16.5t-51 -47t-32 -74t-11 -96.5t11 -96.5
t32 -74t51 -47t68 -16.5t68 16.5t51 47t32 74t11 96.5t-11 96.5t-32 74t-51 47t-68 16.5z" />
    <glyph glyph-name="one" unicode="1" horiz-adv-x="429" 
d="M207 0v545l-129 -88l-66 112l193 131h140v-700h-138z" />
    <glyph glyph-name="two" unicode="2" horiz-adv-x="588" 
d="M34 0v128l274 218q45 35 68.5 73.5t23.5 75.5q0 42 -29.5 69.5t-82.5 27.5q-51 0 -85.5 -28t-49.5 -80l-129 35q28 96 96 146.5t170 50.5q56 0 102 -15.5t78.5 -44t50 -69t17.5 -89.5q0 -69 -36.5 -127t-115.5 -119l-166 -127h331v-125h-517z" />
    <glyph glyph-name="three" unicode="3" horiz-adv-x="616" 
d="M307 -16q-208 0 -285 183l121 57q21 -56 59.5 -85t100.5 -29q60 0 96.5 27t36.5 74q0 40 -27.5 63t-79.5 23h-128v124h127q42 0 67.5 21.5t25.5 57.5q0 42 -32 67t-85 25q-51 0 -87.5 -24.5t-56.5 -70.5l-118 58q81 161 266 161q57 0 103 -14.5t79 -41t51 -64t18 -83.5
q0 -54 -23.5 -92t-66.5 -58q51 -21 78 -63t27 -101q0 -48 -19 -88t-54 -68t-84 -43.5t-110 -15.5z" />
    <glyph glyph-name="four" unicode="4" horiz-adv-x="631" 
d="M159 274h208v270zM367 0v156h-335v142l314 402h151v-426h96v-118h-96v-156h-130z" />
    <glyph glyph-name="five" unicode="5" horiz-adv-x="609" 
d="M288 -16q-180 0 -260 145l113 71q42 -92 145 -92q63 0 101 33t38 90q0 51 -34 85.5t-103 34.5q-82 0 -121 -57l-104 53l18 353h444v-123h-327l-7 -135q48 30 123 30q56 0 102 -17.5t78 -49.5t49.5 -76t17.5 -98q0 -56 -19 -101.5t-54 -78t-86 -50t-114 -17.5z" />
    <glyph glyph-name="six" unicode="6" horiz-adv-x="631" 
d="M330 105q27 0 50.5 8.5t41 24t27.5 37.5t10 49t-10 49t-27.5 37t-41.5 23.5t-51 8.5q-26 0 -49.5 -8t-41 -23t-27.5 -36.5t-10 -48.5q0 -54 36 -87.5t93 -33.5zM331 -16q-133 0 -206 90t-73 258v26q0 175 76.5 266.5t216.5 91.5q162 0 242 -134l-105 -70q-20 39 -55.5 61
t-83.5 22q-75 0 -117.5 -51t-42.5 -141v-10.5t1 -10.5q60 78 172 78q53 0 96.5 -17t74.5 -47.5t48.5 -73.5t17.5 -95q0 -54 -18.5 -98.5t-53 -76.5t-83 -50t-107.5 -18z" />
    <glyph glyph-name="seven" unicode="7" horiz-adv-x="560" 
d="M376 570h-338v130h488v-140l-261 -560h-154z" />
    <glyph glyph-name="eight" unicode="8" horiz-adv-x="620" 
d="M311 104q59 0 94 27t35 73q0 45 -35 71.5t-94 26.5q-60 0 -95.5 -26.5t-35.5 -71.5q0 -46 35.5 -73t95.5 -27zM311 414q51 0 81.5 25.5t30.5 65.5t-30.5 65.5t-81.5 25.5q-53 0 -83.5 -25.5t-30.5 -65.5t30.5 -65.5t83.5 -25.5zM310 -16q-59 0 -108 15t-84.5 42.5
t-55.5 67t-20 87.5q0 58 28 100t79 66q-48 26 -69 64t-21 89q0 45 18.5 82t51.5 63.5t79 41t102 14.5t102 -14.5t79 -41t51.5 -63.5t18.5 -82q0 -101 -91 -153q51 -24 79.5 -66t28.5 -100q0 -48 -20 -87.5t-55.5 -67t-84.5 -42.5t-108 -15z" />
    <glyph glyph-name="nine" unicode="9" horiz-adv-x="631" 
d="M301.021 595.007q-26.999 0 -50.4971 -8.5q-23.499 -8.49902 -40.998 -23.998t-27.498 -37.498t-9.99902 -48.9971t9.99902 -48.9971t27.498 -36.998t41.498 -23.498q23.998 -8.5 50.9971 -8.5q25.998 0 49.4961 8q23.499 7.99902 40.998 22.998t27.498 36.498
q10 21.499 10 48.4971q0 53.9971 -35.998 87.4951t-92.9941 33.498zM300.021 715.999q132.991 0 205.987 -89.9941q72.9951 -89.9951 72.9951 -257.984v-25.999q0 -174.989 -76.4951 -266.483t-216.486 -91.4941q-161.99 0 -241.985 133.991l104.993 69.9961
q19.999 -38.998 55.4971 -60.9961q35.4971 -21.999 83.4941 -21.999q74.9961 0 117.493 50.9971t42.4971 140.991v10.5q0 5.49902 -0.999023 10.499q-59.9971 -77.9951 -171.99 -77.9951q-52.9961 0 -96.4941 16.999q-43.4971 16.999 -74.4951 47.4971t-48.4971 73.4951
t-17.499 94.9941q0 53.9971 18.499 98.4941t52.9971 76.4951q34.4971 31.998 82.9941 49.9971t107.494 17.999z" />
    <glyph glyph-name="less" unicode="&#x3c;" horiz-adv-x="535" 
d="M54 294v122l406 200l45 -112l-317 -147l317 -151l-45 -116z" />
    <glyph glyph-name="equal" unicode="=" horiz-adv-x="572" 
d="M46 276h480v-112h-480v112zM46 496h480v-112h-480v112z" />
    <glyph glyph-name="greater" unicode="&#x3e;" horiz-adv-x="535" 
d="M481 294l-406 -204l-45 116l317 151l-317 147l45 112l406 -200v-122z" />
    <glyph glyph-name="question" unicode="?" horiz-adv-x="556" 
d="M188 74q0 36 23.5 59t58.5 23t58.5 -23t23.5 -59t-23.5 -59t-58.5 -23t-58.5 23t-23.5 59zM205 232q0 48 11 80t27.5 53t36.5 34t39 25q29 17 49 38t20 50q0 35 -28.5 57t-76.5 22q-50 0 -86.5 -26.5t-50.5 -76.5l-134 32q26 94 96.5 145t176.5 51q55 0 100 -14t76.5 -40
t49 -62.5t17.5 -80.5q0 -51 -24 -91t-77 -73q-19 -12 -35.5 -23t-29 -25t-20 -33.5t-7.5 -49.5v-20h-130v28z" />
    <glyph glyph-name="at" unicode="@" horiz-adv-x="913" 
d="M355 282q0 -48 26.5 -75.5t67.5 -27.5t68 27.5t27 75.5t-27 75.5t-68 27.5t-67.5 -27.5t-26.5 -75.5zM245 281q0 44 14 81t39 64t58 42t71 15q40 0 69 -16.5t48 -45.5v52h110v-199q0 -38 13 -58t37 -20q53 0 53 98q0 65 -22 119t-61 93t-93 60.5t-119 21.5
q-67 0 -122 -23t-94.5 -64.5t-61.5 -98t-22 -123.5q0 -68 22.5 -124.5t62.5 -97t95 -63t120 -22.5q66 0 123.5 22.5t96.5 63.5l69 -88q-52 -53 -125 -81.5t-161 -28.5q-92 0 -168.5 31.5t-132 87.5t-86 133t-30.5 167q0 91 31 168t86.5 133.5t131 88t165.5 31.5
q87 0 161 -30t127.5 -83t84 -125.5t30.5 -157.5q0 -102 -43.5 -156t-121.5 -54q-96 0 -131 82q-20 -45 -56 -70t-85 -25q-38 0 -71.5 14.5t-58 41t-39 63.5t-14.5 81z" />
    <glyph glyph-name="colon" unicode=":" horiz-adv-x="220" 
d="M28 474q0 36 23.5 59t58.5 23t58.5 -23t23.5 -59t-23.5 -59t-58.5 -23t-58.5 23t-23.5 59zM28 74q0 36 23.5 59t58.5 23t58.5 -23t23.5 -59t-23.5 -59t-58.5 -23t-58.5 23t-23.5 59z" />
    <glyph glyph-name="semicolon" unicode=";" horiz-adv-x="228" 
d="M28 474q0 36 23.5 59t58.5 23t58.5 -23t23.5 -59t-23.5 -59t-58.5 -23t-58.5 23t-23.5 59zM28 74q0 35 23.5 57.5t58.5 22.5q39 0 64.5 -29.5t25.5 -80.5q0 -53 -29.5 -108t-83.5 -103l-55 53q32 29 51.5 55t30.5 53q-36 0 -61 21t-25 59z" />
    <glyph glyph-name="hyphen" unicode="-" horiz-adv-x="357" 
d="M46 321h265v-108h-265v108z" />
    <glyph glyph-name="bracketleft" unicode="[" horiz-adv-x="345" 
d="M66 750h253v-122h-125v-678h125v-122h-253v922z" />
    <glyph glyph-name="bracketright" unicode="]" horiz-adv-x="345" 
d="M26 -172v122h125v678h-125v122h253v-922h-253z" />
    <glyph glyph-name="braceright" unicode="}" horiz-adv-x="422" 
d="M26 -172v122h36q55 0 76 30.5t21 93.5v105q0 42 24.5 72t64.5 38q-40 8 -64.5 38t-24.5 72v106q0 63 -21 93t-76 30h-36v122h42q112 0 165.5 -56t53.5 -171v-100q0 -35 20 -55t57 -20h14v-118h-14q-37 0 -57 -20.5t-20 -55.5v-100q0 -115 -53.5 -170.5t-165.5 -55.5h-42z
" />
    <glyph glyph-name="braceleft" unicode="{" horiz-adv-x="422" 
d="M396 -172h-42q-112 0 -165.5 55.5t-53.5 170.5v100q0 35 -20 55.5t-57 20.5h-14v118h14q37 0 57 20t20 55v100q0 115 53.5 171t165.5 56h42v-122h-36q-55 0 -76 -30t-21 -93v-106q0 -42 -24.5 -72t-64.5 -38q40 -8 64.5 -38t24.5 -72v-105q0 -63 21 -93.5t76 -30.5h36
v-122z" />
    <glyph glyph-name="backslash" unicode="\" horiz-adv-x="474" 
d="M456.001 -151l-313.98 923l-125.992 -36l313.98 -923z" />
    <glyph glyph-name="asciicircum" unicode="^" horiz-adv-x="450" 
d="M12 384l151 316h124l151 -316h-131l-82 186l-82 -186h-131z" />
    <glyph glyph-name="underscore" unicode="_" horiz-adv-x="567" 
d="M43 -19h481v-112h-481v112z" />
    <glyph glyph-name="bar" unicode="|" horiz-adv-x="304" 
d="M86 -172v922h132v-922h-132z" />
    <glyph glyph-name="grave" unicode="`" horiz-adv-x="292" 
d="M38 748h146l96 -168h-120z" />
    <glyph glyph-name="asciitilde" unicode="~" horiz-adv-x="616" 
d="M34 315q34 59 78 84.5t94 25.5q35 0 60 -10.5t46 -23t41.5 -23t45.5 -10.5q31 0 57.5 17.5t37.5 43.5l88 -63q-34 -58 -77 -84t-94 -26q-35 0 -61 10.5t-48 23t-43.5 23t-48.5 10.5q-30 0 -52.5 -16.5t-36.5 -43.5z" />
    <glyph glyph-name="uni0401" unicode="&#x401;" horiz-adv-x="588" 
d="M78 700h462v-132h-318v-139h278v-132h-278v-165h318v-132h-462v700zM203 774q-33 0 -56.5 22.5t-23.5 57.5t23.5 57.5t56.5 22.5t56.5 -22.5t23.5 -57.5t-23.5 -57.5t-56.5 -22.5zM425 774q-33 0 -56.5 22.5t-23.5 57.5t23.5 57.5t56.5 22.5t56.5 -22.5t23.5 -57.5
t-23.5 -57.5t-56.5 -22.5z" />
    <glyph glyph-name="uni0405" unicode="&#x405;" horiz-adv-x="626" 
d="M319 -16q-107 0 -184 45t-118 132l119 68q56 -116 184 -116q60 0 96.5 23t36.5 60q0 25 -17.5 41.5t-45.5 28t-64 20t-74 19.5t-74 25.5t-64 37t-45.5 55.5t-17.5 81t18.5 87.5t53 67t83 42.5t108.5 15q188 0 275 -156l-117 -68q-48 97 -161 97q-53 0 -84.5 -20.5
t-31.5 -53.5q0 -24 17.5 -39.5t45.5 -26.5t64.5 -19.5t74 -19.5t74 -25.5t64.5 -38t45.5 -57t17.5 -82.5q0 -51 -20 -92.5t-57 -70.5t-88 -44.5t-114 -15.5z" />
    <glyph glyph-name="uni0455" unicode="&#x455;" horiz-adv-x="503" 
d="M261 -14q-81 0 -141 33.5t-94 99.5l96 59q20 -40 56 -61t84 -21q39 0 63 13t24 35q0 21 -22 32t-55 19t-71.5 17t-71.5 25.5t-55 44t-22 73.5q0 72 54.5 115.5t148.5 43.5q148 0 212 -115l-96 -61q-17 32 -46 50t-71 18q-36 0 -58 -12.5t-22 -31.5t22 -29t55.5 -18
t72 -17t72 -26t55.5 -45.5t22 -75.5q0 -37 -15 -67.5t-43 -52t-67 -33.5t-87 -12z" />
    <glyph glyph-name="uni0458" unicode="&#x458;" horiz-adv-x="250" 
d="M60 500h130v-498q0 -102 -50.5 -155t-146.5 -53h-36v122h20q48 0 65.5 25.5t17.5 76.5v482zM125 573q-33 0 -56 22.5t-23 57.5t23 57.5t56 22.5h2q33 0 56 -22.5t23 -57.5t-23 -57.5t-56 -22.5h-2z" />
    <glyph glyph-name="a.ss01" horiz-adv-x="622" 
d="M299 106q29 0 53.5 10.5t42 30t27.5 46t10 57.5q0 32 -10 58t-27.5 45.5t-42 30t-53.5 10.5q-28 0 -52 -10.5t-41.5 -30t-27.5 -45.5t-10 -58q0 -31 10 -57.5t27.5 -46t41.5 -30t52 -10.5zM268 -14q-50 0 -92.5 19.5t-73.5 54t-48.5 83.5t-17.5 107q0 59 17.5 107.5
t49 83t74 54t92.5 19.5q52 0 93 -21t70 -60v67h130v-500h-130v67q-29 -39 -70.5 -60t-93.5 -21z" />
    <glyph glyph-name="uni0430.ss01" horiz-adv-x="622" 
d="M299 106q29 0 53.5 10.5t42 30t27.5 46t10 57.5q0 32 -10 58t-27.5 45.5t-42 30t-53.5 10.5q-28 0 -52 -10.5t-41.5 -30t-27.5 -45.5t-10 -58q0 -31 10 -57.5t27.5 -46t41.5 -30t52 -10.5zM268 -14q-50 0 -92.5 19.5t-73.5 54t-48.5 83.5t-17.5 107q0 59 17.5 107.5
t49 83t74 54t92.5 19.5q52 0 93 -21t70 -60v67h130v-500h-130v67q-29 -39 -70.5 -60t-93.5 -21z" />
    <glyph glyph-name="uni040F" unicode="&#x40f;" horiz-adv-x="740" 
d="M222 700v-568h296v568h144v-700h-220v-142h-144v142h-220v700h144z" />
    <glyph glyph-name="uni045F" unicode="&#x45f;" horiz-adv-x="576" 
d="M60 0v500h130v-382h196v382h130v-500h-164v-120h-128v120h-164z" />
    <glyph glyph-name="uni0408" unicode="&#x408;" horiz-adv-x="626" 
d="M299 122q49 0 78 31.5t29 85.5v461h144v-466q0 -56 -17.5 -102t-50.5 -78.5t-79 -50t-103 -17.5t-103 18t-79 51t-50.5 81t-17.5 108v16l142 12v-15q0 -68 29 -101.5t78 -33.5z" />
    <glyph glyph-name="uni045E" unicode="&#x45e;" 
d="M130 -200l82 211l-196 489h139l123 -331l118 331h138l-273 -700h-131zM274 584q-80 0 -129 43.5t-55 119.5h108q3 -35 24 -52t52 -17t52.5 17t25.5 52h108q-6 -76 -56 -119.5t-130 -43.5z" />
    <glyph glyph-name="uni0402" unicode="&#x402;" horiz-adv-x="803" 
d="M319 0h-144v568h-137v132h576v-132h-295v-171q35 22 79 33.5t92 11.5q63 0 113 -21t84.5 -59.5t53 -92.5t18.5 -121q0 -71 -20.5 -127t-59.5 -96t-95 -63.5t-127 -29.5l-18 139q87 10 130.5 55t43.5 121t-40.5 119.5t-112.5 43.5q-39 0 -75.5 -13t-65.5 -37v-260z" />
    <glyph glyph-name="uni040B" unicode="&#x40b;" horiz-adv-x="804" 
d="M319 0h-144v568h-137v132h576v-132h-295v-171q34 20 77.5 32.5t94.5 12.5q116 0 180.5 -65t64.5 -183v-194h-144v163q0 73 -34 110t-98 37q-41 0 -77 -13.5t-64 -36.5v-260z" />
    <glyph glyph-name="uni0452" unicode="&#x452;" horiz-adv-x="615" 
d="M26 632h74v90h130v-90h152v-104h-152v-134q47 80 144 80q41 0 75 -14t58.5 -40t38 -61.5t13.5 -79.5v-276q0 -102 -50.5 -155.5t-146.5 -53.5h-36v122h20q44 0 63.5 24t19.5 79v225q0 52 -23.5 82t-68.5 30q-47 0 -77 -30.5t-30 -80.5v-245h-130v528h-74v104z" />
    <glyph glyph-name="uni045B" unicode="&#x45b;" horiz-adv-x="615" 
d="M26 632h74v90h130v-90h152v-104h-152v-134q47 80 144 80q41 0 75 -14t58.5 -40t38 -61.5t13.5 -79.5v-279h-130v244q0 52 -23.5 82t-68.5 30q-47 0 -77 -30.5t-30 -80.5v-245h-130v528h-74v104z" />
    <glyph glyph-name="uni0453" unicode="&#x453;" horiz-adv-x="414" 
d="M60 500h336v-118h-206v-382h-130v500zM247 748h146l-116 -168h-120z" />
    <glyph glyph-name="uni045C" unicode="&#x45c;" horiz-adv-x="548" 
d="M252 202h-62v-202h-130v500h130v-184h65l134 184h138l-177 -238l182 -262h-142zM293 748h146l-116 -168h-120z" />
    <glyph glyph-name="uni0409" unicode="&#x409;" horiz-adv-x="1051" 
d="M20 -8v148h12q33 0 54 14t34 49t18 94t5 149v254h486v-222h144q54 0 99 -17t76.5 -48.5t49 -75.5t17.5 -98t-17.5 -98t-49 -75.5t-76 -48.5t-99.5 -17h-282v564h-210v-148q0 -123 -13.5 -205t-42.5 -130.5t-74.5 -68.5t-110.5 -20h-20zM629 352v-226h132q51 0 81.5 30.5
t30.5 82.5t-30.5 82.5t-81.5 30.5h-132z" />
    <glyph glyph-name="uni040A" unicode="&#x40a;" horiz-adv-x="1068" 
d="M646 126h132q51 0 81.5 27.5t30.5 75.5t-30.5 75.5t-81.5 27.5h-132v-206zM78 0v700h142v-242h288v242h138v-242h144q54 0 99 -16.5t76.5 -46.5t49 -72.5t17.5 -93.5q0 -52 -17.5 -94t-49 -72t-76 -46.5t-99.5 -16.5h-282v332h-288v-332h-142z" />
    <glyph glyph-name="uni0459" unicode="&#x459;" horiz-adv-x="822" 
d="M487 108h98q35 0 55 19t20 50t-20 50t-55 19h-98v-138zM20 -6v124h6q25 0 41 8.5t25.5 30t13 60t3.5 98.5v185h378v-146h114q41 0 74.5 -13.5t57 -37t36.5 -56t13 -70.5t-13 -70.5t-36.5 -56t-57 -37t-74.5 -13.5h-234v384h-140v-88q0 -80 -8.5 -137.5t-30 -94
t-58.5 -53.5t-95 -17h-15z" />
    <glyph glyph-name="uni045A" unicode="&#x45a;" horiz-adv-x="853" 
d="M398 500h120v-159h122q39 0 71 -13t54.5 -35.5t35 -53.5t12.5 -68t-12.5 -68.5t-35 -54t-54.5 -35.5t-71 -13h-242v233h-204v-233h-128v500h128v-159h204v159zM518 108h106q30 0 48.5 17t18.5 46t-18.5 45.5t-48.5 16.5h-106v-125z" />
    <glyph glyph-name="acute" unicode="&#xb4;" horiz-adv-x="276" 
d="M110 748h146l-116 -168h-120z" />
    <glyph glyph-name="circumflex" unicode="&#x2c6;" horiz-adv-x="422" 
d="M164 750h94l144 -168h-116l-75 81l-75 -81h-116z" />
    <glyph glyph-name="caron" unicode="&#x2c7;" horiz-adv-x="426" 
d="M20 750h116l75 -81l75 81h116l-144 -168h-94z" />
    <glyph glyph-name="quotedblleft" unicode="&#x201c;" horiz-adv-x="419" 
d="M186.002 488.004q0 -31.998 -21.499 -52.9961q-21.499 -20.999 -53.4971 -20.999q-35.9971 0 -59.4961 27.998q-23.498 27.998 -23.498 74.9951q0 47.9971 26.998 99.4941t76.9951 95.4941l51.9971 -49.9971q-28.998 -25.998 -46.4971 -49.9971
q-17.499 -23.998 -28.498 -49.9961q32.9971 0 54.9961 -19.999t21.999 -53.9971zM391.002 488.004q0 -31.998 -21.499 -52.9961q-21.499 -20.999 -53.4971 -20.999q-35.9971 0 -59.4961 27.998q-23.498 27.998 -23.498 74.9951q0 47.9971 26.998 99.4941t76.9951 95.4941
l51.9971 -49.9971q-28.998 -25.998 -46.4971 -49.9971q-17.499 -23.998 -28.498 -49.9961q32.9971 0 54.9961 -19.999t21.999 -53.9971z" />
    <glyph glyph-name="quoteright" unicode="&#x2019;" horiz-adv-x="214" 
d="M28 634q0 32 21.5 53t53.5 21q36 0 59.5 -28t23.5 -75q0 -48 -27 -99.5t-77 -95.5l-52 50q29 26 46.5 50t28.5 50q-33 0 -55 20t-22 54z" />
    <glyph glyph-name="periodcentered" unicode="&#xb7;" horiz-adv-x="260" 
d="M48 289q0 36 23.5 59t58.5 23t58.5 -23t23.5 -59t-23.5 -59t-58.5 -23t-58.5 23t-23.5 59z" />
    <glyph glyph-name="quotedblbase" unicode="&#x201e;" horiz-adv-x="419" 
d="M233 68q0 32 21.5 53t53.5 21q36 0 59.5 -28t23.5 -75q0 -48 -27 -99.5t-77 -95.5l-52 50q29 26 46.5 50t28.5 50q-33 0 -55 20t-22 54zM28 68q0 32 21.5 53t53.5 21q36 0 59.5 -28t23.5 -75q0 -48 -27 -99.5t-77 -95.5l-52 50q29 26 46.5 50t28.5 50q-33 0 -55 20
t-22 54z" />
    <glyph glyph-name="quotedblright" unicode="&#x201d;" horiz-adv-x="419" 
d="M233 634q0 32 21.5 53t53.5 21q36 0 59.5 -28t23.5 -75q0 -48 -27 -99.5t-77 -95.5l-52 50q29 26 46.5 50t28.5 50q-33 0 -55 20t-22 54zM28 634q0 32 21.5 53t53.5 21q36 0 59.5 -28t23.5 -75q0 -48 -27 -99.5t-77 -95.5l-52 50q29 26 46.5 50t28.5 50q-33 0 -55 20
t-22 54z" />
    <glyph glyph-name="quoteleft" unicode="&#x2018;" horiz-adv-x="214" 
d="M186.002 488.004q0 -31.998 -21.499 -52.9961q-21.499 -20.999 -53.4971 -20.999q-35.9971 0 -59.4961 27.998q-23.498 27.998 -23.498 74.9951q0 47.9971 26.998 99.4941t76.9951 95.4941l51.9971 -49.9971q-28.998 -25.998 -46.4971 -49.9971
q-17.499 -23.998 -28.498 -49.9961q32.9971 0 54.9961 -19.999t21.999 -53.9971z" />
    <glyph glyph-name="uni02BC" unicode="&#x2bc;" horiz-adv-x="268" 
d="M46 632q0 35 23.5 57.5t58.5 22.5q39 0 64.5 -29.5t25.5 -80.5q0 -53 -29.5 -108t-83.5 -103l-55 53q32 29 51.5 55t30.5 53q-36 0 -61 21t-25 59z" />
    <glyph glyph-name="guilsinglleft" unicode="&#x2039;" horiz-adv-x="374" 
d="M32 250l212 265l93 -68l-160 -197l161 -197l-94 -68z" />
    <glyph glyph-name="guilsinglright" unicode="&#x203a;" horiz-adv-x="374" 
d="M342 250l-212 -265l-94 68l161 197l-160 197l93 68z" />
    <glyph glyph-name="guillemotright" unicode="&#xbb;" horiz-adv-x="615" 
d="M341 250l-212 -265l-93 68l160 197l-160 197l93 68zM583 250l-212 -265l-93 68l160 197l-160 197l93 68z" />
    <glyph glyph-name="guillemotleft" unicode="&#xab;" horiz-adv-x="615" 
d="M274 250l212 265l93 -68l-160 -197l160 -197l-93 -68zM32 250l212 265l93 -68l-160 -197l160 -197l-93 -68z" />
    <glyph glyph-name="endash" unicode="&#x2013;" horiz-adv-x="597" 
d="M46 321h505v-108h-505v108z" />
    <glyph glyph-name="emdash" unicode="&#x2014;" horiz-adv-x="737" 
d="M46 321h645v-108h-645v108z" />
    <glyph glyph-name="dieresis" unicode="&#xa8;" horiz-adv-x="428" 
d="M107 575q-32 0 -55.5 22.5t-23.5 56.5t23.5 56.5t55.5 22.5t55.5 -22.5t23.5 -56.5t-23.5 -56.5t-55.5 -22.5zM321 575q-32 0 -55.5 22.5t-23.5 56.5t23.5 56.5t55.5 22.5t55.5 -22.5t23.5 -56.5t-23.5 -56.5t-55.5 -22.5z" />
    <glyph glyph-name="dotaccent" unicode="&#x2d9;" horiz-adv-x="250" 
d="M124 573q-33 0 -56 22.5t-23 57.5t23 57.5t56 22.5h2q33 0 56 -22.5t23 -57.5t-23 -57.5t-56 -22.5h-2z" />
    <glyph glyph-name="quotesinglbase" unicode="&#x201a;" horiz-adv-x="214" 
d="M28 68q0 32 21.5 53t53.5 21q36 0 59.5 -28t23.5 -75q0 -48 -27 -99.5t-77 -95.5l-52 50q29 26 46.5 50t28.5 50q-33 0 -55 20t-22 54z" />
    <glyph glyph-name="uni02C9" unicode="&#x2c9;" horiz-adv-x="384" 
d="M30 725h324v-101h-324v101z" />
    <glyph glyph-name="cedilla" unicode="&#xb8;" horiz-adv-x="313" 
d="M79 -213q-47 0 -94 16l24 85q27 -13 60 -13q72 0 72 54q0 48 -70 73l70 50q97 -48 97 -136q0 -60 -41 -94.5t-118 -34.5z" />
    <glyph glyph-name="tilde" unicode="&#x2dc;" horiz-adv-x="391" 
d="M141 637q-17 0 -27 -14t-10 -41h-84q0 42 10 70.5t26 45.5t36 24t41 7q26 0 42.5 -8.5t28.5 -19t22 -19.5t25 -9q17 0 26.5 14t9.5 42h83q0 -42 -9.5 -70.5t-25 -45.5t-35.5 -24.5t-41 -7.5q-27 0 -43 9t-28 19.5t-22 19t-25 8.5z" />
    <glyph glyph-name="ogonek" unicode="&#x2db;" horiz-adv-x="260" 
d="M27 -113q0 26 9.5 48.5t30 43t52.5 40.5t78 40l26 -59q-56 -25 -78 -45.5t-22 -46.5q0 -24 14.5 -37.5t40.5 -13.5q17 0 30.5 5.5t24.5 13.5l26 -84q-41 -25 -95 -25q-63 0 -100 32.5t-37 87.5z" />
    <glyph glyph-name="g.ss02" horiz-adv-x="608" 
d="M293 134q56 0 91.5 37t35.5 97q0 57 -35.5 92.5t-91.5 35.5t-91.5 -35.5t-35.5 -92.5q0 -60 35.5 -97t91.5 -37zM262 16q-51 0 -92.5 19t-71 52.5t-46 79t-16.5 98.5t16.5 98.5t46 79t71 52.5t92.5 19q52 0 92 -20.5t66 -56.5v63h128v-450q0 -60 -19.5 -109t-55 -83.5
t-85 -53t-110.5 -18.5q-83 0 -142 34t-92 95l99 66q22 -40 57 -60t78 -20q63 0 102.5 40.5t39.5 113.5v38q-26 -36 -66 -56.5t-92 -20.5z" />
    <glyph glyph-name="edieresis" unicode="&#xeb;" horiz-adv-x="583" 
d="M167 306h249q-8 46 -39.5 73t-80.5 27q-48 0 -82 -26.5t-47 -73.5zM304 -14q-59 0 -108.5 19.5t-85 54.5t-55 84t-19.5 107q0 59 20 107.5t55 83t83 53.5t105 19q56 0 101.5 -18t77.5 -51t50 -78.5t18 -100.5q0 -11 -1 -24t-3 -28h-378q10 -54 47 -85t94 -31
q42 0 74.5 17.5t52.5 52.5l91 -72q-38 -54 -93.5 -82t-125.5 -28zM192 575q-32 0 -55.5 22.5t-23.5 56.5t23.5 56.5t55.5 22.5t55.5 -22.5t23.5 -56.5t-23.5 -56.5t-55.5 -22.5zM406 575q-32 0 -55.5 22.5t-23.5 56.5t23.5 56.5t55.5 22.5t55.5 -22.5t23.5 -56.5
t-23.5 -56.5t-55.5 -22.5z" />
    <glyph glyph-name="ntilde" unicode="&#xf1;" horiz-adv-x="575" 
d="M388 0v282q0 54 -23 83t-70 29q-48 0 -77.5 -31t-29.5 -90v-273h-130v500h130v-60q52 74 143 74q42 0 76 -14t59 -40t38.5 -61.5t13.5 -79.5v-319h-130zM233 637q-17 0 -27 -14t-10 -41h-84q0 42 10 70.5t26 45.5t36 24t41 7q26 0 42.5 -8.5t28.5 -19t22 -19.5t25 -9
q17 0 26.5 14t9.5 42h83q0 -42 -9.5 -70.5t-25 -45.5t-35.5 -24.5t-41 -7.5q-27 0 -43 9t-28 19.5t-22 19t-25 8.5z" />
    <glyph glyph-name="acircumflex" unicode="&#xe2;" 
d="M366 221l-100 -4q-53 -2 -80.5 -18t-27.5 -48q0 -28 21.5 -44t59.5 -16q57 0 92 35t35 93v2zM32 140q0 76 59 119.5t168 47.5l107 4v5q0 42 -27.5 67.5t-75.5 25.5q-39 0 -68 -18t-46 -54l-102 50q29 63 85.5 95t134.5 32q105 0 164 -55t59 -151v-308h-124v62
q-55 -76 -159 -76q-40 0 -72 11t-55 31.5t-35.5 49t-12.5 62.5zM226 750h94l144 -168h-116l-75 81l-75 -81h-116z" />
    <glyph glyph-name="ecircumflex" unicode="&#xea;" horiz-adv-x="583" 
d="M167 306h249q-8 46 -39.5 73t-80.5 27q-48 0 -82 -26.5t-47 -73.5zM304 -14q-59 0 -108.5 19.5t-85 54.5t-55 84t-19.5 107q0 59 20 107.5t55 83t83 53.5t105 19q56 0 101.5 -18t77.5 -51t50 -78.5t18 -100.5q0 -11 -1 -24t-3 -28h-378q10 -54 47 -85t94 -31
q42 0 74.5 17.5t52.5 52.5l91 -72q-38 -54 -93.5 -82t-125.5 -28zM248 750h94l144 -168h-116l-75 81l-75 -81h-116z" />
    <glyph glyph-name="agrave" unicode="&#xe0;" 
d="M366 221l-100 -4q-53 -2 -80.5 -18t-27.5 -48q0 -28 21.5 -44t59.5 -16q57 0 92 35t35 93v2zM32 140q0 76 59 119.5t168 47.5l107 4v5q0 42 -27.5 67.5t-75.5 25.5q-39 0 -68 -18t-46 -54l-102 50q29 63 85.5 95t134.5 32q105 0 164 -55t59 -151v-308h-124v62
q-55 -76 -159 -76q-40 0 -72 11t-55 31.5t-35.5 49t-12.5 62.5zM114 748h146l96 -168h-120z" />
    <glyph glyph-name="odieresis" unicode="&#xf6;" horiz-adv-x="604" 
d="M302 -14q-58 0 -107 20t-84.5 55t-55 83.5t-19.5 105.5t19.5 105.5t55 83.5t84.5 55t107 20q59 0 107.5 -20t84 -55t55 -83.5t19.5 -105.5t-19.5 -105.5t-55 -83.5t-84 -55t-107.5 -20zM302 106q29 0 53.5 10.5t42.5 30t28 46t10 57.5q0 32 -10 58t-28 45.5t-42.5 30
t-53.5 10.5t-53.5 -10.5t-42.5 -30t-28 -45.5t-10 -58q0 -31 10 -57.5t28 -46t42.5 -30t53.5 -10.5zM195 575q-32 0 -55.5 22.5t-23.5 56.5t23.5 56.5t55.5 22.5t55.5 -22.5t23.5 -56.5t-23.5 -56.5t-55.5 -22.5zM409 575q-32 0 -55.5 22.5t-23.5 56.5t23.5 56.5t55.5 22.5
t55.5 -22.5t23.5 -56.5t-23.5 -56.5t-55.5 -22.5z" />
    <glyph glyph-name="ring" unicode="&#x2da;" horiz-adv-x="308" 
d="M154 574q-26 0 -49 8.5t-39.5 24.5t-26 38t-9.5 49t9.5 49t26 38t39.5 24.5t49 8.5t49 -8.5t39.5 -24.5t26 -38t9.5 -49t-9.5 -49t-26 -38t-39.5 -24.5t-49 -8.5zM154 646q20 0 33 13.5t13 34.5t-13 34.5t-33 13.5t-33 -13.5t-13 -34.5t13 -34.5t33 -13.5z" />
    <glyph glyph-name="dotlessi" unicode="&#x131;" horiz-adv-x="248" 
d="M60 500h128v-500h-128v500z" />
    <glyph glyph-name="aring" unicode="&#xe5;" 
d="M366 221l-100 -4q-53 -2 -80.5 -18t-27.5 -48q0 -28 21.5 -44t59.5 -16q57 0 92 35t35 93v2zM32 140q0 76 59 119.5t168 47.5l107 4v5q0 42 -27.5 67.5t-75.5 25.5q-39 0 -68 -18t-46 -54l-102 50q29 63 85.5 95t134.5 32q105 0 164 -55t59 -151v-308h-124v62
q-55 -76 -159 -76q-40 0 -72 11t-55 31.5t-35.5 49t-12.5 62.5zM279 574q-26 0 -49 8.5t-39.5 24.5t-26 38t-9.5 49t9.5 49t26 38t39.5 24.5t49 8.5t49 -8.5t39.5 -24.5t26 -38t9.5 -49t-9.5 -49t-26 -38t-39.5 -24.5t-49 -8.5zM279 646q20 0 33 13.5t13 34.5t-13 34.5
t-33 13.5t-33 -13.5t-13 -34.5t13 -34.5t33 -13.5z" />
    <glyph glyph-name="Ccedilla" unicode="&#xc7;" horiz-adv-x="760" 
d="M413 -16q-81 0 -148 27.5t-115 76.5t-75 116t-27 146t27 146t75 116t115 76.5t148 27.5q112 0 195 -52t123 -146l-125 -65q-24 62 -73.5 95.5t-118.5 33.5q-49 0 -89.5 -17t-69.5 -48t-45 -73.5t-16 -93.5t16 -93.5t45 -73.5t69.5 -48t89.5 -17q69 0 119 34t74 97
l126 -62q-39 -96 -123 -149.5t-197 -53.5zM366 -228q-22 0 -44.5 3.5t-47.5 12.5l24 89q29 -13 60 -13q74 0 74 58q0 28 -18.5 47t-56.5 33l70 53q54 -29 79 -65t25 -83q0 -63 -43.5 -99t-121.5 -36z" />
    <glyph glyph-name="ccedilla" unicode="&#xe7;" horiz-adv-x="566" 
d="M36 250q0 58 20 106.5t55 83.5t84.5 54.5t107.5 19.5q82 0 143 -38t90 -107l-112 -57q-17 40 -48 61t-73 21q-30 0 -55 -10.5t-42.5 -30t-27.5 -45.5t-10 -58q0 -31 10 -57.5t27.5 -46t42 -30t54.5 -10.5q42 0 74 21.5t48 63.5l113 -54q-28 -72 -89.5 -111.5
t-145.5 -39.5q-58 0 -107 19.5t-84 54.5t-55 83.5t-20 106.5zM243 -213q-47 0 -94 16l24 85q27 -13 60 -13q72 0 72 54q0 48 -70 73l70 50q97 -48 97 -136q0 -60 -41 -94.5t-118 -34.5z" />
    <glyph glyph-name="aacute" unicode="&#xe1;" 
d="M366 221l-100 -4q-53 -2 -80.5 -18t-27.5 -48q0 -28 21.5 -44t59.5 -16q57 0 92 35t35 93v2zM32 140q0 76 59 119.5t168 47.5l107 4v5q0 42 -27.5 67.5t-75.5 25.5q-39 0 -68 -18t-46 -54l-102 50q29 63 85.5 95t134.5 32q105 0 164 -55t59 -151v-308h-124v62
q-55 -76 -159 -76q-40 0 -72 11t-55 31.5t-35.5 49t-12.5 62.5zM283 748h146l-116 -168h-120z" />
    <glyph glyph-name="atilde" unicode="&#xe3;" 
d="M366 221l-100 -4q-53 -2 -80.5 -18t-27.5 -48q0 -28 21.5 -44t59.5 -16q57 0 92 35t35 93v2zM32 140q0 76 59 119.5t168 47.5l107 4v5q0 42 -27.5 67.5t-75.5 25.5q-39 0 -68 -18t-46 -54l-102 50q29 63 85.5 95t134.5 32q105 0 164 -55t59 -151v-308h-124v62
q-55 -76 -159 -76q-40 0 -72 11t-55 31.5t-35.5 49t-12.5 62.5zM211 637q-17 0 -27 -14t-10 -41h-84q0 42 10 70.5t26 45.5t36 24t41 7q26 0 42.5 -8.5t28.5 -19t22 -19.5t25 -9q17 0 26.5 14t9.5 42h83q0 -42 -9.5 -70.5t-25 -45.5t-35.5 -24.5t-41 -7.5q-27 0 -43 9
t-28 19.5t-22 19t-25 8.5z" />
    <glyph glyph-name="adieresis" unicode="&#xe4;" 
d="M366 221l-100 -4q-53 -2 -80.5 -18t-27.5 -48q0 -28 21.5 -44t59.5 -16q57 0 92 35t35 93v2zM32 140q0 76 59 119.5t168 47.5l107 4v5q0 42 -27.5 67.5t-75.5 25.5q-39 0 -68 -18t-46 -54l-102 50q29 63 85.5 95t134.5 32q105 0 164 -55t59 -151v-308h-124v62
q-55 -76 -159 -76q-40 0 -72 11t-55 31.5t-35.5 49t-12.5 62.5zM162 575q-32 0 -55.5 22.5t-23.5 56.5t23.5 56.5t55.5 22.5t55.5 -22.5t23.5 -56.5t-23.5 -56.5t-55.5 -22.5zM376 575q-32 0 -55.5 22.5t-23.5 56.5t23.5 56.5t55.5 22.5t55.5 -22.5t23.5 -56.5t-23.5 -56.5
t-55.5 -22.5z" />
    <glyph glyph-name="egrave" unicode="&#xe8;" horiz-adv-x="583" 
d="M167 306h249q-8 46 -39.5 73t-80.5 27q-48 0 -82 -26.5t-47 -73.5zM304 -14q-59 0 -108.5 19.5t-85 54.5t-55 84t-19.5 107q0 59 20 107.5t55 83t83 53.5t105 19q56 0 101.5 -18t77.5 -51t50 -78.5t18 -100.5q0 -11 -1 -24t-3 -28h-378q10 -54 47 -85t94 -31
q42 0 74.5 17.5t52.5 52.5l91 -72q-38 -54 -93.5 -82t-125.5 -28zM145 748h146l96 -168h-120z" />
    <glyph glyph-name="eacute" unicode="&#xe9;" horiz-adv-x="583" 
d="M167 306h249q-8 46 -39.5 73t-80.5 27q-48 0 -82 -26.5t-47 -73.5zM304 -14q-59 0 -108.5 19.5t-85 54.5t-55 84t-19.5 107q0 59 20 107.5t55 83t83 53.5t105 19q56 0 101.5 -18t77.5 -51t50 -78.5t18 -100.5q0 -11 -1 -24t-3 -28h-378q10 -54 47 -85t94 -31
q42 0 74.5 17.5t52.5 52.5l91 -72q-38 -54 -93.5 -82t-125.5 -28zM315 748h146l-116 -168h-120z" />
    <glyph glyph-name="ograve" unicode="&#xf2;" horiz-adv-x="604" 
d="M302 -14q-58 0 -107 20t-84.5 55t-55 83.5t-19.5 105.5t19.5 105.5t55 83.5t84.5 55t107 20q59 0 107.5 -20t84 -55t55 -83.5t19.5 -105.5t-19.5 -105.5t-55 -83.5t-84 -55t-107.5 -20zM302 106q29 0 53.5 10.5t42.5 30t28 46t10 57.5q0 32 -10 58t-28 45.5t-42.5 30
t-53.5 10.5t-53.5 -10.5t-42.5 -30t-28 -45.5t-10 -58q0 -31 10 -57.5t28 -46t42.5 -30t53.5 -10.5zM155 748h146l96 -168h-120z" />
    <glyph glyph-name="oacute" unicode="&#xf3;" horiz-adv-x="604" 
d="M302 -14q-58 0 -107 20t-84.5 55t-55 83.5t-19.5 105.5t19.5 105.5t55 83.5t84.5 55t107 20q59 0 107.5 -20t84 -55t55 -83.5t19.5 -105.5t-19.5 -105.5t-55 -83.5t-84 -55t-107.5 -20zM302 106q29 0 53.5 10.5t42.5 30t28 46t10 57.5q0 32 -10 58t-28 45.5t-42.5 30
t-53.5 10.5t-53.5 -10.5t-42.5 -30t-28 -45.5t-10 -58q0 -31 10 -57.5t28 -46t42.5 -30t53.5 -10.5zM331 748h146l-116 -168h-120z" />
    <glyph glyph-name="ocircumflex" unicode="&#xf4;" horiz-adv-x="604" 
d="M302 -14q-58 0 -107 20t-84.5 55t-55 83.5t-19.5 105.5t19.5 105.5t55 83.5t84.5 55t107 20q59 0 107.5 -20t84 -55t55 -83.5t19.5 -105.5t-19.5 -105.5t-55 -83.5t-84 -55t-107.5 -20zM302 106q29 0 53.5 10.5t42.5 30t28 46t10 57.5q0 32 -10 58t-28 45.5t-42.5 30
t-53.5 10.5t-53.5 -10.5t-42.5 -30t-28 -45.5t-10 -58q0 -31 10 -57.5t28 -46t42.5 -30t53.5 -10.5zM255 750h94l144 -168h-116l-75 81l-75 -81h-116z" />
    <glyph glyph-name="otilde" unicode="&#xf5;" horiz-adv-x="604" 
d="M302 -14q-58 0 -107 20t-84.5 55t-55 83.5t-19.5 105.5t19.5 105.5t55 83.5t84.5 55t107 20q59 0 107.5 -20t84 -55t55 -83.5t19.5 -105.5t-19.5 -105.5t-55 -83.5t-84 -55t-107.5 -20zM302 106q29 0 53.5 10.5t42.5 30t28 46t10 57.5q0 32 -10 58t-28 45.5t-42.5 30
t-53.5 10.5t-53.5 -10.5t-42.5 -30t-28 -45.5t-10 -58q0 -31 10 -57.5t28 -46t42.5 -30t53.5 -10.5zM248 637q-17 0 -27 -14t-10 -41h-84q0 42 10 70.5t26 45.5t36 24t41 7q26 0 42.5 -8.5t28.5 -19t22 -19.5t25 -9q17 0 26.5 14t9.5 42h83q0 -42 -9.5 -70.5t-25 -45.5
t-35.5 -24.5t-41 -7.5q-27 0 -43 9t-28 19.5t-22 19t-25 8.5z" />
    <glyph glyph-name="ugrave" unicode="&#xf9;" horiz-adv-x="575" 
d="M185.023 500v-281.982q0 -53.9971 22.999 -82.9951t69.9961 -28.998q47.9971 0 77.4951 30.998t29.498 89.9941v272.983h129.992v-499.97h-129.992v59.9971q-51.9971 -73.9961 -142.991 -73.9961q-41.998 0 -75.9951 13.999q-33.998 13.999 -58.9971 39.998
q-24.998 25.998 -38.4971 61.4961q-13.5 35.498 -13.5 79.4951v318.98h129.992zM120 748h146l96 -168h-120z" />
    <glyph glyph-name="uacute" unicode="&#xfa;" horiz-adv-x="575" 
d="M185.023 500v-281.982q0 -53.9971 22.999 -82.9951t69.9961 -28.998q47.9971 0 77.4951 30.998t29.498 89.9941v272.983h129.992v-499.97h-129.992v59.9971q-51.9971 -73.9961 -142.991 -73.9961q-41.998 0 -75.9951 13.999q-33.998 13.999 -58.9971 39.998
q-24.998 25.998 -38.4971 61.4961q-13.5 35.498 -13.5 79.4951v318.98h129.992zM319 748h146l-116 -168h-120z" />
    <glyph glyph-name="udieresis" unicode="&#xfc;" horiz-adv-x="575" 
d="M185.023 500v-281.982q0 -53.9971 22.999 -82.9951t69.9961 -28.998q47.9971 0 77.4951 30.998t29.498 89.9941v272.983h129.992v-499.97h-129.992v59.9971q-51.9971 -73.9961 -142.991 -73.9961q-41.998 0 -75.9951 13.999q-33.998 13.999 -58.9971 39.998
q-24.998 25.998 -38.4971 61.4961q-13.5 35.498 -13.5 79.4951v318.98h129.992zM181 575q-32 0 -55.5 22.5t-23.5 56.5t23.5 56.5t55.5 22.5t55.5 -22.5t23.5 -56.5t-23.5 -56.5t-55.5 -22.5zM395 575q-32 0 -55.5 22.5t-23.5 56.5t23.5 56.5t55.5 22.5t55.5 -22.5
t23.5 -56.5t-23.5 -56.5t-55.5 -22.5z" />
    <glyph glyph-name="yacute" unicode="&#xfd;" 
d="M130 -200l82 211l-196 489h139l123 -331l118 331h138l-273 -700h-131zM293 748h146l-116 -168h-120z" />
    <glyph glyph-name="ydieresis" unicode="&#xff;" 
d="M130 -200l82 211l-196 489h139l123 -331l118 331h138l-273 -700h-131zM168 575q-32 0 -55.5 22.5t-23.5 56.5t23.5 56.5t55.5 22.5t55.5 -22.5t23.5 -56.5t-23.5 -56.5t-55.5 -22.5zM382 575q-32 0 -55.5 22.5t-23.5 56.5t23.5 56.5t55.5 22.5t55.5 -22.5t23.5 -56.5
t-23.5 -56.5t-55.5 -22.5z" />
    <glyph glyph-name="zcaron" unicode="&#x17e;" horiz-adv-x="491" 
d="M40 122l254 260h-242v118h397v-121l-254 -261h256v-118h-411v122zM55 750h116l75 -81l75 81h116l-144 -168h-94z" />
    <glyph glyph-name="Ydieresis" unicode="&#x178;" horiz-adv-x="650" 
d="M253 0v273l-235 427h153l155 -304l155 304h151l-235 -427v-273h-144zM218 775q-32 0 -55.5 22.5t-23.5 56.5t23.5 56.5t55.5 22.5t55.5 -22.5t23.5 -56.5t-23.5 -56.5t-55.5 -22.5zM432 775q-32 0 -55.5 22.5t-23.5 56.5t23.5 56.5t55.5 22.5t55.5 -22.5t23.5 -56.5
t-23.5 -56.5t-55.5 -22.5z" />
    <glyph glyph-name="Zcaron" unicode="&#x17d;" horiz-adv-x="667" 
d="M79 700h530v-141l-387 -427h387v-132h-551v142l387 426h-366v132zM143 950h116l75 -81l75 81h116l-144 -168h-94z" />
    <glyph glyph-name="perthousand" unicode="&#x2030;" horiz-adv-x="1187" 
d="M217 -25l487 702l-81 55l-487 -702zM207 354q-37 0 -67.5 14t-51.5 38t-32.5 57t-11.5 70q0 38 11.5 70.5t32.5 56.5t51.5 38t67.5 14q38 0 68 -14t51 -38t32.5 -56.5t11.5 -70.5q0 -37 -11.5 -70t-32.5 -57t-51 -38t-68 -14zM207 450q29 0 46 22.5t17 60.5t-17 60.5
t-46 22.5t-46 -22.5t-17 -60.5t17 -60.5t46 -22.5zM634 -12q-37 0 -67.5 14t-51.5 38t-32.5 57t-11.5 70q0 38 11.5 70.5t32.5 56.5t51.5 38t67.5 14q38 0 68 -14t51 -38t32.5 -56.5t11.5 -70.5q0 -37 -11.5 -70t-32.5 -57t-51 -38t-68 -14zM634 84q29 0 46 22.5t17 60.5
t-17 60.5t-46 22.5t-46 -22.5t-17 -60.5t17 -60.5t46 -22.5zM1004 -12q-37 0 -67.5 14t-51.5 38t-32.5 57t-11.5 70q0 38 11.5 70.5t32.5 56.5t51.5 38t67.5 14q38 0 68 -14t51 -38t32.5 -56.5t11.5 -70.5q0 -37 -11.5 -70t-32.5 -57t-51 -38t-68 -14zM1004 84q29 0 46 22.5
t17 60.5t-17 60.5t-46 22.5t-46 -22.5t-17 -60.5t17 -60.5t46 -22.5z" />
    <glyph glyph-name="igrave" unicode="&#xec;" horiz-adv-x="248" 
d="M60 500h128v-500h-128v500zM-46 748h146l96 -168h-120z" />
    <glyph glyph-name="iacute" unicode="&#xed;" horiz-adv-x="248" 
d="M60 500h128v-500h-128v500zM148 748h146l-116 -168h-120z" />
    <glyph glyph-name="idieresis" unicode="&#xef;" horiz-adv-x="248" 
d="M60 500h128v-500h-128v500zM17 575q-32 0 -55.5 22.5t-23.5 56.5t23.5 56.5t55.5 22.5t55.5 -22.5t23.5 -56.5t-23.5 -56.5t-55.5 -22.5zM231 575q-32 0 -55.5 22.5t-23.5 56.5t23.5 56.5t55.5 22.5t55.5 -22.5t23.5 -56.5t-23.5 -56.5t-55.5 -22.5z" />
    <glyph glyph-name="thorn" unicode="&#xfe;" horiz-adv-x="624" 
d="M322 106q29 0 53.5 11t42.5 30t28 46t10 58q0 32 -10 58t-28 45t-42.5 29.5t-53.5 10.5t-53.5 -10.5t-42.5 -29.5t-28 -45t-10 -58q0 -31 10 -58t28 -46t42.5 -30t53.5 -11zM357 -14q-57 0 -99.5 24.5t-69.5 66.5v-277h-128v922h128v-299q27 42 69.5 66.5t99.5 24.5
q51 0 93.5 -20t73 -55.5t47.5 -83.5t17 -105t-17 -105t-47.5 -83.5t-73 -55.5t-93.5 -20z" />
    <glyph glyph-name="Thorn" unicode="&#xde;" horiz-adv-x="639" 
d="M216 260h136q50 0 79.5 30t29.5 77t-29.5 77t-79.5 30h-136v-214zM78 0v700h138v-100h144q54 0 98.5 -16.5t77 -47.5t50 -73.5t17.5 -95.5t-17.5 -96t-50 -73.5t-77 -47t-98.5 -16.5h-144v-134h-138z" />
    <glyph glyph-name="cent" unicode="&#xa2;" horiz-adv-x="566" 
d="M366 -168h-126v160q-46 9 -83.5 32t-64.5 56.5t-41.5 76.5t-14.5 93t14.5 93t41.5 76.5t64.5 56.5t83.5 32v164h126v-165q60 -13 103.5 -49t66.5 -92l-113 -56q-17 41 -48 62.5t-73 21.5q-30 0 -54.5 -10.5t-42 -30t-27.5 -45.5t-10 -58q0 -31 10 -57.5t27.5 -46t42 -30
t54.5 -10.5q42 0 73 21.5t48 62.5l113 -56q-23 -56 -66.5 -92t-103.5 -49v-161z" />
    <glyph glyph-name="ae" unicode="&#xe6;" horiz-adv-x="915" 
d="M366 222l-85 -4q-70 -3 -96.5 -22.5t-26.5 -46.5t22 -43t58 -16q56 0 92 35.5t36 94.5v2zM749 306q-8 46 -39.5 73t-80.5 27q-50 0 -84.5 -27t-47.5 -73h252zM641 -14q-75 0 -132 30t-91 84q-26 -55 -76.5 -84.5t-122.5 -29.5q-89 0 -138 43t-49 111q0 73 57 117.5
t170 48.5l107 4v5q0 42 -27.5 68.5t-76.5 26.5q-82 0 -116 -73l-100 50q27 60 81 93.5t134 33.5q63 0 108.5 -21t73.5 -59q35 38 84 59t109 21q55 0 99.5 -18t76.5 -51t49.5 -78.5t17.5 -100.5q0 -11 -1 -24t-3 -28h-381q11 -53 48 -84.5t95 -31.5q42 0 75 17.5t53 52.5
l91 -72q-75 -110 -215 -110z" />
    <glyph glyph-name="oe" unicode="&#x153;" horiz-adv-x="985" 
d="M302 106q29 0 53.5 10.5t42.5 30t28 46t10 57.5q0 32 -10 58t-28 45.5t-42.5 30t-53.5 10.5t-53.5 -10.5t-42.5 -30t-28 -45.5t-10 -58q0 -31 10 -57.5t28 -46t42.5 -30t53.5 -10.5zM567 306h252q-8 46 -39.5 73t-80.5 27q-50 0 -84.5 -27t-47.5 -73zM709 -14
q-66 0 -119 24t-88 68q-35 -43 -87.5 -67.5t-116.5 -24.5q-57 0 -105.5 20t-83 55t-54 83.5t-19.5 105.5t19.5 105.5t54 83.5t83 55t105.5 20q64 0 116 -24.5t87 -66.5q35 43 87.5 67t116.5 24q55 0 100 -18t77 -51t49.5 -78.5t17.5 -100.5q0 -11 -1 -24t-3 -28h-381
q11 -53 48 -84.5t95 -31.5q42 0 75 17.5t53 52.5l91 -72q-75 -110 -217 -110z" />
    <glyph glyph-name="Oslash" unicode="&#xd8;" horiz-adv-x="828" 
d="M531 551q-51 31 -114 31q-50 0 -91 -17.5t-70.5 -48.5t-45.5 -73t-16 -91q0 -62 25 -114zM296 151q53 -33 121 -33q48 0 87.5 17.5t68.5 49t45 74t16 93.5q0 61 -25 113zM109 -46l-91 91l92 92q-30 45 -46 98.5t-16 114.5q0 79 27 146t76 116t116 76.5t148 27.5
q61 0 113.5 -16t97.5 -45l91 91l91 -91l-91 -91q30 -45 46.5 -99t16.5 -115q0 -79 -27 -146t-75.5 -116t-115.5 -76.5t-147 -27.5q-62 0 -115.5 16.5t-98.5 46.5z" />
    <glyph glyph-name="multiply" unicode="&#xd7;" horiz-adv-x="482" 
d="M110 576l129 -134l138 142l85 -85l-143 -138l135 -129l-82 -82l-129 134l-138 -142l-85 85l143 138l-135 129z" />
    <glyph glyph-name="divide" unicode="&#xf7;" horiz-adv-x="572" 
d="M46 404h480v-112h-480v112zM206 153q0 -34 23.5 -56.5t56.5 -22.5t56.5 22.5t23.5 56.5t-23.5 56.5t-56.5 22.5t-56.5 -22.5t-23.5 -56.5zM206 543q0 -34 23.5 -56.5t56.5 -22.5t56.5 22.5t23.5 56.5t-23.5 56.5t-56.5 22.5t-56.5 -22.5t-23.5 -56.5z" />
    <glyph glyph-name="Eth" unicode="&#xd0;" horiz-adv-x="779" 
d="M266 292v-160h99q51 0 91.5 16t69 44.5t44 68.5t15.5 89t-15.5 89t-44 68.5t-69 44.5t-91.5 16h-99v-146h111v-130h-111zM32 292v130h90v278h260q76 0 140 -26.5t110.5 -73.5t72.5 -111t26 -139t-26 -139t-72.5 -111t-110.5 -73.5t-140 -26.5h-260v292h-90z" />
    <glyph glyph-name="questiondown" unicode="&#xbf;" horiz-adv-x="556" 
d="M368.012 426.005q0 -35.998 -23.499 -58.9971q-23.498 -22.998 -58.4961 -22.998t-58.4961 22.998q-23.499 22.999 -23.499 58.9971q0 35.9971 23.499 58.9961q23.498 22.999 58.4961 22.999t58.4961 -22.999q23.499 -22.999 23.499 -58.9961zM351.013 268.014
q0 -47.9961 -10.999 -79.9941q-11 -31.998 -27.499 -52.9971t-36.4971 -33.998q-19.999 -12.999 -38.998 -24.999q-28.998 -16.998 -48.9971 -37.9971t-19.999 -49.9971q0 -34.998 28.498 -56.9961q28.499 -21.999 76.4961 -21.999q49.9971 0 86.4941 26.498
q36.498 26.499 50.4971 76.4951l133.992 -31.998q-25.999 -93.9941 -96.4941 -144.99q-70.4961 -50.9971 -176.489 -50.9971q-54.9971 0 -99.9941 13.999t-76.4951 39.9971q-31.498 25.999 -48.9971 62.4961q-17.499 36.498 -17.499 80.4951q0 50.9971 23.999 90.9951
q23.998 39.9971 76.9951 72.9951q18.999 11.999 35.4971 22.999q16.499 10.999 28.999 24.998q12.499 13.999 19.998 33.498q7.5 19.499 7.5 49.4971v19.999h129.992v-27.999z" />
    <glyph glyph-name="exclamdown" unicode="&#xa1;" horiz-adv-x="260" 
d="M48 426.005q0 -35.998 23.5 -58.9971q23.5 -22.998 58.5 -22.998t58.5 22.998q23.5 22.999 23.5 58.9971q0 35.9971 -23.5 58.9961t-58.5 22.999t-58.5 -22.999t-23.5 -58.9961zM63 -199.957h138l-9 495.97h-120z" />
    <glyph glyph-name="yen" unicode="&#xa5;" horiz-adv-x="614" 
d="M67 261v96h143l-192 343h138l152 -303l152 303h136l-192 -343h143v-96h-182v-69h182v-96h-182v-96h-116v96h-182v96h182v69h-182z" />
    <glyph glyph-name="uni00B5" unicode="&#xb5;" horiz-adv-x="635" 
d="M60 -200v700h128v-283q0 -53 23.5 -83t69.5 -30q48 0 78 31t30 82v283h128v-285q0 -54 18.5 -79.5t65.5 -25.5h14v-116h-27q-104 0 -145 75q-24 -40 -64.5 -61.5t-94.5 -21.5q-53 0 -96 23v-209h-128z" />
    <glyph glyph-name="eth" unicode="&#xf0;" horiz-adv-x="589" 
d="M287 100q55 0 90 35.5t35 93.5q0 57 -35 92t-89 35t-89 -35t-35 -92q0 -58 33.5 -93.5t89.5 -35.5zM126 534l73 68q-26 6 -55.5 10.5t-61.5 8.5l18 115q56 -5 105 -15.5t92 -27.5l103 95l60 -67l-78 -72q81 -55 124 -141t43 -205q0 -76 -18.5 -135t-53 -99.5t-83 -61.5
t-109.5 -21q-55 0 -100.5 17.5t-78.5 49t-51.5 76.5t-18.5 99q0 52 17.5 96t48.5 76t74 50t94 18q105 0 163 -69q-16 115 -136 170l-111 -102z" />
    <glyph glyph-name="ellipsis" unicode="&#x2026;" horiz-adv-x="660" 
d="M53 74q0 36 23.5 59t58.5 23t58.5 -23t23.5 -59t-23.5 -59t-58.5 -23t-58.5 23t-23.5 59zM253 74q0 36 23.5 59t58.5 23t58.5 -23t23.5 -59t-23.5 -59t-58.5 -23t-58.5 23t-23.5 59zM453 74q0 36 23.5 59t58.5 23t58.5 -23t23.5 -59t-23.5 -59t-58.5 -23t-58.5 23
t-23.5 59z" />
    <glyph glyph-name="oslash" unicode="&#xf8;" horiz-adv-x="604" 
d="M180 188l189 189q-31 17 -67 17q-29 0 -53.5 -10.5t-42.5 -30t-28 -45.5t-10 -58q0 -35 12 -62zM424 313l-189 -189q29 -18 67 -18q29 0 53.5 10.5t42.5 30t28 46t10 57.5q0 35 -12 63zM7 29l71 71q-42 65 -42 150q0 57 19.5 105.5t55 83.5t84.5 55t107 20q87 0 151 -43
l73 73l71 -71l-72 -72q20 -32 31.5 -70t11.5 -81q0 -57 -19.5 -105.5t-55 -83.5t-84 -55t-107.5 -20q-44 0 -82.5 11.5t-70.5 31.5l-71 -71z" />
    <glyph glyph-name="plusminus" unicode="&#xb1;" horiz-adv-x="594" 
d="M54 498h182v196h122v-196h182v-112h-182v-196h-122v196h-182v112zM54 122h486v-114h-486v114z" />
    <glyph glyph-name="onesuperior" unicode="&#xb9;" horiz-adv-x="244" 
d="M102 408v287l-68 -46l-44 76l110 75h96v-392h-94z" />
    <glyph glyph-name="copyright" unicode="&#xa9;" horiz-adv-x="928" 
d="M464 -25q65 0 119.5 23t94 64t61.5 96.5t22 121.5t-22 121.5t-61.5 96.5t-94 64t-119.5 23t-119.5 -23t-94 -64t-61.5 -96.5t-22 -121.5t22 -121.5t61.5 -96.5t94 -64t119.5 -23zM467 70q-45 0 -83.5 15.5t-66 43.5t-43 66.5t-15.5 84.5t15.5 84.5t43 66.5t66 43.5
t83.5 15.5q66 0 113 -31.5t72 -85.5l-92 -45q-26 62 -93 62q-22 0 -41 -8.5t-33 -23.5t-21.5 -35t-7.5 -43t7.5 -43t21.5 -35t33 -23.5t41 -8.5q67 0 93 62l92 -45q-25 -54 -72 -85.5t-113 -31.5zM464 -110q-84 0 -154.5 29.5t-122 81.5t-80.5 123.5t-29 155.5t29 155.5
t80.5 123.5t122 81.5t154.5 29.5t154.5 -29.5t122 -81.5t80.5 -123.5t29 -155.5t-29 -155.5t-80.5 -123.5t-122 -81.5t-154.5 -29.5z" />
    <glyph glyph-name="threesuperior" unicode="&#xb3;" horiz-adv-x="347" 
d="M183 399q-123 0 -167 107l82 38q9 -27 28.5 -43.5t53.5 -16.5q29 0 46 12t17 34q0 37 -52 37h-69v83h69q43 0 43 34q0 19 -15.5 30.5t-39.5 11.5q-25 0 -43.5 -13t-27.5 -36l-80 38q23 47 61 70.5t94 23.5q66 0 105.5 -31t39.5 -85q0 -59 -47 -82q27 -11 41.5 -35
t14.5 -56q0 -55 -41.5 -88t-112.5 -33z" />
    <glyph glyph-name="twosuperior" unicode="&#xb2;" horiz-adv-x="328" 
d="M31 408v83l154 122q20 15 31.5 34.5t11.5 36.5q0 18 -13 30t-37 12q-26 0 -43.5 -15t-22.5 -41l-88 22q14 57 54 87t101 30q66 0 104.5 -33t38.5 -89q0 -38 -20.5 -71t-64.5 -66l-77 -57h170v-85h-299z" />
    <glyph glyph-name="Euro" unicode="&#x20ac;" horiz-adv-x="673" 
d="M14 227v96h53q-1 7 -1 13.5v13.5v15.5t1 15.5h-53v96h68q15 54 42.5 98.5t66 75.5t87 48t104.5 17q96 0 165 -49t104 -142l-112 -50q-20 57 -60 86.5t-97 29.5q-58 0 -99 -30t-63 -84h240v-96h-261q-1 -8 -1 -15.5v-15.5v-13.5t1 -13.5h261v-96h-242q22 -56 63.5 -87
t101.5 -31q116 0 157 118l113 -47q-35 -96 -103.5 -146t-165.5 -50q-57 0 -106 17.5t-88 49t-66.5 76.5t-42.5 100h-67z" />
    <glyph glyph-name="ordfeminine" unicode="&#xaa;" horiz-adv-x="318" 
d="M158 452q-49 -2 -49 -29q0 -28 39 -28q27 0 42.5 15.5t17.5 43.5zM26 415q0 44 34 68t94 26l55 2v2q0 18 -13.5 30t-36.5 12q-41 0 -58 -37l-67 33q17 35 50 53.5t78 18.5q62 0 95.5 -31.5t33.5 -87.5v-169h-82v30q-30 -38 -84 -38q-46 0 -72.5 24.5t-26.5 63.5z" />
    <glyph glyph-name="J.1" horiz-adv-x="396" 
d="M176 700h142v-451q0 -125 -60.5 -191t-176.5 -66h-49v132h32q60 0 86 38t26 114v424z" />
    <glyph glyph-name="sterling" unicode="&#xa3;" horiz-adv-x="599" 
d="M26 281v112h66q-7 20 -12 43t-5 52q0 52 18 94t50.5 72t78.5 46t102 16q94 0 156.5 -44.5t91.5 -130.5l-121 -41q-14 45 -45 68.5t-81 23.5q-60 0 -88 -32.5t-28 -86.5q0 -22 4 -41t9 -39h238v-112h-211q1 -6 1 -12v-12q0 -41 -11.5 -72.5t-33.5 -56.5h370v-128h-549v108
q53 17 77.5 50.5t24.5 90.5q0 8 -0.5 16t-1.5 16h-100z" />
    <glyph glyph-name="uni20BD" unicode="&#x20bd;" horiz-adv-x="643" 
d="M244 388h118q51 0 80 27t29 72q0 42 -29 68.5t-81 26.5h-117v-194zM30 99v100h86v77h-86v112h86v312h249q54 0 97.5 -15t74 -43t47.5 -67t17 -87t-17 -87.5t-48 -67t-75 -42.5t-98 -15h-119v-77h228v-100h-228v-99h-128v99h-86z" />
    <glyph glyph-name="uni20B4" unicode="&#x20b4;" horiz-adv-x="611" 
d="M19 384v96h406q5 20 5 34q0 41 -35.5 66t-90.5 25q-48 0 -86 -20.5t-61 -62.5l-93 73q87 120 244 120q55 0 99 -13.5t75.5 -38.5t48.5 -60t17 -78q0 -9 -1 -20t-6 -25h57v-96h-579zM312 -16q-59 0 -106.5 14t-81 40t-51.5 63.5t-18 84.5q0 12 1.5 23.5t3.5 22.5h-41v96
h579v-96h-417q-2 -8 -4 -16.5t-2 -18.5q0 -48 38.5 -74.5t98.5 -26.5q114 0 163 97l102 -61q-42 -75 -106.5 -111.5t-158.5 -36.5z" />
    <glyph glyph-name="uni0450" unicode="&#x450;" horiz-adv-x="585" 
d="M167 306h249q-8 46 -39.5 73t-80.5 27q-48 0 -82 -26.5t-47 -73.5zM304 -14q-59 0 -108.5 19.5t-85 54.5t-55 84t-19.5 107q0 59 20 107.5t55 83t83 53.5t105 19q56 0 101.5 -18t77.5 -51t50 -78.5t18 -100.5q0 -11 -1 -24t-3 -28h-378q10 -54 47 -85t94 -31
q42 0 74.5 17.5t52.5 52.5l91 -72q-38 -54 -93.5 -82t-125.5 -28zM132 748h146l96 -168h-120z" />
    <glyph glyph-name="uni0400" unicode="&#x400;" horiz-adv-x="588" 
d="M78 700h462v-132h-318v-139h278v-132h-278v-165h318v-132h-462v700zM173 948h146l96 -168h-120z" />
    <glyph glyph-name="uni0403" unicode="&#x403;" horiz-adv-x="549" 
d="M78 700h435v-132h-291v-568h-144v700zM329 938h160l-137 -156h-136z" />
    <glyph glyph-name="uni040C" unicode="&#x40c;" horiz-adv-x="675" 
d="M434 368l219 -368h-158l-178 303h-95v-303h-144v700h144v-273h98l177 273h156zM382 938h160l-137 -156h-136z" />
    <glyph glyph-name="uni040E" unicode="&#x40e;" horiz-adv-x="634" 
d="M324 351l142 349h150l-307 -700h-144l91 206l-238 494h154zM319 777q-91 0 -145 43.5t-62 117.5h120q4 -27 27 -46t61 -19t60.5 19t26.5 46h120q-8 -73 -62.5 -117t-145.5 -44z" />
    <glyph glyph-name="uni040D" unicode="&#x40d;" horiz-adv-x="751" 
d="M662 0h-144v467l-292 -467h-148v700h144v-467l292 467h148v-700zM326 782l-137 156h160l113 -156h-136z" />
    <glyph glyph-name="uni045D" unicode="&#x45d;" horiz-adv-x="586" 
d="M196 500v-312l201 312h129v-500h-130v312l-201 -312h-129v500h130zM135 748h146l96 -168h-120z" />
    <glyph glyph-name="aogonek" unicode="&#x105;" 
d="M366 221l-85 -4q-70 -3 -96.5 -22.5t-26.5 -45.5q0 -27 22 -43t58 -16q56 0 92 35.5t36 94.5v1zM294 -113q0 35 17 63.5t55 55.5v63q-54 -83 -163 -83q-41 0 -73 12t-53.5 33t-33 49t-11.5 60q0 74 57 118.5t170 48.5l107 4v4q0 42 -27.5 68.5t-76.5 26.5q-82 0 -116 -73
l-100 50q28 60 83 93.5t137 33.5q106 0 165 -55t59 -151v-308q-56 -25 -78 -45.5t-22 -46.5q0 -24 14.5 -37.5t40.5 -13.5q17 0 30.5 5.5t24.5 13.5l26 -84q-41 -25 -95 -25q-63 0 -100 32.5t-37 87.5z" />
    <glyph glyph-name="Aogonek" unicode="&#x104;" horiz-adv-x="690" 
d="M256 274h174l-87 261zM468 -116q0 34 16 62t52 54h-14l-50 150h-258l-50 -150h-146l253 700h148l253 -700q-60 -26 -84 -47t-24 -49q0 -25 16 -39t44 -14q17 0 32 5.5t26 13.5l26 -84q-42 -25 -98 -25q-65 0 -103.5 33t-38.5 90z" />
    <glyph glyph-name="dcaron" unicode="&#x10f;" horiz-adv-x="832" 
d="M303.02 106q-27.998 0 -51.9971 10.5q-23.998 10.5 -41.4971 30t-27.498 46q-10 26.5 -10 57.5q0 32 10 58q9.99902 26 27.498 45.5t41.4971 30q23.999 10.5 51.9971 10.5q28.998 0 53.4971 -10.5q24.498 -10.5 41.9971 -30t27.498 -45.5q10 -26 10 -58q0 -31 -10 -57.5
q-9.99902 -26.5 -27.498 -46t-41.9971 -30q-24.499 -10.5 -53.4971 -10.5zM272.021 -14q51.9971 0 93.4941 21q41.498 21 70.4961 60v-67h129.992v722h-129.992v-289q-28.998 39 -69.9961 60q-40.9971 21 -92.9941 21q-49.9971 0 -92.4941 -19.5q-42.498 -19.5 -73.9961 -54
t-48.9961 -83q-17.499 -48.5 -17.499 -107.5q0 -58 17.499 -107q17.498 -49 48.4961 -83.5q30.999 -34.5 73.4961 -54t92.4941 -19.5zM614 634q0 32 21.5 53t53.5 21q36 0 59.5 -28t23.5 -75q0 -48 -27 -99.5t-77 -95.5l-52 50q29 26 46.5 50t28.5 50q-33 0 -55 20t-22 54z
" />
    <glyph glyph-name="Dcroat" unicode="&#x110;" horiz-adv-x="779" 
d="M266 292v-160h99q51 0 91.5 16t69 44.5t44 68.5t15.5 89t-15.5 89t-44 68.5t-69 44.5t-91.5 16h-99v-146h111v-130h-111zM32 292v130h90v278h260q76 0 140 -26.5t110.5 -73.5t72.5 -111t26 -139t-26 -139t-72.5 -111t-110.5 -73.5t-140 -26.5h-260v292h-90z" />
    <glyph glyph-name="dcroat" unicode="&#x111;" horiz-adv-x="660" 
d="M303 106q29 0 53.5 10.5t42 30t27.5 46t10 57.5q0 32 -10 58t-27.5 45.5t-42 30t-53.5 10.5q-28 0 -52 -10.5t-41.5 -30t-27.5 -45.5t-10 -58q0 -31 10 -57.5t27.5 -46t41.5 -30t52 -10.5zM272 -14q-50 0 -92.5 19.5t-73.5 54t-48.5 83.5t-17.5 107q0 59 17.5 107.5
t49 83t74 54t92.5 19.5q52 0 93 -21t70 -60v130h-67v108h67v51h130v-51h68v-108h-68v-563h-130v67q-29 -39 -70.5 -60t-93.5 -21z" />
    <glyph glyph-name="eogonek" unicode="&#x119;" horiz-adv-x="583" 
d="M167 306h249q-8 46 -39.5 73t-80.5 27q-48 0 -82 -26.5t-47 -73.5zM260 -104q0 48 35 90q-57 1 -105 21.5t-82 55.5t-53 83t-19 105q0 59 20 107.5t55 83t83 53.5t105 19q56 0 101.5 -18t77.5 -51t50 -78.5t18 -100.5q0 -11 -1 -24t-3 -28h-378q10 -54 47 -85t94 -31
q42 0 74.5 17.5t52.5 52.5l91 -72q-27 -39 -65 -65v-1q-30 -20 -49.5 -35.5t-31 -28t-16.5 -24.5t-5 -24q0 -24 15 -39.5t43 -15.5q15 0 29 4.5t25 12.5l26 -84q-41 -25 -95 -25q-64 0 -101.5 35t-37.5 90z" />
    <glyph glyph-name="Eogonek" unicode="&#x118;" horiz-adv-x="588" 
d="M299 -118q0 34 16.5 63t51.5 55h-289v700h462v-132h-318v-139h278v-132h-278v-165h318v-132h-37q-59 -23 -83.5 -45t-24.5 -51q0 -25 16 -39t44 -14q17 0 32 5.5t26 13.5l26 -84q-42 -25 -98 -25q-65 0 -103.5 33t-38.5 88z" />
    <glyph glyph-name="grave.case" horiz-adv-x="333" 
d="M167 782l-137 156h160l113 -156h-136z" />
    <glyph glyph-name="dieresis.case" horiz-adv-x="454" 
d="M116 774q-33 0 -56.5 22.5t-23.5 57.5t23.5 57.5t56.5 22.5t56.5 -22.5t23.5 -57.5t-23.5 -57.5t-56.5 -22.5zM338 774q-33 0 -56.5 22.5t-23.5 57.5t23.5 57.5t56.5 22.5t56.5 -22.5t23.5 -57.5t-23.5 -57.5t-56.5 -22.5z" />
    <glyph glyph-name="macron.case" horiz-adv-x="398" 
d="M30 898h338v-102h-338v102z" />
    <glyph glyph-name="acute.case" horiz-adv-x="333" 
d="M143 938h160l-137 -156h-136z" />
    <glyph glyph-name="circumflex.case" horiz-adv-x="496" 
d="M196 938h104l166 -156h-132l-86 72l-86 -72h-132z" />
    <glyph glyph-name="caron.case" horiz-adv-x="496" 
d="M162 939l86 -72l86 72h132l-166 -157h-104l-166 157h132z" />
    <glyph glyph-name="breve.case" horiz-adv-x="479" 
d="M239 777q-91 0 -145 43.5t-62 117.5h120q4 -27 27 -46t61 -19t60.5 19t26.5 46h120q-8 -73 -62.5 -117t-145.5 -44z" />
    <glyph glyph-name="dotaccent.case" horiz-adv-x="220" 
d="M110 774q-33 0 -56.5 22.5t-23.5 57.5t23.5 57.5t56.5 22.5t56.5 -22.5t23.5 -57.5t-23.5 -57.5t-56.5 -22.5z" />
    <glyph glyph-name="ring.case" horiz-adv-x="312" 
d="M156 776q-27 0 -50 9t-40 25.5t-26.5 39t-9.5 49.5t9.5 49.5t26.5 39t40 25.5t50 9t50 -9t40 -25.5t26.5 -39t9.5 -49.5t-9.5 -49.5t-26.5 -39t-40 -25.5t-50 -9zM156 853q18 0 31.5 13t13.5 33t-13.5 33t-31.5 13t-31.5 -13t-13.5 -33t13.5 -33t31.5 -13z" />
    <glyph glyph-name="tilde.case" horiz-adv-x="470" 
d="M30 787q0 45 12 74.5t31 47.5t43 25t48 7q32 0 51 -9t32.5 -20.5t25.5 -20.5t29 -9q40 0 40 59h98q0 -45 -11 -75t-29.5 -47.5t-42 -25t-48.5 -7.5q-32 0 -51.5 9.5t-33 21t-25 21t-28.5 9.5q-20 0 -31.5 -16t-11.5 -44h-98z" />
    <glyph glyph-name="macron" unicode="&#xaf;" horiz-adv-x="364" 
d="M30 696h304v-100h-304v100z" />
    <glyph glyph-name="uni000A" unicode="&#xa;" horiz-adv-x="333" 
 />
    <glyph glyph-name="Agrave" unicode="&#xc0;" horiz-adv-x="690" 
d="M256 274h174l-87 260zM419 700l253 -700h-150l-50 150h-258l-50 -150h-146l253 700h148zM277 782l-137 156h160l113 -156h-136z" />
    <glyph glyph-name="Aacute" unicode="&#xc1;" horiz-adv-x="690" 
d="M256 274h174l-87 260zM419 700l253 -700h-150l-50 150h-258l-50 -150h-146l253 700h148zM393 938h160l-137 -156h-136z" />
    <glyph glyph-name="Acircumflex" unicode="&#xc2;" horiz-adv-x="690" 
d="M256 274h174l-87 260zM419 700l253 -700h-150l-50 150h-258l-50 -150h-146l253 700h148zM293 938h104l166 -156h-132l-86 72l-86 -72h-132z" />
    <glyph glyph-name="Atilde" unicode="&#xc3;" horiz-adv-x="690" 
d="M256 274h174l-87 260zM419 700l253 -700h-150l-50 150h-258l-50 -150h-146l253 700h148zM140 787q0 45 12 74.5t31 47.5t43 25t48 7q32 0 51 -9t32.5 -20.5t25.5 -20.5t29 -9q40 0 40 59h98q0 -45 -11 -75t-29.5 -47.5t-42 -25t-48.5 -7.5q-32 0 -51.5 9.5t-33 21t-25 21
t-28.5 9.5q-20 0 -31.5 -16t-11.5 -44h-98z" />
    <glyph glyph-name="Adieresis" unicode="&#xc4;" horiz-adv-x="690" 
d="M256 274h174l-87 260zM419 700l253 -700h-150l-50 150h-258l-50 -150h-146l253 700h148zM234 774q-33 0 -56.5 22.5t-23.5 57.5t23.5 57.5t56.5 22.5t56.5 -22.5t23.5 -57.5t-23.5 -57.5t-56.5 -22.5zM456 774q-33 0 -56.5 22.5t-23.5 57.5t23.5 57.5t56.5 22.5
t56.5 -22.5t23.5 -57.5t-23.5 -57.5t-56.5 -22.5z" />
    <glyph glyph-name="Aring" unicode="&#xc5;" horiz-adv-x="690" 
d="M256 274h174l-87 260zM419 700l253 -700h-150l-50 150h-258l-50 -150h-146l253 700h148zM345 776q-27 0 -50 9t-40 25.5t-26.5 39t-9.5 49.5t9.5 49.5t26.5 39t40 25.5t50 9t50 -9t40 -25.5t26.5 -39t9.5 -49.5t-9.5 -49.5t-26.5 -39t-40 -25.5t-50 -9zM345 853
q18 0 31.5 13t13.5 33t-13.5 33t-31.5 13t-31.5 -13t-13.5 -33t13.5 -33t31.5 -13z" />
    <glyph glyph-name="Egrave" unicode="&#xc8;" horiz-adv-x="588" 
d="M78 700h462v-132h-318v-139h278v-132h-278v-165h318v-132h-462v700zM276 782l-137 156h160l113 -156h-136z" />
    <glyph glyph-name="Eacute" unicode="&#xc9;" horiz-adv-x="588" 
d="M78 700h462v-132h-318v-139h278v-132h-278v-165h318v-132h-462v700zM342 938h160l-137 -156h-136z" />
    <glyph glyph-name="Ecircumflex" unicode="&#xca;" horiz-adv-x="588" 
d="M78 700h462v-132h-318v-139h278v-132h-278v-165h318v-132h-462v700zM263 938h104l166 -156h-132l-86 72l-86 -72h-132z" />
    <glyph glyph-name="Edieresis" unicode="&#xcb;" horiz-adv-x="588" 
d="M78 700h462v-132h-318v-139h278v-132h-278v-165h318v-132h-462v700zM203 774q-33 0 -56.5 22.5t-23.5 57.5t23.5 57.5t56.5 22.5t56.5 -22.5t23.5 -57.5t-23.5 -57.5t-56.5 -22.5zM425 774q-33 0 -56.5 22.5t-23.5 57.5t23.5 57.5t56.5 22.5t56.5 -22.5t23.5 -57.5
t-23.5 -57.5t-56.5 -22.5z" />
    <glyph glyph-name="Igrave" unicode="&#xcc;" horiz-adv-x="298" 
d="M76 700h144v-700h-144v700zM87 782l-137 156h160l113 -156h-136z" />
    <glyph glyph-name="Iacute" unicode="&#xcd;" horiz-adv-x="298" 
d="M76 700h144v-700h-144v700zM191 938h160l-137 -156h-136z" />
    <glyph glyph-name="Icircumflex" unicode="&#xce;" horiz-adv-x="298" 
d="M76 700h144v-700h-144v700zM97 938h104l166 -156h-132l-86 72l-86 -72h-132z" />
    <glyph glyph-name="Idieresis" unicode="&#xcf;" horiz-adv-x="298" 
d="M76 700h144v-700h-144v700zM38 774q-33 0 -56.5 22.5t-23.5 57.5t23.5 57.5t56.5 22.5t56.5 -22.5t23.5 -57.5t-23.5 -57.5t-56.5 -22.5zM260 774q-33 0 -56.5 22.5t-23.5 57.5t23.5 57.5t56.5 22.5t56.5 -22.5t23.5 -57.5t-23.5 -57.5t-56.5 -22.5z" />
    <glyph glyph-name="Ntilde" unicode="&#xd1;" horiz-adv-x="751" 
d="M78 0v700h150l304 -477v477h136v-700h-150l-304 477v-477h-136zM171 787q0 45 12 74.5t31 47.5t43 25t48 7q32 0 51 -9t32.5 -20.5t25.5 -20.5t29 -9q40 0 40 59h98q0 -45 -11 -75t-29.5 -47.5t-42 -25t-48.5 -7.5q-32 0 -51.5 9.5t-33 21t-25 21t-28.5 9.5
q-20 0 -31.5 -16t-11.5 -44h-98z" />
    <glyph glyph-name="Ograve" unicode="&#xd2;" horiz-adv-x="828" 
d="M415 -16q-81 0 -148 27.5t-116 76.5t-76 116t-27 146t27 146t76 116t116 76.5t148 27.5q80 0 147 -27.5t115.5 -76.5t75.5 -116t27 -146t-27 -146t-75.5 -116t-115.5 -76.5t-147 -27.5zM417 118q48 0 87.5 17.5t68.5 49t45 74t16 93.5q0 49 -16 91t-45 73t-68.5 48.5
t-87.5 17.5q-50 0 -91 -17.5t-70.5 -48.5t-45.5 -73t-16 -91q0 -51 16 -93.5t45.5 -74t70.5 -49t91 -17.5zM356 782l-137 156h160l113 -156h-136z" />
    <glyph glyph-name="Oacute" unicode="&#xd3;" horiz-adv-x="828" 
d="M415 -16q-81 0 -148 27.5t-116 76.5t-76 116t-27 146t27 146t76 116t116 76.5t148 27.5q80 0 147 -27.5t115.5 -76.5t75.5 -116t27 -146t-27 -146t-75.5 -116t-115.5 -76.5t-147 -27.5zM417 118q48 0 87.5 17.5t68.5 49t45 74t16 93.5q0 49 -16 91t-45 73t-68.5 48.5
t-87.5 17.5q-50 0 -91 -17.5t-70.5 -48.5t-45.5 -73t-16 -91q0 -51 16 -93.5t45.5 -74t70.5 -49t91 -17.5zM452 938h160l-137 -156h-136z" />
    <glyph glyph-name="Ocircumflex" unicode="&#xd4;" horiz-adv-x="828" 
d="M415 -16q-81 0 -148 27.5t-116 76.5t-76 116t-27 146t27 146t76 116t116 76.5t148 27.5q80 0 147 -27.5t115.5 -76.5t75.5 -116t27 -146t-27 -146t-75.5 -116t-115.5 -76.5t-147 -27.5zM417 118q48 0 87.5 17.5t68.5 49t45 74t16 93.5q0 49 -16 91t-45 73t-68.5 48.5
t-87.5 17.5q-50 0 -91 -17.5t-70.5 -48.5t-45.5 -73t-16 -91q0 -51 16 -93.5t45.5 -74t70.5 -49t91 -17.5zM362 938h104l166 -156h-132l-86 72l-86 -72h-132z" />
    <glyph glyph-name="Otilde" unicode="&#xd5;" horiz-adv-x="828" 
d="M415 -16q-81 0 -148 27.5t-116 76.5t-76 116t-27 146t27 146t76 116t116 76.5t148 27.5q80 0 147 -27.5t115.5 -76.5t75.5 -116t27 -146t-27 -146t-75.5 -116t-115.5 -76.5t-147 -27.5zM417 118q48 0 87.5 17.5t68.5 49t45 74t16 93.5q0 49 -16 91t-45 73t-68.5 48.5
t-87.5 17.5q-50 0 -91 -17.5t-70.5 -48.5t-45.5 -73t-16 -91q0 -51 16 -93.5t45.5 -74t70.5 -49t91 -17.5zM209 787q0 45 12 74.5t31 47.5t43 25t48 7q32 0 51 -9t32.5 -20.5t25.5 -20.5t29 -9q40 0 40 59h98q0 -45 -11 -75t-29.5 -47.5t-42 -25t-48.5 -7.5q-32 0 -51.5 9.5
t-33 21t-25 21t-28.5 9.5q-20 0 -31.5 -16t-11.5 -44h-98z" />
    <glyph glyph-name="Odieresis" unicode="&#xd6;" horiz-adv-x="828" 
d="M415 -16q-81 0 -148 27.5t-116 76.5t-76 116t-27 146t27 146t76 116t116 76.5t148 27.5q80 0 147 -27.5t115.5 -76.5t75.5 -116t27 -146t-27 -146t-75.5 -116t-115.5 -76.5t-147 -27.5zM417 118q48 0 87.5 17.5t68.5 49t45 74t16 93.5q0 49 -16 91t-45 73t-68.5 48.5
t-87.5 17.5q-50 0 -91 -17.5t-70.5 -48.5t-45.5 -73t-16 -91q0 -51 16 -93.5t45.5 -74t70.5 -49t91 -17.5zM303 774q-33 0 -56.5 22.5t-23.5 57.5t23.5 57.5t56.5 22.5t56.5 -22.5t23.5 -57.5t-23.5 -57.5t-56.5 -22.5zM525 774q-33 0 -56.5 22.5t-23.5 57.5t23.5 57.5
t56.5 22.5t56.5 -22.5t23.5 -57.5t-23.5 -57.5t-56.5 -22.5z" />
    <glyph glyph-name="Ugrave" unicode="&#xd9;" horiz-adv-x="734" 
d="M367 -16q-63 0 -116 19t-92 55.5t-61 90.5t-22 124v427h144v-416q0 -83 41 -124.5t107 -41.5t106 41.5t40 124.5v416h144v-427q0 -70 -22 -124t-61 -90.5t-92 -55.5t-116 -19zM319 782l-137 156h160l113 -156h-136z" />
    <glyph glyph-name="Uacute" unicode="&#xda;" horiz-adv-x="734" 
d="M367 -16q-63 0 -116 19t-92 55.5t-61 90.5t-22 124v427h144v-416q0 -83 41 -124.5t107 -41.5t106 41.5t40 124.5v416h144v-427q0 -70 -22 -124t-61 -90.5t-92 -55.5t-116 -19zM395 938h160l-137 -156h-136z" />
    <glyph glyph-name="Ucircumflex" unicode="&#xdb;" horiz-adv-x="734" 
d="M367 -16q-63 0 -116 19t-92 55.5t-61 90.5t-22 124v427h144v-416q0 -83 41 -124.5t107 -41.5t106 41.5t40 124.5v416h144v-427q0 -70 -22 -124t-61 -90.5t-92 -55.5t-116 -19zM315 938h104l166 -156h-132l-86 72l-86 -72h-132z" />
    <glyph glyph-name="Udieresis" unicode="&#xdc;" horiz-adv-x="734" 
d="M367 -16q-63 0 -116 19t-92 55.5t-61 90.5t-22 124v427h144v-416q0 -83 41 -124.5t107 -41.5t106 41.5t40 124.5v416h144v-427q0 -70 -22 -124t-61 -90.5t-92 -55.5t-116 -19zM256 774q-33 0 -56.5 22.5t-23.5 57.5t23.5 57.5t56.5 22.5t56.5 -22.5t23.5 -57.5
t-23.5 -57.5t-56.5 -22.5zM478 774q-33 0 -56.5 22.5t-23.5 57.5t23.5 57.5t56.5 22.5t56.5 -22.5t23.5 -57.5t-23.5 -57.5t-56.5 -22.5z" />
    <glyph glyph-name="Yacute" unicode="&#xdd;" horiz-adv-x="650" 
d="M253 0v273l-235 427h153l155 -304l155 304h151l-235 -427v-273h-144zM373 938h160l-137 -156h-136z" />
    <glyph glyph-name="Abreve" unicode="&#x102;" horiz-adv-x="690" 
d="M256 274h174l-87 260zM419 700l253 -700h-150l-50 150h-258l-50 -150h-146l253 700h148zM345 777q-91 0 -145 43.5t-62 117.5h120q4 -27 27 -46t61 -19t60.5 19t26.5 46h120q-8 -73 -62.5 -117t-145.5 -44z" />
    <glyph glyph-name="abreve" unicode="&#x103;" 
d="M366 221l-100 -4q-53 -2 -80.5 -18t-27.5 -48q0 -28 21.5 -44t59.5 -16q57 0 92 35t35 93v2zM32 140q0 76 59 119.5t168 47.5l107 4v5q0 42 -27.5 67.5t-75.5 25.5q-39 0 -68 -18t-46 -54l-102 50q29 63 85.5 95t134.5 32q105 0 164 -55t59 -151v-308h-124v62
q-55 -76 -159 -76q-40 0 -72 11t-55 31.5t-35.5 49t-12.5 62.5zM274 584q-80 0 -129 43.5t-55 119.5h108q3 -35 24 -52t52 -17t52.5 17t25.5 52h108q-6 -76 -56 -119.5t-130 -43.5z" />
    <glyph glyph-name="Cacute" unicode="&#x106;" horiz-adv-x="760" 
d="M413 -16q-81 0 -148 27.5t-115 76.5t-75 116t-27 146t27 146t75 116t115 76.5t148 27.5q112 0 195 -52t123 -146l-125 -65q-24 62 -73.5 95.5t-118.5 33.5q-49 0 -89.5 -17t-69.5 -48t-45 -73.5t-16 -93.5t16 -93.5t45 -73.5t69.5 -48t89.5 -17q69 0 119 34t74 97
l126 -62q-39 -96 -123 -149.5t-197 -53.5zM452 938h160l-137 -156h-136z" />
    <glyph glyph-name="cacute" unicode="&#x107;" horiz-adv-x="566" 
d="M36 250q0 58 20 106.5t55 83.5t84.5 54.5t107.5 19.5q82 0 143 -38t90 -107l-112 -57q-17 40 -48 61t-73 21q-30 0 -55 -10.5t-42.5 -30t-27.5 -45.5t-10 -58q0 -31 10 -57.5t27.5 -46t42 -30t54.5 -10.5q42 0 74 21.5t48 63.5l113 -54q-28 -72 -89.5 -111.5
t-145.5 -39.5q-58 0 -107 19.5t-84 54.5t-55 83.5t-20 106.5zM331 748h146l-116 -168h-120z" />
    <glyph glyph-name="Ccircumflex" unicode="&#x108;" horiz-adv-x="760" 
d="M413 -16q-81 0 -148 27.5t-115 76.5t-75 116t-27 146t27 146t75 116t115 76.5t148 27.5q112 0 195 -52t123 -146l-125 -65q-24 62 -73.5 95.5t-118.5 33.5q-49 0 -89.5 -17t-69.5 -48t-45 -73.5t-16 -93.5t16 -93.5t45 -73.5t69.5 -48t89.5 -17q69 0 119 34t74 97
l126 -62q-39 -96 -123 -149.5t-197 -53.5zM362 938h104l166 -156h-132l-86 72l-86 -72h-132z" />
    <glyph glyph-name="ccircumflex" unicode="&#x109;" horiz-adv-x="566" 
d="M36 250q0 58 20 106.5t55 83.5t84.5 54.5t107.5 19.5q82 0 143 -38t90 -107l-112 -57q-17 40 -48 61t-73 21q-30 0 -55 -10.5t-42.5 -30t-27.5 -45.5t-10 -58q0 -31 10 -57.5t27.5 -46t42 -30t54.5 -10.5q42 0 74 21.5t48 63.5l113 -54q-28 -72 -89.5 -111.5
t-145.5 -39.5q-58 0 -107 19.5t-84 54.5t-55 83.5t-20 106.5zM250 750h94l144 -168h-116l-75 81l-75 -81h-116z" />
    <glyph glyph-name="Cdotaccent" unicode="&#x10a;" horiz-adv-x="760" 
d="M413 -16q-81 0 -148 27.5t-115 76.5t-75 116t-27 146t27 146t75 116t115 76.5t148 27.5q112 0 195 -52t123 -146l-125 -65q-24 62 -73.5 95.5t-118.5 33.5q-49 0 -89.5 -17t-69.5 -48t-45 -73.5t-16 -93.5t16 -93.5t45 -73.5t69.5 -48t89.5 -17q69 0 119 34t74 97
l126 -62q-39 -96 -123 -149.5t-197 -53.5zM413 774q-33 0 -56.5 22.5t-23.5 57.5t23.5 57.5t56.5 22.5t56.5 -22.5t23.5 -57.5t-23.5 -57.5t-56.5 -22.5z" />
    <glyph glyph-name="cdotaccent" unicode="&#x10b;" horiz-adv-x="566" 
d="M36 250q0 58 20 106.5t55 83.5t84.5 54.5t107.5 19.5q82 0 143 -38t90 -107l-112 -57q-17 40 -48 61t-73 21q-30 0 -55 -10.5t-42.5 -30t-27.5 -45.5t-10 -58q0 -31 10 -57.5t27.5 -46t42 -30t54.5 -10.5q42 0 74 21.5t48 63.5l113 -54q-28 -72 -89.5 -111.5
t-145.5 -39.5q-58 0 -107 19.5t-84 54.5t-55 83.5t-20 106.5zM317 573q-33 0 -56 22.5t-23 57.5t23 57.5t56 22.5h2q33 0 56 -22.5t23 -57.5t-23 -57.5t-56 -22.5h-2z" />
    <glyph glyph-name="Ccaron" unicode="&#x10c;" horiz-adv-x="760" 
d="M413 -16q-81 0 -148 27.5t-115 76.5t-75 116t-27 146t27 146t75 116t115 76.5t148 27.5q112 0 195 -52t123 -146l-125 -65q-24 62 -73.5 95.5t-118.5 33.5q-49 0 -89.5 -17t-69.5 -48t-45 -73.5t-16 -93.5t16 -93.5t45 -73.5t69.5 -48t89.5 -17q69 0 119 34t74 97
l126 -62q-39 -96 -123 -149.5t-197 -53.5zM324 939l86 -72l86 72h132l-166 -157h-104l-166 157h132z" />
    <glyph glyph-name="ccaron" unicode="&#x10d;" horiz-adv-x="566" 
d="M36 250q0 58 20 106.5t55 83.5t84.5 54.5t107.5 19.5q82 0 143 -38t90 -107l-112 -57q-17 40 -48 61t-73 21q-30 0 -55 -10.5t-42.5 -30t-27.5 -45.5t-10 -58q0 -31 10 -57.5t27.5 -46t42 -30t54.5 -10.5q42 0 74 21.5t48 63.5l113 -54q-28 -72 -89.5 -111.5
t-145.5 -39.5q-58 0 -107 19.5t-84 54.5t-55 83.5t-20 106.5zM112 750h116l75 -81l75 81h116l-144 -168h-94z" />
    <glyph glyph-name="Dcaron" unicode="&#x10e;" horiz-adv-x="735" 
d="M78 700h260q76 0 140 -26.5t110.5 -73.5t72.5 -111t26 -139t-26 -139t-72.5 -111t-110.5 -73.5t-140 -26.5h-260v700zM222 568v-436h99q51 0 91.5 16t69 44.5t44 68.5t15.5 89t-15.5 89t-44 68.5t-69 44.5t-91.5 16h-99zM242 939l86 -72l86 72h132l-166 -157h-104
l-166 157h132z" />
    <glyph glyph-name="Ebreve" unicode="&#x114;" horiz-adv-x="588" 
d="M78 700h462v-132h-318v-139h278v-132h-278v-165h318v-132h-462v700zM309 777q-91 0 -145 43.5t-62 117.5h120q4 -27 27 -46t61 -19t60.5 19t26.5 46h120q-8 -73 -62.5 -117t-145.5 -44z" />
    <glyph glyph-name="ebreve" unicode="&#x115;" horiz-adv-x="583" 
d="M167 306h249q-8 46 -39.5 73t-80.5 27q-48 0 -82 -26.5t-47 -73.5zM304 -14q-59 0 -108.5 19.5t-85 54.5t-55 84t-19.5 107q0 59 20 107.5t55 83t83 53.5t105 19q56 0 101.5 -18t77.5 -51t50 -78.5t18 -100.5q0 -11 -1 -24t-3 -28h-378q10 -54 47 -85t94 -31
q42 0 74.5 17.5t52.5 52.5l91 -72q-38 -54 -93.5 -82t-125.5 -28zM300 584q-80 0 -129 43.5t-55 119.5h108q3 -35 24 -52t52 -17t52.5 17t25.5 52h108q-6 -76 -56 -119.5t-130 -43.5z" />
    <glyph glyph-name="Edotaccent" unicode="&#x116;" horiz-adv-x="588" 
d="M78 700h462v-132h-318v-139h278v-132h-278v-165h318v-132h-462v700zM318 774q-33 0 -56.5 22.5t-23.5 57.5t23.5 57.5t56.5 22.5t56.5 -22.5t23.5 -57.5t-23.5 -57.5t-56.5 -22.5z" />
    <glyph glyph-name="edotaccent" unicode="&#x117;" horiz-adv-x="583" 
d="M167 306h249q-8 46 -39.5 73t-80.5 27q-48 0 -82 -26.5t-47 -73.5zM304 -14q-59 0 -108.5 19.5t-85 54.5t-55 84t-19.5 107q0 59 20 107.5t55 83t83 53.5t105 19q56 0 101.5 -18t77.5 -51t50 -78.5t18 -100.5q0 -11 -1 -24t-3 -28h-378q10 -54 47 -85t94 -31
q42 0 74.5 17.5t52.5 52.5l91 -72q-38 -54 -93.5 -82t-125.5 -28zM304 573q-33 0 -56 22.5t-23 57.5t23 57.5t56 22.5h2q33 0 56 -22.5t23 -57.5t-23 -57.5t-56 -22.5h-2z" />
    <glyph glyph-name="Ecaron" unicode="&#x11a;" horiz-adv-x="588" 
d="M78 700h462v-132h-318v-139h278v-132h-278v-165h318v-132h-462v700zM230 939l86 -72l86 72h132l-166 -157h-104l-166 157h132z" />
    <glyph glyph-name="ecaron" unicode="&#x11b;" horiz-adv-x="583" 
d="M167 306h249q-8 46 -39.5 73t-80.5 27q-48 0 -82 -26.5t-47 -73.5zM304 -14q-59 0 -108.5 19.5t-85 54.5t-55 84t-19.5 107q0 59 20 107.5t55 83t83 53.5t105 19q56 0 101.5 -18t77.5 -51t50 -78.5t18 -100.5q0 -11 -1 -24t-3 -28h-378q10 -54 47 -85t94 -31
q42 0 74.5 17.5t52.5 52.5l91 -72q-38 -54 -93.5 -82t-125.5 -28zM102 750h116l75 -81l75 81h116l-144 -168h-94z" />
    <glyph glyph-name="Gcircumflex" unicode="&#x11c;" horiz-adv-x="802" 
d="M753 322q0 -76 -24.5 -138.5t-68.5 -106.5t-106.5 -68.5t-139.5 -24.5q-82 0 -149.5 28t-115.5 77t-74.5 116t-26.5 146q0 78 26.5 145t74.5 116t115.5 76.5t149.5 27.5q106 0 185 -46t123 -133l-117 -69q-28 58 -76 88t-114 30q-50 0 -91.5 -17.5t-71 -48.5t-46 -74.5
t-16.5 -96.5q0 -52 16.5 -95.5t46.5 -74.5t71.5 -48t91.5 -17q78 0 129.5 39.5t63.5 107.5h-255v126h395q2 -20 3 -35.5t1 -29.5zM354 938h104l166 -156h-132l-86 72l-86 -72h-132z" />
    <glyph glyph-name="gcircumflex" unicode="&#x11d;" horiz-adv-x="546" 
d="M171 339q0 -32 25.5 -53t70.5 -21t70 21t25 53t-25 53t-70 21t-70.5 -21t-25.5 -53zM142 -55q0 -26 32.5 -40t90.5 -14q63 0 102 16t39 43q0 25 -33.5 37.5t-95.5 12.5q-65 0 -100 -14t-35 -41zM453 433q29 -41 29 -94q0 -38 -15.5 -70t-43.5 -55.5t-68 -36.5t-88 -13
q-40 0 -76 9q-18 -11 -18 -30t24 -28t84 -10q125 -1 191 -39.5t66 -111.5q0 -39 -19 -70.5t-55 -53t-87 -33t-115 -11.5q-116 0 -178 36.5t-62 105.5q0 43 24 73t69 44q-44 34 -44 81q0 24 11 43.5t32 40.5q-29 21 -46 53t-17 76q0 38 15.5 70.5t43.5 55.5t68 36t89 13
q70 0 120 -26l76 81l66 -64zM232 750h94l144 -168h-116l-75 81l-75 -81h-116z" />
    <glyph glyph-name="Gbreve" unicode="&#x11e;" horiz-adv-x="802" 
d="M753 322q0 -76 -24.5 -138.5t-68.5 -106.5t-106.5 -68.5t-139.5 -24.5q-82 0 -149.5 28t-115.5 77t-74.5 116t-26.5 146q0 78 26.5 145t74.5 116t115.5 76.5t149.5 27.5q106 0 185 -46t123 -133l-117 -69q-28 58 -76 88t-114 30q-50 0 -91.5 -17.5t-71 -48.5t-46 -74.5
t-16.5 -96.5q0 -52 16.5 -95.5t46.5 -74.5t71.5 -48t91.5 -17q78 0 129.5 39.5t63.5 107.5h-255v126h395q2 -20 3 -35.5t1 -29.5zM400 777q-91 0 -145 43.5t-62 117.5h120q4 -27 27 -46t61 -19t60.5 19t26.5 46h120q-8 -73 -62.5 -117t-145.5 -44z" />
    <glyph glyph-name="gbreve" unicode="&#x11f;" horiz-adv-x="546" 
d="M161 339q0 -32 25.5 -53t70.5 -21t70 21t25 53t-25 53t-70 21t-70.5 -21t-25.5 -53zM132 -55q0 -26 32.5 -40t90.5 -14q63 0 102 16t39 43q0 25 -33.5 37.5t-95.5 12.5q-65 0 -100 -14t-35 -41zM443 433q29 -41 29 -94q0 -38 -15.5 -70t-43.5 -55.5t-68 -36.5t-88 -13
q-40 0 -76 9q-18 -11 -18 -30t24 -28t84 -10q125 -1 191 -39.5t66 -111.5q0 -39 -19 -70.5t-55 -53t-87 -33t-115 -11.5q-116 0 -178 36.5t-62 105.5q0 43 24 73t69 44q-44 34 -44 81q0 24 11 43.5t32 40.5q-29 21 -46 53t-17 76q0 38 15.5 70.5t43.5 55.5t68 36t89 13
q70 0 120 -26l76 81l66 -64zM273 584q-80 0 -129 43.5t-55 119.5h108q3 -35 24 -52t52 -17t52.5 17t25.5 52h108q-6 -76 -56 -119.5t-130 -43.5z" />
    <glyph glyph-name="icircumflex" unicode="&#xee;" horiz-adv-x="248" 
d="M60 500h128v-500h-128v500zM77 750h94l144 -168h-116l-75 81l-75 -81h-116z" />
    <glyph glyph-name="ucircumflex" unicode="&#xfb;" horiz-adv-x="575" 
d="M185.023 500v-281.982q0 -53.9971 22.999 -82.9951t69.9961 -28.998q47.9971 0 77.4951 30.998t29.498 89.9941v272.983h129.992v-499.97h-129.992v59.9971q-51.9971 -73.9961 -142.991 -73.9961q-41.998 0 -75.9951 13.999q-33.998 13.999 -58.9971 39.998
q-24.998 25.998 -38.4971 61.4961q-13.5 35.498 -13.5 79.4951v318.98h129.992zM241 750h94l144 -168h-116l-75 81l-75 -81h-116z" />
    <glyph glyph-name="Obreve" unicode="&#x14e;" horiz-adv-x="828" 
d="M415 -16q-81 0 -148 27.5t-116 76.5t-76 116t-27 146t27 146t76 116t116 76.5t148 27.5q80 0 147 -27.5t115.5 -76.5t75.5 -116t27 -146t-27 -146t-75.5 -116t-115.5 -76.5t-147 -27.5zM417 118q48 0 87.5 17.5t68.5 49t45 74t16 93.5q0 49 -16 91t-45 73t-68.5 48.5
t-87.5 17.5q-50 0 -91 -17.5t-70.5 -48.5t-45.5 -73t-16 -91q0 -51 16 -93.5t45.5 -74t70.5 -49t91 -17.5zM414 777q-91 0 -145 43.5t-62 117.5h120q4 -27 27 -46t61 -19t60.5 19t26.5 46h120q-8 -73 -62.5 -117t-145.5 -44z" />
    <glyph glyph-name="obreve" unicode="&#x14f;" horiz-adv-x="604" 
d="M302 -14q-58 0 -107 20t-84.5 55t-55 83.5t-19.5 105.5t19.5 105.5t55 83.5t84.5 55t107 20q59 0 107.5 -20t84 -55t55 -83.5t19.5 -105.5t-19.5 -105.5t-55 -83.5t-84 -55t-107.5 -20zM302 106q29 0 53.5 10.5t42.5 30t28 46t10 57.5q0 32 -10 58t-28 45.5t-42.5 30
t-53.5 10.5t-53.5 -10.5t-42.5 -30t-28 -45.5t-10 -58q0 -31 10 -57.5t28 -46t42.5 -30t53.5 -10.5zM301 584q-80 0 -129 43.5t-55 119.5h108q3 -35 24 -52t52 -17t52.5 17t25.5 52h108q-6 -76 -56 -119.5t-130 -43.5z" />
    <glyph glyph-name="Scaron" unicode="&#x160;" horiz-adv-x="626" 
d="M319 -16q-107 0 -184 45t-118 132l119 68q56 -116 184 -116q60 0 96.5 23t36.5 60q0 25 -17.5 41.5t-45.5 28t-64 20t-74 19.5t-74 25.5t-64 37t-45.5 55.5t-17.5 81t18.5 87.5t53 67t83 42.5t108.5 15q188 0 275 -156l-117 -68q-48 97 -161 97q-53 0 -84.5 -20.5
t-31.5 -53.5q0 -24 17.5 -39.5t45.5 -26.5t64.5 -19.5t74 -19.5t74 -25.5t64.5 -38t45.5 -57t17.5 -82.5q0 -51 -20 -92.5t-57 -70.5t-88 -44.5t-114 -15.5zM229 939l86 -72l86 72h132l-166 -157h-104l-166 157h132z" />
    <glyph glyph-name="scaron" unicode="&#x161;" horiz-adv-x="503" 
d="M261 -14q-81 0 -141 33.5t-94 99.5l96 59q20 -40 56 -61t84 -21q39 0 63 13t24 35q0 21 -22 32t-55 19t-71.5 17t-71.5 25.5t-55 44t-22 73.5q0 72 54.5 115.5t148.5 43.5q148 0 212 -115l-96 -61q-17 32 -46 50t-71 18q-36 0 -58 -12.5t-22 -31.5t22 -29t55.5 -18
t72 -17t72 -26t55.5 -45.5t22 -75.5q0 -37 -15 -67.5t-43 -52t-67 -33.5t-87 -12zM65 750h116l75 -81l75 81h116l-144 -168h-94z" />
    <glyph glyph-name="Emacron" unicode="&#x112;" horiz-adv-x="588" 
d="M78 700h462v-132h-318v-139h278v-132h-278v-165h318v-132h-462v700zM145 898h338v-102h-338v102z" />
    <glyph glyph-name="emacron" unicode="&#x113;" horiz-adv-x="585" 
d="M167 306h249q-8 46 -39.5 73t-80.5 27q-48 0 -82 -26.5t-47 -73.5zM304 -14q-59 0 -108.5 19.5t-85 54.5t-55 84t-19.5 107q0 59 20 107.5t55 83t83 53.5t105 19q56 0 101.5 -18t77.5 -51t50 -78.5t18 -100.5q0 -11 -1 -24t-3 -28h-378q10 -54 47 -85t94 -31
q42 0 74.5 17.5t52.5 52.5l91 -72q-38 -54 -93.5 -82t-125.5 -28zM141 696h304v-100h-304v100z" />
    <glyph glyph-name="Amacron" unicode="&#x100;" horiz-adv-x="690" 
d="M256 274h174l-87 260zM419 700l253 -700h-150l-50 150h-258l-50 -150h-146l253 700h148zM176 898h338v-102h-338v102z" />
    <glyph glyph-name="amacron" unicode="&#x101;" 
d="M366 221l-100 -4q-53 -2 -80.5 -18t-27.5 -48q0 -28 21.5 -44t59.5 -16q57 0 92 35t35 93v2zM32 140q0 76 59 119.5t168 47.5l107 4v5q0 42 -27.5 67.5t-75.5 25.5q-39 0 -68 -18t-46 -54l-102 50q29 63 85.5 95t134.5 32q105 0 164 -55t59 -151v-308h-124v62
q-55 -76 -159 -76q-40 0 -72 11t-55 31.5t-35.5 49t-12.5 62.5zM123 696h304v-100h-304v100z" />
    <glyph glyph-name="AE" unicode="&#xc6;" horiz-adv-x="1001" 
d="M328 274h163v276zM491 0v150h-236l-88 -150h-149l428 700h507v-130h-320v-142h280v-130h-280v-168h320v-130h-462z" />
    <glyph glyph-name="Lslash" unicode="&#x141;" horiz-adv-x="587" 
d="M6 191v130l83 39v340h144v-272l196 93v-130l-196 -93v-166h318v-132h-462v230z" />
    <glyph glyph-name="OE" unicode="&#x152;" horiz-adv-x="1104" 
d="M417 118q57 0 102.5 25t74.5 68v279q-29 42 -74.5 67t-102.5 25q-50 0 -91 -17.5t-70.5 -48.5t-45.5 -73t-16 -91q0 -51 16 -93.5t45.5 -74t70.5 -49t91 -17.5zM409 -16q-79 0 -145.5 27.5t-114.5 76.5t-74.5 116t-26.5 146t26.5 146t74.5 116t114.5 76.5t145.5 27.5
q52 0 98.5 -12.5t86.5 -35.5v32h462v-130h-320v-142h280v-130h-280v-168h320v-130h-462v32q-40 -23 -86.5 -35.5t-98.5 -12.5z" />
    <glyph glyph-name="lslash" unicode="&#x142;" horiz-adv-x="330" 
d="M12 204v128l87 54v336h130v-256l89 55v-128l-89 -55v-338h-130v258z" />
    <glyph glyph-name="Omacron" unicode="&#x14c;" horiz-adv-x="828" 
d="M415 -16q-81 0 -148 27.5t-116 76.5t-76 116t-27 146t27 146t76 116t116 76.5t148 27.5q80 0 147 -27.5t115.5 -76.5t75.5 -116t27 -146t-27 -146t-75.5 -116t-115.5 -76.5t-147 -27.5zM417 118q48 0 87.5 17.5t68.5 49t45 74t16 93.5q0 49 -16 91t-45 73t-68.5 48.5
t-87.5 17.5q-50 0 -91 -17.5t-70.5 -48.5t-45.5 -73t-16 -91q0 -51 16 -93.5t45.5 -74t70.5 -49t91 -17.5zM245 898h338v-102h-338v102z" />
    <glyph glyph-name="omacron" unicode="&#x14d;" horiz-adv-x="604" 
d="M302 -14q-58 0 -107 20t-84.5 55t-55 83.5t-19.5 105.5t19.5 105.5t55 83.5t84.5 55t107 20q59 0 107.5 -20t84 -55t55 -83.5t19.5 -105.5t-19.5 -105.5t-55 -83.5t-84 -55t-107.5 -20zM302 106q29 0 53.5 10.5t42.5 30t28 46t10 57.5q0 32 -10 58t-28 45.5t-42.5 30
t-53.5 10.5t-53.5 -10.5t-42.5 -30t-28 -45.5t-10 -58q0 -31 10 -57.5t28 -46t42.5 -30t53.5 -10.5zM150 696h304v-100h-304v100z" />
    <glyph glyph-name="ycircumflex" unicode="&#x177;" 
d="M130 -200l82 211l-196 489h139l123 -331l118 331h138l-273 -700h-131zM228 750h94l144 -168h-116l-75 81l-75 -81h-116z" />
    <glyph glyph-name="Ycircumflex" unicode="&#x176;" horiz-adv-x="650" 
d="M253 0v273l-235 427h153l155 -304l155 304h151l-235 -427v-273h-144zM273 938h104l166 -156h-132l-86 72l-86 -72h-132z" />
    <glyph glyph-name="uring" unicode="&#x16f;" horiz-adv-x="575" 
d="M185.023 500v-281.982q0 -53.9971 22.999 -82.9951t69.9961 -28.998q47.9971 0 77.4951 30.998t29.498 89.9941v272.983h129.992v-499.97h-129.992v59.9971q-51.9971 -73.9961 -142.991 -73.9961q-41.998 0 -75.9951 13.999q-33.998 13.999 -58.9971 39.998
q-24.998 25.998 -38.4971 61.4961q-13.5 35.498 -13.5 79.4951v318.98h129.992zM288 574q-26 0 -49 8.5t-39.5 24.5t-26 38t-9.5 49t9.5 49t26 38t39.5 24.5t49 8.5t49 -8.5t39.5 -24.5t26 -38t9.5 -49t-9.5 -49t-26 -38t-39.5 -24.5t-49 -8.5zM288 646q20 0 33 13.5
t13 34.5t-13 34.5t-33 13.5t-33 -13.5t-13 -34.5t13 -34.5t33 -13.5z" />
    <glyph glyph-name="ncaron" unicode="&#x148;" horiz-adv-x="575" 
d="M388 0v282q0 54 -23 83t-70 29q-48 0 -77.5 -31t-29.5 -90v-273h-130v500h130v-60q52 74 143 74q42 0 76 -14t59 -40t38.5 -61.5t13.5 -79.5v-319h-130zM97 750h116l75 -81l75 81h116l-144 -168h-94z" />
    <glyph glyph-name="tcaron" unicode="&#x165;" horiz-adv-x="488" 
d="M226 216q0 -54 23 -77t75 -23h64v-122h-81q-108 0 -158.5 51.5t-50.5 160.5v178h-84v116h84v140h128v-424zM270 634q0 32 21.5 53t53.5 21q36 0 59.5 -28t23.5 -75q0 -48 -27 -99.5t-77 -95.5l-52 50q29 26 46.5 50t28.5 50q-33 0 -55 20t-22 54z" />
    <glyph glyph-name="agrave.ss01" horiz-adv-x="626" 
d="M303 106q29 0 53.5 10.5t42 30t27.5 46t10 57.5q0 32 -10 58t-27.5 45.5t-42 30t-53.5 10.5q-28 0 -52 -10.5t-41.5 -30t-27.5 -45.5t-10 -58q0 -31 10 -57.5t27.5 -46t41.5 -30t52 -10.5zM272 -14q-50 0 -92.5 19.5t-73.5 54t-48.5 83.5t-17.5 107q0 59 17.5 107.5
t49 83t74 54t92.5 19.5q52 0 93 -21t70 -60v67h130v-500h-130v67q-29 -39 -70.5 -60t-93.5 -21zM155 748h146l96 -168h-120z" />
    <glyph glyph-name="aacute.ss01" horiz-adv-x="626" 
d="M303 106q29 0 53.5 10.5t42 30t27.5 46t10 57.5q0 32 -10 58t-27.5 45.5t-42 30t-53.5 10.5q-28 0 -52 -10.5t-41.5 -30t-27.5 -45.5t-10 -58q0 -31 10 -57.5t27.5 -46t41.5 -30t52 -10.5zM272 -14q-50 0 -92.5 19.5t-73.5 54t-48.5 83.5t-17.5 107q0 59 17.5 107.5
t49 83t74 54t92.5 19.5q52 0 93 -21t70 -60v67h130v-500h-130v67q-29 -39 -70.5 -60t-93.5 -21zM331 748h146l-116 -168h-120z" />
    <glyph glyph-name="acircumflex.ss01" horiz-adv-x="626" 
d="M303 106q29 0 53.5 10.5t42 30t27.5 46t10 57.5q0 32 -10 58t-27.5 45.5t-42 30t-53.5 10.5q-28 0 -52 -10.5t-41.5 -30t-27.5 -45.5t-10 -58q0 -31 10 -57.5t27.5 -46t41.5 -30t52 -10.5zM272 -14q-50 0 -92.5 19.5t-73.5 54t-48.5 83.5t-17.5 107q0 59 17.5 107.5
t49 83t74 54t92.5 19.5q52 0 93 -21t70 -60v67h130v-500h-130v67q-29 -39 -70.5 -60t-93.5 -21zM255 750h94l144 -168h-116l-75 81l-75 -81h-116z" />
    <glyph glyph-name="atilde.ss01" horiz-adv-x="626" 
d="M303 106q29 0 53.5 10.5t42 30t27.5 46t10 57.5q0 32 -10 58t-27.5 45.5t-42 30t-53.5 10.5q-28 0 -52 -10.5t-41.5 -30t-27.5 -45.5t-10 -58q0 -31 10 -57.5t27.5 -46t41.5 -30t52 -10.5zM272 -14q-50 0 -92.5 19.5t-73.5 54t-48.5 83.5t-17.5 107q0 59 17.5 107.5
t49 83t74 54t92.5 19.5q52 0 93 -21t70 -60v67h130v-500h-130v67q-29 -39 -70.5 -60t-93.5 -21zM248 637q-17 0 -27 -14t-10 -41h-84q0 42 10 70.5t26 45.5t36 24t41 7q26 0 42.5 -8.5t28.5 -19t22 -19.5t25 -9q17 0 26.5 14t9.5 42h83q0 -42 -9.5 -70.5t-25 -45.5
t-35.5 -24.5t-41 -7.5q-27 0 -43 9t-28 19.5t-22 19t-25 8.5z" />
    <glyph glyph-name="adieresis.ss01" horiz-adv-x="626" 
d="M303 106q29 0 53.5 10.5t42 30t27.5 46t10 57.5q0 32 -10 58t-27.5 45.5t-42 30t-53.5 10.5q-28 0 -52 -10.5t-41.5 -30t-27.5 -45.5t-10 -58q0 -31 10 -57.5t27.5 -46t41.5 -30t52 -10.5zM272 -14q-50 0 -92.5 19.5t-73.5 54t-48.5 83.5t-17.5 107q0 59 17.5 107.5
t49 83t74 54t92.5 19.5q52 0 93 -21t70 -60v67h130v-500h-130v67q-29 -39 -70.5 -60t-93.5 -21zM195 575q-32 0 -55.5 22.5t-23.5 56.5t23.5 56.5t55.5 22.5t55.5 -22.5t23.5 -56.5t-23.5 -56.5t-55.5 -22.5zM409 575q-32 0 -55.5 22.5t-23.5 56.5t23.5 56.5t55.5 22.5
t55.5 -22.5t23.5 -56.5t-23.5 -56.5t-55.5 -22.5z" />
    <glyph glyph-name="aring.ss01" horiz-adv-x="626" 
d="M309 574q-26 0 -49 8.5t-39.5 24.5t-26 38t-9.5 49t9.5 49t26 38t39.5 24.5t49 8.5t49 -8.5t39.5 -24.5t26 -38t9.5 -49t-9.5 -49t-26 -38t-39.5 -24.5t-49 -8.5zM309 646q20 0 33 13.5t13 34.5t-13 34.5t-33 13.5t-33 -13.5t-13 -34.5t13 -34.5t33 -13.5zM303 106
q29 0 53.5 10.5t42 30t27.5 46t10 57.5q0 32 -10 58t-27.5 45.5t-42 30t-53.5 10.5q-28 0 -52 -10.5t-41.5 -30t-27.5 -45.5t-10 -58q0 -31 10 -57.5t27.5 -46t41.5 -30t52 -10.5zM272 -14q-50 0 -92.5 19.5t-73.5 54t-48.5 83.5t-17.5 107q0 59 17.5 107.5t49 83t74 54
t92.5 19.5q52 0 93 -21t70 -60v67h130v-500h-130v67q-29 -39 -70.5 -60t-93.5 -21z" />
    <glyph glyph-name="amacron.ss01" horiz-adv-x="626" 
d="M157 696h304v-100h-304v100zM303 106q29 0 53.5 10.5t42 30t27.5 46t10 57.5q0 32 -10 58t-27.5 45.5t-42 30t-53.5 10.5q-28 0 -52 -10.5t-41.5 -30t-27.5 -45.5t-10 -58q0 -31 10 -57.5t27.5 -46t41.5 -30t52 -10.5zM272 -14q-50 0 -92.5 19.5t-73.5 54t-48.5 83.5
t-17.5 107q0 59 17.5 107.5t49 83t74 54t92.5 19.5q52 0 93 -21t70 -60v67h130v-500h-130v67q-29 -39 -70.5 -60t-93.5 -21z" />
    <glyph glyph-name="abreve.ss01" horiz-adv-x="626" 
d="M308 584q-80 0 -129 43.5t-55 119.5h108q3 -35 24 -52t52 -17t52.5 17t25.5 52h108q-6 -76 -56 -119.5t-130 -43.5zM303 106q29 0 53.5 10.5t42 30t27.5 46t10 57.5q0 32 -10 58t-27.5 45.5t-42 30t-53.5 10.5q-28 0 -52 -10.5t-41.5 -30t-27.5 -45.5t-10 -58
q0 -31 10 -57.5t27.5 -46t41.5 -30t52 -10.5zM272 -14q-50 0 -92.5 19.5t-73.5 54t-48.5 83.5t-17.5 107q0 59 17.5 107.5t49 83t74 54t92.5 19.5q52 0 93 -21t70 -60v67h130v-500h-130v67q-29 -39 -70.5 -60t-93.5 -21z" />
    <glyph glyph-name="aogonek.ss01" horiz-adv-x="626" 
d="M302 108q29 0 53.5 11t42.5 30t28 45t10 57t-10 57t-28 44.5t-42.5 29t-53.5 10.5t-53.5 -10.5t-42.5 -29t-28 -44.5t-10 -57t10 -57t28 -45t42.5 -30t53.5 -11zM270 -14q-50 0 -93 19.5t-74.5 54t-49 83.5t-17.5 107q0 59 18 107.5t49.5 83t74.5 54t93 19.5
q53 0 94.5 -21t70.5 -61v68h130v-500q-56 -25 -78 -45.5t-22 -46.5q0 -24 14.5 -37.5t40.5 -13.5q17 0 30.5 5.5t24.5 13.5l26 -84q-41 -25 -95 -25q-63 0 -100 32.5t-37 87.5q0 33 15.5 61t50.5 54v66q-29 -40 -71 -61t-95 -21z" />
    <glyph glyph-name="gcircumflex.ss02" horiz-adv-x="610" 
d="M295 134q56 0 91.5 37t35.5 97q0 57 -35.5 92.5t-91.5 35.5t-91.5 -35.5t-35.5 -92.5q0 -60 35.5 -97t91.5 -37zM264 16q-51 0 -92.5 19t-71 52.5t-46 79t-16.5 98.5t16.5 98.5t46 79t71 52.5t92.5 19q52 0 92 -20.5t66 -56.5v63h128v-450q0 -60 -19.5 -109t-55 -83.5
t-85 -53t-110.5 -18.5q-83 0 -142 34t-92 95l99 66q22 -40 57 -60t78 -20q63 0 102.5 40.5t39.5 113.5v38q-26 -36 -66 -56.5t-92 -20.5zM257 750h94l144 -168h-116l-75 81l-75 -81h-116z" />
    <glyph glyph-name="gbreve.ss02" horiz-adv-x="610" 
d="M295 134q56 0 91.5 37t35.5 97q0 57 -35.5 92.5t-91.5 35.5t-91.5 -35.5t-35.5 -92.5q0 -60 35.5 -97t91.5 -37zM264 16q-51 0 -92.5 19t-71 52.5t-46 79t-16.5 98.5t16.5 98.5t46 79t71 52.5t92.5 19q52 0 92 -20.5t66 -56.5v63h128v-450q0 -60 -19.5 -109t-55 -83.5
t-85 -53t-110.5 -18.5q-83 0 -142 34t-92 95l99 66q22 -40 57 -60t78 -20q63 0 102.5 40.5t39.5 113.5v38q-26 -36 -66 -56.5t-92 -20.5zM310 584q-80 0 -129 43.5t-55 119.5h108q3 -35 24 -52t52 -17t52.5 17t25.5 52h108q-6 -76 -56 -119.5t-130 -43.5z" />
    <glyph glyph-name="uni04E6" unicode="&#x4e6;" horiz-adv-x="828" 
d="M415 -16q-81 0 -148 27.5t-116 76.5t-76 116t-27 146t27 146t76 116t116 76.5t148 27.5q80 0 147 -27.5t115.5 -76.5t75.5 -116t27 -146t-27 -146t-75.5 -116t-115.5 -76.5t-147 -27.5zM417 118q48 0 87.5 17.5t68.5 49t45 74t16 93.5q0 49 -16 91t-45 73t-68.5 48.5
t-87.5 17.5q-50 0 -91 -17.5t-70.5 -48.5t-45.5 -73t-16 -91q0 -51 16 -93.5t45.5 -74t70.5 -49t91 -17.5zM303 774q-33 0 -56.5 22.5t-23.5 57.5t23.5 57.5t56.5 22.5t56.5 -22.5t23.5 -57.5t-23.5 -57.5t-56.5 -22.5zM525 774q-33 0 -56.5 22.5t-23.5 57.5t23.5 57.5
t56.5 22.5t56.5 -22.5t23.5 -57.5t-23.5 -57.5t-56.5 -22.5z" />
    <glyph glyph-name="uni04E7" unicode="&#x4e7;" horiz-adv-x="604" 
d="M302 -14q-58 0 -107 20t-84.5 55t-55 83.5t-19.5 105.5t19.5 105.5t55 83.5t84.5 55t107 20q59 0 107.5 -20t84 -55t55 -83.5t19.5 -105.5t-19.5 -105.5t-55 -83.5t-84 -55t-107.5 -20zM302 106q29 0 53.5 10.5t42.5 30t28 46t10 57.5q0 32 -10 58t-28 45.5t-42.5 30
t-53.5 10.5t-53.5 -10.5t-42.5 -30t-28 -45.5t-10 -58q0 -31 10 -57.5t28 -46t42.5 -30t53.5 -10.5zM195 575q-32 0 -55.5 22.5t-23.5 56.5t23.5 56.5t55.5 22.5t55.5 -22.5t23.5 -56.5t-23.5 -56.5t-55.5 -22.5zM409 575q-32 0 -55.5 22.5t-23.5 56.5t23.5 56.5t55.5 22.5
t55.5 -22.5t23.5 -56.5t-23.5 -56.5t-55.5 -22.5z" />
    <glyph glyph-name="uni04E4" unicode="&#x4e4;" horiz-adv-x="740" 
d="M662 0h-144v467l-292 -467h-148v700h144v-467l292 467h148v-700zM265 774q-33 0 -56.5 22.5t-23.5 57.5t23.5 57.5t56.5 22.5t56.5 -22.5t23.5 -57.5t-23.5 -57.5t-56.5 -22.5zM487 774q-33 0 -56.5 22.5t-23.5 57.5t23.5 57.5t56.5 22.5t56.5 -22.5t23.5 -57.5
t-23.5 -57.5t-56.5 -22.5z" />
    <glyph glyph-name="uni04E5" unicode="&#x4e5;" horiz-adv-x="580" 
d="M190 500v-312l201 312h129v-500h-130v312l-201 -312h-129v500h130zM180 575q-32 0 -55.5 22.5t-23.5 56.5t23.5 56.5t55.5 22.5t55.5 -22.5t23.5 -56.5t-23.5 -56.5t-55.5 -22.5zM394 575q-32 0 -55.5 22.5t-23.5 56.5t23.5 56.5t55.5 22.5t55.5 -22.5t23.5 -56.5
t-23.5 -56.5t-55.5 -22.5z" />
    <glyph glyph-name="uni04E2" unicode="&#x4e2;" horiz-adv-x="740" 
d="M662 0h-144v467l-292 -467h-148v700h144v-467l292 467h148v-700zM207 898h338v-102h-338v102z" />
    <glyph glyph-name="uni04E3" unicode="&#x4e3;" horiz-adv-x="580" 
d="M190 500v-312l201 312h129v-500h-130v312l-201 -312h-129v500h130zM135 696h304v-100h-304v100z" />
    <glyph glyph-name="uni04DE" unicode="&#x4de;" horiz-adv-x="641" 
d="M322 -16q-110 0 -186.5 50t-118.5 147l125 59q25 -64 69 -96t110 -32q64 0 102 27.5t38 73.5q0 39 -28.5 60t-85.5 21h-139v130h135q49 0 75 21t26 56q0 41 -32.5 65t-87.5 24q-57 0 -98.5 -28t-63.5 -83l-123 60q84 177 288 177q59 0 106 -14t81 -40t52 -62t18 -81
q0 -109 -106 -155q58 -19 91 -62.5t33 -104.5q0 -47 -20.5 -86.5t-57.5 -67.5t-88.5 -43.5t-113.5 -15.5zM210 774q-33 0 -56.5 22.5t-23.5 57.5t23.5 57.5t56.5 22.5t56.5 -22.5t23.5 -57.5t-23.5 -57.5t-56.5 -22.5zM432 774q-33 0 -56.5 22.5t-23.5 57.5t23.5 57.5
t56.5 22.5t56.5 -22.5t23.5 -57.5t-23.5 -57.5t-56.5 -22.5z" />
    <glyph glyph-name="uni04DF" unicode="&#x4df;" horiz-adv-x="500" 
d="M258 -14q-88 0 -147.5 38t-87.5 110l109 43q14 -41 44.5 -62.5t77.5 -21.5q42 0 66 17t24 45q0 23 -18 36.5t-53 13.5h-100v105h97q31 0 47.5 12.5t16.5 32.5q0 24 -21.5 39t-59.5 15q-85 0 -111 -77l-106 44q58 138 224 138q91 0 143 -39t52 -104q0 -81 -82 -110
q44 -14 68.5 -46t24.5 -77q0 -69 -56.5 -110.5t-151.5 -41.5zM143 575q-32 0 -55.5 22.5t-23.5 56.5t23.5 56.5t55.5 22.5t55.5 -22.5t23.5 -56.5t-23.5 -56.5t-55.5 -22.5zM357 575q-32 0 -55.5 22.5t-23.5 56.5t23.5 56.5t55.5 22.5t55.5 -22.5t23.5 -56.5t-23.5 -56.5
t-55.5 -22.5z" />
    <glyph glyph-name="uni04F8" unicode="&#x4f8;" horiz-adv-x="910" 
d="M830 700v-700h-144v700h144zM81 0v700h140v-230h146q54 0 98.5 -17t76 -47.5t49 -74t17.5 -96.5t-17.5 -96.5t-49 -74t-76 -47.5t-99.5 -17h-285zM221 129h132q51 0 81.5 28.5t30.5 77.5t-30.5 77.5t-81.5 28.5h-132v-212zM344 774q-33 0 -56.5 22.5t-23.5 57.5
t23.5 57.5t56.5 22.5t56.5 -22.5t23.5 -57.5t-23.5 -57.5t-56.5 -22.5zM566 774q-33 0 -56.5 22.5t-23.5 57.5t23.5 57.5t56.5 22.5t56.5 -22.5t23.5 -57.5t-23.5 -57.5t-56.5 -22.5z" />
    <glyph glyph-name="uni04F9" unicode="&#x4f9;" horiz-adv-x="741" 
d="M541 500h130v-500h-130v500zM180 108h100q35 0 55 19t20 49t-20 49t-55 19h-100v-136zM296 0h-236v500h120v-148h116q41 0 74.5 -13.5t57 -37t36.5 -55.5t13 -70t-13 -70t-36.5 -55.5t-57 -37t-74.5 -13.5zM264 575q-32 0 -55.5 22.5t-23.5 56.5t23.5 56.5t55.5 22.5
t55.5 -22.5t23.5 -56.5t-23.5 -56.5t-55.5 -22.5zM478 575q-32 0 -55.5 22.5t-23.5 56.5t23.5 56.5t55.5 22.5t55.5 -22.5t23.5 -56.5t-23.5 -56.5t-55.5 -22.5z" />
    <glyph glyph-name="uni0259" unicode="&#x259;" horiz-adv-x="583" 
d="M162 198q8 -48 40 -75t83 -27t84.5 27t46.5 75h-254zM284 -14q-56 0 -102 18t-79 51t-51 80t-18 105q0 11 1 24t3 28h381q-10 54 -45.5 83t-91.5 29q-81 0 -125 -68l-94 70q79 108 220 108q59 0 107.5 -19t83.5 -53.5t54 -83t19 -107.5t-19 -108t-54 -84t-83 -54
t-107 -19z" />
    <glyph glyph-name="scedilla" unicode="&#x15f;" horiz-adv-x="503" 
d="M261 -14q-81 0 -141 33.5t-94 99.5l96 59q20 -40 56 -61t84 -21q39 0 63 13t24 35q0 21 -22 32t-55 19t-71.5 17t-71.5 25.5t-55 44t-22 73.5q0 72 54.5 115.5t148.5 43.5q148 0 212 -115l-96 -61q-17 32 -46 50t-71 18q-36 0 -58 -12.5t-22 -31.5t22 -29t55.5 -18
t72 -17t72 -26t55.5 -45.5t22 -75.5q0 -37 -15 -67.5t-43 -52t-67 -33.5t-87 -12zM214 -213q-47 0 -94 16l24 85q27 -13 60 -13q72 0 72 54q0 48 -70 73l70 50q97 -48 97 -136q0 -60 -41 -94.5t-118 -34.5z" />
    <glyph glyph-name="uni018F" unicode="&#x18f;" horiz-adv-x="796" 
d="M191 276q9 -75 62 -119.5t134 -44.5t137 44.5t75 119.5h-408zM387 -16q-77 0 -140 24.5t-108 70.5t-70 111t-25 146q0 14 1 28.5t3 31.5h557q-6 44 -24.5 79t-46.5 60.5t-65.5 39t-81.5 13.5q-63 0 -111.5 -29t-80.5 -88l-118 72q45 82 125 127.5t186 45.5
q80 0 146.5 -27t114 -75.5t73.5 -115.5t26 -148q0 -80 -26 -147.5t-73.5 -116t-114 -75.5t-147.5 -27z" />
    <glyph glyph-name="Scedilla" unicode="&#x15e;" horiz-adv-x="650" 
d="M335 -16q-107 0 -184 45t-118 132l119 68q56 -116 184 -116q60 0 96.5 23t36.5 60q0 25 -17.5 41.5t-45.5 28t-64 20t-74 19.5t-74 25.5t-64 37t-45.5 55.5t-17.5 81t18.5 87.5t53 67t83 42.5t108.5 15q188 0 275 -156l-117 -68q-48 97 -161 97q-53 0 -84.5 -20.5
t-31.5 -53.5q0 -24 17.5 -39.5t45.5 -26.5t64.5 -19.5t74 -19.5t74 -25.5t64.5 -38t45.5 -57t17.5 -82.5q0 -51 -20 -92.5t-57 -70.5t-88 -44.5t-114 -15.5zM287 -228q-22 0 -44.5 3.5t-47.5 12.5l24 89q29 -13 60 -13q74 0 74 58q0 28 -18.5 47t-56.5 33l70 53
q54 -29 79 -65t25 -83q0 -63 -43.5 -99t-121.5 -36z" />
    <glyph glyph-name="cedilla.case" horiz-adv-x="313" 
d="M80 -228q-22 0 -44.5 3.5t-47.5 12.5l24 89q29 -13 60 -13q74 0 74 58q0 28 -18.5 47t-56.5 33l70 53q54 -29 79 -65t25 -83q0 -63 -43.5 -99t-121.5 -36z" />
    <glyph glyph-name="uni04D9" unicode="&#x4d9;" horiz-adv-x="583" 
d="M162 198q8 -48 40 -75t83 -27t84.5 27t46.5 75h-254zM284 -14q-56 0 -102 18t-79 51t-51 80t-18 105q0 11 1 24t3 28h381q-10 54 -45.5 83t-91.5 29q-81 0 -125 -68l-94 70q79 108 220 108q59 0 107.5 -19t83.5 -53.5t54 -83t19 -107.5t-19 -108t-54 -84t-83 -54
t-107 -19z" />
    <glyph glyph-name="uni04D8" unicode="&#x4d8;" horiz-adv-x="796" 
d="M191 276q9 -75 62 -119.5t134 -44.5t137 44.5t75 119.5h-408zM387 -16q-77 0 -140 24.5t-108 70.5t-70 111t-25 146q0 14 1 28.5t3 31.5h557q-6 44 -24.5 79t-46.5 60.5t-65.5 39t-81.5 13.5q-63 0 -111.5 -29t-80.5 -88l-118 72q45 82 125 127.5t186 45.5
q80 0 146.5 -27t114 -75.5t73.5 -115.5t26 -148q0 -80 -26 -147.5t-73.5 -116t-114 -75.5t-147.5 -27z" />
    <glyph glyph-name="uni04DA" unicode="&#x4da;" horiz-adv-x="796" 
d="M191 276q9 -75 62 -119.5t134 -44.5t137 44.5t75 119.5h-408zM387 -16q-77 0 -140 24.5t-108 70.5t-70 111t-25 146q0 14 1 28.5t3 31.5h557q-6 44 -24.5 79t-46.5 60.5t-65.5 39t-81.5 13.5q-63 0 -111.5 -29t-80.5 -88l-118 72q45 82 125 127.5t186 45.5
q80 0 146.5 -27t114 -75.5t73.5 -115.5t26 -148q0 -80 -26 -147.5t-73.5 -116t-114 -75.5t-147.5 -27zM285 774q-33 0 -56.5 22.5t-23.5 57.5t23.5 57.5t56.5 22.5t56.5 -22.5t23.5 -57.5t-23.5 -57.5t-56.5 -22.5zM507 774q-33 0 -56.5 22.5t-23.5 57.5t23.5 57.5
t56.5 22.5t56.5 -22.5t23.5 -57.5t-23.5 -57.5t-56.5 -22.5z" />
    <glyph glyph-name="uni04DB" unicode="&#x4db;" horiz-adv-x="585" 
d="M164 198q8 -48 40 -75t83 -27t84.5 27t46.5 75h-254zM286 -14q-56 0 -102 18t-79 51t-51 80t-18 105q0 11 1 24t3 28h381q-10 54 -45.5 83t-91.5 29q-81 0 -125 -68l-94 70q79 108 220 108q59 0 107.5 -19t83.5 -53.5t54 -83t19 -107.5t-19 -108t-54 -84t-83 -54
t-107 -19zM186 575q-32 0 -55.5 22.5t-23.5 56.5t23.5 56.5t55.5 22.5t55.5 -22.5t23.5 -56.5t-23.5 -56.5t-55.5 -22.5zM400 575q-32 0 -55.5 22.5t-23.5 56.5t23.5 56.5t55.5 22.5t55.5 -22.5t23.5 -56.5t-23.5 -56.5t-55.5 -22.5z" />
    <glyph glyph-name="section" unicode="&#xa7;" horiz-adv-x="513" 
d="M318 284q47 24 47 57q0 19 -13.5 31t-35 20t-49.5 14t-57 13q-23 -11 -32.5 -23.5t-9.5 -27.5q0 -19 13 -31.5t34 -21.5t48 -16t55 -15zM264 -16q-82 0 -143 33.5t-94 99.5l93 60q20 -41 59 -62.5t90 -21.5q39 0 60 11.5t21 29.5q0 19 -22 30t-55 20l-71.5 19.5
t-71.5 27.5t-55 43.5t-22 69.5q0 32 14.5 59t46.5 53q-25 16 -40 40t-15 61q0 35 14.5 64.5t41.5 50.5t64.5 32.5t83.5 11.5q72 0 125.5 -29t85.5 -86l-91 -61q-16 32 -47.5 50t-73.5 18q-35 0 -57 -12.5t-22 -30.5t22 -28.5t55 -19t71.5 -18t71.5 -26.5t55 -44.5t22 -71.5
q0 -69 -65 -111q26 -17 42.5 -42t16.5 -63q0 -35 -15 -64t-42.5 -49.5t-66 -32t-86.5 -11.5z" />
    <glyph glyph-name="minus" unicode="&#x2212;" horiz-adv-x="546" 
d="M30 421h486v-116h-486v116z" />
    <glyph glyph-name="lira" unicode="&#x20a4;" horiz-adv-x="599" 
d="M26 211v92h96q-4 16 -9 30.5t-10 28.5h-77v92h51q-1 8 -1.5 16t-0.5 17q0 52 18 94.5t51 72.5t79.5 46t102.5 16q94 0 156.5 -44.5t91.5 -130.5l-121 -41q-14 45 -45 68.5t-81 23.5q-60 0 -89 -33t-29 -87v-9t1 -9h228v-92h-206q4 -14 8 -28.5t6 -30.5h192v-92h-192
q-10 -47 -41 -83h372v-128h-551v108q84 27 99 103h-99z" />
    <glyph glyph-name="uni20B8" unicode="&#x20b8;" horiz-adv-x="580" 
d="M548 540v-132h-186v-408h-144v408h-186v132h516zM32 592v108h516v-108h-516z" />
    <glyph glyph-name="uni20BA" unicode="&#x20ba;" horiz-adv-x="622" 
d="M36 171l-28 92l90 31v78l-62 -21l-28 92l90 31v226h133v-180l190 65l28 -92l-218 -75v-78l190 65l28 -92l-218 -75v-116h121q56 0 85.5 28.5t35.5 75.5l129 -21q-9 -46 -26.5 -84t-47 -65t-72 -41.5t-99.5 -14.5h-259v192z" />
    <glyph glyph-name="uni20BC" unicode="&#x20bc;" horiz-adv-x="784" 
d="M327 700h130v-101q136 -17 205.5 -142.5t69.5 -354.5v-102h-132v95q0 173 -34.5 264t-108.5 111v-400h-130v400q-74 -20 -108.5 -111t-34.5 -264v-95h-132v102q0 229 69.5 354.5t205.5 142.5v101z" />
    <glyph glyph-name="zacute" unicode="&#x17a;" horiz-adv-x="491" 
d="M40 122l254 260h-242v118h397v-121l-254 -261h256v-118h-411v122zM263 748h146l-116 -168h-120z" />
    <glyph glyph-name="nacute" unicode="&#x144;" horiz-adv-x="576" 
d="M390 0v282q0 54 -23 83t-70 29q-48 0 -77.5 -31t-29.5 -90v-273h-130v500h130v-60q52 74 143 74q42 0 76 -14t59 -40t38.5 -61.5t13.5 -79.5v-319h-130zM300 748h146l-116 -168h-120z" />
    <glyph glyph-name="zdotaccent" unicode="&#x17c;" horiz-adv-x="491" 
d="M40 122l254 260h-242v118h397v-121l-254 -261h256v-118h-411v122zM264 573q-33 0 -56 22.5t-23 57.5t23 57.5t56 22.5h2q33 0 56 -22.5t23 -57.5t-23 -57.5t-56 -22.5h-2z" />
    <glyph glyph-name="sacute" unicode="&#x15b;" horiz-adv-x="503" 
d="M261 -14q-81 0 -141 33.5t-94 99.5l96 59q20 -40 56 -61t84 -21q39 0 63 13t24 35q0 21 -22 32t-55 19t-71.5 17t-71.5 25.5t-55 44t-22 73.5q0 72 54.5 115.5t148.5 43.5q148 0 212 -115l-96 -61q-17 32 -46 50t-71 18q-36 0 -58 -12.5t-22 -31.5t22 -29t55.5 -18
t72 -17t72 -26t55.5 -45.5t22 -75.5q0 -37 -15 -67.5t-43 -52t-67 -33.5t-87 -12zM274 748h146l-116 -168h-120z" />
    <glyph glyph-name="uni2116" unicode="&#x2116;" horiz-adv-x="1116" 
d="M911 468q29 0 47 19.5t18 50.5t-18 50t-47 19t-47 -19t-18 -50t18 -50.5t47 -19.5zM78 0v700h150l304 -477v477h136v-700h-150l-304 477v-477h-136zM746 197v114h330v-114h-330zM911 363q-36 0 -68.5 12.5t-57 35.5t-38.5 55t-14 72q0 39 14 71.5t38.5 55t57 35
t68.5 12.5t68.5 -12.5t57 -35t38.5 -55t14 -71.5q0 -40 -14 -72t-38.5 -55t-57 -35.5t-68.5 -12.5z" />
    </font>
</defs>
</svg>
