<?xml version="1.0" standalone="no"?>
<!DOCTYPE svg PUBLIC "-//W3C//DTD SVG 1.1//EN" "http://www.w3.org/Graphics/SVG/1.1/DTD/svg11.dtd" >
<svg xmlns="http://www.w3.org/2000/svg" xmlns:xlink="http://www.w3.org/1999/xlink" version="1.1">
<metadata>
Created by FontForge 20200314 at Thu Feb  1 03:21:05 2024
 By Unknown
Copyright 2023 The NT Somic project
</metadata>
<defs>
<font id="NTSomic-Regular" horiz-adv-x="580" >
  <font-face 
    font-family="NT Somic"
    font-weight="400"
    font-stretch="normal"
    units-per-em="1000"
    panose-1="0 0 0 0 0 0 0 0 0 0"
    ascent="800"
    descent="-200"
    x-height="500"
    cap-height="700"
    bbox="-71 -225 1134 1010"
    underline-thickness="50"
    underline-position="-125"
    unicode-range="U+000A-2212"
  />
<missing-glyph horiz-adv-x="938" 
d="M106 76q0 -128 66 -192t187 -64h220q121 0 187 64t66 192v548q0 128 -66 192t-187 64h-220q-121 0 -187 -64t-66 -192v-548zM545 546q0 11 -11 24t-36 13q-32 0 -53.5 -26.5t-21.5 -75.5v-58h-128v274h120v-117h8l29 104q20 12 41 17t46 5q34 0 57.5 -8t38.5 -20.5
t22 -28t7 -30.5q0 -22 -12 -36t-26.5 -25.5t-26.5 -22t-12 -25.5t12.5 -25t32.5 -10h25v-111h-34q-76 0 -119.5 22t-43.5 67q0 26 13.5 39t29 21t29 14.5t13.5 18.5zM311 187l101 24v9h-117v166h128v-145h9l24 86h201v-116h-184q-21 0 -38 -12.5t-17 -35.5q0 -20 14 -34
t39 -14q27 0 44 17t17 42h125q0 -42 -14.5 -76.5t-41.5 -59t-64 -38.5t-82 -14q-40 0 -71 10t-53 27t-33.5 40t-11.5 49q0 22 7.5 40t17.5 35z" />
    <glyph glyph-name="uni04570457" unicode="&#x457;&#x457;" horiz-adv-x="464" 
d="M76 500h81v-500h-81v500zM307 500h81v-500h-81v500zM-2 611q23 0 39 16t16 39t-16 39t-39 16t-39 -16t-16 -39t16 -39t39 -16zM466 611q23 0 39 16t16 39t-16 39t-39 16t-39 -16t-16 -39t16 -39t39 -16zM154 611q23 0 39 16t16 39t-16 39t-39 16t-39 -16t-16 -39t16 -39
t39 -16zM310 611q23 0 39 16t16 39t-16 39t-39 16t-39 -16t-16 -39t16 -39t39 -16z" />
    <glyph glyph-name="uni04070407" unicode="&#x407;&#x407;" horiz-adv-x="536" 
d="M92 0h87v700h-87v-700zM357 0h87v700h-87v-700zM7 786q24 0 41 17t17 41t-17 41t-41 17t-41 -17t-17 -41t17 -41t41 -17zM181 786q24 0 41 17t17 41t-17 41t-41 17t-41 -17t-17 -41t17 -41t41 -17zM355 786q24 0 41 17t17 41t-17 41t-41 17t-41 -17t-17 -41t17 -41
t41 -17zM529 786q24 0 41 17t17 41t-17 41t-41 17t-41 -17t-17 -41t17 -41t41 -17z" />
    <glyph glyph-name="uni04560457" unicode="&#x456;&#x457;" horiz-adv-x="464" 
d="M76 500h80v-500h-80v500zM308 500h80v-500h-80v500zM51 665q0 23 15.5 38.5t38.5 15.5t38.5 -15.5t15.5 -38.5t-15.5 -38.5t-38.5 -15.5t-38.5 15.5t-15.5 38.5zM211 665q0 23 15.5 38.5t38.5 15.5t38.5 -15.5t15.5 -38.5t-15.5 -38.5t-38.5 -15.5t-38.5 15.5t-15.5 38.5
zM371 665q0 23 15.5 38.5t38.5 15.5t38.5 -15.5t15.5 -38.5t-15.5 -38.5t-38.5 -15.5t-38.5 15.5t-15.5 38.5z" />
    <glyph glyph-name=".notdef" horiz-adv-x="938" 
d="M106 76q0 -128 66 -192t187 -64h220q121 0 187 64t66 192v548q0 128 -66 192t-187 64h-220q-121 0 -187 -64t-66 -192v-548zM545 546q0 11 -11 24t-36 13q-32 0 -53.5 -26.5t-21.5 -75.5v-58h-128v274h120v-117h8l29 104q20 12 41 17t46 5q34 0 57.5 -8t38.5 -20.5
t22 -28t7 -30.5q0 -22 -12 -36t-26.5 -25.5t-26.5 -22t-12 -25.5t12.5 -25t32.5 -10h25v-111h-34q-76 0 -119.5 22t-43.5 67q0 26 13.5 39t29 21t29 14.5t13.5 18.5zM311 187l101 24v9h-117v166h128v-145h9l24 86h201v-116h-184q-21 0 -38 -12.5t-17 -35.5q0 -20 14 -34
t39 -14q27 0 44 17t17 42h125q0 -42 -14.5 -76.5t-41.5 -59t-64 -38.5t-82 -14q-40 0 -71 10t-53 27t-33.5 40t-11.5 49q0 22 7.5 40t17.5 35z" />
    <glyph glyph-name="uni000D" unicode="&#xd;" horiz-adv-x="389" 
 />
    <glyph glyph-name="space" unicode=" " horiz-adv-x="260" 
 />
    <glyph glyph-name="n" unicode="n" horiz-adv-x="574" 
d="M423 0h81v302q0 48 -13 87.5t-37.5 67t-59 42.5t-77.5 15q-61 0 -106.5 -30.5t-69.5 -88.5h16v105h-81v-500h81v280q0 73 39.5 115.5t102.5 42.5q60 0 92 -39t32 -109v-290z" />
    <glyph glyph-name="o" unicode="o" horiz-adv-x="608" 
d="M304 -14q-57 0 -104 20t-81.5 55.5t-53.5 84t-19 104.5t19 104.5t53.5 84t81.5 55.5t104 20t104 -20t81.5 -55.5t53.5 -84t19 -104.5t-19 -104.5t-53.5 -84t-81.5 -55.5t-104 -20zM304 62q39 0 71.5 14t55.5 39.5t36 60t13 74.5q0 41 -13 75t-36 59.5t-55.5 39.5
t-71.5 14t-71.5 -14t-55.5 -39.5t-36 -59.5t-13 -75q0 -40 13 -74.5t36 -60t55.5 -39.5t71.5 -14z" />
    <glyph glyph-name="t" unicode="t" horiz-adv-x="362" 
d="M16 425h312v75h-312v-75zM185 188v452h-81v-459q0 -94 45 -140.5t135 -46.5h46v78h-37q-55 0 -81.5 28t-26.5 88z" />
    <glyph glyph-name="N" unicode="N" horiz-adv-x="724" 
d="M92 0h82v574l-7 -2l375 -572h90v700h-82v-574l7 2l-375 572h-90v-700z" />
    <glyph glyph-name="H" unicode="H" horiz-adv-x="716" 
d="M92 0h87v330h358v-330h87v700h-87v-289h-358v289h-87v-700z" />
    <glyph glyph-name="O" unicode="O" horiz-adv-x="829" 
d="M415 -16q77 0 141.5 27.5t112 76t74 116t26.5 146.5q0 80 -26.5 147t-74 115.5t-112 76t-141.5 27.5q-76 0 -141.5 -27.5t-112.5 -76t-74 -115.5t-27 -147q0 -79 27 -146.5t74 -116t112.5 -76t141.5 -27.5zM415 66q-59 0 -108 21t-84.5 58.5t-55 89.5t-19.5 115
t19.5 115.5t55 90t84.5 58t108 20.5t108 -20.5t84 -58t54.5 -90t19.5 -115.5t-19.5 -115t-54.5 -89.5t-84 -58.5t-108 -21z" />
    <glyph glyph-name="h" unicode="h" horiz-adv-x="574" 
d="M423 0h81v302q0 48 -13 87.5t-37.5 67t-59 42.5t-77.5 15q-61 0 -106.5 -30.5t-69.5 -88.5h16v327h-81v-722h81v280q0 73 39.5 115.5t102.5 42.5q60 0 92 -39t32 -109v-290z" />
    <glyph glyph-name="u" unicode="u" horiz-adv-x="574" 
d="M151.025 500h-80.9941v-301.981q0 -47.9971 12.999 -87.4951q12.999 -39.4971 37.4971 -66.9951q24.499 -27.499 58.9971 -42.498q34.4971 -14.999 77.4951 -14.999q60.9961 0 106.493 30.498t69.4961 88.4951h-15.999v-104.994h80.9951v499.97h-80.9951v-279.982
q0 -72.9961 -39.498 -115.493q-39.4971 -42.498 -102.493 -42.498q-59.9971 0 -91.9951 38.998q-31.998 38.9971 -31.998 108.993v289.982z" />
    <glyph glyph-name="d" unicode="d" horiz-adv-x="633" 
d="M557.005 0h-80.9951v722h80.9951v-722zM290.021 -14q-52.9961 0 -97.4932 19.5q-44.498 19.5 -76.9961 55t-50.9961 84q-18.499 48.5 -18.499 105.5t18.499 105.5q18.498 48.5 50.9961 84t76.9961 55q44.4971 19.5 97.4932 19.5q50.9971 0 93.4951 -19
q42.4971 -19 72.9951 -53.5t46.9971 -83.5t16.499 -108t-16.499 -108t-46.9971 -83.5t-72.9951 -53.5q-42.498 -19 -93.4951 -19zM302.021 62q38.9971 0 70.9951 14t54.9971 39.5q22.998 25.5 35.498 60q12.499 34.5 12.499 74.5q0 41 -12.499 75q-12.5 34 -35.498 59.5
q-22.999 25.5 -54.9971 39.5t-70.9951 14q-38.998 0 -70.9961 -14t-54.9961 -39.5q-22.999 -25.5 -35.498 -59.5t-12.499 -75q0 -40 12.499 -74.5t35.498 -60q22.998 -25.5 54.9961 -39.5t70.9961 -14z" />
    <glyph glyph-name="b" unicode="b" horiz-adv-x="633" 
d="M76 0h81v722h-81v-722zM343 -14q53 0 97.5 19.5t77 55t51 84t18.5 105.5t-18.5 105.5t-51 84t-77 55t-97.5 19.5q-51 0 -93.5 -19t-73 -53.5t-47 -83.5t-16.5 -108t16.5 -108t47 -83.5t73 -53.5t93.5 -19zM331 62q-39 0 -71 14t-55 39.5t-35.5 60t-12.5 74.5
q0 41 12.5 75t35.5 59.5t55 39.5t71 14t71 -14t55 -39.5t35.5 -59.5t12.5 -75q0 -40 -12.5 -74.5t-35.5 -60t-55 -39.5t-71 -14z" />
    <glyph glyph-name="p" unicode="p" horiz-adv-x="633" 
d="M76 -200h81v700h-81v-700zM342 -14q52 0 97 20t78 55t51.5 83.5t18.5 105.5t-18.5 105.5t-51.5 83.5t-78 55t-97 20q-51 0 -93 -19t-72.5 -53.5t-47 -83.5t-16.5 -108t16.5 -108t47 -83.5t72.5 -53.5t93 -19zM331 62q-39 0 -71 14t-55 39.5t-35.5 60t-12.5 74.5
q0 41 12.5 75t35.5 59.5t55 39.5t71 14t71 -14t55 -39.5t35.5 -59.5t12.5 -75q0 -40 -12.5 -74.5t-35.5 -60t-55 -39.5t-71 -14z" />
    <glyph glyph-name="q" unicode="q" horiz-adv-x="633" 
d="M557.005 -200h-80.9951v700h80.9951v-700zM291.021 -14q-51.9961 0 -96.9941 20q-44.9971 20 -77.9951 55t-51.4961 83.5q-18.499 48.5 -18.499 105.5t18.499 105.5q18.498 48.5 51.4961 83.5t77.9951 55q44.998 20 96.9941 20q50.9971 0 92.9951 -19
q41.9971 -19 72.4951 -53.5t46.9971 -83.5t16.499 -108t-16.499 -108t-46.9971 -83.5t-72.4951 -53.5q-41.998 -19 -92.9951 -19zM302.021 62q38.9971 0 70.9951 14t54.9971 39.5q22.998 25.5 35.498 60q12.499 34.5 12.499 74.5q0 41 -12.499 75q-12.5 34 -35.498 59.5
q-22.999 25.5 -54.9971 39.5t-70.9951 14q-38.998 0 -70.9961 -14t-54.9961 -39.5q-22.999 -25.5 -35.498 -59.5t-12.499 -75q0 -40 12.499 -74.5t35.498 -60q22.998 -25.5 54.9961 -39.5t70.9961 -14z" />
    <glyph glyph-name="c" unicode="c" horiz-adv-x="561" 
d="M46 250q0 -57 18.5 -105.5t52.5 -83.5t81.5 -55t105.5 -20q75 0 131 34t88 100l-70 38q-22 -48 -59.5 -72t-88.5 -24q-40 0 -72.5 14t-55.5 39.5t-36 60t-13 74.5q0 41 13 75t36 59.5t56 39.5t73 14q50 0 86.5 -23t59.5 -68l69 39q-32 63 -87.5 95.5t-129.5 32.5
q-58 0 -105.5 -20t-81.5 -55t-52.5 -83.5t-18.5 -105.5z" />
    <glyph glyph-name="e" unicode="e" 
d="M305 -14q-58 0 -105.5 19.5t-81.5 54.5t-53 83t-19 105q0 58 19 106.5t53.5 84t81.5 55.5t102 20q53 0 96.5 -17.5t74.5 -49.5t48.5 -76.5t17.5 -98.5q0 -11 -0.5 -22t-2.5 -22h-426v71h354l-8 -7q0 32 -11.5 59t-32.5 46.5t-49.5 30.5t-62.5 11q-39 0 -70.5 -14
t-54 -39.5t-35 -60t-12.5 -76.5t13 -76.5t36 -59t56 -38t73 -13.5q48 0 84.5 20t63.5 62l64 -48q-38 -54 -91 -82t-122 -28z" />
    <glyph glyph-name="a" unicode="a" horiz-adv-x="540" 
d="M42 135q0 -68 47.5 -108.5t125.5 -40.5q70 0 119.5 34t73.5 98h-18v-118h80v321q0 44 -15 79.5t-42 60.5t-65.5 39t-85.5 14q-72 0 -126 -32t-80 -91l68 -34q20 42 54.5 63t81.5 21q61 0 95.5 -34t34.5 -95v-99q0 -32 -12.5 -60t-34 -49t-51 -33t-64.5 -12
q-47 0 -75.5 21.5t-28.5 59.5q0 42 37 64.5t110 26.5l146 7v68l-152 -7q-110 -5 -166.5 -48.5t-56.5 -115.5z" />
    <glyph glyph-name="g" unicode="g" horiz-adv-x="522" 
d="M131 230q-30 -17 -46 -41.5t-16 -53.5q0 -33 20.5 -58t56.5 -36v14q-58 -14 -91 -48.5t-33 -82.5q0 -65 60 -101.5t169 -36.5q117 0 185 42.5t68 116.5q0 66 -57.5 100.5t-173.5 36.5q-71 1 -102.5 15.5t-31.5 46.5q0 20 11 33t34 21zM53 345q0 -37 14.5 -68t41 -53.5
t64 -35t83.5 -12.5t83.5 12.5t64 35t41 53.5t14.5 68t-14.5 68t-41 53.5t-64 35t-83.5 12.5t-84 -12.5t-64 -35t-40.5 -53.5t-14.5 -68zM128 345q0 46 34 72.5t94 26.5q59 0 93.5 -26.5t34.5 -72.5t-34.5 -72.5t-93.5 -26.5q-60 0 -94 26.5t-34 72.5zM99 -68q0 38 43 59
t124 21q76 0 117 -19t41 -53q0 -37 -46.5 -59.5t-127.5 -22.5q-73 0 -112 19.5t-39 54.5zM410 429l83 82l-47 47l-85 -87z" />
    <glyph glyph-name="l" unicode="l" horiz-adv-x="233" 
d="M157 0v722h-81v-722h81z" />
    <glyph glyph-name="i" unicode="i" horiz-adv-x="233" 
d="M76 500h81v-500h-81v500zM117 607q24 0 40.5 16.5t16.5 40.5t-16.5 40.5t-40.5 16.5h-1q-24 0 -40.5 -16.5t-16.5 -40.5t16.5 -40.5t40.5 -16.5h1z" />
    <glyph glyph-name="f" unicode="f" horiz-adv-x="355" 
d="M16 500v-74h308v74h-308zM183 540q0 59 25.5 86t81.5 27h35v75h-41q-89 0 -135.5 -47.5t-46.5 -138.5v-542h81v540z" />
    <glyph glyph-name="s" unicode="s" horiz-adv-x="493" 
d="M252 -14q44 0 80 11t61.5 31t39 49t13.5 65q0 48 -23 75.5t-57.5 43.5t-74.5 24t-74.5 17t-57.5 23.5t-23 43.5q0 31 28 52.5t80 21.5q46 0 78.5 -19.5t53.5 -60.5l64 37q-29 56 -78.5 85t-117.5 29q-85 0 -134.5 -42t-49.5 -108q0 -46 23 -72t57.5 -41t74.5 -23.5
t74.5 -18.5t57.5 -26t23 -47q0 -36 -32 -57.5t-85 -21.5q-52 0 -89 22.5t-62 68.5l-64 -38q30 -61 84.5 -92.5t129.5 -31.5z" />
    <glyph glyph-name="r" unicode="r" horiz-adv-x="352" 
d="M76 500h81v-500h-81v500zM330 506v-76h-26q-34 0 -61.5 -11.5t-46.5 -32.5t-29 -52t-10 -70h-32q6 123 49.5 182.5t127.5 59.5h28z" />
    <glyph glyph-name="j" unicode="j" horiz-adv-x="233" 
d="M76 0q0 -72 -21.5 -100t-75.5 -28h-20v-78h29q85 0 127 48.5t42 145.5v512h-81v-500zM117 607q24 0 40.5 16.5t16.5 40.5t-16.5 40.5t-40.5 16.5h-1q-24 0 -40.5 -16.5t-16.5 -40.5t16.5 -40.5t40.5 -16.5h1z" />
    <glyph glyph-name="m" unicode="m" horiz-adv-x="861" 
d="M393 0h81v297q0 63 35.5 102t92.5 39q53 0 80.5 -36.5t27.5 -104.5v-297h81v311q0 47 -12 85t-34.5 64t-54.5 40t-73 14q-60 0 -105 -31t-71 -89h22q-17 58 -58.5 89t-101.5 31q-50 0 -88.5 -23t-61.5 -67l4 -1v77h-81v-500h81v297q0 63 35.5 102t92.5 39
q53 0 80.5 -36.5t27.5 -104.5v-297z" />
    <glyph glyph-name="k" unicode="k" horiz-adv-x="522" 
d="M157 722h-81v-722h81v722zM407 0h95l-210 296l-55 -50zM397 500l-247 -263v-105l350 368h-103z" />
    <glyph glyph-name="v" unicode="v" horiz-adv-x="508" 
d="M213 0h82l193 500h-86l-153 -417h11l-153 417h-87z" />
    <glyph glyph-name="y" unicode="y" horiz-adv-x="506" 
d="M134 -200h84l268 700h-85l-151 -409h15l-159 409h-86l196 -491z" />
    <glyph glyph-name="z" unicode="z" horiz-adv-x="495" 
d="M46 0h403v74h-312l312 348v78h-394v-74h302l-311 -348v-78z" />
    <glyph glyph-name="w" unicode="w" horiz-adv-x="792" 
d="M184 0h84l133 407h-10l133 -407h84l164 500h-83l-128 -414h10l-136 414h-76l-136 -414h9l-128 414h-84z" />
    <glyph glyph-name="x" unicode="x" horiz-adv-x="504" 
d="M20 0h92l150 219h-21l150 -219h93l-192 266h-80zM212 240h80l180 260h-90l-140 -212h21l-140 212h-91z" />
    <glyph glyph-name="uni0430" unicode="&#x430;" horiz-adv-x="540" 
d="M42 135q0 -68 47.5 -108.5t125.5 -40.5q70 0 119.5 34t73.5 98h-18v-118h80v321q0 44 -15 79.5t-42 60.5t-65.5 39t-85.5 14q-72 0 -126 -32t-80 -91l68 -34q20 42 54.5 63t81.5 21q61 0 95.5 -34t34.5 -95v-99q0 -32 -12.5 -60t-34 -49t-51 -33t-64.5 -12
q-47 0 -75.5 21.5t-28.5 59.5q0 42 37 64.5t110 26.5l146 7v68l-152 -7q-110 -5 -166.5 -48.5t-56.5 -115.5z" />
    <glyph glyph-name="uni0435" unicode="&#x435;" horiz-adv-x="584" 
d="M305 -14q-58 0 -105.5 19.5t-81.5 54.5t-53 83t-19 105q0 58 19 106.5t53.5 84t81.5 55.5t102 20q53 0 96.5 -17.5t74.5 -49.5t48.5 -76.5t17.5 -98.5q0 -11 -0.5 -22t-2.5 -22h-426v71h354l-8 -7q0 32 -11.5 59t-32.5 46.5t-49.5 30.5t-62.5 11q-39 0 -70.5 -14
t-54 -39.5t-35 -60t-12.5 -76.5t13 -76.5t36 -59t56 -38t73 -13.5q48 0 84.5 20t63.5 62l64 -48q-38 -54 -91 -82t-122 -28z" />
    <glyph glyph-name="uni043E" unicode="&#x43e;" horiz-adv-x="608" 
d="M304 -14q-57 0 -104 20t-81.5 55.5t-53.5 84t-19 104.5t19 104.5t53.5 84t81.5 55.5t104 20t104 -20t81.5 -55.5t53.5 -84t19 -104.5t-19 -104.5t-53.5 -84t-81.5 -55.5t-104 -20zM304 62q39 0 71.5 14t55.5 39.5t36 60t13 74.5q0 41 -13 75t-36 59.5t-55.5 39.5
t-71.5 14t-71.5 -14t-55.5 -39.5t-36 -59.5t-13 -75q0 -40 13 -74.5t36 -60t55.5 -39.5t71.5 -14z" />
    <glyph glyph-name="uni0440" unicode="&#x440;" horiz-adv-x="638" 
d="M77 -200h81v700h-81v-700zM343 -14q52 0 97 20t78 55t51.5 83.5t18.5 105.5t-18.5 105.5t-51.5 83.5t-78 55t-97 20q-51 0 -93 -19t-72.5 -53.5t-47 -83.5t-16.5 -108t16.5 -108t47 -83.5t72.5 -53.5t93 -19zM332 62q-39 0 -71 14t-55 39.5t-35.5 60t-12.5 74.5
q0 41 12.5 75t35.5 59.5t55 39.5t71 14t71 -14t55 -39.5t35.5 -59.5t12.5 -75q0 -40 -12.5 -74.5t-35.5 -60t-55 -39.5t-71 -14z" />
    <glyph glyph-name="uni0441" unicode="&#x441;" horiz-adv-x="561" 
d="M46 250q0 -57 18.5 -105.5t52.5 -83.5t81.5 -55t105.5 -20q75 0 131 34t88 100l-70 38q-22 -48 -59.5 -72t-88.5 -24q-40 0 -72.5 14t-55.5 39.5t-36 60t-13 74.5q0 41 13 75t36 59.5t56 39.5t73 14q50 0 86.5 -23t59.5 -68l69 39q-32 63 -87.5 95.5t-129.5 32.5
q-58 0 -105.5 -20t-81.5 -55t-52.5 -83.5t-18.5 -105.5z" />
    <glyph glyph-name="uni0443" unicode="&#x443;" horiz-adv-x="506" 
d="M134 -200h84l268 700h-85l-151 -409h15l-159 409h-86l196 -491z" />
    <glyph glyph-name="uni043F" unicode="&#x43f;" horiz-adv-x="572" 
d="M76 500h420v-500h-81v425h-258v-425h-81v500z" />
    <glyph glyph-name="uni0445" unicode="&#x445;" horiz-adv-x="504" 
d="M20 0h92l150 219h-21l150 -219h93l-192 266h-80zM212 240h80l180 260h-90l-140 -212h21l-140 212h-91z" />
    <glyph glyph-name="uni0438" unicode="&#x438;" horiz-adv-x="578" 
d="M157 500v-382l263 382h82v-500h-81v382l-263 -382h-82v500h81z" />
    <glyph glyph-name="uni043D" unicode="&#x43d;" horiz-adv-x="572" 
d="M496 500v-500h-81v228h-258v-228h-81v500h81v-197h258v197h81z" />
    <glyph glyph-name="uni0446" unicode="&#x446;" horiz-adv-x="598" 
d="M76 0v500h81v-425h254v425h81v-425h78v-205h-80v130h-414z" />
    <glyph glyph-name="uni043B" unicode="&#x43b;" horiz-adv-x="562" 
d="M24 -2h20q44 0 74.5 15.5t49 51t27 92.5t8.5 139v129h202v-425h81v500h-363v-184q0 -70 -4 -116.5t-13.5 -74t-26.5 -38.5t-43 -11h-12v-78z" />
    <glyph glyph-name="uni0434" unicode="&#x434;" horiz-adv-x="596" 
d="M28 -130h80v130h380v-130h80v205h-78v425h-363v-89q0 -81 -2.5 -137.5t-8 -95.5t-14 -63t-20.5 -40h-54v-205zM168 75q11 22 18 49t12 62.5t7 80t2 101.5v57h202v-350h-241z" />
    <glyph glyph-name="uni0444" unicode="&#x444;" horiz-adv-x="695" 
d="M308 722h79v-209q60 -2 108.5 -22.5t82.5 -56t52.5 -82.5t18.5 -102t-18.5 -102t-52.5 -82.5t-82.5 -56t-108.5 -22.5v-187h-79v187q-60 2 -108.5 22.5t-82.5 56t-52.5 82.5t-18.5 102t18.5 102t52.5 82.5t82.5 56t108.5 22.5v209zM387 62q40 1 73.5 15t57.5 39t37.5 59
t13.5 75t-13.5 75t-37.5 59t-57.5 39t-73.5 15v-376zM308 62v376q-40 -1 -73.5 -15t-57.5 -39t-37.5 -59t-13.5 -75t13.5 -75t37.5 -59t57.5 -39t73.5 -15z" />
    <glyph glyph-name="uni0447" unicode="&#x447;" horiz-adv-x="548" 
d="M411 325q-8 -17 -23.5 -31.5t-36.5 -25t-46 -16.5t-51 -6q-54 0 -86.5 31t-32.5 109v114h-81v-134q0 -90 47 -142.5t143 -52.5q53 0 95.5 16.5t71.5 45.5v92zM472 0v500h-81v-500h81z" />
    <glyph glyph-name="uni0448" unicode="&#x448;" horiz-adv-x="755" 
d="M76 0v500h81v-425h180v425h81v-425h180v425h81v-500h-603z" />
    <glyph glyph-name="uni0449" unicode="&#x449;" horiz-adv-x="783" 
d="M76 0v500h81v-425h180v425h81v-425h180v425h81v-425h78v-205h-80v130h-601z" />
    <glyph glyph-name="uni0442" unicode="&#x442;" horiz-adv-x="464" 
d="M444 500v-74h-172v-426h-80v426h-172v74h424z" />
    <glyph glyph-name="uni0433" unicode="&#x433;" horiz-adv-x="402" 
d="M76 500h306v-75h-225v-425h-81v500z" />
    <glyph glyph-name="uni043A" unicode="&#x43a;" horiz-adv-x="522" 
d="M157 500h-81v-500h81v221h97l-1 74h-96v205zM210 260l195 -260h97l-199 263l195 237h-93z" />
    <glyph glyph-name="uni0436" unicode="&#x436;" horiz-adv-x="755" 
d="M337 0h81v222h120v74h-120v204h-81v-204h-120v-74h120v-222zM477 260l168 -260h90l-170 262l159 238h-88zM278 260l-159 240h-88l159 -238l-170 -262h90z" />
    <glyph glyph-name="uni044C" unicode="&#x44c;" horiz-adv-x="507" 
d="M153 71h130q48 0 75 27t27 69t-27 68t-75 26h-130v-190zM290 0h-214v500h77v-168h136q39 0 71 -12t55 -34t35.5 -52.5t12.5 -67.5q0 -36 -12.5 -66.5t-35 -52.5t-54.5 -34.5t-71 -12.5z" />
    <glyph glyph-name="uni0431" unicode="&#x431;" horiz-adv-x="611" 
d="M314 -14q56 0 102.5 18.5t79.5 52.5t51 81t18 104q0 56 -17.5 102.5t-49 80t-75 52t-96.5 18.5q-74 0 -127 -36t-80 -103h13q0 69 12.5 118t39.5 81.5t70 49.5t104 22l167 13l-4 78l-170 -14q-78 -6 -134 -31t-92 -70.5t-53 -113t-17 -159.5v-32q0 -72 18 -130t51 -98.5
t81 -62t108 -21.5zM315 61q-37 0 -68.5 13t-54 37t-35 57t-12.5 73t12.5 73t35 57t54 37t68.5 13t68 -13t53.5 -37t35 -57t12.5 -73t-12.5 -73t-35 -57t-53.5 -37t-68 -13z" />
    <glyph glyph-name="period" unicode="." horiz-adv-x="218" 
d="M48 57q0 26 17.5 43.5t43.5 17.5t43.5 -17.5t17.5 -43.5t-17.5 -43.5t-43.5 -17.5t-43.5 17.5t-17.5 43.5z" />
    <glyph glyph-name="comma" unicode="," horiz-adv-x="221" 
d="M48 58q0 26 17 43t43 17q27 0 46 -20.5t19 -61.5q0 -44 -23 -88t-61 -78l-36 35q32 28 47.5 52t20.5 51l6 -4q-3 -3 -9 -4.5t-13 -1.5q-24 0 -40.5 17t-16.5 43z" />
    <glyph glyph-name="E" unicode="E" 
d="M92 0h428v81h-341v243h309v81h-309v214h341v81h-428v-700z" />
    <glyph glyph-name="L" unicode="L" horiz-adv-x="558" 
d="M92 0h428v81h-341v619h-87v-700z" />
    <glyph glyph-name="F" unicode="F" horiz-adv-x="570" 
d="M92 0h87v308h299v81h-299v230h331v81h-418v-700z" />
    <glyph glyph-name="T" unicode="T" horiz-adv-x="595" 
d="M38 700v-81h216v-619h87v619h216v81h-519z" />
    <glyph glyph-name="P" unicode="P" horiz-adv-x="627" 
d="M92 0h83v256h179q50 0 91.5 16t71 45.5t46 70.5t16.5 91t-16.5 90.5t-46 69.5t-71 45t-91.5 16h-262v-700zM175 336v284h176q64 0 104 -39.5t40 -102.5q0 -66 -39.5 -104t-104.5 -38h-176z" />
    <glyph glyph-name="D" unicode="D" horiz-adv-x="717" 
d="M92 0h220q78 0 142 26.5t109 73.5t69.5 111t24.5 139t-24.5 139t-69.5 111t-109 73.5t-142 26.5h-220v-700zM311 619q60 0 108 -20t81 -56t51 -85.5t18 -107.5t-18 -107.5t-51 -85.5t-81 -56t-108 -20h-132v538h132z" />
    <glyph glyph-name="C" unicode="C" horiz-adv-x="760" 
d="M417 -16q103 0 182.5 47t122.5 134l-74 42q-35 -69 -92.5 -105t-136.5 -36q-60 0 -110 20.5t-86 58t-55.5 90t-19.5 115.5t19.5 115.5t55.5 90t86 58t111 20.5q78 0 134.5 -35t91.5 -101l75 42q-45 85 -124 130.5t-180 45.5q-77 0 -142.5 -27t-113 -75.5t-74.5 -115.5
t-27 -148t27 -148t74.5 -115.5t113 -75.5t142.5 -27z" />
    <glyph glyph-name="G" unicode="G" horiz-adv-x="790" 
d="M742 316q0 13 -0.5 25t-1.5 25h-389v-78h312l-6 1q-3 -51 -21 -92.5t-49.5 -71t-74.5 -45.5t-96 -16q-60 0 -110 21t-85.5 59t-55 90.5t-19.5 116.5t19.5 116.5t55.5 90t86 58t111 20.5q78 0 137 -34t91 -97l69 46q-44 78 -122 121.5t-177 43.5q-78 0 -143 -27
t-112.5 -75.5t-74 -115.5t-26.5 -147q0 -78 25.5 -145t72.5 -116.5t112.5 -77.5t146.5 -28q74 0 134 24t102.5 67.5t65.5 105t23 135.5z" />
    <glyph glyph-name="S" unicode="S" horiz-adv-x="619" 
d="M312 -16q58 0 105 15t80 42.5t50.5 67t17.5 88.5q0 66 -30.5 103.5t-77 59t-100 33t-100 26t-77 37.5t-30.5 67q0 51 41.5 82t110.5 31q63 0 109.5 -28.5t74.5 -85.5l73 45q-36 72 -102.5 110.5t-153.5 38.5q-53 0 -97 -14.5t-75 -40.5t-48 -63.5t-17 -82.5
q0 -63 30.5 -99t77 -56.5t100 -32.5t100 -27.5t77 -40.5t30.5 -72q0 -57 -45 -90t-122 -33q-73 0 -124 32t-81 98l-75 -44q39 -82 109 -124t169 -42z" />
    <glyph glyph-name="M" unicode="M" horiz-adv-x="878" 
d="M444 187l-238 513h-114v-700h86v608l-12 -10l239 -517h68l239 517l-12 10v-608h86v700h-112l-238 -513h8z" />
    <glyph glyph-name="uni043C" unicode="&#x43c;" horiz-adv-x="680" 
d="M345 159l-167 341h-102v-500h78v388l-7 6l161 -325h64l161 325l-7 -6v-388h78v500h-100l-167 -341h8z" />
    <glyph glyph-name="uni041D" unicode="&#x41d;" horiz-adv-x="716" 
d="M92 0h87v330h358v-330h87v700h-87v-289h-358v289h-87v-700z" />
    <glyph glyph-name="uni0418" unicode="&#x418;" horiz-adv-x="724" 
d="M632 0v700h-91l-372 -575l11 -2v577h-88v-700h91l372 575l-11 2v-577h88z" />
    <glyph glyph-name="uni041F" unicode="&#x41f;" horiz-adv-x="716" 
d="M92 0h87v619h358v-619h87v700h-532v-700z" />
    <glyph glyph-name="uni0426" unicode="&#x426;" horiz-adv-x="754" 
d="M92 700v-700h534v-154h86v235h-94v619h-87v-619h-352v619h-87z" />
    <glyph glyph-name="uni041B" unicode="&#x41b;" horiz-adv-x="708" 
d="M28 -5h18q56 0 94.5 21t62 70.5t34 130.5t10.5 200v202h282v-619h87v700h-455v-253q0 -110 -6 -181t-20 -112t-38.5 -56.5t-60.5 -15.5h-8v-87z" />
    <glyph glyph-name="uni0414" unicode="&#x414;" horiz-adv-x="762" 
d="M42 -154h86v154h506v-154h86v235h-94v619h-457v-179q0 -72 -3 -138.5t-10 -123.5t-19 -102.5t-31 -75.5h-64v-235zM200 81q33 78 44 186t11 234v118h284v-538h-339z" />
    <glyph glyph-name="uni041C" unicode="&#x41c;" horiz-adv-x="878" 
d="M444 187l-238 513h-114v-700h86v608l-12 -10l239 -517h68l239 517l-12 10v-608h86v700h-112l-238 -513h8z" />
    <glyph glyph-name="W" unicode="W" horiz-adv-x="1010" 
d="M237 0h94l183 601h-18l182 -601h95l211 700h-94l-175 -609h16l-181 609h-90l-180 -609h17l-176 609h-95z" />
    <glyph glyph-name="V" unicode="V" horiz-adv-x="662" 
d="M282 0h98l256 700h-93l-218 -618h14l-219 618h-94z" />
    <glyph glyph-name="uni0439" unicode="&#x439;" horiz-adv-x="578" 
d="M157 500v-382l263 382h82v-500h-81v382l-263 -382h-82v500h81zM289 607q70 0 113.5 37t51.5 102h-75q-5 -35 -29 -55t-61 -20t-61 20t-29 55h-75q8 -65 51.5 -102t113.5 -37z" />
    <glyph glyph-name="uni041E" unicode="&#x41e;" horiz-adv-x="829" 
d="M415 -16q77 0 141.5 27.5t112 76t74 116t26.5 146.5q0 80 -26.5 147t-74 115.5t-112 76t-141.5 27.5q-76 0 -141.5 -27.5t-112.5 -76t-74 -115.5t-27 -147q0 -79 27 -146.5t74 -116t112.5 -76t141.5 -27.5zM415 66q-59 0 -108 21t-84.5 58.5t-55 89.5t-19.5 115
t19.5 115.5t55 90t84.5 58t108 20.5t108 -20.5t84 -58t54.5 -90t19.5 -115.5t-19.5 -115t-54.5 -89.5t-84 -58.5t-108 -21z" />
    <glyph glyph-name="uni0424" unicode="&#x424;" horiz-adv-x="888" 
d="M402 -14h84v728h-84v-728zM428 52v78h-24q-122 0 -190 60t-68 163t68 163t190 60h24v78h-22q-80 0 -144 -21.5t-109 -60.5t-69 -94.5t-24 -124.5t24 -124.5t69 -94.5t109 -60.5t144 -21.5h22zM460 52h22q80 0 144 21.5t109 60.5t69 94.5t24 124.5t-24 124.5t-69 94.5
t-109 60.5t-144 21.5h-22v-78h24q122 0 190 -60t68 -163t-68 -163t-190 -60h-24v-78z" />
    <glyph glyph-name="uni0428" unicode="&#x428;" horiz-adv-x="953" 
d="M92 0h769v700h-87v-619h-254v619h-87v-619h-254v619h-87v-700z" />
    <glyph glyph-name="uni0429" unicode="&#x429;" horiz-adv-x="997" 
d="M92 0h777v-154h86v234h-94v620h-87v-620h-254v620h-87v-620h-254v620h-87v-700z" />
    <glyph glyph-name="uni0420" unicode="&#x420;" horiz-adv-x="627" 
d="M92 0h83v256h179q50 0 91.5 16t71 45.5t46 70.5t16.5 91t-16.5 90.5t-46 69.5t-71 45t-91.5 16h-262v-700zM175 336v284h176q64 0 104 -39.5t40 -102.5q0 -66 -39.5 -104t-104.5 -38h-176z" />
    <glyph glyph-name="uni0421" unicode="&#x421;" horiz-adv-x="760" 
d="M417 -16q103 0 182.5 47t122.5 134l-74 42q-35 -69 -92.5 -105t-136.5 -36q-60 0 -110 20.5t-86 58t-55.5 90t-19.5 115.5t19.5 115.5t55.5 90t86 58t111 20.5q78 0 134.5 -35t91.5 -101l75 42q-45 85 -124 130.5t-180 45.5q-77 0 -142.5 -27t-113 -75.5t-74.5 -115.5
t-27 -148t27 -148t74.5 -115.5t113 -75.5t142.5 -27z" />
    <glyph glyph-name="uni0415" unicode="&#x415;" 
d="M92 0h428v81h-341v243h309v81h-309v214h341v81h-428v-700z" />
    <glyph glyph-name="uni0422" unicode="&#x422;" horiz-adv-x="595" 
d="M38 700v-81h216v-619h87v619h216v81h-519z" />
    <glyph glyph-name="uni0427" unicode="&#x427;" horiz-adv-x="691" 
d="M542 439q-11 -21 -32 -39.5t-48.5 -32t-60.5 -21.5t-67 -8q-84 0 -127.5 46t-43.5 134v182h-87v-188q0 -128 66.5 -193t181.5 -65q69 0 125 22.5t101 63.5zM599 0v700h-87v-700h87z" />
    <glyph glyph-name="A" unicode="A" horiz-adv-x="662" 
d="M149 186h364v76h-364v-76zM379 700h-96l-257 -700h90l229 650h-29l229 -650h91z" />
    <glyph glyph-name="uni0410" unicode="&#x410;" horiz-adv-x="662" 
d="M149 186h364v76h-364v-76zM379 700h-96l-257 -700h90l229 650h-29l229 -650h91z" />
    <glyph glyph-name="B" unicode="B" horiz-adv-x="637" 
d="M92 700v-700h285q47 0 86 13.5t67 38t43.5 60t15.5 80.5q0 70 -39 118.5t-115 63.5v-12q62 19 93 59.5t31 100.5q0 42 -14 75t-40 56t-62.5 35t-81.5 12h-269zM175 400v222h179q55 0 88 -30t33 -78q0 -51 -33 -82.5t-88 -31.5h-179zM175 322h198q60 0 96 -33.5t36 -86.5
q0 -56 -36 -90t-96 -34h-198v244z" />
    <glyph glyph-name="uni0419" unicode="&#x419;" horiz-adv-x="740" 
d="M624 0v700h-91l-372 -575l11 -2v577h-88v-700h91l372 575l-11 2v-577h88zM371 785q79 0 127 38.5t58 107.5h-77q-5 -37 -34 -59t-74 -22t-75 22t-35 59h-77q10 -69 59 -107.5t128 -38.5z" />
    <glyph glyph-name="uni044B" unicode="&#x44b;" horiz-adv-x="702" 
d="M545 500h81v-500h-81v500zM153 71h126q48 0 75 26.5t27 69.5q0 42 -27 68t-75 26h-126v-190zM287 0h-211v500h77v-168h132q39 0 71 -12t55 -34t35.5 -52.5t12.5 -67.5q0 -36 -12.5 -66.5t-35 -52.5t-54 -34.5t-70.5 -12.5z" />
    <glyph glyph-name="Y" unicode="Y" horiz-adv-x="612" 
d="M263 0h86v288l237 412h-98l-188 -342h12l-188 342h-98l237 -412v-288z" />
    <glyph glyph-name="uni0412" unicode="&#x412;" horiz-adv-x="637" 
d="M92 700v-700h285q47 0 86 13.5t67 38t43.5 60t15.5 80.5q0 70 -39 118.5t-115 63.5v-12q62 19 93 59.5t31 100.5q0 42 -14 75t-40 56t-62.5 35t-81.5 12h-269zM175 400v222h179q55 0 88 -30t33 -78q0 -51 -33 -82.5t-88 -31.5h-179zM175 322h198q60 0 96 -33.5t36 -86.5
q0 -56 -36 -90t-96 -34h-198v244z" />
    <glyph glyph-name="uni042C" unicode="&#x42c;" horiz-adv-x="636" 
d="M92 0v700h83v-256h181q53 0 96 -16t73 -45.5t46.5 -70t16.5 -90.5q0 -49 -16.5 -90t-46.5 -70.5t-73 -45.5t-96 -16h-264zM175 80h175q71 0 112.5 38t41.5 104t-41.5 104t-112.5 38h-175v-284z" />
    <glyph glyph-name="uni0411" unicode="&#x411;" horiz-adv-x="614" 
d="M79 700v-700h266q51 0 91.5 15t69.5 42t44.5 65t15.5 84q0 47 -15.5 85.5t-44.5 65.5t-69.5 42t-91.5 15h-183v204h340v82h-423zM162 334h182q63 0 100.5 -34t37.5 -93q0 -57 -38 -92t-100 -35h-182v254z" />
    <glyph glyph-name="uni0423" unicode="&#x423;" horiz-adv-x="601" 
d="M175 0h88l312 700h-94l-180 -419l-10 -20zM270 209l47 87l-196 404h-95z" />
    <glyph glyph-name="uni0413" unicode="&#x413;" horiz-adv-x="540" 
d="M92 0h87v619h323v81h-410v-700z" />
    <glyph glyph-name="X" unicode="X" horiz-adv-x="626" 
d="M267 353h92l224 347h-95l-189 -299h31l-189 299h-98zM26 0h97l204 323h-31l204 -323h100l-243 376h-88z" />
    <glyph glyph-name="U" unicode="U" horiz-adv-x="700" 
d="M350 -16q58 0 106.5 19t83.5 54.5t54.5 86.5t19.5 116v440h-87v-427q0 -99 -48 -151.5t-129 -52.5t-129 52.5t-48 151.5v427h-87v-440q0 -65 19.5 -116t54.5 -86.5t83.5 -54.5t106.5 -19z" />
    <glyph glyph-name="R" unicode="R" horiz-adv-x="629" 
d="M92 0h83v265h184q50 0 91 16t70 44.5t45 68.5t16 89t-16 89t-45 68.5t-70 44t-91 15.5h-267v-700zM175 345v275h177q66 0 105.5 -37t39.5 -100t-39.5 -100.5t-105.5 -37.5h-177zM302 292l202 -292h99l-231 328z" />
    <glyph glyph-name="uni0425" unicode="&#x425;" horiz-adv-x="626" 
d="M267 353h92l224 347h-95l-189 -299h31l-189 299h-98zM26 0h97l204 323h-31l204 -323h100l-243 376h-88z" />
    <glyph glyph-name="K" unicode="K" horiz-adv-x="643" 
d="M92 0h87v700h-87v-700zM171 179l429 521h-103l-326 -401v-120zM307 356l209 -356h101l-256 428z" />
    <glyph glyph-name="uni041A" unicode="&#x41a;" horiz-adv-x="645" 
d="M92 0h87v326h153v81h-153v293h-87v-700zM364 370l253 330h-104l-252 -332l253 -368h105z" />
    <glyph glyph-name="uni0416" unicode="&#x416;" horiz-adv-x="955" 
d="M434 0h87v326h158v81h-158v293h-87v-293h-158v-81h158v-326zM26 0h102l217 366l-206 334h-102l212 -332zM827 0h102l-223 368l212 332h-102l-207 -334z" />
    <glyph glyph-name="Q" unicode="Q" horiz-adv-x="829" 
d="M747 -3l-216 270l-56 -46l217 -271zM415 -16q77 0 141.5 27.5t112 76.5t74 116t26.5 146t-26.5 146t-74 116t-112 76.5t-141.5 27.5q-76 0 -141.5 -27.5t-112.5 -76.5t-74 -116t-27 -146t27 -146t74 -116t112.5 -76.5t141.5 -27.5zM415 66q-59 0 -108 21t-84.5 58.5
t-55 89.5t-19.5 115q0 62 19.5 114t55 89.5t84.5 59t108 21.5t108 -21.5t84 -59t54.5 -89.5t19.5 -114q0 -63 -19.5 -115t-54.5 -89.5t-84 -58.5t-108 -21z" />
    <glyph glyph-name="Z" unicode="Z" horiz-adv-x="673" 
d="M90 618h410l-422 -530v-88h517v82h-421l421 531v87h-505v-82z" />
    <glyph glyph-name="I" unicode="I" horiz-adv-x="271" 
d="M92 0h87v700h-87v-700z" />
    <glyph glyph-name="J" unicode="J" horiz-adv-x="583" 
d="M275 68q61 0 98.5 41t37.5 111v480h86v-491q0 -50 -16 -91t-45 -70.5t-70 -45.5t-91 -16t-91 16.5t-70 47.5t-45 76t-16 103v24l86 7v-24q0 -83 37 -125.5t99 -42.5z" />
    <glyph glyph-name="uni044A" unicode="&#x44a;" horiz-adv-x="584" 
d="M230 500v-168h136q39 0 71 -12t55 -34t35.5 -52.5t12.5 -67.5q0 -36 -12.5 -66.5t-35.5 -52.5t-54.5 -34.5t-70.5 -12.5h-214v425h-133v75h210zM230 71h130q48 0 75 26.5t27 69.5q0 42 -27 68t-75 26h-130v-190z" />
    <glyph glyph-name="uni0432" unicode="&#x432;" horiz-adv-x="506" 
d="M76 0h234q72 0 115 38t43 101q0 52 -28.5 86.5t-77.5 42.5l3 -9q38 11 60.5 39t22.5 71q0 59 -40 95t-106 36h-226v-500zM152 294v136h148q33 0 52 -19.5t19 -48.5q0 -30 -19 -49t-52 -19h-148zM152 70v156h156q35 0 58.5 -20.5t23.5 -57.5q0 -38 -23.5 -58t-58.5 -20
h-156z" />
    <glyph glyph-name="uni044D" unicode="&#x44d;" horiz-adv-x="560" 
d="M170 217h306v70h-306v-70zM256 -14q57 0 104.5 20t81.5 55t53 83.5t19 105.5t-19 105.5t-53 83.5t-81.5 55t-104.5 20q-74 0 -129 -33.5t-87 -96.5l64 -37q24 45 63.5 69t90.5 24q39 0 71 -14t55.5 -39t36.5 -60t13 -77t-13 -77t-36.5 -60t-55.5 -39t-71 -14
q-51 0 -90.5 24t-63.5 69l-64 -37q32 -63 87 -96.5t129 -33.5z" />
    <glyph glyph-name="uni042D" unicode="&#x42d;" horiz-adv-x="760" 
d="M217 316h439v76h-439v-76zM343 -16q77 0 142.5 27t113 75.5t74.5 115.5t27 148t-27 148t-74.5 115.5t-113 75.5t-142.5 27q-101 0 -180 -45.5t-123 -129.5l73 -44q35 67 92 102t135 35q61 0 111 -20.5t86 -58t55.5 -90t19.5 -115.5t-19.5 -115.5t-55.5 -90t-86 -58
t-110 -20.5q-79 0 -136.5 36t-92.5 105l-74 -42q43 -87 122.5 -134t182.5 -47z" />
    <glyph glyph-name="uni042E" unicode="&#x42e;" horiz-adv-x="1103" 
d="M92 0h87v327h206v81h-206v292h-87v-700zM689 -14q76 0 141 27.5t112 76.5t74 115.5t27 144.5t-27 144.5t-74 115.5t-112 76.5t-141 27.5t-141 -27.5t-112.5 -76.5t-74.5 -115.5t-27 -144.5t27 -144.5t74.5 -115.5t112.5 -76.5t141 -27.5zM689 68q-58 0 -107 20.5
t-84.5 58t-55.5 89.5t-20 114q0 60 20 112t55.5 89.5t84.5 59t107 21.5t106.5 -21.5t84 -59t55.5 -89.5t20 -112q0 -62 -20 -114t-55.5 -89.5t-84 -58t-106.5 -20.5z" />
    <glyph glyph-name="uni042F" unicode="&#x42f;" horiz-adv-x="634" 
d="M323 290l-69 36l-228 -326h98zM542 0v700h-262q-50 0 -91.5 -16t-71 -45t-46 -69.5t-16.5 -90.5t16.5 -91t46 -70.5t71 -45.5t91.5 -16h179v-256h83zM459 336h-176q-65 0 -104.5 38t-39.5 104q0 63 40 102.5t104 39.5h176v-284z" />
    <glyph glyph-name="uni044E" unicode="&#x44e;" horiz-adv-x="827" 
d="M312 215h-144v-215h-80v500h80v-211h144v-74zM528 -14q-55 0 -101.5 20t-80.5 55.5t-52.5 84t-18.5 104.5t18.5 104.5t52.5 84t80.5 55.5t101.5 20q56 0 102 -20t80 -55.5t52.5 -84t18.5 -104.5t-18.5 -104.5t-52.5 -84t-80 -55.5t-102 -20zM526 62q37 0 68.5 14t55 39.5
t36.5 60t13 74.5q0 41 -13 75t-36.5 59.5t-55 39.5t-68.5 14t-68.5 -14t-55 -39.5t-36.5 -59.5t-13 -75q0 -40 13 -74.5t36.5 -60t55 -39.5t68.5 -14z" />
    <glyph glyph-name="uni0417" unicode="&#x417;" horiz-adv-x="610" 
d="M302 -16q59 0 107 15.5t82 43t52.5 66.5t18.5 86q0 69 -39.5 114t-117.5 65v-19q69 16 106.5 60t37.5 107q0 42 -17 77.5t-49 61.5t-77.5 40.5t-101.5 14.5q-90 0 -156.5 -39.5t-106.5 -122.5l77 -37q28 61 73.5 90t110.5 29q74 0 118 -34t44 -89q0 -51 -36.5 -81.5
t-96.5 -30.5h-142v-82h146q63 0 102.5 -33.5t39.5 -88.5q0 -60 -47 -96.5t-128 -36.5q-73 0 -123 33t-81 103l-76 -39q42 -88 111 -132.5t169 -44.5z" />
    <glyph glyph-name="uni0437" unicode="&#x437;" horiz-adv-x="469" 
d="M233 -14q44 0 80.5 10.5t62.5 30.5t40.5 48.5t14.5 63.5q0 54 -33.5 88.5t-91.5 40.5v-18q56 11 84.5 41.5t28.5 78.5q0 65 -49 104.5t-133 39.5q-72 0 -124 -31.5t-81 -94.5l69 -31q19 43 52 65t81 22q51 0 80.5 -22.5t29.5 -57.5q0 -32 -24.5 -50.5t-65.5 -18.5h-106
v-71h106q45 0 73 -21.5t28 -59.5q0 -40 -33.5 -63.5t-88.5 -23.5q-53 0 -89 23.5t-56 73.5l-70 -30q29 -69 83 -103t132 -34z" />
    <glyph glyph-name="uni042A" unicode="&#x42a;" horiz-adv-x="753" 
d="M209 0v619h-154v81h237v-256h181q53 0 96 -16t73 -45.5t46.5 -70t16.5 -90.5q0 -49 -16.5 -90t-46.5 -70.5t-73 -45.5t-96 -16h-264zM292 80h175q71 0 112.5 38t41.5 104t-41.5 104t-112.5 38h-175v-284z" />
    <glyph glyph-name="uni042B" unicode="&#x42b;" horiz-adv-x="861" 
d="M769 700v-700h-83v700h83zM92 0v700h83v-256h175q53 0 96 -16t73 -45.5t46.5 -70t16.5 -90.5q0 -49 -16.5 -90t-46.5 -70.5t-73 -45.5t-96 -16h-258zM175 80h169q71 0 112.5 38t41.5 104t-41.5 104t-112.5 38h-169v-284z" />
    <glyph glyph-name="uni044F" unicode="&#x44f;" horiz-adv-x="505" 
d="M254 207l-136 -207h-93l139 211zM349 427h-129q-48 0 -75 -25.5t-27 -65.5t27 -65t75 -25h129v181zM212 500h217v-500h-80v173h-137q-39 0 -71 12t-55 33.5t-35.5 51.5t-12.5 66t12.5 66.5t35.5 52t55 33.5t71 12z" />
    <glyph glyph-name="breve" unicode="&#x2d8;" horiz-adv-x="389" 
d="M194 607q70 0 113.5 37t51.5 102h-75q-5 -35 -29 -55t-61 -20t-61 20t-29 55h-75q8 -65 51.5 -102t113.5 -37z" />
    <glyph glyph-name="exclam" unicode="!" horiz-adv-x="246" 
d="M62 57q0 26 17.5 43.5t43.5 17.5t43.5 -17.5t17.5 -43.5t-17.5 -43.5t-43.5 -17.5t-43.5 17.5t-17.5 43.5zM81 700h82l-3 -524h-76z" />
    <glyph glyph-name="uni0490" unicode="&#x490;" horiz-adv-x="544" 
d="M92 0h87v619h323v197h-80v-116h-330v-700z" />
    <glyph glyph-name="uni0404" unicode="&#x404;" horiz-adv-x="760" 
d="M543.014 316h-438.974v76h438.974v-76zM417.021 -16q-76.9951 0 -142.491 27t-112.993 75.5t-74.4951 115.5t-26.998 148t26.998 148t74.4951 115.5t112.993 75.5t142.491 27q100.994 0 179.989 -45.5t122.992 -129.5l-72.9951 -44q-34.998 67 -91.9941 102
q-56.9971 35 -134.992 35q-60.9961 0 -110.993 -20.5t-85.9941 -58q-35.998 -37.5 -55.4971 -90t-19.499 -115.5t19.499 -115.5t55.4971 -90q35.9971 -37.5 85.9941 -58t109.993 -20.5q78.9951 0 136.492 36q57.4961 36 92.4941 105l73.9951 -42q-42.9971 -87 -122.492 -134
t-182.489 -47z" />
    <glyph glyph-name="uni0406" unicode="&#x406;" horiz-adv-x="268" 
d="M91 0h87v700h-87v-700z" />
    <glyph glyph-name="uni0407" unicode="&#x407;" horiz-adv-x="267" 
d="M90 0h87v700h-87v-700zM36 784q25 0 42 17t17 42t-17 42t-42 17t-42 -17t-17 -42t17 -42t42 -17zM231 784q25 0 42 17t17 42t-17 42t-42 17t-42 -17t-17 -42t17 -42t42 -17z" />
    <glyph glyph-name="uni0491" unicode="&#x491;" horiz-adv-x="402" 
d="M308 610h74v-185h-225v-425h-81v500h232v110z" />
    <glyph glyph-name="uni0454" unicode="&#x454;" horiz-adv-x="560" 
d="M390 217v70h-306v-70h306zM304 -14q74 0 129 33.5t87 96.5l-64 37q-24 -45 -63.5 -69t-90.5 -24q-39 0 -71 14t-55.5 39t-36.5 60t-13 77t13 77t36.5 60t55.5 39t71 14q51 0 90.5 -24t63.5 -69l64 37q-32 63 -87 96.5t-129 33.5q-57 0 -104.5 -20t-81.5 -55t-53 -83.5
t-19 -105.5t19 -105.5t53 -83.5t81.5 -55t104.5 -20z" />
    <glyph glyph-name="uni0456" unicode="&#x456;" horiz-adv-x="233" 
d="M76 500h81v-500h-81v500zM117 607q24 0 40.5 16.5t16.5 40.5t-16.5 40.5t-40.5 16.5h-1q-24 0 -40.5 -16.5t-16.5 -40.5t16.5 -40.5t40.5 -16.5h1z" />
    <glyph glyph-name="uni0457" unicode="&#x457;" horiz-adv-x="233" 
d="M76 500h81v-500h-81v500zM-25 664q0 23 16 39t39 16t39 -16t16 -39t-16 -39t-39 -16t-39 16t-16 39zM148 664q0 23 16 39t39 16t39 -16t16 -39t-16 -39t-39 -16t-39 16t-16 39z" />
    <glyph glyph-name="uni0451" unicode="&#x451;" horiz-adv-x="586" 
d="M305 -14q-58 0 -105.5 19.5t-81.5 54.5t-53 83t-19 105q0 58 19 106.5t53.5 84t81.5 55.5t102 20q53 0 96.5 -17.5t74.5 -49.5t48.5 -76.5t17.5 -98.5q0 -11 -0.5 -22t-2.5 -22h-426v71h354l-8 -7q0 32 -11.5 59t-32.5 46.5t-49.5 30.5t-62.5 11q-39 0 -70.5 -14
t-54 -39.5t-35 -60t-12.5 -76.5t13 -76.5t36 -59t56 -38t73 -13.5q48 0 84.5 20t63.5 62l64 -48q-38 -54 -91 -82t-122 -28zM200 607q24 0 40.5 16.5t16.5 40.5t-16.5 40.5t-40.5 16.5t-40.5 -16.5t-16.5 -40.5t16.5 -40.5t40.5 -16.5zM404 607q24 0 40.5 16.5t16.5 40.5
t-16.5 40.5t-40.5 16.5t-40.5 -16.5t-16.5 -40.5t16.5 -40.5t40.5 -16.5z" />
    <glyph glyph-name="quotedbl" unicode="&#x22;" horiz-adv-x="354" 
d="M68 700h72l-5 -230h-62zM214 700h72l-5 -230h-62z" />
    <glyph glyph-name="numbersign" unicode="#" horiz-adv-x="655" 
d="M119 11l74 -11l112 690l-73 10zM344 11l74 -11l112 690l-73 10zM71 435h550v70h-550v-70zM34 204h549v70h-549v-70z" />
    <glyph glyph-name="dollar" unicode="$" horiz-adv-x="619" 
d="M272 -100h78v140h-78v-140zM272 660h78v140h-78v-140zM312 -16q58 0 105 15t80 42.5t50.5 67t17.5 88.5q0 66 -30.5 103.5t-77 59t-100 33t-100 26t-77 37.5t-30.5 67q0 51 41.5 82t110.5 31q63 0 109.5 -28.5t74.5 -85.5l73 45q-36 72 -102.5 110.5t-153.5 38.5
q-53 0 -97 -14.5t-75 -40.5t-48 -63.5t-17 -82.5q0 -63 30.5 -99t77 -56.5t100 -32.5t100 -27.5t77 -40.5t30.5 -72q0 -57 -45 -90t-122 -33q-73 0 -124 32t-81 98l-75 -44q39 -82 109 -124t169 -42z" />
    <glyph glyph-name="percent" unicode="%" horiz-adv-x="830" 
d="M145 25l480 691l60 -41l-480 -691zM207 346q35 0 64.5 13.5t51 37.5t33.5 57.5t12 73.5t-12 73.5t-33.5 57.5t-51 37.5t-64.5 13.5t-64.5 -13.5t-51 -37.5t-33.5 -57.5t-12 -73.5t12 -73.5t33.5 -57.5t51 -37.5t64.5 -13.5zM207 420q-35 0 -60 28.5t-25 79.5t25 79.5
t60 28.5t60 -28.5t25 -79.5t-25 -79.5t-60 -28.5zM623 -10q35 0 64.5 13.5t51 37.5t33.5 57.5t12 73.5t-12 73.5t-33.5 57.5t-51 37.5t-64.5 13.5t-64.5 -13.5t-51 -37.5t-33.5 -57.5t-12 -73.5t12 -73.5t33.5 -57.5t51 -37.5t64.5 -13.5zM623 64q-35 0 -60 28.5t-25 79.5
t25 79.5t60 28.5t60 -28.5t25 -79.5t-25 -79.5t-60 -28.5z" />
    <glyph glyph-name="ampersand" unicode="&#x26;" horiz-adv-x="658" 
d="M306 716q-37 0 -68.5 -11.5t-54.5 -33t-36.5 -52.5t-13.5 -70q0 -19 4 -38t15 -40.5t29.5 -47t48.5 -58.5l338 -377l58 55l-339 370q-44 48 -61 79t-17 61q0 40 25.5 65t72.5 25q48 0 74 -25.5t26 -66.5q0 -42 -26.5 -68.5t-65.5 -46.5t-85.5 -39t-85.5 -45.5
t-65.5 -65.5t-26.5 -99q0 -50 19.5 -88t52.5 -63.5t77 -38.5t93 -13q115 0 196.5 71t135.5 217l-66 23q-16 -40 -39.5 -81.5t-55.5 -75.5t-73.5 -55t-93.5 -21q-33 0 -62 9t-51.5 26t-35.5 42t-13 56q0 45 25.5 73.5t64 49.5t83 39.5t83 43.5t64 60.5t25.5 91.5
q0 41 -14.5 71.5t-38.5 50.5t-55.5 30.5t-66.5 10.5z" />
    <glyph glyph-name="quotesingle" unicode="'" horiz-adv-x="201" 
d="M63 700h72l-5 -230h-62z" />
    <glyph glyph-name="parenleft" unicode="(" horiz-adv-x="293" 
d="M60 289q0 -64 10 -126t30.5 -121t51 -113.5t70.5 -103.5l59 47q-67 92 -105 193t-38 224t38 224t105 193l-59 47q-40 -49 -70.5 -103.5t-51 -113t-30.5 -120.5t-10 -127z" />
    <glyph glyph-name="parenright" unicode=")" horiz-adv-x="293" 
d="M233 289q0 65 -10 127t-30.5 120.5t-50.5 113t-71 103.5l-59 -47q67 -92 105 -193t38 -224t-38 -224t-105 -193l59 -47q41 49 71 103.5t50.5 113.5t30.5 121t10 126z" />
    <glyph glyph-name="asterisk" unicode="*" horiz-adv-x="416" 
d="M178 396h59l-6 152l6 152h-59l6 -152zM100 446l108 81v40h-15l-126 -70zM349 598l-33 51l-108 -80v-40h15zM67 598l126 -69h15v40l-108 80zM316 446l33 51l-126 70h-15v-40z" />
    <glyph glyph-name="plus" unicode="+" horiz-adv-x="550" 
d="M40 325h195v-205h80v205h195v78h-195v205h-80v-205h-195v-78z" />
    <glyph glyph-name="slash" unicode="/" horiz-adv-x="444" 
d="M103 -182l313 925l-73 21l-313 -925z" />
    <glyph glyph-name="zero" unicode="0" horiz-adv-x="682" 
d="M341 -16q-64 0 -115 27t-87 75.5t-55.5 116t-19.5 147.5t19.5 147.5t55.5 116t87 75.5t115 27t115 -27t87 -75.5t55.5 -116t19.5 -147.5t-19.5 -147.5t-55.5 -116t-87 -75.5t-115 -27zM341 637q-45 0 -81 -21t-61 -59.5t-38.5 -91t-13.5 -115.5t13.5 -115.5t38.5 -91
t61 -59.5t81 -21t81 21t61 59.5t38.5 91t13.5 115.5t-13.5 115.5t-38.5 91t-61 59.5t-81 21z" />
    <glyph glyph-name="one" unicode="1" horiz-adv-x="385" 
d="M207 0h80v700h-79l-186 -124l40 -67l161 109l-16 14v-632z" />
    <glyph glyph-name="two" unicode="2" horiz-adv-x="571" 
d="M37 0h486v75h-402v-16l240 191q80 64 115 122.5t35 125.5q0 49 -16.5 89t-47 68.5t-73.5 44.5t-96 16q-89 0 -152 -45t-95 -130l76 -28q26 62 68.5 94t102.5 32q69 0 110.5 -39t41.5 -102q0 -48 -28.5 -93t-91.5 -96l-273 -220v-89z" />
    <glyph glyph-name="three" unicode="3" horiz-adv-x="582" 
d="M281 -16q57 0 104 15.5t80 43.5t51.5 67t18.5 86q0 71 -40.5 117.5t-112.5 62.5l-3 -26q65 14 103.5 58t38.5 112q0 44 -17 80t-47.5 62t-73.5 40t-95 14q-85 0 -147.5 -38t-98.5 -110l70 -38q29 55 71.5 82t102.5 27q72 0 112.5 -34.5t40.5 -90.5q0 -52 -34 -83.5
t-88 -31.5h-136v-77h139q60 0 96.5 -34t36.5 -90q0 -63 -47 -100t-125 -37q-63 0 -108.5 29t-75.5 97l-73 -36q35 -82 99 -124.5t158 -42.5z" />
    <glyph glyph-name="four" unicode="4" horiz-adv-x="616" 
d="M385 0h80v175h103v76h-103v449h-95l-328 -433v-92h343v-175zM107 229l292 389l-14 1v-368h-280z" />
    <glyph glyph-name="five" unicode="5" horiz-adv-x="570" 
d="M269 -16q-80 0 -140.5 34.5t-96.5 103.5l68 40q29 -51 71 -76.5t98 -25.5q77 0 123.5 44t46.5 117q0 72 -45 114t-123 42q-46 0 -81.5 -16t-61.5 -49l-66 24l19 364h400v-76h-326l-13 -240l-19 9q33 30 73.5 44.5t89.5 14.5q53 0 96.5 -16.5t74 -46.5t47 -72.5
t16.5 -94.5q0 -54 -18 -98t-50.5 -75t-79 -48t-103.5 -17z" />
    <glyph glyph-name="six" unicode="6" horiz-adv-x="617" 
d="M325 59q-36 0 -66.5 12t-52.5 33.5t-34 51t-12 64.5q0 33 11.5 61.5t32.5 49.5t51.5 32.5t69.5 11.5q36 0 66.5 -10.5t52.5 -30.5t34 -48.5t12 -63.5t-12 -65t-33.5 -51.5t-52 -34t-67.5 -12.5zM325 -16q55 0 100.5 17.5t78 48.5t50.5 74t18 95q0 51 -17.5 93.5t-49 73
t-75 47.5t-95.5 17q-73 0 -125 -33t-83 -97l19 3q-2 16 -2.5 30t-0.5 29q0 127 50 193t144 66q55 0 94 -23t66 -69l67 42q-38 63 -94.5 94t-131.5 31q-132 0 -203 -90t-71 -258v-44q0 -166 68.5 -253t192.5 -87z" />
    <glyph glyph-name="seven" unicode="7" horiz-adv-x="534" 
d="M133 0h88l277 621v79h-458v-78h371z" />
    <glyph glyph-name="eight" unicode="8" horiz-adv-x="586" 
d="M293 395q69 0 109 33t40 87q0 56 -40 91.5t-109 35.5t-109 -35.5t-40 -91.5q0 -54 40 -87t109 -33zM293 58q77 0 121 37.5t44 96.5q0 58 -44.5 95.5t-120.5 37.5t-120.5 -37.5t-44.5 -95.5q0 -59 44 -96.5t121 -37.5zM293 -16q-55 0 -100.5 15t-77.5 41.5t-50 64
t-18 82.5q0 66 37 113.5t101 68.5v-20q-59 22 -90.5 66t-31.5 104q0 44 16.5 80t46.5 62t72.5 40.5t94.5 14.5t94.5 -14.5t72.5 -40.5t46.5 -62t16.5 -80q0 -60 -31.5 -104t-90.5 -66v20q64 -21 101 -68.5t37 -113.5q0 -45 -18 -82.5t-50 -64t-77.5 -41.5t-100.5 -15z" />
    <glyph glyph-name="nine" unicode="9" horiz-adv-x="622" 
d="M292.02 641.004q35.998 0 66.4961 -12q30.498 -11.999 52.4971 -33.4971q21.999 -21.499 33.998 -50.9971t11.999 -64.4961q0 -32.998 -11.499 -61.4961q-11.5 -28.499 -32.498 -49.4971q-20.999 -20.999 -51.4971 -32.498q-30.498 -11.5 -69.4961 -11.5
q-35.9971 0 -66.4961 10.5q-30.498 10.499 -52.4961 30.498q-21.999 19.999 -33.998 48.4971t-11.999 63.4961t11.999 64.9961t33.498 51.4971q21.498 21.498 51.9971 33.9971q30.498 12.5 67.4951 12.5zM292.02 715.999q-54.9961 0 -100.493 -17.499
q-45.498 -17.499 -77.9961 -48.4971q-32.4971 -30.998 -50.4961 -73.9951q-17.999 -42.998 -17.999 -94.9941q0 -50.9971 17.499 -93.4941q17.499 -42.498 48.9971 -72.9961t74.9951 -47.4971t95.4941 -16.999q72.9951 0 124.992 32.998t82.9951 96.9941l-18.999 -3
q2 -15.999 2.5 -29.998t0.5 -28.998q0 -126.992 -49.9971 -192.988t-143.991 -65.9961q-54.9971 0 -93.9941 22.999q-38.998 22.998 -65.9961 68.9951l-66.9961 -41.9971q37.998 -62.9961 94.4941 -93.9941q56.4971 -30.998 131.492 -30.998q131.992 0 202.987 89.9941
q70.9961 89.9951 70.9961 257.984v43.9971q0 165.99 -68.4961 252.984q-68.4951 86.9951 -192.488 86.9951z" />
    <glyph glyph-name="less" unicode="&#x3c;" horiz-adv-x="527" 
d="M68 320l391 -213l28 64l-359 191v-14l359 191l-28 64l-391 -213v-70z" />
    <glyph glyph-name="equal" unicode="=" horiz-adv-x="568" 
d="M56 198h456v72h-456v-72zM56 401h456v72h-456v-72z" />
    <glyph glyph-name="greater" unicode="&#x3e;" horiz-adv-x="527" 
d="M459 320v70l-391 213l-28 -64l359 -191v14l-359 -191l28 -64z" />
    <glyph glyph-name="question" unicode="?" horiz-adv-x="567" 
d="M208 57q0 26 17.5 43.5t43.5 17.5t43.5 -17.5t17.5 -43.5t-17.5 -43.5t-43.5 -17.5t-43.5 17.5t-17.5 43.5zM230 215q0 37 7 65.5t22 51.5t37.5 42t52.5 37q41 24 62.5 54t21.5 65q0 50 -40 80t-105 30t-109.5 -32t-64.5 -92l-78 24q27 85 92 130.5t159 45.5
q50 0 91.5 -13t71.5 -37t46.5 -58t16.5 -75q0 -54 -28 -97t-82 -76q-27 -16 -45 -32t-29.5 -33t-16 -37.5t-4.5 -46.5v-35h-78v39z" />
    <glyph glyph-name="at" unicode="@" horiz-adv-x="908" 
d="M773 303q0 -60 -17 -92t-51 -32q-29 0 -43 22.5t-14 59.5v210h-74v-191h7q0 -81 29.5 -129t95.5 -48t104 50.5t38 147.5q0 83 -29 154t-80.5 123.5t-123 82t-155.5 29.5t-157 -30t-127 -84t-85 -130t-31 -168q0 -90 30 -165t84 -129t128.5 -84t162.5 -30t162 29.5
t130 86.5l-53 56q-43 -48 -103 -73t-135 -25q-73 0 -134 24t-105 68t-68 106t-24 138q0 75 23.5 137t66.5 106.5t103 68.5t132 24q69 0 127 -22.5t99 -63.5t64 -98.5t23 -128.5zM248 280q0 -41 14 -78t39.5 -64.5t60.5 -43.5t77 -16q38 0 70.5 14t56.5 40t38 63.5t14 84.5
h-5q0 43 -11.5 80t-34 64t-54.5 42.5t-73 15.5q-42 0 -77 -16t-60.5 -43.5t-40 -64t-14.5 -78.5zM322 280q0 28 9.5 51.5t26.5 41t40 27.5t50 10t50 -10t40 -27.5t26.5 -41t9.5 -51.5q0 -27 -9.5 -51t-26 -41.5t-40 -27.5t-50.5 -10t-50 10t-40 27.5t-26.5 41.5t-9.5 51z
" />
    <glyph glyph-name="colon" unicode=":" horiz-adv-x="218" 
d="M48 457q0 26 17.5 43.5t43.5 17.5t43.5 -17.5t17.5 -43.5t-17.5 -43.5t-43.5 -17.5t-43.5 17.5t-17.5 43.5zM48 57q0 26 17.5 43.5t43.5 17.5t43.5 -17.5t17.5 -43.5t-17.5 -43.5t-43.5 -17.5t-43.5 17.5t-17.5 43.5z" />
    <glyph glyph-name="semicolon" unicode=";" horiz-adv-x="221" 
d="M48 457q0 26 17.5 43.5t43.5 17.5t43.5 -17.5t17.5 -43.5t-17.5 -43.5t-43.5 -17.5t-43.5 17.5t-17.5 43.5zM48 58q0 26 17 43t43 17q27 0 46 -20.5t19 -61.5q0 -44 -23 -88t-61 -78l-36 35q32 28 47.5 52t20.5 51l6 -4q-3 -3 -9 -4.5t-13 -1.5q-24 0 -40.5 17t-16.5 43z
" />
    <glyph glyph-name="hyphen" unicode="-" horiz-adv-x="363" 
d="M56 232h251v74h-251v-74z" />
    <glyph glyph-name="bracketleft" unicode="[" horiz-adv-x="345" 
d="M79 -172h226v74h-148v774h148v74h-226v-922z" />
    <glyph glyph-name="bracketright" unicode="]" horiz-adv-x="345" 
d="M266 -172v922h-226v-74h148v-774h-148v-74h226z" />
    <glyph glyph-name="braceright" unicode="}" horiz-adv-x="409" 
d="M40 -172v74h28q60 0 90.5 39.5t30.5 106.5v150q0 32 18.5 57.5t52.5 33.5q-34 8 -52.5 32.5t-18.5 57.5v151q0 67 -30.5 106.5t-90.5 39.5h-28v74h32q97 0 146 -58.5t49 -157.5v-134q0 -31 19 -50t51 -19h22v-86h-21q-32 0 -51.5 -18.5t-19.5 -49.5v-134q0 -99 -49 -157
t-146 -58h-32z" />
    <glyph glyph-name="braceleft" unicode="{" horiz-adv-x="409" 
d="M369 -172h-32q-97 0 -146 58t-49 157v134q0 31 -19.5 49.5t-51.5 18.5h-21v86h22q32 0 51 19t19 50v134q0 99 49 157.5t146 58.5h32v-74h-28q-60 0 -90.5 -39.5t-30.5 -106.5v-151q0 -33 -18.5 -57.5t-52.5 -32.5q34 -8 52.5 -33.5t18.5 -57.5v-150q0 -67 30.5 -106.5
t90.5 -39.5h28v-74z" />
    <glyph glyph-name="backslash" unicode="\" horiz-adv-x="444" 
d="M341.006 -182l-312.98 925l72.9951 21l312.981 -925z" />
    <glyph glyph-name="asciicircum" unicode="^" horiz-adv-x="376" 
d="M85 412l103 211l103 -211h75l-145 288h-66l-145 -288h75z" />
    <glyph glyph-name="underscore" unicode="_" 
d="M50 -107h480v69h-480v-69z" />
    <glyph glyph-name="bar" unicode="|" horiz-adv-x="294" 
d="M186 -172v922h-78v-922h78z" />
    <glyph glyph-name="grave" unicode="`" horiz-adv-x="208" 
d="M110 600h78l-84 146h-84z" />
    <glyph glyph-name="asciitilde" unicode="~" horiz-adv-x="578" 
d="M42 317l65 -45q13 29 36.5 45t52.5 16q26 0 45.5 -10t40 -22.5t44.5 -22.5t58 -10q49 0 88 23.5t64 69.5l-65 43q-11 -30 -36 -45t-53 -15q-25 0 -44.5 10t-40 22.5t-44.5 22.5t-58 10q-47 0 -86.5 -22t-66.5 -70z" />
    <glyph glyph-name="uni0401" unicode="&#x401;" 
d="M92 0h428v81h-341v243h309v81h-309v214h341v81h-428v-700zM218 784q25 0 42 17t17 42t-17 42t-42 17t-42 -17t-17 -42t17 -42t42 -17zM413 784q25 0 42 17t17 42t-17 42t-42 17t-42 -17t-17 -42t17 -42t42 -17z" />
    <glyph glyph-name="uni0405" unicode="&#x405;" horiz-adv-x="619" 
d="M312 -16q58 0 105 15t80 42.5t50.5 67t17.5 88.5q0 66 -30.5 103.5t-77 59t-100 33t-100 26t-77 37.5t-30.5 67q0 51 41.5 82t110.5 31q63 0 109.5 -28.5t74.5 -85.5l73 45q-36 72 -102.5 110.5t-153.5 38.5q-53 0 -97 -14.5t-75 -40.5t-48 -63.5t-17 -82.5
q0 -63 30.5 -99t77 -56.5t100 -32.5t100 -27.5t77 -40.5t30.5 -72q0 -57 -45 -90t-122 -33q-73 0 -124 32t-81 98l-75 -44q39 -82 109 -124t169 -42z" />
    <glyph glyph-name="uni0455" unicode="&#x455;" horiz-adv-x="493" 
d="M252 -14q44 0 80 11t61.5 31t39 49t13.5 65q0 48 -23 75.5t-57.5 43.5t-74.5 24t-74.5 17t-57.5 23.5t-23 43.5q0 31 28 52.5t80 21.5q46 0 78.5 -19.5t53.5 -60.5l64 37q-29 56 -78.5 85t-117.5 29q-85 0 -134.5 -42t-49.5 -108q0 -46 23 -72t57.5 -41t74.5 -23.5
t74.5 -18.5t57.5 -26t23 -47q0 -36 -32 -57.5t-85 -21.5q-52 0 -89 22.5t-62 68.5l-64 -38q30 -61 84.5 -92.5t129.5 -31.5z" />
    <glyph glyph-name="uni0458" unicode="&#x458;" horiz-adv-x="233" 
d="M76 0q0 -72 -21.5 -100t-75.5 -28h-20v-78h29q85 0 127 48.5t42 145.5v512h-81v-500zM117 607q24 0 40.5 16.5t16.5 40.5t-16.5 40.5t-40.5 16.5h-1q-24 0 -40.5 -16.5t-16.5 -40.5t16.5 -40.5t40.5 -16.5h1z" />
    <glyph glyph-name="a.ss01" horiz-adv-x="633" 
d="M557 0v500h-81v-500h81zM290 -14q51 0 93.5 19t73 53.5t47 83.5t16.5 108t-16.5 108t-47 83.5t-73 53.5t-93.5 19q-52 0 -97 -19.5t-77.5 -55t-51 -84t-18.5 -105.5t18.5 -105.5t51 -84t77.5 -55t97 -19.5zM302 62q-39 0 -71 14t-55 39.5t-35.5 60t-12.5 74.5
q0 41 12.5 75t35.5 59.5t55 39.5t71 14t71 -14t55 -39.5t35.5 -59.5t12.5 -75q0 -40 -12.5 -74.5t-35.5 -60t-55 -39.5t-71 -14z" />
    <glyph glyph-name="uni0430.ss01" horiz-adv-x="633" 
d="M557 0v500h-81v-500h81zM290 -14q51 0 93.5 19t73 53.5t47 83.5t16.5 108t-16.5 108t-47 83.5t-73 53.5t-93.5 19q-52 0 -97 -19.5t-77.5 -55t-51 -84t-18.5 -105.5t18.5 -105.5t51 -84t77.5 -55t97 -19.5zM302 62q-39 0 -71 14t-55 39.5t-35.5 60t-12.5 74.5
q0 41 12.5 75t35.5 59.5t55 39.5t71 14t71 -14t55 -39.5t35.5 -59.5t12.5 -75q0 -40 -12.5 -74.5t-35.5 -60t-55 -39.5t-71 -14z" />
    <glyph glyph-name="uni040F" unicode="&#x40f;" horiz-adv-x="716" 
d="M92 700v-700h223v-148h86v148h223v700h-87v-619h-358v619h-87z" />
    <glyph glyph-name="uni045F" unicode="&#x45f;" horiz-adv-x="596" 
d="M88 0v500h80v-426h260v426h80v-500h-173v-130h-74v130h-173z" />
    <glyph glyph-name="uni0408" unicode="&#x408;" horiz-adv-x="581" 
d="M275 68q61 0 98.5 41t37.5 111v480h86v-491q0 -50 -16 -91t-45 -70.5t-70 -45.5t-91 -16t-91 16.5t-70 47.5t-45 76t-16 103v24l86 7v-24q0 -83 37 -125.5t99 -42.5z" />
    <glyph glyph-name="uni045E" unicode="&#x45e;" horiz-adv-x="506" 
d="M134 -200h84l268 700h-85l-151 -409h15l-159 409h-86l196 -491zM253 607q70 0 113.5 37t51.5 102h-75q-5 -35 -29 -55t-61 -20t-61 20t-29 55h-75q8 -65 51.5 -102t113.5 -37z" />
    <glyph glyph-name="uni0402" unicode="&#x402;" horiz-adv-x="753" 
d="M42 700v-81h540v81h-540zM190 700v-700h87v700h-87zM248 257q29 45 81 71t110 26q85 0 132.5 -54.5t47.5 -148.5q0 -93 -47.5 -148.5t-140.5 -69.5l13 -81q127 19 194 95.5t67 203.5q0 63 -17 115t-49.5 88.5t-79.5 57t-108 20.5q-63 0 -115.5 -21.5t-95.5 -60.5z" />
    <glyph glyph-name="uni040B" unicode="&#x40b;" horiz-adv-x="777" 
d="M42 700v-81h540v81h-540zM189 700v-700h87v700h-87zM248 257q28 42 80.5 69.5t117.5 27.5q78 0 120 -47t42 -129v-178h87v183q0 121 -63 185t-175 64q-66 0 -119.5 -22t-97.5 -60z" />
    <glyph glyph-name="uni0452" unicode="&#x452;" horiz-adv-x="604" 
d="M108 0h80v722h-80v-722zM454 0q0 -72 -21.5 -100t-75.5 -28h-20v-78h29q85 0 126.5 48.5t41.5 145.5v300q0 48 -13 87.5t-38 67t-60 42.5t-79 15q-62 0 -104 -30t-64 -91l12 -112q0 35 10.5 64t29 50t45 32.5t58.5 11.5q60 0 91.5 -41t31.5 -117v-267zM30 630v-66h326v66
h-326z" />
    <glyph glyph-name="uni045B" unicode="&#x45b;" horiz-adv-x="618" 
d="M110 0h80v722h-80v-722zM456 0h80v288q0 48 -13 87.5t-38 67t-60 42.5t-79 15q-62 0 -104 -30t-64 -91l12 -112q0 35 10.5 64t29 50t45 32.5t58.5 11.5q60 0 91.5 -41t31.5 -117v-267zM32 630v-66h326v66h-326z" />
    <glyph glyph-name="uni0453" unicode="&#x453;" horiz-adv-x="402" 
d="M76 500h306v-75h-225v-425h-81v500zM184 598h78l90 146h-84z" />
    <glyph glyph-name="uni045C" unicode="&#x45c;" horiz-adv-x="518" 
d="M157 500h-81v-500h81v221h97l-1 74h-96v205zM210 260l195 -260h97l-199 263l195 237h-93zM224 598h78l90 146h-84z" />
    <glyph glyph-name="uni0409" unicode="&#x409;" horiz-adv-x="1070" 
d="M36 -8v89h8q31 0 53.5 14t37 54t21.5 111t7 185v255h446v-245h183q52 0 94.5 -16.5t72.5 -46.5t46.5 -72t16.5 -93t-16.5 -93t-47 -71.5t-73.5 -46t-95 -16.5h-264v619h-277v-206q0 -118 -11 -198.5t-35 -130t-60.5 -71t-87.5 -21.5h-19zM609 377v-299h172q75 0 116 41.5
t41 106.5q0 66 -41 108.5t-116 42.5h-172z" />
    <glyph glyph-name="uni040A" unicode="&#x40a;" horiz-adv-x="1073" 
d="M92 0h87v357h350v-357h266q52 0 94.5 15.5t72.5 44t46.5 68.5t16.5 89t-16.5 89t-46.5 68.5t-72.5 44.5t-94.5 16h-183v265h-83v-263h-350v263h-87v-700zM612 80v275h172q75 0 116 -39t41 -100q0 -60 -41 -98t-116 -38h-172z" />
    <glyph glyph-name="uni0459" unicode="&#x459;" horiz-adv-x="824" 
d="M24 -6h20q43 0 72.5 15.5t48 51t26.5 92.5t8 141v132h200v-426h206q39 0 71 12.5t54.5 35t35 53t12.5 67.5t-12.5 68t-35.5 53t-55 34t-71 12h-129v165h-350v-185q0 -70 -4.5 -117t-14.5 -75t-27 -39.5t-43 -11.5h-12v-78zM475 72v191h123q48 0 75 -26t27 -68
q0 -43 -27 -70t-75 -27h-123z" />
    <glyph glyph-name="uni045A" unicode="&#x45a;" horiz-adv-x="845" 
d="M420 500h76v-177h137q36 0 66.5 -12t52.5 -33.5t34.5 -51t12.5 -64.5t-12.5 -65t-34.5 -51.5t-52.5 -33.5t-66.5 -12h-213v251h-252v-251h-80v500h80v-177h252v177zM496 72h130q42 0 68.5 26t26.5 65t-26.5 63.5t-68.5 24.5h-130v-179z" />
    <glyph glyph-name="acute" unicode="&#xb4;" horiz-adv-x="208" 
d="M20 598h78l90 146h-84z" />
    <glyph glyph-name="circumflex" unicode="&#x2c6;" horiz-adv-x="380" 
d="M20 596h81l89 92l89 -92h81l-137 146h-66z" />
    <glyph glyph-name="caron" unicode="&#x2c7;" horiz-adv-x="380" 
d="M157 596h66l137 146h-81l-89 -92l-89 92h-81z" />
    <glyph glyph-name="quotedblleft" unicode="&#x201c;" horiz-adv-x="385" 
d="M167.003 527.003q0 -24.998 -16.499 -40.9971t-40.4971 -15.999q-25.999 0 -43.998 19.499t-17.999 58.4961q0 41.998 21.499 84.9951t58.4961 74.9951l34.998 -33.998q-28.998 -25.998 -42.9971 -49.4971q-13.999 -23.498 -19.999 -49.4971l-7.99902 3q3 3 8.49902 4.5
q5.5 1.5 12.499 1.5q22.999 0 38.498 -16.499t15.499 -40.498zM337.003 527.003q0 -24.998 -16.499 -40.9971t-40.4971 -15.999q-25.999 0 -43.998 19.499t-17.999 58.4961q0 41.998 21.499 84.9951t58.4961 74.9951l34.998 -33.998q-28.998 -25.998 -42.9971 -49.4971
q-13.999 -23.498 -19.999 -49.4971l-7.99902 3q3 3 8.49902 4.5q5.5 1.5 12.499 1.5q22.999 0 38.498 -16.499t15.499 -40.498z" />
    <glyph glyph-name="quoteright" unicode="&#x2019;" horiz-adv-x="215" 
d="M48 647q0 25 16.5 41t40.5 16q26 0 44 -19.5t18 -58.5q0 -42 -21.5 -85t-58.5 -75l-35 34q29 26 43 49.5t20 49.5l8 -3q-3 -3 -8.5 -4.5t-12.5 -1.5q-23 0 -38.5 16.5t-15.5 40.5z" />
    <glyph glyph-name="periodcentered" unicode="&#xb7;" horiz-adv-x="230" 
d="M54 289q0 26 17.5 43.5t43.5 17.5t43.5 -17.5t17.5 -43.5t-17.5 -43.5t-43.5 -17.5t-43.5 17.5t-17.5 43.5z" />
    <glyph glyph-name="quotedblbase" unicode="&#x201e;" horiz-adv-x="385" 
d="M218 55q0 25 16.5 41t40.5 16q26 0 44 -19.5t18 -58.5q0 -42 -21.5 -85t-58.5 -75l-35 34q29 26 43 49.5t20 49.5l8 -3q-3 -3 -8.5 -4.5t-12.5 -1.5q-23 0 -38.5 16.5t-15.5 40.5zM48 55q0 25 16.5 41t40.5 16q26 0 44 -19.5t18 -58.5q0 -42 -21.5 -85t-58.5 -75l-35 34
q29 26 43 49.5t20 49.5l8 -3q-3 -3 -8.5 -4.5t-12.5 -1.5q-23 0 -38.5 16.5t-15.5 40.5z" />
    <glyph glyph-name="quotedblright" unicode="&#x201d;" horiz-adv-x="385" 
d="M218 647q0 25 16.5 41t40.5 16q26 0 44 -19.5t18 -58.5q0 -42 -21.5 -85t-58.5 -75l-35 34q29 26 43 49.5t20 49.5l8 -3q-3 -3 -8.5 -4.5t-12.5 -1.5q-23 0 -38.5 16.5t-15.5 40.5zM48 647q0 25 16.5 41t40.5 16q26 0 44 -19.5t18 -58.5q0 -42 -21.5 -85t-58.5 -75
l-35 34q29 26 43 49.5t20 49.5l8 -3q-3 -3 -8.5 -4.5t-12.5 -1.5q-23 0 -38.5 16.5t-15.5 40.5z" />
    <glyph glyph-name="quoteleft" unicode="&#x2018;" horiz-adv-x="215" 
d="M167.003 528.003q0 -24.998 -16.499 -40.9971t-40.4971 -15.999q-25.999 0 -43.998 19.499t-17.999 58.4961q0 41.998 21.499 84.9951t58.4961 74.9951l34.998 -33.998q-28.998 -25.998 -42.9971 -49.4971q-13.999 -23.498 -19.999 -49.4971l-7.99902 3q3 3 8.49902 4.5
q5.5 1.5 12.499 1.5q22.999 0 38.498 -16.499t15.499 -40.498z" />
    <glyph glyph-name="uni02BC" unicode="&#x2bc;" horiz-adv-x="248" 
d="M59 650q0 26 17 43t43 17q27 0 46 -20.5t19 -61.5q0 -44 -23 -88t-61 -78l-36 35q32 28 47.5 52t20.5 51l6 -4q-3 -3 -9 -4.5t-13 -1.5q-24 0 -40.5 17t-16.5 43z" />
    <glyph glyph-name="guilsinglleft" unicode="&#x2039;" horiz-adv-x="351" 
d="M40 250l203 253l60 -44l-169 -209l169 -209l-60 -44z" />
    <glyph glyph-name="guilsinglright" unicode="&#x203a;" horiz-adv-x="351" 
d="M311 250l-203 -253l-60 44l169 209l-169 209l60 44z" />
    <glyph glyph-name="guillemotright" unicode="&#xbb;" horiz-adv-x="561" 
d="M311 250l-203 -253l-60 44l169 209l-169 209l60 44zM521 250l-203 -253l-60 44l169 209l-169 209l60 44z" />
    <glyph glyph-name="guillemotleft" unicode="&#xab;" horiz-adv-x="561" 
d="M250 250l203 253l60 -44l-169 -209l169 -209l-60 -44zM40 250l203 253l60 -44l-169 -209l169 -209l-60 -44z" />
    <glyph glyph-name="endash" unicode="&#x2013;" horiz-adv-x="582" 
d="M56 232h470v74h-470v-74z" />
    <glyph glyph-name="emdash" unicode="&#x2014;" horiz-adv-x="722" 
d="M56 232h610v74h-610v-74z" />
    <glyph glyph-name="dieresis" unicode="&#xa8;" horiz-adv-x="384" 
d="M90 607q24 0 40.5 16.5t16.5 40.5t-16.5 40.5t-40.5 16.5t-40.5 -16.5t-16.5 -40.5t16.5 -40.5t40.5 -16.5zM294 607q24 0 40.5 16.5t16.5 40.5t-16.5 40.5t-40.5 16.5t-40.5 -16.5t-16.5 -40.5t16.5 -40.5t40.5 -16.5z" />
    <glyph glyph-name="dotaccent" unicode="&#x2d9;" horiz-adv-x="233" 
d="M117 607q24 0 40.5 16.5t16.5 40.5t-16.5 40.5t-40.5 16.5h-1q-24 0 -40.5 -16.5t-16.5 -40.5t16.5 -40.5t40.5 -16.5h1z" />
    <glyph glyph-name="quotesinglbase" unicode="&#x201a;" horiz-adv-x="215" 
d="M48 55q0 25 16.5 41t40.5 16q26 0 44 -19.5t18 -58.5q0 -42 -21.5 -85t-58.5 -75l-35 34q29 26 43 49.5t20 49.5l8 -3q-3 -3 -8.5 -4.5t-12.5 -1.5q-23 0 -38.5 16.5t-15.5 40.5z" />
    <glyph glyph-name="uni02C9" unicode="&#x2c9;" horiz-adv-x="352" 
d="M30 642h292v62h-292v-62z" />
    <glyph glyph-name="cedilla" unicode="&#xb8;" horiz-adv-x="282" 
d="M87 -206q66 0 101 30t35 84q0 40 -20.5 67.5t-62.5 53.5l-51 -30q35 -16 53.5 -35.5t18.5 -47.5q0 -30 -20.5 -46t-58.5 -16q-20 0 -36 4.5t-32 13.5l-18 -59q22 -10 44 -14.5t47 -4.5z" />
    <glyph glyph-name="tilde" unicode="&#x2dc;" horiz-adv-x="350" 
d="M116 660q-20 0 -29 -16.5t-9 -48.5h-58q0 32 6.5 55.5t18.5 39t29.5 23t39.5 7.5q28 0 44 -10.5t27.5 -23t22 -23t26.5 -10.5q20 0 29 17t9 49h58q0 -32 -6.5 -55.5t-18.5 -39.5t-29.5 -23.5t-39.5 -7.5q-28 0 -44 10.5t-27.5 23t-21.5 23t-27 10.5z" />
    <glyph glyph-name="ogonek" unicode="&#x2db;" horiz-adv-x="260" 
d="M41 -113q0 45 30.5 78.5t99.5 69.5l41 -35q-57 -29 -83 -50.5t-26 -51.5q0 -26 16.5 -40.5t43.5 -14.5q15 0 30 4.5t25 13.5l19 -57q-17 -11 -37.5 -17t-43.5 -6q-54 0 -84.5 29t-30.5 77z" />
    <glyph glyph-name="g.ss02" horiz-adv-x="616" 
d="M286 -214q59 0 106 18t80 51.5t50.5 81t17.5 107.5v456h-81v-452q0 -88 -45.5 -137.5t-127.5 -49.5q-55 0 -95.5 23.5t-69.5 72.5l-64 -43q35 -63 93 -95.5t136 -32.5zM281 14q51 0 91.5 19t68.5 52.5t43 79t15 99.5t-15 99.5t-43 79t-68.5 52.5t-91.5 19t-94 -19
t-74.5 -52.5t-49 -79t-17.5 -99.5t17.5 -99.5t49 -79t74.5 -52.5t94 -19zM293 89q-37 0 -68 13t-53 36.5t-34 55.5t-12 70t12 70t34 55.5t53 36.5t68 13t67.5 -13t52.5 -36.5t34 -55.5t12 -70t-12 -70t-34 -55.5t-52.5 -36.5t-67.5 -13z" />
    <glyph glyph-name="edieresis" unicode="&#xeb;" horiz-adv-x="584" 
d="M305 -14q-58 0 -105.5 19.5t-81.5 54.5t-53 83t-19 105q0 58 19 106.5t53.5 84t81.5 55.5t102 20q53 0 96.5 -17.5t74.5 -49.5t48.5 -76.5t17.5 -98.5q0 -11 -0.5 -22t-2.5 -22h-426v71h354l-8 -7q0 32 -11.5 59t-32.5 46.5t-49.5 30.5t-62.5 11q-39 0 -70.5 -14
t-54 -39.5t-35 -60t-12.5 -76.5t13 -76.5t36 -59t56 -38t73 -13.5q48 0 84.5 20t63.5 62l64 -48q-38 -54 -91 -82t-122 -28zM200 607q24 0 40.5 16.5t16.5 40.5t-16.5 40.5t-40.5 16.5t-40.5 -16.5t-16.5 -40.5t16.5 -40.5t40.5 -16.5zM404 607q24 0 40.5 16.5t16.5 40.5
t-16.5 40.5t-40.5 16.5t-40.5 -16.5t-16.5 -40.5t16.5 -40.5t40.5 -16.5z" />
    <glyph glyph-name="ntilde" unicode="&#xf1;" horiz-adv-x="574" 
d="M423 0h81v302q0 48 -13 87.5t-37.5 67t-59 42.5t-77.5 15q-61 0 -106.5 -30.5t-69.5 -88.5h16v105h-81v-500h81v280q0 73 39.5 115.5t102.5 42.5q60 0 92 -39t32 -109v-290zM229 660q-20 0 -29 -16.5t-9 -48.5h-58q0 32 6.5 55.5t18.5 39t29.5 23t39.5 7.5q28 0 44 -10.5
t27.5 -23t22 -23t26.5 -10.5q20 0 29 17t9 49h58q0 -32 -6.5 -55.5t-18.5 -39.5t-29.5 -23.5t-39.5 -7.5q-28 0 -44 10.5t-27.5 23t-21.5 23t-27 10.5z" />
    <glyph glyph-name="acircumflex" unicode="&#xe2;" horiz-adv-x="549" 
d="M46 135q0 -68 47.5 -108.5t125.5 -40.5q70 0 119.5 34t73.5 98h-18v-118h80v321q0 44 -15 79.5t-42 60.5t-65.5 39t-85.5 14q-72 0 -126 -32t-80 -91l68 -34q20 42 54.5 63t81.5 21q61 0 95.5 -34t34.5 -95v-99q0 -32 -12.5 -60t-34 -49t-51 -33t-64.5 -12
q-47 0 -75.5 21.5t-28.5 59.5q0 42 37 64.5t110 26.5l146 7v68l-152 -7q-110 -5 -166.5 -48.5t-56.5 -115.5zM100 596h81l89 92l89 -92h81l-137 146h-66z" />
    <glyph glyph-name="ecircumflex" unicode="&#xea;" horiz-adv-x="584" 
d="M305 -14q-58 0 -105.5 19.5t-81.5 54.5t-53 83t-19 105q0 58 19 106.5t53.5 84t81.5 55.5t102 20q53 0 96.5 -17.5t74.5 -49.5t48.5 -76.5t17.5 -98.5q0 -11 -0.5 -22t-2.5 -22h-426v71h354l-8 -7q0 32 -11.5 59t-32.5 46.5t-49.5 30.5t-62.5 11q-39 0 -70.5 -14
t-54 -39.5t-35 -60t-12.5 -76.5t13 -76.5t36 -59t56 -38t73 -13.5q48 0 84.5 20t63.5 62l64 -48q-38 -54 -91 -82t-122 -28zM123 595h81l89 92l89 -92h81l-137 146h-66z" />
    <glyph glyph-name="agrave" unicode="&#xe0;" horiz-adv-x="549" 
d="M46 135q0 -68 47.5 -108.5t125.5 -40.5q70 0 119.5 34t73.5 98h-18v-118h80v321q0 44 -15 79.5t-42 60.5t-65.5 39t-85.5 14q-72 0 -126 -32t-80 -91l68 -34q20 42 54.5 63t81.5 21q61 0 95.5 -34t34.5 -95v-99q0 -32 -12.5 -60t-34 -49t-51 -33t-64.5 -12
q-47 0 -75.5 21.5t-28.5 59.5q0 42 37 64.5t110 26.5l146 7v68l-152 -7q-110 -5 -166.5 -48.5t-56.5 -115.5zM236 600h78l-84 146h-84z" />
    <glyph glyph-name="odieresis" unicode="&#xf6;" horiz-adv-x="608" 
d="M304 -14q-57 0 -104 20t-81.5 55.5t-53.5 84t-19 104.5t19 104.5t53.5 84t81.5 55.5t104 20t104 -20t81.5 -55.5t53.5 -84t19 -104.5t-19 -104.5t-53.5 -84t-81.5 -55.5t-104 -20zM304 62q39 0 71.5 14t55.5 39.5t36 60t13 74.5q0 41 -13 75t-36 59.5t-55.5 39.5
t-71.5 14t-71.5 -14t-55.5 -39.5t-36 -59.5t-13 -75q0 -40 13 -74.5t36 -60t55.5 -39.5t71.5 -14zM202 607q24 0 40.5 16.5t16.5 40.5t-16.5 40.5t-40.5 16.5t-40.5 -16.5t-16.5 -40.5t16.5 -40.5t40.5 -16.5zM406 607q24 0 40.5 16.5t16.5 40.5t-16.5 40.5t-40.5 16.5
t-40.5 -16.5t-16.5 -40.5t16.5 -40.5t40.5 -16.5z" />
    <glyph glyph-name="ring" unicode="&#x2da;" horiz-adv-x="286" 
d="M143 584q-49 0 -81 31t-32 79t32 79t81 31t81 -31t32 -79t-32 -79t-81 -31zM143 636q25 0 41 16.5t16 41.5t-16 41.5t-41 16.5t-41 -16.5t-16 -41.5t16 -41.5t41 -16.5z" />
    <glyph glyph-name="dotlessi" unicode="&#x131;" horiz-adv-x="234" 
d="M76 500h82v-500h-82v500z" />
    <glyph glyph-name="aring" unicode="&#xe5;" horiz-adv-x="549" 
d="M46 135q0 -68 47.5 -108.5t125.5 -40.5q70 0 119.5 34t73.5 98h-18v-118h80v321q0 44 -15 79.5t-42 60.5t-65.5 39t-85.5 14q-72 0 -126 -32t-80 -91l68 -34q20 42 54.5 63t81.5 21q61 0 95.5 -34t34.5 -95v-99q0 -32 -12.5 -60t-34 -49t-51 -33t-64.5 -12
q-47 0 -75.5 21.5t-28.5 59.5q0 42 37 64.5t110 26.5l146 7v68l-152 -7q-110 -5 -166.5 -48.5t-56.5 -115.5zM275 584q-49 0 -81 31t-32 79t32 79t81 31t81 -31t32 -79t-32 -79t-81 -31zM275 636q25 0 41 16.5t16 41.5t-16 41.5t-41 16.5t-41 -16.5t-16 -41.5t16 -41.5
t41 -16.5z" />
    <glyph glyph-name="Ccedilla" unicode="&#xc7;" horiz-adv-x="760" 
d="M417 -16q103 0 182.5 47t122.5 134l-74 42q-35 -69 -92.5 -105t-136.5 -36q-60 0 -110 20.5t-86 58t-55.5 90t-19.5 115.5t19.5 115.5t55.5 90t86 58t111 20.5q78 0 134.5 -35t91.5 -101l75 42q-45 85 -124 130.5t-180 45.5q-77 0 -142.5 -27t-113 -75.5t-74.5 -115.5
t-27 -148t27 -148t74.5 -115.5t113 -75.5t142.5 -27zM384 -224q69 0 105 33.5t36 88.5q0 44 -22.5 74.5t-66.5 56.5l-51 -32q38 -17 57 -38t19 -53t-20 -50t-59 -18q-19 0 -35.5 4.5t-32.5 13.5l-18 -61q20 -10 42 -14.5t46 -4.5z" />
    <glyph glyph-name="ccedilla" unicode="&#xe7;" horiz-adv-x="560" 
d="M46 250q0 -57 18.5 -105.5t52.5 -83.5t81.5 -55t105.5 -20q75 0 131 34t88 100l-70 38q-22 -48 -59.5 -72t-88.5 -24q-40 0 -72.5 14t-55.5 39.5t-36 60t-13 74.5q0 41 13 75t36 59.5t56 39.5t73 14q50 0 86.5 -23t59.5 -68l69 39q-32 63 -87.5 95.5t-129.5 32.5
q-58 0 -105.5 -20t-81.5 -55t-52.5 -83.5t-18.5 -105.5zM276 -206q66 0 101 30t35 84q0 40 -20.5 67.5t-62.5 53.5l-51 -30q35 -16 53.5 -35.5t18.5 -47.5q0 -30 -20.5 -46t-58.5 -16q-20 0 -36 4.5t-32 13.5l-18 -59q22 -10 44 -14.5t47 -4.5z" />
    <glyph glyph-name="aacute" unicode="&#xe1;" horiz-adv-x="549" 
d="M46 135q0 -68 47.5 -108.5t125.5 -40.5q70 0 119.5 34t73.5 98h-18v-118h80v321q0 44 -15 79.5t-42 60.5t-65.5 39t-85.5 14q-72 0 -126 -32t-80 -91l68 -34q20 42 54.5 63t81.5 21q61 0 95.5 -34t34.5 -95v-99q0 -32 -12.5 -60t-34 -49t-51 -33t-64.5 -12
q-47 0 -75.5 21.5t-28.5 59.5q0 42 37 64.5t110 26.5l146 7v68l-152 -7q-110 -5 -166.5 -48.5t-56.5 -115.5zM223 598h78l90 146h-84z" />
    <glyph glyph-name="atilde" unicode="&#xe3;" horiz-adv-x="549" 
d="M46 135q0 -68 47.5 -108.5t125.5 -40.5q70 0 119.5 34t73.5 98h-18v-118h80v321q0 44 -15 79.5t-42 60.5t-65.5 39t-85.5 14q-72 0 -126 -32t-80 -91l68 -34q20 42 54.5 63t81.5 21q61 0 95.5 -34t34.5 -95v-99q0 -32 -12.5 -60t-34 -49t-51 -33t-64.5 -12
q-47 0 -75.5 21.5t-28.5 59.5q0 42 37 64.5t110 26.5l146 7v68l-152 -7q-110 -5 -166.5 -48.5t-56.5 -115.5zM206 660q-20 0 -29 -16.5t-9 -48.5h-58q0 32 6.5 55.5t18.5 39t29.5 23t39.5 7.5q28 0 44 -10.5t27.5 -23t22 -23t26.5 -10.5q20 0 29 17t9 49h58
q0 -32 -6.5 -55.5t-18.5 -39.5t-29.5 -23.5t-39.5 -7.5q-28 0 -44 10.5t-27.5 23t-21.5 23t-27 10.5z" />
    <glyph glyph-name="adieresis" unicode="&#xe4;" horiz-adv-x="549" 
d="M46 135q0 -68 47.5 -108.5t125.5 -40.5q70 0 119.5 34t73.5 98h-18v-118h80v321q0 44 -15 79.5t-42 60.5t-65.5 39t-85.5 14q-72 0 -126 -32t-80 -91l68 -34q20 42 54.5 63t81.5 21q61 0 95.5 -34t34.5 -95v-99q0 -32 -12.5 -60t-34 -49t-51 -33t-64.5 -12
q-47 0 -75.5 21.5t-28.5 59.5q0 42 37 64.5t110 26.5l146 7v68l-152 -7q-110 -5 -166.5 -48.5t-56.5 -115.5zM167 607q24 0 40.5 16.5t16.5 40.5t-16.5 40.5t-40.5 16.5t-40.5 -16.5t-16.5 -40.5t16.5 -40.5t40.5 -16.5zM371 607q24 0 40.5 16.5t16.5 40.5t-16.5 40.5
t-40.5 16.5t-40.5 -16.5t-16.5 -40.5t16.5 -40.5t40.5 -16.5z" />
    <glyph glyph-name="egrave" unicode="&#xe8;" horiz-adv-x="584" 
d="M305 -14q-58 0 -105.5 19.5t-81.5 54.5t-53 83t-19 105q0 58 19 106.5t53.5 84t81.5 55.5t102 20q53 0 96.5 -17.5t74.5 -49.5t48.5 -76.5t17.5 -98.5q0 -11 -0.5 -22t-2.5 -22h-426v71h354l-8 -7q0 32 -11.5 59t-32.5 46.5t-49.5 30.5t-62.5 11q-39 0 -70.5 -14
t-54 -39.5t-35 -60t-12.5 -76.5t13 -76.5t36 -59t56 -38t73 -13.5q48 0 84.5 20t63.5 62l64 -48q-38 -54 -91 -82t-122 -28zM273 600h78l-84 146h-84z" />
    <glyph glyph-name="eacute" unicode="&#xe9;" horiz-adv-x="584" 
d="M305 -14q-58 0 -105.5 19.5t-81.5 54.5t-53 83t-19 105q0 58 19 106.5t53.5 84t81.5 55.5t102 20q53 0 96.5 -17.5t74.5 -49.5t48.5 -76.5t17.5 -98.5q0 -11 -0.5 -22t-2.5 -22h-426v71h354l-8 -7q0 32 -11.5 59t-32.5 46.5t-49.5 30.5t-62.5 11q-39 0 -70.5 -14
t-54 -39.5t-35 -60t-12.5 -76.5t13 -76.5t36 -59t56 -38t73 -13.5q48 0 84.5 20t63.5 62l64 -48q-38 -54 -91 -82t-122 -28zM253 598h78l90 146h-84z" />
    <glyph glyph-name="ograve" unicode="&#xf2;" horiz-adv-x="608" 
d="M304 -14q-57 0 -104 20t-81.5 55.5t-53.5 84t-19 104.5t19 104.5t53.5 84t81.5 55.5t104 20t104 -20t81.5 -55.5t53.5 -84t19 -104.5t-19 -104.5t-53.5 -84t-81.5 -55.5t-104 -20zM304 62q39 0 71.5 14t55.5 39.5t36 60t13 74.5q0 41 -13 75t-36 59.5t-55.5 39.5
t-71.5 14t-71.5 -14t-55.5 -39.5t-36 -59.5t-13 -75q0 -40 13 -74.5t36 -60t55.5 -39.5t71.5 -14zM261 600h78l-84 146h-84z" />
    <glyph glyph-name="oacute" unicode="&#xf3;" horiz-adv-x="608" 
d="M304 -14q-57 0 -104 20t-81.5 55.5t-53.5 84t-19 104.5t19 104.5t53.5 84t81.5 55.5t104 20t104 -20t81.5 -55.5t53.5 -84t19 -104.5t-19 -104.5t-53.5 -84t-81.5 -55.5t-104 -20zM304 62q39 0 71.5 14t55.5 39.5t36 60t13 74.5q0 41 -13 75t-36 59.5t-55.5 39.5
t-71.5 14t-71.5 -14t-55.5 -39.5t-36 -59.5t-13 -75q0 -40 13 -74.5t36 -60t55.5 -39.5t71.5 -14zM262 598h78l90 146h-84z" />
    <glyph glyph-name="ocircumflex" unicode="&#xf4;" horiz-adv-x="608" 
d="M304 -14q-57 0 -104 20t-81.5 55.5t-53.5 84t-19 104.5t19 104.5t53.5 84t81.5 55.5t104 20t104 -20t81.5 -55.5t53.5 -84t19 -104.5t-19 -104.5t-53.5 -84t-81.5 -55.5t-104 -20zM304 62q39 0 71.5 14t55.5 39.5t36 60t13 74.5q0 41 -13 75t-36 59.5t-55.5 39.5
t-71.5 14t-71.5 -14t-55.5 -39.5t-36 -59.5t-13 -75q0 -40 13 -74.5t36 -60t55.5 -39.5t71.5 -14zM134 596h81l89 92l89 -92h81l-137 146h-66z" />
    <glyph glyph-name="otilde" unicode="&#xf5;" horiz-adv-x="608" 
d="M304 -14q-57 0 -104 20t-81.5 55.5t-53.5 84t-19 104.5t19 104.5t53.5 84t81.5 55.5t104 20t104 -20t81.5 -55.5t53.5 -84t19 -104.5t-19 -104.5t-53.5 -84t-81.5 -55.5t-104 -20zM304 62q39 0 71.5 14t55.5 39.5t36 60t13 74.5q0 41 -13 75t-36 59.5t-55.5 39.5
t-71.5 14t-71.5 -14t-55.5 -39.5t-36 -59.5t-13 -75q0 -40 13 -74.5t36 -60t55.5 -39.5t71.5 -14zM245 660q-20 0 -29 -16.5t-9 -48.5h-58q0 32 6.5 55.5t18.5 39t29.5 23t39.5 7.5q28 0 44 -10.5t27.5 -23t22 -23t26.5 -10.5q20 0 29 17t9 49h58q0 -32 -6.5 -55.5
t-18.5 -39.5t-29.5 -23.5t-39.5 -7.5q-28 0 -44 10.5t-27.5 23t-21.5 23t-27 10.5z" />
    <glyph glyph-name="ugrave" unicode="&#xf9;" horiz-adv-x="574" 
d="M151.025 500h-80.9941v-301.981q0 -47.9971 12.999 -87.4951q12.999 -39.4971 37.4971 -66.9951q24.499 -27.499 58.9971 -42.498q34.4971 -14.999 77.4951 -14.999q60.9961 0 106.493 30.498t69.4961 88.4951h-15.999v-104.994h80.9951v499.97h-80.9951v-279.982
q0 -72.9961 -39.498 -115.493q-39.4971 -42.498 -102.493 -42.498q-59.9971 0 -91.9951 38.998q-31.998 38.9971 -31.998 108.993v289.982zM258 600h78l-84 146h-84z" />
    <glyph glyph-name="uacute" unicode="&#xfa;" horiz-adv-x="574" 
d="M151.025 500h-80.9941v-301.981q0 -47.9971 12.999 -87.4951q12.999 -39.4971 37.4971 -66.9951q24.499 -27.499 58.9971 -42.498q34.4971 -14.999 77.4951 -14.999q60.9961 0 106.493 30.498t69.4961 88.4951h-15.999v-104.994h80.9951v499.97h-80.9951v-279.982
q0 -72.9961 -39.498 -115.493q-39.4971 -42.498 -102.493 -42.498q-59.9971 0 -91.9951 38.998q-31.998 38.9971 -31.998 108.993v289.982zM244 598h78l90 146h-84z" />
    <glyph glyph-name="udieresis" unicode="&#xfc;" horiz-adv-x="574" 
d="M151.025 500h-80.9941v-301.981q0 -47.9971 12.999 -87.4951q12.999 -39.4971 37.4971 -66.9951q24.499 -27.499 58.9971 -42.498q34.4971 -14.999 77.4951 -14.999q60.9961 0 106.493 30.498t69.4961 88.4951h-15.999v-104.994h80.9951v499.97h-80.9951v-279.982
q0 -72.9961 -39.498 -115.493q-39.4971 -42.498 -102.493 -42.498q-59.9971 0 -91.9951 38.998q-31.998 38.9971 -31.998 108.993v289.982zM186 607q24 0 40.5 16.5t16.5 40.5t-16.5 40.5t-40.5 16.5t-40.5 -16.5t-16.5 -40.5t16.5 -40.5t40.5 -16.5zM390 607
q24 0 40.5 16.5t16.5 40.5t-16.5 40.5t-40.5 16.5t-40.5 -16.5t-16.5 -40.5t16.5 -40.5t40.5 -16.5z" />
    <glyph glyph-name="yacute" unicode="&#xfd;" horiz-adv-x="506" 
d="M134 -200h84l268 700h-85l-151 -409h15l-159 409h-86l196 -491zM201 598h78l90 146h-84z" />
    <glyph glyph-name="ydieresis" unicode="&#xff;" horiz-adv-x="506" 
d="M134 -200h84l268 700h-85l-151 -409h15l-159 409h-86l196 -491zM151 607q24 0 40.5 16.5t16.5 40.5t-16.5 40.5t-40.5 16.5t-40.5 -16.5t-16.5 -40.5t16.5 -40.5t40.5 -16.5zM355 607q24 0 40.5 16.5t16.5 40.5t-16.5 40.5t-40.5 16.5t-40.5 -16.5t-16.5 -40.5
t16.5 -40.5t40.5 -16.5z" />
    <glyph glyph-name="zcaron" unicode="&#x17e;" horiz-adv-x="495" 
d="M46 0h403v74h-312l312 348v78h-394v-74h302l-311 -348v-78zM215 596h66l137 146h-81l-89 -92l-89 92h-81z" />
    <glyph glyph-name="Ydieresis" unicode="&#x178;" horiz-adv-x="612" 
d="M263 0h86v288l237 412h-98l-188 -342h12l-188 342h-98l237 -412v-288zM204 807q24 0 40.5 16.5t16.5 40.5t-16.5 40.5t-40.5 16.5t-40.5 -16.5t-16.5 -40.5t16.5 -40.5t40.5 -16.5zM408 807q24 0 40.5 16.5t16.5 40.5t-16.5 40.5t-40.5 16.5t-40.5 -16.5t-16.5 -40.5
t16.5 -40.5t40.5 -16.5z" />
    <glyph glyph-name="Zcaron" unicode="&#x17d;" horiz-adv-x="673" 
d="M90 618h410l-422 -530v-88h517v82h-421l421 531v87h-505v-82zM304 796h66l137 146h-81l-89 -92l-89 92h-81z" />
    <glyph glyph-name="perthousand" unicode="&#x2030;" horiz-adv-x="1164" 
d="M143 17l484 719l60 -39l-484 -719zM210 360q34 0 62 13.5t48.5 37t32 55.5t11.5 69t-11.5 69t-32 55.5t-48.5 37t-62 13.5t-62 -13.5t-48.5 -37t-32 -55.5t-11.5 -69t11.5 -69t32 -55.5t48.5 -37t62 -13.5zM210 428q-35 0 -59.5 29.5t-24.5 77.5t24.5 77.5t59.5 29.5
t59.5 -29.5t24.5 -77.5t-24.5 -77.5t-59.5 -29.5zM620 -10q34 0 62 13.5t48.5 37t32 55.5t11.5 69t-11.5 69t-32 55.5t-48.5 37t-62 13.5t-62 -13.5t-48.5 -37t-32 -55.5t-11.5 -69t11.5 -69t32 -55.5t48.5 -37t62 -13.5zM620 58q-35 0 -59.5 29.5t-24.5 77.5t24.5 77.5
t59.5 29.5t59.5 -29.5t24.5 -77.5t-24.5 -77.5t-59.5 -29.5zM980 -10q34 0 62 13.5t48.5 37t32 55.5t11.5 69t-11.5 69t-32 55.5t-48.5 37t-62 13.5t-62 -13.5t-48.5 -37t-32 -55.5t-11.5 -69t11.5 -69t32 -55.5t48.5 -37t62 -13.5zM980 58q-35 0 -59.5 29.5t-24.5 77.5
t24.5 77.5t59.5 29.5t59.5 -29.5t24.5 -77.5t-24.5 -77.5t-59.5 -29.5z" />
    <glyph glyph-name="igrave" unicode="&#xec;" horiz-adv-x="234" 
d="M76 500h82v-500h-82v500zM86 600h78l-84 146h-84z" />
    <glyph glyph-name="iacute" unicode="&#xed;" horiz-adv-x="234" 
d="M76 500h82v-500h-82v500zM73 598h78l90 146h-84z" />
    <glyph glyph-name="idieresis" unicode="&#xef;" horiz-adv-x="234" 
d="M76 500h82v-500h-82v500zM15 607q24 0 40.5 16.5t16.5 40.5t-16.5 40.5t-40.5 16.5t-40.5 -16.5t-16.5 -40.5t16.5 -40.5t40.5 -16.5zM219 607q24 0 40.5 16.5t16.5 40.5t-16.5 40.5t-40.5 16.5t-40.5 -16.5t-16.5 -40.5t16.5 -40.5t40.5 -16.5z" />
    <glyph glyph-name="thorn" unicode="&#xfe;" horiz-adv-x="638" 
d="M76 -200h82v922h-82v-922zM345 -14q54 0 99.5 20t78 55.5t51 83.5t18.5 105t-18.5 105t-51 83.5t-78 55.5t-99.5 20t-96 -20t-71.5 -55.5t-44.5 -83.5t-15 -105t15 -105t44.5 -83.5t71.5 -55.5t96 -20zM334 62q-39 0 -71.5 14t-55.5 39.5t-36 60t-13 74.5q0 41 13 75
t36 59.5t55.5 39.5t71.5 14t71.5 -14t55.5 -39.5t36 -59.5t13 -75q0 -40 -13 -74.5t-36 -60t-55.5 -39.5t-71.5 -14z" />
    <glyph glyph-name="Thorn" unicode="&#xde;" horiz-adv-x="635" 
d="M92 0h84v145h190q50 0 90.5 16t69.5 45t45 70t16 91t-16 91t-45 70t-70 45t-91 16h-189v111h-84v-700zM176 224v286h183q64 0 103 -39t39 -105q0 -65 -39.5 -103.5t-102.5 -38.5h-183z" />
    <glyph glyph-name="cent" unicode="&#xa2;" horiz-adv-x="560" 
d="M267 485h74v176h-74v-176zM267 -152h74v176h-74v-176zM304 -14q74 0 129.5 33.5t86.5 96.5l-67 40q-24 -47 -62.5 -70.5t-88.5 -23.5q-39 0 -71 14t-55 39.5t-35.5 60t-12.5 74.5q0 41 12.5 75t35.5 59.5t55 39.5t71 14q50 0 88.5 -23.5t62.5 -70.5l67 40
q-31 63 -86.5 96.5t-129.5 33.5q-57 0 -104.5 -20t-81.5 -55t-53 -83.5t-19 -105.5t19 -105.5t53 -83.5t81.5 -55t104.5 -20z" />
    <glyph glyph-name="ae" unicode="&#xe6;" horiz-adv-x="935" 
d="M46 135q0 -69 49 -109t128 -40q94 0 154 55.5t69 152.5l-51 19q0 -32 -13 -60t-36 -49t-53 -33.5t-65 -12.5q-48 0 -75 21.5t-27 59.5q0 43 38 66.5t114 27.5l131 6v64l-139 -6q-111 -5 -167.5 -47.5t-56.5 -114.5zM395 177h72v144q0 44 -15 79.5t-42 61t-64.5 39
t-82.5 13.5q-71 0 -124 -32.5t-79 -91.5l66 -33q21 43 56.5 64t81.5 21q61 0 96 -34.5t35 -95.5v-135zM658 -14q65 0 119 26.5t89 77.5l-61 49q-24 -38 -62 -57.5t-86 -19.5q-40 0 -73 14t-57 39t-37 59.5t-13 76.5q0 41 12.5 75.5t35.5 60t55 39.5t71 14q34 0 62.5 -11
t49.5 -30.5t32.5 -47t11.5 -59.5l8 8h-356v-70h427q2 11 2.5 21t0.5 21q0 54 -17 98.5t-48 76.5t-74 49.5t-95 17.5q-55 0 -101.5 -20t-80.5 -55t-53 -83.5t-19 -105.5q0 -58 19 -106.5t53.5 -83.5t81.5 -54.5t103 -19.5z" />
    <glyph glyph-name="oe" unicode="&#x153;" horiz-adv-x="1014" 
d="M301 -14q-56 0 -103 20t-80.5 55.5t-52.5 84t-19 104.5t19 104.5t52.5 84t80.5 55.5t103 20t103 -20t80.5 -55.5t52.5 -84t19 -104.5t-19 -104.5t-52.5 -84t-80.5 -55.5t-103 -20zM304 62q39 0 71.5 14t55.5 39.5t36 60t13 74.5q0 41 -13 75t-36 59.5t-55.5 39.5
t-71.5 14t-71.5 -14t-55.5 -39.5t-36 -59.5t-13 -75q0 -40 13 -74.5t36 -60t55.5 -39.5t71.5 -14zM737 -14q-56 0 -103.5 19.5t-81.5 54.5t-53 83.5t-19 106.5q0 57 19 105.5t52.5 83.5t80.5 55t102 20q52 0 95 -17.5t74 -49.5t48 -76.5t17 -98.5q0 -11 -0.5 -21t-2.5 -21
h-427v70h356l-8 -8q0 32 -11.5 59.5t-32.5 47t-49.5 30.5t-62.5 11q-39 0 -71 -14t-55 -39.5t-35.5 -60t-12.5 -75.5q0 -42 13 -76.5t37 -59.5t57 -39t73 -14q48 0 86 19.5t62 57.5l61 -49q-35 -51 -89.5 -77.5t-118.5 -26.5z" />
    <glyph glyph-name="Oslash" unicode="&#xd8;" horiz-adv-x="829" 
d="M415 -16q77 0 141.5 27.5t112 76t74 116t26.5 146.5q0 80 -26.5 147t-74 115.5t-112 76t-141.5 27.5q-76 0 -141.5 -27.5t-112.5 -76t-74 -115.5t-27 -147q0 -79 27 -146.5t74 -116t112.5 -76t141.5 -27.5zM415 66q-59 0 -108 21t-84.5 58.5t-55 89.5t-19.5 115
t19.5 115.5t55 90t84.5 58t108 20.5t108 -20.5t84 -58t54.5 -90t19.5 -115.5t-19.5 -115t-54.5 -89.5t-84 -58.5t-108 -21zM91 -25l114 114l14 16l440 440l17 15l115 115l-52 52l-116 -116l-19 -21l-437 -437l-17 -15l-111 -111z" />
    <glyph glyph-name="multiply" unicode="&#xd7;" horiz-adv-x="462" 
d="M37 503l142 -138l-149 -145l55 -56l145 149l140 -143l55 55l-142 138l149 145l-55 56l-145 -149l-140 143z" />
    <glyph glyph-name="divide" unicode="&#xf7;" horiz-adv-x="568" 
d="M56 311h456v72h-456v-72zM228 165q0 24 16 40t40 16t40 -16t16 -40t-16 -40t-40 -16t-40 16t-16 40zM228 529q0 24 16 40t40 16t40 -16t16 -40t-16 -40t-40 -16t-40 16t-16 40z" />
    <glyph glyph-name="Eth" unicode="&#xd0;" horiz-adv-x="754" 
d="M129 0h220q78 0 142 26.5t109 73.5t69.5 111t24.5 139t-24.5 139t-69.5 111t-109 73.5t-142 26.5h-220v-700zM348 619q60 0 108 -20t81 -56t51 -85.5t18 -107.5t-18 -107.5t-51 -85.5t-81 -56t-108 -20h-132v538h132zM36 320h331v78h-331v-78z" />
    <glyph glyph-name="questiondown" unicode="&#xbf;" horiz-adv-x="567" 
d="M359.013 443.004q0 -25.999 -17.499 -43.498t-43.4971 -17.499q-25.999 0 -43.4971 17.499q-17.499 17.499 -17.499 43.498q0 25.998 17.499 43.4971q17.498 17.499 43.4971 17.499q25.998 0 43.4971 -17.499t17.499 -43.4971zM337.014 285.013
q0 -36.9971 -6.99902 -65.4951q-7 -28.499 -21.999 -51.4971q-14.999 -22.999 -37.4971 -41.998q-22.499 -18.998 -52.4971 -36.9971q-40.998 -23.999 -62.4961 -53.9971q-21.499 -29.998 -21.499 -64.9961q0 -49.9971 39.998 -79.9951q39.9971 -29.998 104.993 -29.998
t109.493 31.998t64.4961 91.9941l77.9951 -23.998q-26.998 -84.9951 -91.9941 -130.492t-158.99 -45.4971q-49.9971 0 -91.4941 12.999q-41.498 12.999 -71.4961 36.998q-29.998 23.998 -46.4971 57.9961t-16.499 74.9951q0 53.9971 27.998 96.9941
q27.999 42.998 81.9951 75.9951q26.999 16 44.9971 31.998q17.999 16 29.499 32.998q11.499 16.999 15.999 37.498q4.49902 20.499 4.49902 46.4971v34.998h77.9951v-38.998z" />
    <glyph glyph-name="exclamdown" unicode="&#xa1;" horiz-adv-x="246" 
d="M62 443.004q0 -25.999 17.5 -43.498t43.5 -17.499t43.5 17.499t17.5 43.498q0 25.998 -17.5 43.4971t-43.5 17.499t-43.5 -17.499t-17.5 -43.4971zM81 -199.957h82l-3 523.968h-76z" />
    <glyph glyph-name="yen" unicode="&#xa5;" 
d="M253 0h74v299l227 401h-90l-182 -339h16l-182 339h-90l227 -401v-299zM72 121h436v66h-436v-66zM72 279h436v66h-436v-66z" />
    <glyph glyph-name="uni00B5" unicode="&#xb5;" horiz-adv-x="627" 
d="M129 91q19 -52 59 -78.5t95 -26.5q60 0 101.5 29t64.5 83l-9 1q16 -57 53 -81t96 -24h16v76h-10q-47 0 -70 27.5t-23 84.5v318h-80v-281q0 -35 -10.5 -64t-29 -50t-45 -32.5t-58.5 -11.5q-60 0 -91.5 40.5t-31.5 116.5zM76 -200h80v700h-80v-700z" />
    <glyph glyph-name="eth" unicode="&#xf0;" horiz-adv-x="594" 
d="M293 -14q58 0 104.5 21t79 61.5t50 99t17.5 133.5q0 96 -28.5 170t-83 127t-133.5 86t-179 46l-10 -69q179 -25 266.5 -103.5t94.5 -212.5h19q-33 66 -84.5 100t-122.5 34q-52 0 -96 -18.5t-75 -51t-48.5 -77.5t-17.5 -98q0 -54 18 -99.5t50.5 -78.5t78 -51.5
t100.5 -18.5zM292 60q-36 0 -66.5 13t-53 36t-35.5 55t-13 70t13 69.5t35.5 54.5t53 36t66.5 13t66.5 -13t53 -36t35 -54.5t12.5 -69.5t-12.5 -70t-35 -55t-53 -36t-66.5 -13zM163 538l41 -44l242 226l-41 44z" />
    <glyph glyph-name="ellipsis" unicode="&#x2026;" horiz-adv-x="564" 
d="M66 57q0 26 17.5 43.5t43.5 17.5t43.5 -17.5t17.5 -43.5t-17.5 -43.5t-43.5 -17.5t-43.5 17.5t-17.5 43.5zM228 57q0 26 17.5 43.5t43.5 17.5t43.5 -17.5t17.5 -43.5t-17.5 -43.5t-43.5 -17.5t-43.5 17.5t-17.5 43.5zM390 57q0 26 17.5 43.5t43.5 17.5t43.5 -17.5
t17.5 -43.5t-17.5 -43.5t-43.5 -17.5t-43.5 17.5t-17.5 43.5z" />
    <glyph glyph-name="oslash" unicode="&#xf8;" horiz-adv-x="608" 
d="M304 -14q-57 0 -104 20t-81.5 55.5t-53.5 84t-19 104.5t19 104.5t53.5 84t81.5 55.5t104 20t104 -20t81.5 -55.5t53.5 -84t19 -104.5t-19 -104.5t-53.5 -84t-81.5 -55.5t-104 -20zM304 62q39 0 71.5 14t55.5 39.5t36 60t13 74.5q0 41 -13 75t-36 59.5t-55.5 39.5
t-71.5 14t-71.5 -14t-55.5 -39.5t-36 -59.5t-13 -75q0 -40 13 -74.5t36 -60t55.5 -39.5t71.5 -14zM20 17l101 101l16 10l297 297l14 16l91 91l49 -49l-94 -94l-11 -6l-296 -296l-19 -20l-99 -99z" />
    <glyph glyph-name="plusminus" unicode="&#xb1;" horiz-adv-x="586" 
d="M58 395h196v-206h78v206h196v76h-196v206h-78v-206h-196v-76zM58 33h470v74h-470v-74z" />
    <glyph glyph-name="onesuperior" unicode="&#xb9;" horiz-adv-x="218" 
d="M113 408h67v392h-68l-107 -72l33 -55l87 59l-12 2v-326z" />
    <glyph glyph-name="copyright" unicode="&#xa9;" horiz-adv-x="932" 
d="M466 -28q-68 0 -124 24t-95.5 66t-61 98.5t-21.5 121.5t21.5 121.5t61 98.5t95.5 66t124 24t124 -24t96 -66t62 -98.5t22 -121.5t-22 -121.5t-62 -98.5t-96 -66t-124 -24zM466 -94q83 0 151 29t116.5 80t75.5 119.5t27 147.5t-27 147.5t-75.5 118.5t-116.5 79t-151 29
q-82 0 -150 -29t-117 -79t-76 -118.5t-27 -147.5t27 -147.5t76 -119.5t117 -80t150 -29zM469 85q57 0 99.5 25.5t67.5 75.5l-60 34q-17 -35 -42 -53t-65 -18q-29 0 -52 10.5t-39 28.5t-24.5 42.5t-8.5 51.5t8.5 51t24.5 42t39 28t52 10q34 0 63 -17t43 -48l60 34
q-22 48 -67.5 72.5t-97.5 24.5q-44 0 -80.5 -15t-62 -41.5t-39.5 -62.5t-14 -78t14 -78.5t39.5 -62.5t61.5 -41t80 -15z" />
    <glyph glyph-name="threesuperior" unicode="&#xb3;" horiz-adv-x="334" 
d="M175 399q34 0 61 8.5t46.5 24.5t30 38t10.5 49q0 38 -20.5 63.5t-56.5 34.5v-11q32 8 50.5 31.5t18.5 58.5q0 26 -10 46.5t-28 35.5t-43.5 23t-56.5 8q-51 0 -87.5 -22t-57.5 -66l58 -29q12 27 33.5 41t51.5 14q33 0 52.5 -15.5t19.5 -40.5q0 -24 -15.5 -37.5
t-41.5 -13.5h-73v-61h74q30 0 47 -15t17 -40q0 -29 -22 -46t-59 -17q-35 0 -57.5 16.5t-36.5 49.5l-59 -28q21 -50 59.5 -75t94.5 -25z" />
    <glyph glyph-name="twosuperior" unicode="&#xb2;" horiz-adv-x="315" 
d="M31 408h284v62h-218l3 -16l123 95q44 35 64.5 67.5t20.5 70.5q0 27 -10 49.5t-27.5 38.5t-43 25t-56.5 9q-55 0 -92 -27.5t-53 -79.5l63 -18q10 31 30.5 47t51.5 16q32 0 50.5 -17t18.5 -44q0 -23 -14 -45.5t-42 -44.5l-153 -123v-65z" />
    <glyph glyph-name="Euro" unicode="&#x20ac;" horiz-adv-x="676" 
d="M389 -16q85 0 151.5 44t101.5 137l-74 32q-23 -66 -68.5 -99t-111.5 -33q-51 0 -92 20t-70.5 57t-45 90t-15.5 118t15.5 117.5t44 89.5t69.5 57.5t91 20.5q62 0 108.5 -31.5t73.5 -93.5l74 32q-35 84 -102 129t-155 45q-67 0 -123 -27t-96 -75.5t-62.5 -115.5t-22.5 -148
t22.5 -148.5t63.5 -115.5t97.5 -75t125.5 -27zM28 396h437v71h-437v-71zM28 239h437v71h-437v-71z" />
    <glyph glyph-name="ordfeminine" unicode="&#xaa;" horiz-adv-x="312" 
d="M36 413q0 -39 26.5 -62.5t70.5 -23.5q38 0 65 18t41 54h-14v-64h62v175q0 52 -32.5 82.5t-89.5 30.5q-43 0 -74 -18t-47 -53l51 -25q10 21 27.5 31.5t40.5 10.5q29 0 45.5 -15.5t16.5 -42.5v-54q0 -34 -21.5 -55t-55.5 -21q-23 0 -36 9.5t-13 27.5q0 19 17 29t50 12l87 3
v47l-91 -3q-61 -3 -93.5 -27.5t-32.5 -65.5z" />
    <glyph glyph-name="J.1" horiz-adv-x="365" 
d="M199 237q0 -87 -32 -126t-101 -39h-30v-80h38q102 0 155.5 59.5t53.5 176.5v472h-84v-463z" />
    <glyph glyph-name="sterling" unicode="&#xa3;" horiz-adv-x="575" 
d="M141 59q36 20 59.5 64t23.5 104q0 39 -9.5 72t-20.5 64.5t-20.5 62.5t-9.5 66q0 68 40 108t114 40q59 0 97 -27.5t61 -84.5l72 30q-27 77 -85.5 117.5t-143.5 40.5q-54 0 -98 -16.5t-75 -46t-47.5 -70.5t-16.5 -91q0 -40 9.5 -71.5t21 -60.5t21 -61t9.5 -74
q0 -68 -28.5 -107t-79.5 -46zM546 0v74h-431l-80 -2v-72h511zM35 304h412v72h-412v-72z" />
    <glyph glyph-name="uni20BD" unicode="&#x20bd;" horiz-adv-x="628" 
d="M125 0h78v622h154q64 0 103.5 -34.5t39.5 -94.5t-39 -95t-104 -35h-325v-74h327q49 0 89.5 14.5t70 41.5t45.5 65t16 85t-16.5 84.5t-46 64.5t-70 41.5t-89.5 14.5h-233v-700zM32 120h411v72h-411v-72z" />
    <glyph glyph-name="uni20B4" unicode="&#x20b4;" horiz-adv-x="620" 
d="M578 392v70h-66q8 16 11 33t3 36q0 39 -15.5 73t-44 59t-69 39t-89.5 14q-75 0 -131.5 -32.5t-94.5 -91.5l59 -45q29 48 70.5 73t96.5 25q66 0 106 -34.5t40 -86.5q0 -17 -5 -33t-13 -29h-394v-70h536zM312 -16q87 0 148.5 35.5t98.5 105.5l-63 41q-26 -54 -73 -82
t-111 -28q-76 0 -121 37.5t-45 95.5q0 16 3.5 29.5t9.5 25.5h419v70h-536v-70h45q-7 -15 -10 -31.5t-3 -34.5q0 -43 17 -78.5t48 -61t75 -40t98 -14.5z" />
    <glyph glyph-name="uni0450" unicode="&#x450;" horiz-adv-x="586" 
d="M305 -14q-58 0 -105.5 19.5t-81.5 54.5t-53 83t-19 105q0 58 19 106.5t53.5 84t81.5 55.5t102 20q53 0 96.5 -17.5t74.5 -49.5t48.5 -76.5t17.5 -98.5q0 -11 -0.5 -22t-2.5 -22h-426v71h354l-8 -7q0 32 -11.5 59t-32.5 46.5t-49.5 30.5t-62.5 11q-39 0 -70.5 -14
t-54 -39.5t-35 -60t-12.5 -76.5t13 -76.5t36 -59t56 -38t73 -13.5q48 0 84.5 20t63.5 62l64 -48q-38 -54 -91 -82t-122 -28zM265 600h78l-84 146h-84z" />
    <glyph glyph-name="uni0400" unicode="&#x400;" 
d="M92 0h428v81h-341v243h309v81h-309v214h341v81h-428v-700zM296 800h78l-84 146h-84z" />
    <glyph glyph-name="uni0403" unicode="&#x403;" horiz-adv-x="540" 
d="M92 0h87v619h323v81h-410v-700zM251 789h88l111 141h-94z" />
    <glyph glyph-name="uni040C" unicode="&#x40c;" horiz-adv-x="641" 
d="M88 0h87v326h153v81h-153v293h-87v-700zM360 370l253 330h-104l-252 -332l253 -368h105zM291 789h88l111 141h-94z" />
    <glyph glyph-name="uni040E" unicode="&#x40e;" horiz-adv-x="601" 
d="M175 0h88l312 700h-94l-180 -419l-10 -20zM270 209l47 87l-196 404h-95zM304 785q79 0 127 38.5t58 107.5h-77q-5 -37 -34 -59t-74 -22t-75 22t-35 59h-77q10 -69 59 -107.5t128 -38.5z" />
    <glyph glyph-name="uni040D" unicode="&#x40d;" horiz-adv-x="740" 
d="M624 0v700h-91l-372 -575l11 -2v577h-88v-700h91l372 575l-11 2v-577h88zM420 789l-105 141h-94l111 -141h88z" />
    <glyph glyph-name="uni045D" unicode="&#x45d;" horiz-adv-x="602" 
d="M169 500v-382l263 382h82v-500h-81v382l-263 -382h-82v500h81zM279 600h78l-84 146h-84z" />
    <glyph glyph-name="aogonek" unicode="&#x105;" horiz-adv-x="545" 
d="M391 0h78v321q0 44 -15 79.5t-42.5 61t-65.5 39t-84 13.5q-72 0 -126 -32.5t-80 -91.5l66 -33q21 43 56.5 64t81.5 21q61 0 96 -34.5t35 -95.5v-312zM42 136q0 -34 12 -61.5t34.5 -47t54.5 -30.5t71 -11q47 0 84 15.5t62.5 43.5t40 66t17.5 83l-27 19q0 -32 -13 -60
t-36 -49t-53 -33.5t-65 -12.5q-48 0 -75 21.5t-27 59.5q0 43 38 66.5t114 27.5l131 6v66l-139 -6q-111 -5 -167.5 -47.5t-56.5 -115.5zM296 -113q0 -48 30.5 -77t84.5 -29q23 0 43.5 6t37.5 17l-19 57q-10 -9 -25 -13.5t-30 -4.5q-27 0 -43.5 14.5t-16.5 40.5q0 30 26 51.5
t83 50.5l-41 35q-69 -36 -99.5 -69.5t-30.5 -78.5z" />
    <glyph glyph-name="Aogonek" unicode="&#x104;" horiz-adv-x="662" 
d="M149 188h364v74h-364v-74zM379 700h-96l-257 -700h92l216 622h-8l216 -622h94zM455 -116q0 -50 32 -79.5t88 -29.5q24 0 45 6t39 17l-19 57q-11 -9 -26.5 -13.5t-31.5 -4.5q-29 0 -47 15.5t-18 42.5q0 31 27.5 53t89.5 52l-41 35q-73 -37 -105.5 -71t-32.5 -80z" />
    <glyph glyph-name="dcaron" unicode="&#x10f;" horiz-adv-x="804" 
d="M562.005 0h-80.9951v722h80.9951v-722zM295.021 -14q-52.9961 0 -97.4932 19.5q-44.498 19.5 -76.9961 55t-50.9961 84q-18.499 48.5 -18.499 105.5t18.499 105.5q18.498 48.5 50.9961 84t76.9961 55q44.4971 19.5 97.4932 19.5q50.9971 0 93.4951 -19
q42.4971 -19 72.9951 -53.5t46.9971 -83.5t16.499 -108t-16.499 -108t-46.9971 -83.5t-72.9951 -53.5q-42.498 -19 -93.4951 -19zM307.021 62q38.9971 0 70.9951 14t54.9971 39.5q22.998 25.5 35.498 60q12.499 34.5 12.499 74.5q0 41 -12.499 75q-12.5 34 -35.498 59.5
q-22.999 25.5 -54.9971 39.5t-70.9951 14q-38.998 0 -70.9961 -14t-54.9961 -39.5q-22.999 -25.5 -35.498 -59.5t-12.499 -75q0 -40 12.499 -74.5t35.498 -60q22.998 -25.5 54.9961 -39.5t70.9961 -14zM608 647q0 25 16.5 41t40.5 16q26 0 44 -19.5t18 -58.5
q0 -42 -21.5 -85t-58.5 -75l-35 34q29 26 43 49.5t20 49.5l8 -3q-3 -3 -8.5 -4.5t-12.5 -1.5q-23 0 -38.5 16.5t-15.5 40.5z" />
    <glyph glyph-name="Dcroat" unicode="&#x110;" horiz-adv-x="754" 
d="M129 0h220q78 0 142 26.5t109 73.5t69.5 111t24.5 139t-24.5 139t-69.5 111t-109 73.5t-142 26.5h-220v-700zM348 619q60 0 108 -20t81 -56t51 -85.5t18 -107.5t-18 -107.5t-51 -85.5t-81 -56t-108 -20h-132v538h132zM36 320h331v78h-331v-78z" />
    <glyph glyph-name="dcroat" unicode="&#x111;" horiz-adv-x="671" 
d="M561 0h-81v582h-90v74h90v66h81v-66h80v-74h-80v-582zM294 -14q-52 0 -97 19.5t-77.5 55t-51 84t-18.5 105.5t18.5 105.5t51 84t77.5 55t97 19.5q51 0 93.5 -19t73 -53.5t47 -83.5t16.5 -108t-16.5 -108t-47 -83.5t-73 -53.5t-93.5 -19zM306 62q39 0 71 14t55 39.5
t35.5 60t12.5 74.5q0 41 -12.5 75t-35.5 59.5t-55 39.5t-71 14t-71 -14t-55 -39.5t-35.5 -59.5t-12.5 -75q0 -40 12.5 -74.5t35.5 -60t55 -39.5t71 -14z" />
    <glyph glyph-name="eogonek" unicode="&#x119;" horiz-adv-x="584" 
d="M305 -14q-58 0 -105.5 19.5t-81.5 54.5t-53 83t-19 105q0 58 19 106.5t53.5 84t81.5 55.5t102 20q53 0 96.5 -17.5t74.5 -49.5t48.5 -76.5t17.5 -98.5q0 -11 -0.5 -22t-2.5 -22h-426v71h354l-8 -7q0 32 -11.5 59t-32.5 46.5t-49.5 30.5t-62.5 11q-39 0 -70.5 -14
t-54 -39.5t-35 -60t-12.5 -76.5t13 -76.5t36 -59t56 -38t73 -13.5q48 0 84.5 20t63.5 62l64 -48q-38 -54 -91 -82t-122 -28zM273 -106q0 23 8 44.5t24 42t40 39.5t57 38l28 -43q-23 -12 -40.5 -24.5t-29.5 -26t-18.5 -28.5t-6.5 -31q0 -28 17.5 -45t46.5 -17q14 0 30 4.5
t27 13.5l19 -57q-20 -11 -42 -17t-44 -6q-51 0 -83.5 31t-32.5 82z" />
    <glyph glyph-name="Eogonek" unicode="&#x118;" 
d="M92 0h428v81h-341v243h309v81h-309v214h341v81h-428v-700zM315 -116q0 -50 32 -79.5t88 -29.5q24 0 45 6t39 17l-19 57q-11 -9 -26.5 -13.5t-31.5 -4.5q-29 0 -47 14.5t-18 41.5q0 31 27.5 58.5t89.5 52.5l-41 31q-74 -32 -106 -68.5t-32 -82.5z" />
    <glyph glyph-name="grave.case" horiz-adv-x="259" 
d="M229 789l-105 141h-94l111 -141h88z" />
    <glyph glyph-name="dieresis.case" horiz-adv-x="385" 
d="M95 784q25 0 42 17t17 42t-17 42t-42 17t-42 -17t-17 -42t17 -42t42 -17zM290 784q25 0 42 17t17 42t-17 42t-42 17t-42 -17t-17 -42t17 -42t42 -17z" />
    <glyph glyph-name="macron.case" horiz-adv-x="367" 
d="M30 807h307v62h-307v-62z" />
    <glyph glyph-name="acute.case" horiz-adv-x="259" 
d="M30 789h88l111 141h-94z" />
    <glyph glyph-name="circumflex.case" horiz-adv-x="454" 
d="M30 789h94l103 82l103 -82h94l-160 141h-74z" />
    <glyph glyph-name="caron.case" horiz-adv-x="454" 
d="M30 931l160 -142h74l160 142h-94l-103 -83l-103 83h-94z" />
    <glyph glyph-name="breve.case" horiz-adv-x="432" 
d="M217 785q79 0 127 38.5t58 107.5h-77q-5 -37 -34 -59t-74 -22t-75 22t-35 59h-77q10 -69 59 -107.5t128 -38.5z" />
    <glyph glyph-name="dotaccent.case" horiz-adv-x="174" 
d="M87 784q25 0 42 17t17 42t-17 42t-42 17t-42 -17t-17 -42t17 -42t42 -17z" />
    <glyph glyph-name="ring.case" horiz-adv-x="290" 
d="M145 786q-49 0 -81.5 31.5t-32.5 80.5t32.5 80.5t81.5 31.5t81.5 -31.5t32.5 -80.5t-32.5 -80.5t-81.5 -31.5zM145 842q23 0 38.5 16t15.5 40t-15.5 40t-38.5 16t-38.5 -16t-15.5 -40t15.5 -40t38.5 -16z" />
    <glyph glyph-name="tilde.case" horiz-adv-x="424" 
d="M31 801q0 31 7 54.5t21 40t34.5 25t46.5 8.5q32 0 51 -11t33 -24t26 -24t31 -11q23 0 34.5 18t11.5 51h66q0 -31 -7 -55t-21 -40.5t-33.5 -25t-45.5 -8.5q-31 0 -50.5 11t-34 24t-27.5 24t-31 11q-22 0 -34 -18t-12 -50h-66z" />
    <glyph glyph-name="macron" unicode="&#xaf;" horiz-adv-x="332" 
d="M30 611h272v66h-272v-66z" />
    <glyph glyph-name="uni000A" unicode="&#xa;" horiz-adv-x="0" 
 />
    <glyph glyph-name="Agrave" unicode="&#xc0;" horiz-adv-x="662" 
d="M149 186h364v76h-364v-76zM379 700h-96l-257 -700h90l229 650h-29l229 -650h91zM374 789l-105 141h-94l111 -141h88z" />
    <glyph glyph-name="Aacute" unicode="&#xc1;" horiz-adv-x="662" 
d="M149 186h364v76h-364v-76zM379 700h-96l-257 -700h90l229 650h-29l229 -650h91zM295 789h88l111 141h-94z" />
    <glyph glyph-name="Acircumflex" unicode="&#xc2;" horiz-adv-x="662" 
d="M149 186h364v76h-364v-76zM379 700h-96l-257 -700h90l229 650h-29l229 -650h91zM134 789h94l103 82l103 -82h94l-160 141h-74z" />
    <glyph glyph-name="Atilde" unicode="&#xc3;" horiz-adv-x="662" 
d="M149 186h364v76h-364v-76zM379 700h-96l-257 -700h90l229 650h-29l229 -650h91zM150 801q0 31 7 54.5t21 40t34.5 25t46.5 8.5q32 0 51 -11t33 -24t26 -24t31 -11q23 0 34.5 18t11.5 51h66q0 -31 -7 -55t-21 -40.5t-33.5 -25t-45.5 -8.5q-31 0 -50.5 11t-34 24t-27.5 24
t-31 11q-22 0 -34 -18t-12 -50h-66z" />
    <glyph glyph-name="Adieresis" unicode="&#xc4;" horiz-adv-x="662" 
d="M149 186h364v76h-364v-76zM379 700h-96l-257 -700h90l229 650h-29l229 -650h91zM233 784q25 0 42 17t17 42t-17 42t-42 17t-42 -17t-17 -42t17 -42t42 -17zM428 784q25 0 42 17t17 42t-17 42t-42 17t-42 -17t-17 -42t17 -42t42 -17z" />
    <glyph glyph-name="Aring" unicode="&#xc5;" horiz-adv-x="662" 
d="M149 186h364v76h-364v-76zM379 700h-96l-257 -700h90l229 650h-29l229 -650h91zM331 786q-49 0 -81.5 31.5t-32.5 80.5t32.5 80.5t81.5 31.5t81.5 -31.5t32.5 -80.5t-32.5 -80.5t-81.5 -31.5zM331 842q23 0 38.5 16t15.5 40t-15.5 40t-38.5 16t-38.5 -16t-15.5 -40
t15.5 -40t38.5 -16z" />
    <glyph glyph-name="Egrave" unicode="&#xc8;" 
d="M92 0h428v81h-341v243h309v81h-309v214h341v81h-428v-700zM373 789l-105 141h-94l111 -141h88z" />
    <glyph glyph-name="Eacute" unicode="&#xc9;" 
d="M92 0h428v81h-341v243h309v81h-309v214h341v81h-428v-700zM264 789h88l111 141h-94z" />
    <glyph glyph-name="Ecircumflex" unicode="&#xca;" 
d="M92 0h428v81h-341v243h309v81h-309v214h341v81h-428v-700zM115 789h94l103 82l103 -82h94l-160 141h-74z" />
    <glyph glyph-name="Edieresis" unicode="&#xcb;" 
d="M92 0h428v81h-341v243h309v81h-309v214h341v81h-428v-700zM218 784q25 0 42 17t17 42t-17 42t-42 17t-42 -17t-17 -42t17 -42t42 -17zM413 784q25 0 42 17t17 42t-17 42t-42 17t-42 -17t-17 -42t17 -42t42 -17z" />
    <glyph glyph-name="Igrave" unicode="&#xcc;" horiz-adv-x="270" 
d="M91 0h87v700h-87v-700zM177 789l-105 141h-94l111 -141h88z" />
    <glyph glyph-name="Iacute" unicode="&#xcd;" horiz-adv-x="270" 
d="M91 0h87v700h-87v-700zM98 789h88l111 141h-94z" />
    <glyph glyph-name="Icircumflex" unicode="&#xce;" horiz-adv-x="270" 
d="M91 0h87v700h-87v-700zM-63 789h94l103 82l103 -82h94l-160 141h-74z" />
    <glyph glyph-name="Idieresis" unicode="&#xcf;" horiz-adv-x="270" 
d="M91 0h87v700h-87v-700zM36 784q25 0 42 17t17 42t-17 42t-42 17t-42 -17t-17 -42t17 -42t42 -17zM231 784q25 0 42 17t17 42t-17 42t-42 17t-42 -17t-17 -42t17 -42t42 -17z" />
    <glyph glyph-name="Ntilde" unicode="&#xd1;" horiz-adv-x="740" 
d="M92 0h82v574l-7 -2l375 -572h90v700h-82v-574l7 2l-375 572h-90v-700zM189 801q0 31 7 54.5t21 40t34.5 25t46.5 8.5q32 0 51 -11t33 -24t26 -24t31 -11q23 0 34.5 18t11.5 51h66q0 -31 -7 -55t-21 -40.5t-33.5 -25t-45.5 -8.5q-31 0 -50.5 11t-34 24t-27.5 24t-31 11
q-22 0 -34 -18t-12 -50h-66z" />
    <glyph glyph-name="Ograve" unicode="&#xd2;" horiz-adv-x="829" 
d="M415 -16q77 0 141.5 27.5t112 76t74 116t26.5 146.5q0 80 -26.5 147t-74 115.5t-112 76t-141.5 27.5q-76 0 -141.5 -27.5t-112.5 -76t-74 -115.5t-27 -147q0 -79 27 -146.5t74 -116t112.5 -76t141.5 -27.5zM415 66q-59 0 -108 21t-84.5 58.5t-55 89.5t-19.5 115
t19.5 115.5t55 90t84.5 58t108 20.5t108 -20.5t84 -58t54.5 -90t19.5 -115.5t-19.5 -115t-54.5 -89.5t-84 -58.5t-108 -21zM467 789l-105 141h-94l111 -141h88z" />
    <glyph glyph-name="Oacute" unicode="&#xd3;" horiz-adv-x="829" 
d="M415 -16q77 0 141.5 27.5t112 76t74 116t26.5 146.5q0 80 -26.5 147t-74 115.5t-112 76t-141.5 27.5q-76 0 -141.5 -27.5t-112.5 -76t-74 -115.5t-27 -147q0 -79 27 -146.5t74 -116t112.5 -76t141.5 -27.5zM415 66q-59 0 -108 21t-84.5 58.5t-55 89.5t-19.5 115
t19.5 115.5t55 90t84.5 58t108 20.5t108 -20.5t84 -58t54.5 -90t19.5 -115.5t-19.5 -115t-54.5 -89.5t-84 -58.5t-108 -21zM368 789h88l111 141h-94z" />
    <glyph glyph-name="Ocircumflex" unicode="&#xd4;" horiz-adv-x="829" 
d="M415 -16q77 0 141.5 27.5t112 76t74 116t26.5 146.5q0 80 -26.5 147t-74 115.5t-112 76t-141.5 27.5q-76 0 -141.5 -27.5t-112.5 -76t-74 -115.5t-27 -147q0 -79 27 -146.5t74 -116t112.5 -76t141.5 -27.5zM415 66q-59 0 -108 21t-84.5 58.5t-55 89.5t-19.5 115
t19.5 115.5t55 90t84.5 58t108 20.5t108 -20.5t84 -58t54.5 -90t19.5 -115.5t-19.5 -115t-54.5 -89.5t-84 -58.5t-108 -21zM218 789h94l103 82l103 -82h94l-160 141h-74z" />
    <glyph glyph-name="Otilde" unicode="&#xd5;" horiz-adv-x="829" 
d="M415 -16q77 0 141.5 27.5t112 76t74 116t26.5 146.5q0 80 -26.5 147t-74 115.5t-112 76t-141.5 27.5q-76 0 -141.5 -27.5t-112.5 -76t-74 -115.5t-27 -147q0 -79 27 -146.5t74 -116t112.5 -76t141.5 -27.5zM415 66q-59 0 -108 21t-84.5 58.5t-55 89.5t-19.5 115
t19.5 115.5t55 90t84.5 58t108 20.5t108 -20.5t84 -58t54.5 -90t19.5 -115.5t-19.5 -115t-54.5 -89.5t-84 -58.5t-108 -21zM234 801q0 31 7 54.5t21 40t34.5 25t46.5 8.5q32 0 51 -11t33 -24t26 -24t31 -11q23 0 34.5 18t11.5 51h66q0 -31 -7 -55t-21 -40.5t-33.5 -25
t-45.5 -8.5q-31 0 -50.5 11t-34 24t-27.5 24t-31 11q-22 0 -34 -18t-12 -50h-66z" />
    <glyph glyph-name="Odieresis" unicode="&#xd6;" horiz-adv-x="829" 
d="M415 -16q77 0 141.5 27.5t112 76t74 116t26.5 146.5q0 80 -26.5 147t-74 115.5t-112 76t-141.5 27.5q-76 0 -141.5 -27.5t-112.5 -76t-74 -115.5t-27 -147q0 -79 27 -146.5t74 -116t112.5 -76t141.5 -27.5zM415 66q-59 0 -108 21t-84.5 58.5t-55 89.5t-19.5 115
t19.5 115.5t55 90t84.5 58t108 20.5t108 -20.5t84 -58t54.5 -90t19.5 -115.5t-19.5 -115t-54.5 -89.5t-84 -58.5t-108 -21zM317 784q25 0 42 17t17 42t-17 42t-42 17t-42 -17t-17 -42t17 -42t42 -17zM512 784q25 0 42 17t17 42t-17 42t-42 17t-42 -17t-17 -42t17 -42t42 -17
z" />
    <glyph glyph-name="Ugrave" unicode="&#xd9;" horiz-adv-x="698" 
d="M350 -16q58 0 106.5 19t83.5 54.5t54.5 86.5t19.5 116v440h-87v-427q0 -99 -48 -151.5t-129 -52.5t-129 52.5t-48 151.5v427h-87v-440q0 -65 19.5 -116t54.5 -86.5t83.5 -54.5t106.5 -19zM414 789l-105 141h-94l111 -141h88z" />
    <glyph glyph-name="Uacute" unicode="&#xda;" horiz-adv-x="698" 
d="M350 -16q58 0 106.5 19t83.5 54.5t54.5 86.5t19.5 116v440h-87v-427q0 -99 -48 -151.5t-129 -52.5t-129 52.5t-48 151.5v427h-87v-440q0 -65 19.5 -116t54.5 -86.5t83.5 -54.5t106.5 -19zM290 789h88l111 141h-94z" />
    <glyph glyph-name="Ucircumflex" unicode="&#xdb;" horiz-adv-x="698" 
d="M350 -16q58 0 106.5 19t83.5 54.5t54.5 86.5t19.5 116v440h-87v-427q0 -99 -48 -151.5t-129 -52.5t-129 52.5t-48 151.5v427h-87v-440q0 -65 19.5 -116t54.5 -86.5t83.5 -54.5t106.5 -19zM152 789h94l103 82l103 -82h94l-160 141h-74z" />
    <glyph glyph-name="Udieresis" unicode="&#xdc;" horiz-adv-x="698" 
d="M350 -16q58 0 106.5 19t83.5 54.5t54.5 86.5t19.5 116v440h-87v-427q0 -99 -48 -151.5t-129 -52.5t-129 52.5t-48 151.5v427h-87v-440q0 -65 19.5 -116t54.5 -86.5t83.5 -54.5t106.5 -19zM251 784q25 0 42 17t17 42t-17 42t-42 17t-42 -17t-17 -42t17 -42t42 -17z
M446 784q25 0 42 17t17 42t-17 42t-42 17t-42 -17t-17 -42t17 -42t42 -17z" />
    <glyph glyph-name="Yacute" unicode="&#xdd;" horiz-adv-x="612" 
d="M263 0h86v288l237 412h-98l-188 -342h12l-188 342h-98l237 -412v-288zM260 789h88l111 141h-94z" />
    <glyph glyph-name="Abreve" unicode="&#x102;" horiz-adv-x="662" 
d="M149 186h364v76h-364v-76zM379 700h-96l-257 -700h90l229 650h-29l229 -650h91zM332 785q79 0 127 38.5t58 107.5h-77q-5 -37 -34 -59t-74 -22t-75 22t-35 59h-77q10 -69 59 -107.5t128 -38.5z" />
    <glyph glyph-name="abreve" unicode="&#x103;" horiz-adv-x="545" 
d="M42 135q0 -68 47.5 -108.5t125.5 -40.5q70 0 119.5 34t73.5 98h-18v-118h80v321q0 44 -15 79.5t-42 60.5t-65.5 39t-85.5 14q-72 0 -126 -32t-80 -91l68 -34q20 42 54.5 63t81.5 21q61 0 95.5 -34t34.5 -95v-99q0 -32 -12.5 -60t-34 -49t-51 -33t-64.5 -12
q-47 0 -75.5 21.5t-28.5 59.5q0 42 37 64.5t110 26.5l146 7v68l-152 -7q-110 -5 -166.5 -48.5t-56.5 -115.5zM273 607q70 0 113.5 37t51.5 102h-75q-5 -35 -29 -55t-61 -20t-61 20t-29 55h-75q8 -65 51.5 -102t113.5 -37z" />
    <glyph glyph-name="Cacute" unicode="&#x106;" horiz-adv-x="760" 
d="M417 -16q103 0 182.5 47t122.5 134l-74 42q-35 -69 -92.5 -105t-136.5 -36q-60 0 -110 20.5t-86 58t-55.5 90t-19.5 115.5t19.5 115.5t55.5 90t86 58t111 20.5q78 0 134.5 -35t91.5 -101l75 42q-45 85 -124 130.5t-180 45.5q-77 0 -142.5 -27t-113 -75.5t-74.5 -115.5
t-27 -148t27 -148t74.5 -115.5t113 -75.5t142.5 -27zM368 789h88l111 141h-94z" />
    <glyph glyph-name="cacute" unicode="&#x107;" horiz-adv-x="560" 
d="M46 250q0 -57 18.5 -105.5t52.5 -83.5t81.5 -55t105.5 -20q75 0 131 34t88 100l-70 38q-22 -48 -59.5 -72t-88.5 -24q-40 0 -72.5 14t-55.5 39.5t-36 60t-13 74.5q0 41 13 75t36 59.5t56 39.5t73 14q50 0 86.5 -23t59.5 -68l69 39q-32 63 -87.5 95.5t-129.5 32.5
q-58 0 -105.5 -20t-81.5 -55t-52.5 -83.5t-18.5 -105.5zM262 598h78l90 146h-84z" />
    <glyph glyph-name="Ccircumflex" unicode="&#x108;" horiz-adv-x="760" 
d="M417 -16q103 0 182.5 47t122.5 134l-74 42q-35 -69 -92.5 -105t-136.5 -36q-60 0 -110 20.5t-86 58t-55.5 90t-19.5 115.5t19.5 115.5t55.5 90t86 58t111 20.5q78 0 134.5 -35t91.5 -101l75 42q-45 85 -124 130.5t-180 45.5q-77 0 -142.5 -27t-113 -75.5t-74.5 -115.5
t-27 -148t27 -148t74.5 -115.5t113 -75.5t142.5 -27zM218 789h94l103 82l103 -82h94l-160 141h-74z" />
    <glyph glyph-name="ccircumflex" unicode="&#x109;" horiz-adv-x="560" 
d="M46 250q0 -57 18.5 -105.5t52.5 -83.5t81.5 -55t105.5 -20q75 0 131 34t88 100l-70 38q-22 -48 -59.5 -72t-88.5 -24q-40 0 -72.5 14t-55.5 39.5t-36 60t-13 74.5q0 41 13 75t36 59.5t56 39.5t73 14q50 0 86.5 -23t59.5 -68l69 39q-32 63 -87.5 95.5t-129.5 32.5
q-58 0 -105.5 -20t-81.5 -55t-52.5 -83.5t-18.5 -105.5zM129 596h81l89 92l89 -92h81l-137 146h-66z" />
    <glyph glyph-name="Cdotaccent" unicode="&#x10a;" horiz-adv-x="760" 
d="M417 -16q103 0 182.5 47t122.5 134l-74 42q-35 -69 -92.5 -105t-136.5 -36q-60 0 -110 20.5t-86 58t-55.5 90t-19.5 115.5t19.5 115.5t55.5 90t86 58t111 20.5q78 0 134.5 -35t91.5 -101l75 42q-45 85 -124 130.5t-180 45.5q-77 0 -142.5 -27t-113 -75.5t-74.5 -115.5
t-27 -148t27 -148t74.5 -115.5t113 -75.5t142.5 -27zM416 784q25 0 42 17t17 42t-17 42t-42 17t-42 -17t-17 -42t17 -42t42 -17z" />
    <glyph glyph-name="cdotaccent" unicode="&#x10b;" horiz-adv-x="560" 
d="M46 250q0 -57 18.5 -105.5t52.5 -83.5t81.5 -55t105.5 -20q75 0 131 34t88 100l-70 38q-22 -48 -59.5 -72t-88.5 -24q-40 0 -72.5 14t-55.5 39.5t-36 60t-13 74.5q0 41 13 75t36 59.5t56 39.5t73 14q50 0 86.5 -23t59.5 -68l69 39q-32 63 -87.5 95.5t-129.5 32.5
q-58 0 -105.5 -20t-81.5 -55t-52.5 -83.5t-18.5 -105.5zM326 607q24 0 40.5 16.5t16.5 40.5t-16.5 40.5t-40.5 16.5h-1q-24 0 -40.5 -16.5t-16.5 -40.5t16.5 -40.5t40.5 -16.5h1z" />
    <glyph glyph-name="Ccaron" unicode="&#x10c;" horiz-adv-x="760" 
d="M417 -16q103 0 182.5 47t122.5 134l-74 42q-35 -69 -92.5 -105t-136.5 -36q-60 0 -110 20.5t-86 58t-55.5 90t-19.5 115.5t19.5 115.5t55.5 90t86 58t111 20.5q78 0 134.5 -35t91.5 -101l75 42q-45 85 -124 130.5t-180 45.5q-77 0 -142.5 -27t-113 -75.5t-74.5 -115.5
t-27 -148t27 -148t74.5 -115.5t113 -75.5t142.5 -27zM223 931l160 -142h74l160 142h-94l-103 -83l-103 83h-94z" />
    <glyph glyph-name="ccaron" unicode="&#x10d;" horiz-adv-x="560" 
d="M46 250q0 -57 18.5 -105.5t52.5 -83.5t81.5 -55t105.5 -20q75 0 131 34t88 100l-70 38q-22 -48 -59.5 -72t-88.5 -24q-40 0 -72.5 14t-55.5 39.5t-36 60t-13 74.5q0 41 13 75t36 59.5t56 39.5t73 14q50 0 86.5 -23t59.5 -68l69 39q-32 63 -87.5 95.5t-129.5 32.5
q-58 0 -105.5 -20t-81.5 -55t-52.5 -83.5t-18.5 -105.5zM270 596h66l137 146h-81l-89 -92l-89 92h-81z" />
    <glyph glyph-name="Dcaron" unicode="&#x10e;" horiz-adv-x="717" 
d="M92 0h220q78 0 142 26.5t109 73.5t69.5 111t24.5 139t-24.5 139t-69.5 111t-109 73.5t-142 26.5h-220v-700zM311 619q60 0 108 -20t81 -56t51 -85.5t18 -107.5t-18 -107.5t-51 -85.5t-81 -56t-108 -20h-132v538h132zM132 931l160 -142h74l160 142h-94l-103 -83l-103 83
h-94z" />
    <glyph glyph-name="Ebreve" unicode="&#x114;" 
d="M92 0h428v81h-341v243h309v81h-309v214h341v81h-428v-700zM311 785q79 0 127 38.5t58 107.5h-77q-5 -37 -34 -59t-74 -22t-75 22t-35 59h-77q10 -69 59 -107.5t128 -38.5z" />
    <glyph glyph-name="ebreve" unicode="&#x115;" horiz-adv-x="584" 
d="M305 -14q-58 0 -105.5 19.5t-81.5 54.5t-53 83t-19 105q0 58 19 106.5t53.5 84t81.5 55.5t102 20q53 0 96.5 -17.5t74.5 -49.5t48.5 -76.5t17.5 -98.5q0 -11 -0.5 -22t-2.5 -22h-426v71h354l-8 -7q0 32 -11.5 59t-32.5 46.5t-49.5 30.5t-62.5 11q-39 0 -70.5 -14
t-54 -39.5t-35 -60t-12.5 -76.5t13 -76.5t36 -59t56 -38t73 -13.5q48 0 84.5 20t63.5 62l64 -48q-38 -54 -91 -82t-122 -28zM301 607q70 0 113.5 37t51.5 102h-75q-5 -35 -29 -55t-61 -20t-61 20t-29 55h-75q8 -65 51.5 -102t113.5 -37z" />
    <glyph glyph-name="Edotaccent" unicode="&#x116;" 
d="M92 0h428v81h-341v243h309v81h-309v214h341v81h-428v-700zM317 784q25 0 42 17t17 42t-17 42t-42 17t-42 -17t-17 -42t17 -42t42 -17z" />
    <glyph glyph-name="edotaccent" unicode="&#x117;" horiz-adv-x="584" 
d="M305 -14q-58 0 -105.5 19.5t-81.5 54.5t-53 83t-19 105q0 58 19 106.5t53.5 84t81.5 55.5t102 20q53 0 96.5 -17.5t74.5 -49.5t48.5 -76.5t17.5 -98.5q0 -11 -0.5 -22t-2.5 -22h-426v71h354l-8 -7q0 32 -11.5 59t-32.5 46.5t-49.5 30.5t-62.5 11q-39 0 -70.5 -14
t-54 -39.5t-35 -60t-12.5 -76.5t13 -76.5t36 -59t56 -38t73 -13.5q48 0 84.5 20t63.5 62l64 -48q-38 -54 -91 -82t-122 -28zM301 607q24 0 40.5 16.5t16.5 40.5t-16.5 40.5t-40.5 16.5h-1q-24 0 -40.5 -16.5t-16.5 -40.5t16.5 -40.5t40.5 -16.5h1z" />
    <glyph glyph-name="Ecaron" unicode="&#x11a;" 
d="M92 0h428v81h-341v243h309v81h-309v214h341v81h-428v-700zM115 931l160 -142h74l160 142h-94l-103 -83l-103 83h-94z" />
    <glyph glyph-name="ecaron" unicode="&#x11b;" horiz-adv-x="584" 
d="M305 -14q-58 0 -105.5 19.5t-81.5 54.5t-53 83t-19 105q0 58 19 106.5t53.5 84t81.5 55.5t102 20q53 0 96.5 -17.5t74.5 -49.5t48.5 -76.5t17.5 -98.5q0 -11 -0.5 -22t-2.5 -22h-426v71h354l-8 -7q0 32 -11.5 59t-32.5 46.5t-49.5 30.5t-62.5 11q-39 0 -70.5 -14
t-54 -39.5t-35 -60t-12.5 -76.5t13 -76.5t36 -59t56 -38t73 -13.5q48 0 84.5 20t63.5 62l64 -48q-38 -54 -91 -82t-122 -28zM260 596h66l137 146h-81l-89 -92l-89 92h-81z" />
    <glyph glyph-name="Gcircumflex" unicode="&#x11c;" horiz-adv-x="787" 
d="M742 316q0 13 -0.5 25t-1.5 25h-389v-78h312l-6 1q-3 -51 -21 -92.5t-49.5 -71t-74.5 -45.5t-96 -16q-60 0 -110 21t-85.5 59t-55 90.5t-19.5 116.5t19.5 116.5t55.5 90t86 58t111 20.5q78 0 137 -34t91 -97l69 46q-44 78 -122 121.5t-177 43.5q-78 0 -143 -27
t-112.5 -75.5t-74 -115.5t-26.5 -147q0 -78 25.5 -145t72.5 -116.5t112.5 -77.5t146.5 -28q74 0 134 24t102.5 67.5t65.5 105t23 135.5zM216 789h94l103 82l103 -82h94l-160 141h-74z" />
    <glyph glyph-name="gcircumflex" unicode="&#x11d;" horiz-adv-x="513" 
d="M126 230q-30 -17 -46 -41.5t-16 -53.5q0 -33 20.5 -58t56.5 -36v14q-58 -14 -91 -48.5t-33 -82.5q0 -65 60 -101.5t169 -36.5q117 0 185 42.5t68 116.5q0 66 -57.5 100.5t-173.5 36.5q-71 1 -102.5 15.5t-31.5 46.5q0 20 11 33t34 21zM48 345q0 -37 14.5 -68t41 -53.5
t64 -35t83.5 -12.5t83.5 12.5t64 35t41 53.5t14.5 68t-14.5 68t-41 53.5t-64 35t-83.5 12.5t-84 -12.5t-64 -35t-40.5 -53.5t-14.5 -68zM123 345q0 46 34 72.5t94 26.5q59 0 93.5 -26.5t34.5 -72.5t-34.5 -72.5t-93.5 -26.5q-60 0 -94 26.5t-34 72.5zM94 -68q0 38 43 59
t124 21q76 0 117 -19t41 -53q0 -37 -46.5 -59.5t-127.5 -22.5q-73 0 -112 19.5t-39 54.5zM405 429l83 82l-47 47l-85 -87zM91 596h81l89 92l89 -92h81l-137 146h-66z" />
    <glyph glyph-name="Gbreve" unicode="&#x11e;" horiz-adv-x="787" 
d="M742 316q0 13 -0.5 25t-1.5 25h-389v-78h312l-6 1q-3 -51 -21 -92.5t-49.5 -71t-74.5 -45.5t-96 -16q-60 0 -110 21t-85.5 59t-55 90.5t-19.5 116.5t19.5 116.5t55.5 90t86 58t111 20.5q78 0 137 -34t91 -97l69 46q-44 78 -122 121.5t-177 43.5q-78 0 -143 -27
t-112.5 -75.5t-74 -115.5t-26.5 -147q0 -78 25.5 -145t72.5 -116.5t112.5 -77.5t146.5 -28q74 0 134 24t102.5 67.5t65.5 105t23 135.5zM405 785q79 0 127 38.5t58 107.5h-77q-5 -37 -34 -59t-74 -22t-75 22t-35 59h-77q10 -69 59 -107.5t128 -38.5z" />
    <glyph glyph-name="gbreve" unicode="&#x11f;" horiz-adv-x="513" 
d="M126 230q-30 -17 -46 -41.5t-16 -53.5q0 -33 20.5 -58t56.5 -36v14q-58 -14 -91 -48.5t-33 -82.5q0 -65 60 -101.5t169 -36.5q117 0 185 42.5t68 116.5q0 66 -57.5 100.5t-173.5 36.5q-71 1 -102.5 15.5t-31.5 46.5q0 20 11 33t34 21zM48 345q0 -37 14.5 -68t41 -53.5
t64 -35t83.5 -12.5t83.5 12.5t64 35t41 53.5t14.5 68t-14.5 68t-41 53.5t-64 35t-83.5 12.5t-84 -12.5t-64 -35t-40.5 -53.5t-14.5 -68zM123 345q0 46 34 72.5t94 26.5q59 0 93.5 -26.5t34.5 -72.5t-34.5 -72.5t-93.5 -26.5q-60 0 -94 26.5t-34 72.5zM94 -68q0 38 43 59
t124 21q76 0 117 -19t41 -53q0 -37 -46.5 -59.5t-127.5 -22.5q-73 0 -112 19.5t-39 54.5zM405 429l83 82l-47 47l-85 -87zM262 607q70 0 113.5 37t51.5 102h-75q-5 -35 -29 -55t-61 -20t-61 20t-29 55h-75q8 -65 51.5 -102t113.5 -37z" />
    <glyph glyph-name="icircumflex" unicode="&#xee;" horiz-adv-x="234" 
d="M76 500h82v-500h-82v500zM-52 596h81l89 92l89 -92h81l-137 146h-66z" />
    <glyph glyph-name="ucircumflex" unicode="&#xfb;" horiz-adv-x="574" 
d="M151.025 500h-80.9941v-301.981q0 -47.9971 12.999 -87.4951q12.999 -39.4971 37.4971 -66.9951q24.499 -27.499 58.9971 -42.498q34.4971 -14.999 77.4951 -14.999q60.9961 0 106.493 30.498t69.4961 88.4951h-15.999v-104.994h80.9951v499.97h-80.9951v-279.982
q0 -72.9961 -39.498 -115.493q-39.4971 -42.498 -102.493 -42.498q-59.9971 0 -91.9951 38.998q-31.998 38.9971 -31.998 108.993v289.982zM118 596h81l89 92l89 -92h81l-137 146h-66z" />
    <glyph glyph-name="Obreve" unicode="&#x14e;" horiz-adv-x="829" 
d="M415 -16q77 0 141.5 27.5t112 76t74 116t26.5 146.5q0 80 -26.5 147t-74 115.5t-112 76t-141.5 27.5q-76 0 -141.5 -27.5t-112.5 -76t-74 -115.5t-27 -147q0 -79 27 -146.5t74 -116t112.5 -76t141.5 -27.5zM415 66q-59 0 -108 21t-84.5 58.5t-55 89.5t-19.5 115
t19.5 115.5t55 90t84.5 58t108 20.5t108 -20.5t84 -58t54.5 -90t19.5 -115.5t-19.5 -115t-54.5 -89.5t-84 -58.5t-108 -21zM416 785q79 0 127 38.5t58 107.5h-77q-5 -37 -34 -59t-74 -22t-75 22t-35 59h-77q10 -69 59 -107.5t128 -38.5z" />
    <glyph glyph-name="obreve" unicode="&#x14f;" horiz-adv-x="608" 
d="M304 -14q-57 0 -104 20t-81.5 55.5t-53.5 84t-19 104.5t19 104.5t53.5 84t81.5 55.5t104 20t104 -20t81.5 -55.5t53.5 -84t19 -104.5t-19 -104.5t-53.5 -84t-81.5 -55.5t-104 -20zM304 62q39 0 71.5 14t55.5 39.5t36 60t13 74.5q0 41 -13 75t-36 59.5t-55.5 39.5
t-71.5 14t-71.5 -14t-55.5 -39.5t-36 -59.5t-13 -75q0 -40 13 -74.5t36 -60t55.5 -39.5t71.5 -14zM304 607q70 0 113.5 37t51.5 102h-75q-5 -35 -29 -55t-61 -20t-61 20t-29 55h-75q8 -65 51.5 -102t113.5 -37z" />
    <glyph glyph-name="Scaron" unicode="&#x160;" horiz-adv-x="619" 
d="M312 -16q58 0 105 15t80 42.5t50.5 67t17.5 88.5q0 66 -30.5 103.5t-77 59t-100 33t-100 26t-77 37.5t-30.5 67q0 51 41.5 82t110.5 31q63 0 109.5 -28.5t74.5 -85.5l73 45q-36 72 -102.5 110.5t-153.5 38.5q-53 0 -97 -14.5t-75 -40.5t-48 -63.5t-17 -82.5
q0 -63 30.5 -99t77 -56.5t100 -32.5t100 -27.5t77 -40.5t30.5 -72q0 -57 -45 -90t-122 -33q-73 0 -124 32t-81 98l-75 -44q39 -82 109 -124t169 -42zM111 931l160 -142h74l160 142h-94l-103 -83l-103 83h-94z" />
    <glyph glyph-name="scaron" unicode="&#x161;" horiz-adv-x="493" 
d="M252 -14q44 0 80 11t61.5 31t39 49t13.5 65q0 48 -23 75.5t-57.5 43.5t-74.5 24t-74.5 17t-57.5 23.5t-23 43.5q0 31 28 52.5t80 21.5q46 0 78.5 -19.5t53.5 -60.5l64 37q-29 56 -78.5 85t-117.5 29q-85 0 -134.5 -42t-49.5 -108q0 -46 23 -72t57.5 -41t74.5 -23.5
t74.5 -18.5t57.5 -26t23 -47q0 -36 -32 -57.5t-85 -21.5q-52 0 -89 22.5t-62 68.5l-64 -38q30 -61 84.5 -92.5t129.5 -31.5zM215 596h66l137 146h-81l-89 -92l-89 92h-81z" />
    <glyph glyph-name="Emacron" unicode="&#x112;" 
d="M92 0h428v81h-341v243h309v81h-309v214h341v81h-428v-700zM157 807h307v62h-307v-62z" />
    <glyph glyph-name="emacron" unicode="&#x113;" horiz-adv-x="586" 
d="M305 -14q-58 0 -105.5 19.5t-81.5 54.5t-53 83t-19 105q0 58 19 106.5t53.5 84t81.5 55.5t102 20q53 0 96.5 -17.5t74.5 -49.5t48.5 -76.5t17.5 -98.5q0 -11 -0.5 -22t-2.5 -22h-426v71h354l-8 -7q0 32 -11.5 59t-32.5 46.5t-49.5 30.5t-62.5 11q-39 0 -70.5 -14
t-54 -39.5t-35 -60t-12.5 -76.5t13 -76.5t36 -59t56 -38t73 -13.5q48 0 84.5 20t63.5 62l64 -48q-38 -54 -91 -82t-122 -28zM157 611h272v66h-272v-66z" />
    <glyph glyph-name="Amacron" unicode="&#x100;" horiz-adv-x="662" 
d="M149 186h364v76h-364v-76zM379 700h-96l-257 -700h90l229 650h-29l229 -650h91zM178 807h307v62h-307v-62z" />
    <glyph glyph-name="amacron" unicode="&#x101;" horiz-adv-x="545" 
d="M42 135q0 -68 47.5 -108.5t125.5 -40.5q70 0 119.5 34t73.5 98h-18v-118h80v321q0 44 -15 79.5t-42 60.5t-65.5 39t-85.5 14q-72 0 -126 -32t-80 -91l68 -34q20 42 54.5 63t81.5 21q61 0 95.5 -34t34.5 -95v-99q0 -32 -12.5 -60t-34 -49t-51 -33t-64.5 -12
q-47 0 -75.5 21.5t-28.5 59.5q0 42 37 64.5t110 26.5l146 7v68l-152 -7q-110 -5 -166.5 -48.5t-56.5 -115.5zM135 611h272v66h-272v-66z" />
    <glyph glyph-name="AE" unicode="&#xc6;" horiz-adv-x="970" 
d="M482 0h428v78h-344v248h312v78h-312v218h344v78h-463l-421 -700h100l108 188h248v-188zM277 262l205 356v-356h-205z" />
    <glyph glyph-name="Lslash" unicode="&#x141;" horiz-adv-x="574" 
d="M108 0h428v81h-341v619h-87v-700zM10 224l400 200v82l-400 -200v-82z" />
    <glyph glyph-name="OE" unicode="&#x152;" horiz-adv-x="1129" 
d="M409 -16q69 0 127.5 22.5t104.5 63.5v-70h428v78h-344v248h312v78h-312v218h344v78h-428v-70q-46 41 -104.5 63.5t-127.5 22.5q-75 0 -139 -27.5t-110.5 -76t-73 -115.5t-26.5 -147q0 -79 26.5 -146.5t73 -116t110.5 -76t139 -27.5zM415 66q-59 0 -108 21t-84.5 58.5
t-55 89.5t-19.5 115t19.5 115.5t55 90t84.5 58t108 20.5q75 0 133.5 -33t92.5 -92v-318q-34 -59 -92.5 -92t-133.5 -33z" />
    <glyph glyph-name="lslash" unicode="&#x142;" horiz-adv-x="314" 
d="M199 0v722h-81v-722h81zM16 237l282 181v82l-282 -181v-82z" />
    <glyph glyph-name="Omacron" unicode="&#x14c;" horiz-adv-x="829" 
d="M415 -16q77 0 141.5 27.5t112 76t74 116t26.5 146.5q0 80 -26.5 147t-74 115.5t-112 76t-141.5 27.5q-76 0 -141.5 -27.5t-112.5 -76t-74 -115.5t-27 -147q0 -79 27 -146.5t74 -116t112.5 -76t141.5 -27.5zM415 66q-59 0 -108 21t-84.5 58.5t-55 89.5t-19.5 115
t19.5 115.5t55 90t84.5 58t108 20.5t108 -20.5t84 -58t54.5 -90t19.5 -115.5t-19.5 -115t-54.5 -89.5t-84 -58.5t-108 -21zM261 807h307v62h-307v-62z" />
    <glyph glyph-name="omacron" unicode="&#x14d;" horiz-adv-x="608" 
d="M304 -14q-57 0 -104 20t-81.5 55.5t-53.5 84t-19 104.5t19 104.5t53.5 84t81.5 55.5t104 20t104 -20t81.5 -55.5t53.5 -84t19 -104.5t-19 -104.5t-53.5 -84t-81.5 -55.5t-104 -20zM304 62q39 0 71.5 14t55.5 39.5t36 60t13 74.5q0 41 -13 75t-36 59.5t-55.5 39.5
t-71.5 14t-71.5 -14t-55.5 -39.5t-36 -59.5t-13 -75q0 -40 13 -74.5t36 -60t55.5 -39.5t71.5 -14zM168 611h272v66h-272v-66z" />
    <glyph glyph-name="ycircumflex" unicode="&#x177;" horiz-adv-x="506" 
d="M134 -200h84l268 700h-85l-151 -409h15l-159 409h-86l196 -491zM83 596h81l89 92l89 -92h81l-137 146h-66z" />
    <glyph glyph-name="Ycircumflex" unicode="&#x176;" horiz-adv-x="612" 
d="M263 0h86v288l237 412h-98l-188 -342h12l-188 342h-98l237 -412v-288zM109 789h94l103 82l103 -82h94l-160 141h-74z" />
    <glyph glyph-name="uring" unicode="&#x16f;" horiz-adv-x="574" 
d="M151.025 500h-80.9941v-301.981q0 -47.9971 12.999 -87.4951q12.999 -39.4971 37.4971 -66.9951q24.499 -27.499 58.9971 -42.498q34.4971 -14.999 77.4951 -14.999q60.9961 0 106.493 30.498t69.4961 88.4951h-15.999v-104.994h80.9951v499.97h-80.9951v-279.982
q0 -72.9961 -39.498 -115.493q-39.4971 -42.498 -102.493 -42.498q-59.9971 0 -91.9951 38.998q-31.998 38.9971 -31.998 108.993v289.982zM288 584q-49 0 -81 31t-32 79t32 79t81 31t81 -31t32 -79t-32 -79t-81 -31zM288 636q25 0 41 16.5t16 41.5t-16 41.5t-41 16.5
t-41 -16.5t-16 -41.5t16 -41.5t41 -16.5z" />
    <glyph glyph-name="ncaron" unicode="&#x148;" horiz-adv-x="574" 
d="M423 0h81v302q0 48 -13 87.5t-37.5 67t-59 42.5t-77.5 15q-61 0 -106.5 -30.5t-69.5 -88.5h16v105h-81v-500h81v280q0 73 39.5 115.5t102.5 42.5q60 0 92 -39t32 -109v-290zM255 596h66l137 146h-81l-89 -92l-89 92h-81z" />
    <glyph glyph-name="tcaron" unicode="&#x165;" horiz-adv-x="430" 
d="M234 647q0 25 16.5 41t40.5 16q26 0 44 -19.5t18 -58.5q0 -42 -21.5 -85t-58.5 -75l-35 34q29 26 43 49.5t20 49.5l8 -3q-3 -3 -8.5 -4.5t-12.5 -1.5q-23 0 -38.5 16.5t-15.5 40.5zM16 500h112v-74h-112v74zM184 186q0 -59 26.5 -87.5t81.5 -28.5h58v-76h-66
q-87 0 -133.5 46.5t-46.5 140.5v459h80v-454z" />
    <glyph glyph-name="agrave.ss01" horiz-adv-x="637" 
d="M561 0v500h-81v-500h81zM294 -14q51 0 93.5 19t73 53.5t47 83.5t16.5 108t-16.5 108t-47 83.5t-73 53.5t-93.5 19q-52 0 -97 -19.5t-77.5 -55t-51 -84t-18.5 -105.5t18.5 -105.5t51 -84t77.5 -55t97 -19.5zM306 62q-39 0 -71 14t-55 39.5t-35.5 60t-12.5 74.5
q0 41 12.5 75t35.5 59.5t55 39.5t71 14t71 -14t55 -39.5t35.5 -59.5t12.5 -75q0 -40 -12.5 -74.5t-35.5 -60t-55 -39.5t-71 -14zM261 600h78l-84 146h-84z" />
    <glyph glyph-name="aacute.ss01" horiz-adv-x="637" 
d="M561 0v500h-81v-500h81zM294 -14q51 0 93.5 19t73 53.5t47 83.5t16.5 108t-16.5 108t-47 83.5t-73 53.5t-93.5 19q-52 0 -97 -19.5t-77.5 -55t-51 -84t-18.5 -105.5t18.5 -105.5t51 -84t77.5 -55t97 -19.5zM306 62q-39 0 -71 14t-55 39.5t-35.5 60t-12.5 74.5
q0 41 12.5 75t35.5 59.5t55 39.5t71 14t71 -14t55 -39.5t35.5 -59.5t12.5 -75q0 -40 -12.5 -74.5t-35.5 -60t-55 -39.5t-71 -14zM262 598h78l90 146h-84z" />
    <glyph glyph-name="acircumflex.ss01" horiz-adv-x="637" 
d="M561 0v500h-81v-500h81zM294 -14q51 0 93.5 19t73 53.5t47 83.5t16.5 108t-16.5 108t-47 83.5t-73 53.5t-93.5 19q-52 0 -97 -19.5t-77.5 -55t-51 -84t-18.5 -105.5t18.5 -105.5t51 -84t77.5 -55t97 -19.5zM306 62q-39 0 -71 14t-55 39.5t-35.5 60t-12.5 74.5
q0 41 12.5 75t35.5 59.5t55 39.5t71 14t71 -14t55 -39.5t35.5 -59.5t12.5 -75q0 -40 -12.5 -74.5t-35.5 -60t-55 -39.5t-71 -14zM134 596h81l89 92l89 -92h81l-137 146h-66z" />
    <glyph glyph-name="atilde.ss01" horiz-adv-x="637" 
d="M561 0v500h-81v-500h81zM294 -14q51 0 93.5 19t73 53.5t47 83.5t16.5 108t-16.5 108t-47 83.5t-73 53.5t-93.5 19q-52 0 -97 -19.5t-77.5 -55t-51 -84t-18.5 -105.5t18.5 -105.5t51 -84t77.5 -55t97 -19.5zM306 62q-39 0 -71 14t-55 39.5t-35.5 60t-12.5 74.5
q0 41 12.5 75t35.5 59.5t55 39.5t71 14t71 -14t55 -39.5t35.5 -59.5t12.5 -75q0 -40 -12.5 -74.5t-35.5 -60t-55 -39.5t-71 -14zM245 660q-20 0 -29 -16.5t-9 -48.5h-58q0 32 6.5 55.5t18.5 39t29.5 23t39.5 7.5q28 0 44 -10.5t27.5 -23t22 -23t26.5 -10.5q20 0 29 17t9 49
h58q0 -32 -6.5 -55.5t-18.5 -39.5t-29.5 -23.5t-39.5 -7.5q-28 0 -44 10.5t-27.5 23t-21.5 23t-27 10.5z" />
    <glyph glyph-name="adieresis.ss01" horiz-adv-x="637" 
d="M561 0v500h-81v-500h81zM294 -14q51 0 93.5 19t73 53.5t47 83.5t16.5 108t-16.5 108t-47 83.5t-73 53.5t-93.5 19q-52 0 -97 -19.5t-77.5 -55t-51 -84t-18.5 -105.5t18.5 -105.5t51 -84t77.5 -55t97 -19.5zM306 62q-39 0 -71 14t-55 39.5t-35.5 60t-12.5 74.5
q0 41 12.5 75t35.5 59.5t55 39.5t71 14t71 -14t55 -39.5t35.5 -59.5t12.5 -75q0 -40 -12.5 -74.5t-35.5 -60t-55 -39.5t-71 -14zM202 607q24 0 40.5 16.5t16.5 40.5t-16.5 40.5t-40.5 16.5t-40.5 -16.5t-16.5 -40.5t16.5 -40.5t40.5 -16.5zM406 607q24 0 40.5 16.5
t16.5 40.5t-16.5 40.5t-40.5 16.5t-40.5 -16.5t-16.5 -40.5t16.5 -40.5t40.5 -16.5z" />
    <glyph glyph-name="aring.ss01" horiz-adv-x="637" 
d="M315 584q-49 0 -81 31t-32 79t32 79t81 31t81 -31t32 -79t-32 -79t-81 -31zM315 636q25 0 41 16.5t16 41.5t-16 41.5t-41 16.5t-41 -16.5t-16 -41.5t16 -41.5t41 -16.5zM561 0v500h-81v-500h81zM294 -14q51 0 93.5 19t73 53.5t47 83.5t16.5 108t-16.5 108t-47 83.5
t-73 53.5t-93.5 19q-52 0 -97 -19.5t-77.5 -55t-51 -84t-18.5 -105.5t18.5 -105.5t51 -84t77.5 -55t97 -19.5zM306 62q-39 0 -71 14t-55 39.5t-35.5 60t-12.5 74.5q0 41 12.5 75t35.5 59.5t55 39.5t71 14t71 -14t55 -39.5t35.5 -59.5t12.5 -75q0 -40 -12.5 -74.5t-35.5 -60
t-55 -39.5t-71 -14z" />
    <glyph glyph-name="amacron.ss01" horiz-adv-x="637" 
d="M182 615h272v66h-272v-66zM561 0v500h-81v-500h81zM294 -14q51 0 93.5 19t73 53.5t47 83.5t16.5 108t-16.5 108t-47 83.5t-73 53.5t-93.5 19q-52 0 -97 -19.5t-77.5 -55t-51 -84t-18.5 -105.5t18.5 -105.5t51 -84t77.5 -55t97 -19.5zM306 62q-39 0 -71 14t-55 39.5
t-35.5 60t-12.5 74.5q0 41 12.5 75t35.5 59.5t55 39.5t71 14t71 -14t55 -39.5t35.5 -59.5t12.5 -75q0 -40 -12.5 -74.5t-35.5 -60t-55 -39.5t-71 -14z" />
    <glyph glyph-name="abreve.ss01" horiz-adv-x="637" 
d="M315 607q70 0 113.5 37t51.5 102h-75q-5 -35 -29 -55t-61 -20t-61 20t-29 55h-75q8 -65 51.5 -102t113.5 -37zM561 0v500h-81v-500h81zM294 -14q51 0 93.5 19t73 53.5t47 83.5t16.5 108t-16.5 108t-47 83.5t-73 53.5t-93.5 19q-52 0 -97 -19.5t-77.5 -55t-51 -84
t-18.5 -105.5t18.5 -105.5t51 -84t77.5 -55t97 -19.5zM306 62q-39 0 -71 14t-55 39.5t-35.5 60t-12.5 74.5q0 41 12.5 75t35.5 59.5t55 39.5t71 14t71 -14t55 -39.5t35.5 -59.5t12.5 -75q0 -40 -12.5 -74.5t-35.5 -60t-55 -39.5t-71 -14z" />
    <glyph glyph-name="aogonek.ss01" horiz-adv-x="638" 
d="M390 -113q0 -48 30.5 -77t84.5 -29q23 0 43.5 6t37.5 17l-19 57q-10 -9 -25 -13.5t-30 -4.5q-27 0 -43.5 14.5t-16.5 40.5q0 30 26 51.5t83 50.5l-41 35q-69 -36 -99.5 -69.5t-30.5 -78.5zM561 0v500h-81v-500h81zM293 -14q51 0 93.5 19t73 53.5t47.5 83.5t17 108
t-17 108t-47.5 83.5t-73 53.5t-93.5 19q-52 0 -97.5 -20t-78.5 -55t-52 -83.5t-19 -105.5t19 -105.5t52 -83.5t78.5 -55t97.5 -20zM304 63q-38 0 -70.5 14t-56 38.5t-36.5 59t-13 75.5t13 75.5t36.5 59t56 38.5t70.5 14t70.5 -14t56 -38.5t36.5 -59t13 -75.5t-13 -75.5
t-36.5 -59t-56 -38.5t-70.5 -14z" />
    <glyph glyph-name="gcircumflex.ss02" horiz-adv-x="617" 
d="M287 -214q59 0 106 18t80 51.5t50.5 81t17.5 107.5v456h-81v-452q0 -88 -45.5 -137.5t-127.5 -49.5q-55 0 -95.5 23.5t-69.5 72.5l-64 -43q35 -63 93 -95.5t136 -32.5zM282 14q51 0 91.5 19t68.5 52.5t43 79t15 99.5t-15 99.5t-43 79t-68.5 52.5t-91.5 19t-94 -19
t-74.5 -52.5t-49 -79t-17.5 -99.5t17.5 -99.5t49 -79t74.5 -52.5t94 -19zM294 89q-37 0 -68 13t-53 36.5t-34 55.5t-12 70t12 70t34 55.5t53 36.5t68 13t67.5 -13t52.5 -36.5t34 -55.5t12 -70t-12 -70t-34 -55.5t-52.5 -36.5t-67.5 -13zM134 596h81l89 92l89 -92h81
l-137 146h-66z" />
    <glyph glyph-name="gbreve.ss02" horiz-adv-x="617" 
d="M287 -214q59 0 106 18t80 51.5t50.5 81t17.5 107.5v456h-81v-452q0 -88 -45.5 -137.5t-127.5 -49.5q-55 0 -95.5 23.5t-69.5 72.5l-64 -43q35 -63 93 -95.5t136 -32.5zM282 14q51 0 91.5 19t68.5 52.5t43 79t15 99.5t-15 99.5t-43 79t-68.5 52.5t-91.5 19t-94 -19
t-74.5 -52.5t-49 -79t-17.5 -99.5t17.5 -99.5t49 -79t74.5 -52.5t94 -19zM294 89q-37 0 -68 13t-53 36.5t-34 55.5t-12 70t12 70t34 55.5t53 36.5t68 13t67.5 -13t52.5 -36.5t34 -55.5t12 -70t-12 -70t-34 -55.5t-52.5 -36.5t-67.5 -13zM315 607q70 0 113.5 37t51.5 102h-75
q-5 -35 -29 -55t-61 -20t-61 20t-29 55h-75q8 -65 51.5 -102t113.5 -37z" />
    <glyph glyph-name="uni04E6" unicode="&#x4e6;" horiz-adv-x="829" 
d="M415 -16q77 0 141.5 27.5t112 76t74 116t26.5 146.5q0 80 -26.5 147t-74 115.5t-112 76t-141.5 27.5q-76 0 -141.5 -27.5t-112.5 -76t-74 -115.5t-27 -147q0 -79 27 -146.5t74 -116t112.5 -76t141.5 -27.5zM415 66q-59 0 -108 21t-84.5 58.5t-55 89.5t-19.5 115
t19.5 115.5t55 90t84.5 58t108 20.5t108 -20.5t84 -58t54.5 -90t19.5 -115.5t-19.5 -115t-54.5 -89.5t-84 -58.5t-108 -21zM317 784q25 0 42 17t17 42t-17 42t-42 17t-42 -17t-17 -42t17 -42t42 -17zM512 784q25 0 42 17t17 42t-17 42t-42 17t-42 -17t-17 -42t17 -42t42 -17
z" />
    <glyph glyph-name="uni04E7" unicode="&#x4e7;" horiz-adv-x="608" 
d="M304 -14q-57 0 -104 20t-81.5 55.5t-53.5 84t-19 104.5t19 104.5t53.5 84t81.5 55.5t104 20t104 -20t81.5 -55.5t53.5 -84t19 -104.5t-19 -104.5t-53.5 -84t-81.5 -55.5t-104 -20zM304 62q39 0 71.5 14t55.5 39.5t36 60t13 74.5q0 41 -13 75t-36 59.5t-55.5 39.5
t-71.5 14t-71.5 -14t-55.5 -39.5t-36 -59.5t-13 -75q0 -40 13 -74.5t36 -60t55.5 -39.5t71.5 -14zM202 607q24 0 40.5 16.5t16.5 40.5t-16.5 40.5t-40.5 16.5t-40.5 -16.5t-16.5 -40.5t16.5 -40.5t40.5 -16.5zM406 607q24 0 40.5 16.5t16.5 40.5t-16.5 40.5t-40.5 16.5
t-40.5 -16.5t-16.5 -40.5t16.5 -40.5t40.5 -16.5z" />
    <glyph glyph-name="uni04E4" unicode="&#x4e4;" horiz-adv-x="724" 
d="M632 0v700h-91l-372 -575l11 -2v577h-88v-700h91l372 575l-11 2v-577h88zM280 784q25 0 42 17t17 42t-17 42t-42 17t-42 -17t-17 -42t17 -42t42 -17zM475 784q25 0 42 17t17 42t-17 42t-42 17t-42 -17t-17 -42t17 -42t42 -17z" />
    <glyph glyph-name="uni04E5" unicode="&#x4e5;" horiz-adv-x="578" 
d="M157 500v-382l263 382h82v-500h-81v382l-263 -382h-82v500h81zM187 607q24 0 40.5 16.5t16.5 40.5t-16.5 40.5t-40.5 16.5t-40.5 -16.5t-16.5 -40.5t16.5 -40.5t40.5 -16.5zM391 607q24 0 40.5 16.5t16.5 40.5t-16.5 40.5t-40.5 16.5t-40.5 -16.5t-16.5 -40.5t16.5 -40.5
t40.5 -16.5z" />
    <glyph glyph-name="uni04E2" unicode="&#x4e2;" horiz-adv-x="724" 
d="M632 0v700h-91l-372 -575l11 -2v577h-88v-700h91l372 575l-11 2v-577h88zM225 807h307v62h-307v-62z" />
    <glyph glyph-name="uni04E3" unicode="&#x4e3;" horiz-adv-x="578" 
d="M157 500v-382l263 382h82v-500h-81v382l-263 -382h-82v500h81zM153 611h272v66h-272v-66z" />
    <glyph glyph-name="uni04DE" unicode="&#x4de;" horiz-adv-x="601" 
d="M209 -16q59 0 107 15.5t82 43t52.5 66.5t18.5 86q0 69 -39.5 114t-117.5 65v-19q69 16 106.5 60t37.5 107q0 42 -17 77.5t-49 61.5t-77.5 40.5t-101.5 14.5q-90 0 -156.5 -39.5t-106.5 -122.5l77 -37q28 61 73.5 90t110.5 29q74 0 118 -34t44 -89q0 -51 -36.5 -81.5
t-96.5 -30.5h-142v-82h146q63 0 102.5 -33.5t39.5 -88.5q0 -60 -47 -96.5t-128 -36.5q-73 0 -123 33t-81 103l-76 -39q42 -88 111 -132.5t169 -44.5zM203 784q25 0 42 17t17 42t-17 42t-42 17t-42 -17t-17 -42t17 -42t42 -17zM398 784q25 0 42 17t17 42t-17 42t-42 17
t-42 -17t-17 -42t17 -42t42 -17z" />
    <glyph glyph-name="uni04DF" unicode="&#x4df;" horiz-adv-x="484" 
d="M247 -14q44 0 80.5 10.5t62.5 30.5t40.5 48.5t14.5 63.5q0 54 -33.5 88.5t-91.5 40.5v-18q56 11 84.5 41.5t28.5 78.5q0 65 -49 104.5t-133 39.5q-72 0 -124 -31.5t-81 -94.5l69 -31q19 43 52 65t81 22q51 0 80.5 -22.5t29.5 -57.5q0 -32 -24.5 -50.5t-65.5 -18.5h-106
v-71h106q45 0 73 -21.5t28 -59.5q0 -40 -33.5 -63.5t-88.5 -23.5q-53 0 -89 23.5t-56 73.5l-70 -30q29 -69 83 -103t132 -34zM140 607q24 0 40.5 16.5t16.5 40.5t-16.5 40.5t-40.5 16.5t-40.5 -16.5t-16.5 -40.5t16.5 -40.5t40.5 -16.5zM344 607q24 0 40.5 16.5t16.5 40.5
t-16.5 40.5t-40.5 16.5t-40.5 -16.5t-16.5 -40.5t16.5 -40.5t40.5 -16.5z" />
    <glyph glyph-name="uni04F8" unicode="&#x4f8;" horiz-adv-x="879" 
d="M774 700v-700h-83v700h83zM97 0v700h83v-256h175q53 0 96 -16t73 -45.5t46.5 -70t16.5 -90.5q0 -49 -16.5 -90t-46.5 -70.5t-73 -45.5t-96 -16h-258zM180 80h169q71 0 112.5 38t41.5 104t-41.5 104t-112.5 38h-169v-284zM342 784q25 0 42 17t17 42t-17 42t-42 17t-42 -17
t-17 -42t17 -42t42 -17zM537 784q25 0 42 17t17 42t-17 42t-42 17t-42 -17t-17 -42t17 -42t42 -17z" />
    <glyph glyph-name="uni04F9" unicode="&#x4f9;" horiz-adv-x="728" 
d="M556 500h81v-500h-81v500zM164 71h126q48 0 75 26.5t27 69.5q0 42 -27 68t-75 26h-126v-190zM298 0h-211v500h77v-168h132q39 0 71 -12t55 -34t35.5 -52.5t12.5 -67.5q0 -36 -12.5 -66.5t-35 -52.5t-54 -34.5t-70.5 -12.5zM262 607q24 0 40.5 16.5t16.5 40.5t-16.5 40.5
t-40.5 16.5t-40.5 -16.5t-16.5 -40.5t16.5 -40.5t40.5 -16.5zM466 607q24 0 40.5 16.5t16.5 40.5t-16.5 40.5t-40.5 16.5t-40.5 -16.5t-16.5 -40.5t16.5 -40.5t40.5 -16.5z" />
    <glyph glyph-name="uni0259" unicode="&#x259;" horiz-adv-x="584" 
d="M283 -14q56 0 103 19.5t80.5 54.5t52.5 84t19 108q0 58 -18.5 106.5t-52 83t-80.5 53.5t-105 19q-66 0 -120 -26t-93 -77l62 -51q26 39 63.5 59t87.5 20q82 0 128 -49.5t46 -137.5t-47 -139.5t-126 -51.5q-71 0 -113 41.5t-42 111.5l-8 -4h354v72h-426q-2 -11 -3 -25
t-1 -30q0 -53 17 -97.5t48.5 -76.5t75.5 -49.5t98 -17.5z" />
    <glyph glyph-name="scedilla" unicode="&#x15f;" horiz-adv-x="493" 
d="M252 -14q44 0 80 11t61.5 31t39 49t13.5 65q0 48 -23 75.5t-57.5 43.5t-74.5 24t-74.5 17t-57.5 23.5t-23 43.5q0 31 28 52.5t80 21.5q46 0 78.5 -19.5t53.5 -60.5l64 37q-29 56 -78.5 85t-117.5 29q-85 0 -134.5 -42t-49.5 -108q0 -46 23 -72t57.5 -41t74.5 -23.5
t74.5 -18.5t57.5 -26t23 -47q0 -36 -32 -57.5t-85 -21.5q-52 0 -89 22.5t-62 68.5l-64 -38q30 -61 84.5 -92.5t129.5 -31.5zM217 -206q66 0 101 30t35 84q0 40 -20.5 67.5t-62.5 53.5l-51 -30q35 -16 53.5 -35.5t18.5 -47.5q0 -30 -20.5 -46t-58.5 -16q-20 0 -36 4.5
t-32 13.5l-18 -59q22 -10 44 -14.5t47 -4.5z" />
    <glyph glyph-name="uni018F" unicode="&#x18f;" horiz-adv-x="799" 
d="M389 -16q78 0 142.5 26.5t110.5 75t71.5 116t25.5 149.5t-25.5 149t-72 115t-111 74.5t-143.5 26.5q-99 0 -175 -41.5t-124 -119.5l72 -47q39 65 94.5 96.5t130.5 31.5q61 0 110.5 -20.5t84.5 -58t54 -90t19 -117.5q0 -64 -18.5 -117t-53 -90.5t-83 -58t-108.5 -20.5
q-54 0 -99 17t-78 48t-52 75t-22 98l-6 -1h561v76h-639q-1 -13 -1.5 -25t-0.5 -26q0 -76 24 -139t68.5 -108t106.5 -70t137 -25z" />
    <glyph glyph-name="Scedilla" unicode="&#x15e;" horiz-adv-x="634" 
d="M332 -16q58 0 105 15t80 42.5t50.5 67t17.5 88.5q0 66 -30.5 103.5t-77 59t-100 33t-100 26t-77 37.5t-30.5 67q0 51 41.5 82t110.5 31q63 0 109.5 -28.5t74.5 -85.5l73 45q-36 72 -102.5 110.5t-153.5 38.5q-53 0 -97 -14.5t-75 -40.5t-48 -63.5t-17 -82.5
q0 -63 30.5 -99t77 -56.5t100 -32.5t100 -27.5t77 -40.5t30.5 -72q0 -57 -45 -90t-122 -33q-73 0 -124 32t-81 98l-75 -44q39 -82 109 -124t169 -42zM295 -224q69 0 105 33.5t36 88.5q0 44 -22.5 74.5t-66.5 56.5l-51 -32q38 -17 57 -38t19 -53t-20 -50t-59 -18
q-19 0 -35.5 4.5t-32.5 13.5l-18 -61q20 -10 42 -14.5t46 -4.5z" />
    <glyph glyph-name="cedilla.case" horiz-adv-x="282" 
d="M88 -224q69 0 105 33.5t36 88.5q0 44 -22.5 74.5t-66.5 56.5l-51 -32q38 -17 57 -38t19 -53t-20 -50t-59 -18q-19 0 -35.5 4.5t-32.5 13.5l-18 -61q20 -10 42 -14.5t46 -4.5z" />
    <glyph glyph-name="uni04D9" unicode="&#x4d9;" horiz-adv-x="584" 
d="M283 -14q56 0 103 19.5t80.5 54.5t52.5 84t19 108q0 58 -18.5 106.5t-52 83t-80.5 53.5t-105 19q-66 0 -120 -26t-93 -77l62 -51q26 39 63.5 59t87.5 20q82 0 128 -49.5t46 -137.5t-47 -139.5t-126 -51.5q-71 0 -113 41.5t-42 111.5l-8 -4h354v72h-426q-2 -11 -3 -25
t-1 -30q0 -53 17 -97.5t48.5 -76.5t75.5 -49.5t98 -17.5z" />
    <glyph glyph-name="uni04D8" unicode="&#x4d8;" horiz-adv-x="799" 
d="M389 -16q78 0 142.5 26.5t110.5 75t71.5 116t25.5 149.5t-25.5 149t-72 115t-111 74.5t-143.5 26.5q-99 0 -175 -41.5t-124 -119.5l72 -47q39 65 94.5 96.5t130.5 31.5q61 0 110.5 -20.5t84.5 -58t54 -90t19 -117.5q0 -64 -18.5 -117t-53 -90.5t-83 -58t-108.5 -20.5
q-54 0 -99 17t-78 48t-52 75t-22 98l-6 -1h561v76h-639q-1 -13 -1.5 -25t-0.5 -26q0 -76 24 -139t68.5 -108t106.5 -70t137 -25z" />
    <glyph glyph-name="uni04DA" unicode="&#x4da;" horiz-adv-x="799" 
d="M389 -16q78 0 142.5 26.5t110.5 75t71.5 116t25.5 149.5t-25.5 149t-72 115t-111 74.5t-143.5 26.5q-99 0 -175 -41.5t-124 -119.5l72 -47q39 65 94.5 96.5t130.5 31.5q61 0 110.5 -20.5t84.5 -58t54 -90t19 -117.5q0 -64 -18.5 -117t-53 -90.5t-83 -58t-108.5 -20.5
q-54 0 -99 17t-78 48t-52 75t-22 98l-6 -1h561v76h-639q-1 -13 -1.5 -25t-0.5 -26q0 -76 24 -139t68.5 -108t106.5 -70t137 -25zM302 784q25 0 42 17t17 42t-17 42t-42 17t-42 -17t-17 -42t17 -42t42 -17zM497 784q25 0 42 17t17 42t-17 42t-42 17t-42 -17t-17 -42t17 -42
t42 -17z" />
    <glyph glyph-name="uni04DB" unicode="&#x4db;" horiz-adv-x="586" 
d="M285 -14q56 0 103 19.5t80.5 54.5t52.5 84t19 108q0 58 -18.5 106.5t-52 83t-80.5 53.5t-105 19q-66 0 -120 -26t-93 -77l62 -51q26 39 63.5 59t87.5 20q82 0 128 -49.5t46 -137.5t-47 -139.5t-126 -51.5q-71 0 -113 41.5t-42 111.5l-8 -4h354v72h-426q-2 -11 -3 -25
t-1 -30q0 -53 17 -97.5t48.5 -76.5t75.5 -49.5t98 -17.5zM191 607q24 0 40.5 16.5t16.5 40.5t-16.5 40.5t-40.5 16.5t-40.5 -16.5t-16.5 -40.5t16.5 -40.5t40.5 -16.5zM395 607q24 0 40.5 16.5t16.5 40.5t-16.5 40.5t-40.5 16.5t-40.5 -16.5t-16.5 -40.5t16.5 -40.5
t40.5 -16.5z" />
    <glyph glyph-name="section" unicode="&#xa7;" horiz-adv-x="494" 
d="M362 216q44 28 65.5 58t21.5 73q0 47 -23 73.5t-57 42.5t-74 24.5t-74 18.5t-57 25t-23 44q0 32 28.5 52.5t77.5 20.5q48 0 82.5 -20.5t55.5 -61.5l62 36q-30 56 -80.5 85t-117.5 29q-41 0 -74.5 -11t-57.5 -30.5t-37 -47t-13 -59.5q0 -45 23 -70.5t57.5 -40.5
t74.5 -23.5t74.5 -19t57.5 -27t23 -48.5q0 -25 -16 -45t-48 -38zM245 -16q44 0 80 10.5t61.5 30.5t39 48.5t13.5 63.5q0 48 -23 75t-57.5 42t-75 23t-75 18.5t-57.5 27t-23 48.5q0 31 21 52t56 37l-54 38q-50 -28 -72.5 -59.5t-22.5 -74.5q0 -47 23 -74t57 -42.5t74.5 -24.5
t74.5 -19.5t57 -27t23 -46.5q0 -35 -32 -56.5t-86 -21.5q-53 0 -92 22t-63 70l-61 -36q30 -61 84.5 -92.5t129.5 -31.5z" />
    <glyph glyph-name="minus" unicode="&#x2212;" horiz-adv-x="550" 
d="M40 325h470v78h-470v-78z" />
    <glyph glyph-name="lira" unicode="&#x20a4;" horiz-adv-x="575" 
d="M141 59q36 20 59.5 64t23.5 104q0 39 -9.5 72t-20.5 64.5t-20.5 62.5t-9.5 66q0 68 40 108t114 40q59 0 97 -27.5t61 -84.5l72 30q-27 77 -85.5 117.5t-143.5 40.5q-54 0 -98 -16.5t-75 -46t-47.5 -70.5t-16.5 -91q0 -40 9.5 -71.5t21 -60.5t21 -61t9.5 -74
q0 -68 -28.5 -107t-79.5 -46zM546 0v74h-431l-80 -2v-72h511zM35 363h392v68h-392v-68zM35 217h392v68h-392v-68z" />
    <glyph glyph-name="uni20B8" unicode="&#x20b8;" horiz-adv-x="555" 
d="M38 565v-81h196v-484h87v484h196v81h-479zM517 625v75h-479v-75h479z" />
    <glyph glyph-name="uni20BA" unicode="&#x20ba;" horiz-adv-x="591" 
d="M109 0h251q44 0 79 12t61.5 35.5t43 57.5t23.5 78l-79 10q-6 -54 -43 -86.5t-91 -32.5h-177l12 -12v638h-80v-700zM37 345l401 147l-24 65l-401 -147zM37 175l401 147l-24 65l-401 -147z" />
    <glyph glyph-name="uni20BC" unicode="&#x20bc;" horiz-adv-x="750" 
d="M375 510h12q111 0 163.5 -106t52.5 -332v-72h82v78q0 254 -74.5 382t-221.5 128h-14h-14q-147 0 -221.5 -128t-74.5 -382v-78h82v72q0 226 52.5 332t163.5 106h12zM334 700v-628h82v628h-82z" />
    <glyph glyph-name="zacute" unicode="&#x17a;" horiz-adv-x="495" 
d="M46 0h403v74h-312l312 348v78h-394v-74h302l-311 -348v-78zM194 598h78l90 146h-84z" />
    <glyph glyph-name="nacute" unicode="&#x144;" horiz-adv-x="574" 
d="M423 0h81v302q0 48 -13 87.5t-37.5 67t-59 42.5t-77.5 15q-61 0 -106.5 -30.5t-69.5 -88.5h16v105h-81v-500h81v280q0 73 39.5 115.5t102.5 42.5q60 0 92 -39t32 -109v-290zM243 598h78l90 146h-84z" />
    <glyph glyph-name="zdotaccent" unicode="&#x17c;" horiz-adv-x="495" 
d="M46 0h403v74h-312l312 348v78h-394v-74h302l-311 -348v-78zM278 607q24 0 40.5 16.5t16.5 40.5t-16.5 40.5t-40.5 16.5h-1q-24 0 -40.5 -16.5t-16.5 -40.5t16.5 -40.5t40.5 -16.5h1z" />
    <glyph glyph-name="sacute" unicode="&#x15b;" horiz-adv-x="493" 
d="M252 -14q44 0 80 11t61.5 31t39 49t13.5 65q0 48 -23 75.5t-57.5 43.5t-74.5 24t-74.5 17t-57.5 23.5t-23 43.5q0 31 28 52.5t80 21.5q46 0 78.5 -19.5t53.5 -60.5l64 37q-29 56 -78.5 85t-117.5 29q-85 0 -134.5 -42t-49.5 -108q0 -46 23 -72t57.5 -41t74.5 -23.5
t74.5 -18.5t57.5 -26t23 -47q0 -36 -32 -57.5t-85 -21.5q-52 0 -89 22.5t-62 68.5l-64 -38q30 -61 84.5 -92.5t129.5 -31.5zM201 598h78l90 146h-84z" />
    <glyph glyph-name="uni2116" unicode="&#x2116;" horiz-adv-x="1074" 
d="M92 0h82v574l-7 -2l355 -572h90v700h-82v-574l7 2l-355 572h-90v-700zM710 226h308v77h-308v-77zM864 375q36 0 66.5 13t52 35.5t34 53t12.5 65.5q0 36 -12.5 66t-34 52.5t-52 35t-66.5 12.5t-66.5 -12.5t-52 -35t-34 -53t-12.5 -65.5q0 -36 12.5 -66.5t34 -53t52 -35
t66.5 -12.5zM865 442q-42 0 -67.5 27.5t-25.5 72.5q0 44 25.5 71.5t67.5 27.5q40 0 65.5 -27t25.5 -72q0 -44 -25.5 -72t-65.5 -28z" />
    </font>
</defs>
</svg>
