  <svg id="cart-black" width="20" height="20" viewBox="0 0 20 20" fill="none" xmlns="http://www.w3.org/2000/svg">
    <g clip-path="url(#clip0_573_5715)">
      <path fill-rule="evenodd" clip-rule="evenodd" d="M4.903 6.36372L3.06024 17.2728H16.9399L15.0972 6.36372H4.903ZM16.634 4.54554H3.36618L0.90918 19.091H19.091L16.634 4.54554Z" fill="#0A0A0A"/>
      <path fill-rule="evenodd" clip-rule="evenodd" d="M11.4922 3.18122C11.1895 2.93901 10.742 2.72736 10.0001 2.72736C9.25814 2.72736 8.81071 2.93901 8.50794 3.18122C8.17666 3.44624 7.90743 3.8404 7.70106 4.33572C7.67208 4.40528 7.64496 4.47534 7.61961 4.54554H12.3806C12.3552 4.47534 12.3281 4.40528 12.2991 4.33572C12.0927 3.8404 11.8235 3.44624 11.4922 3.18122ZM14.2822 4.54554C13.865 2.95908 12.7868 0.90918 10.0001 0.90918C7.21341 0.90918 6.13516 2.95908 5.71795 4.54554C5.4546 5.54696 5.45463 6.36372 5.45463 6.36372H14.5455C14.5455 6.36372 14.5456 5.54696 14.2822 4.54554Z" fill="#0A0A0A"/>
      <path fill-rule="evenodd" clip-rule="evenodd" d="M7.72736 8.18121C7.72736 8.18121 7.72736 8.18195 6.81827 8.18191C5.90918 8.18186 5.90918 8.18268 5.90918 8.18268L5.90919 8.18566L5.90921 8.19081L5.90937 8.20512C5.90952 8.21641 5.90981 8.23118 5.91034 8.24921C5.91139 8.28522 5.91338 8.33438 5.91715 8.39482C5.92469 8.51542 5.93942 8.68261 5.96838 8.88124C6.02562 9.27385 6.14179 9.81295 6.38306 10.3645C6.62452 10.9164 7.0058 11.5132 7.60958 11.9732C8.22533 12.4423 9.01843 12.7274 10.0001 12.7274C10.9818 12.7274 11.7748 12.4423 12.3906 11.9732C12.9944 11.5132 13.3757 10.9164 13.6171 10.3645C13.8584 9.81295 13.9746 9.27385 14.0318 8.88124C14.0608 8.68261 14.0755 8.51542 14.083 8.39482C14.0868 8.33438 14.0888 8.28522 14.0898 8.24921C14.0904 8.23118 14.0907 8.21641 14.0908 8.20512L14.091 8.19081L14.091 8.18566L14.091 8.18359C14.091 8.18359 14.091 8.18186 13.1819 8.18191C12.2728 8.18195 12.2728 8.18121 12.2728 8.18121L12.2728 8.17948L12.2724 8.19628C12.2719 8.21353 12.2708 8.2425 12.2684 8.28149C12.2635 8.35976 12.2534 8.47666 12.2326 8.61894C12.1905 8.90814 12.1078 9.27813 11.9514 9.63572C11.7951 9.99286 11.5798 10.3052 11.2887 10.527C11.0095 10.7397 10.6094 10.9092 10.0001 10.9092C9.39075 10.9092 8.99063 10.7397 8.71147 10.527C8.42035 10.3052 8.20505 9.99286 8.04881 9.63572C7.89237 9.27813 7.80971 8.90814 7.76754 8.61894C7.7468 8.47666 7.73669 8.35976 7.7318 8.28149C7.72937 8.2425 7.72825 8.21353 7.72775 8.19628L7.72737 8.17955L7.72736 8.18121ZM7.72737 8.17955L7.72735 8.17827L7.72737 8.17955Z" fill="#0A0A0A"/>
    </g>
    <defs>
      <clipPath id="clip0_573_5715">
        <rect width="20" height="20" fill="white"/>
      </clipPath>
    </defs>
  </svg>