<svg width="104" height="116" viewBox="0 0 104 116" fill="none" xmlns="http://www.w3.org/2000/svg">
<path d="M45.499 5C45.499 7.76142 43.2604 10 40.499 10C37.7376 10 35.499 7.76142 35.499 5C35.499 2.23858 37.7376 0 40.499 0C43.2604 0 45.499 2.23858 45.499 5Z" fill="#FF197A"/>
<path d="M67.499 5C67.499 7.76142 65.2604 10 62.499 10C59.7376 10 57.499 7.76142 57.499 5C57.499 2.23858 59.7376 0 62.499 0C65.2604 0 67.499 2.23858 67.499 5Z" fill="#FF197A"/>
<path fill-rule="evenodd" clip-rule="evenodd" d="M65.099 43.7538C65.099 43.7538 65.099 43.7497 70.299 43.7499C75.499 43.7502 75.499 43.7455 75.499 43.7455L75.499 43.7287L75.4988 43.6995L75.498 43.6184C75.4971 43.5544 75.4954 43.4708 75.4924 43.3687C75.4864 43.1646 75.475 42.8862 75.4534 42.5437C75.4103 41.8606 75.326 40.9134 75.1604 39.7882C74.833 37.564 74.1685 34.51 72.7885 31.3858C71.4073 28.259 69.2264 24.8782 65.7727 22.2722C62.2507 19.6146 57.7141 17.9999 52.099 17.9999C46.4839 17.9999 41.9474 19.6146 38.4253 22.2722C34.9717 24.8782 32.7908 28.259 31.4096 31.3858C30.0295 34.51 29.3651 37.564 29.0377 39.7882C28.872 40.9134 28.7877 41.8606 28.7446 42.5437C28.723 42.8862 28.7117 43.1646 28.7057 43.3687C28.7027 43.4708 28.701 43.5544 28.7001 43.6184L28.6992 43.6995L28.6991 43.7287L28.699 43.7404C28.699 43.7404 28.699 43.7502 33.899 43.7499C39.099 43.7497 39.099 43.7538 39.099 43.7538L39.099 43.7637L39.1013 43.6685C39.1041 43.5708 39.1105 43.4067 39.1244 43.1858C39.1524 42.7424 39.2102 42.0802 39.3289 41.2741C39.57 39.6358 40.0429 37.5398 40.9377 35.514C41.8314 33.4909 43.0629 31.7217 44.7281 30.4652C46.3249 29.2603 48.6136 28.2999 52.099 28.2999C55.5844 28.2999 57.8731 29.2603 59.4699 30.4652C61.1351 31.7217 62.3667 33.4909 63.2603 35.514C64.1552 37.5398 64.628 39.6358 64.8692 41.2742C64.9878 42.0802 65.0457 42.7424 65.0736 43.1858C65.0876 43.4067 65.0939 43.5708 65.0968 43.6685L65.099 43.7633L65.099 43.7538Z" fill="#FF197A"/>
<path fill-rule="evenodd" clip-rule="evenodd" d="M22.8446 43.9001L12.3041 105.7H91.6959L81.1554 43.9001H22.8446ZM89.9459 33.6001H14.0541L0 116H104L89.9459 33.6001Z" fill="#0A0A0A"/>
<path fill-rule="evenodd" clip-rule="evenodd" d="M39 54.1962C39 54.1962 39 54.2003 33.8 54.2001C28.6 54.1999 28.6 54.2045 28.6 54.2045L28.6 54.2213L28.6002 54.2505L28.6011 54.3316C28.602 54.3956 28.6036 54.4793 28.6066 54.5814C28.6126 54.7854 28.624 55.0639 28.6456 55.4063C28.6887 56.0895 28.773 57.0366 28.9386 58.1618C29.266 60.386 29.9305 63.44 31.3106 66.5642C32.6918 69.6911 34.8727 73.0718 38.3263 75.6778C41.8484 78.3355 46.3849 79.9501 52 79.9501C57.6151 79.9501 62.1516 78.3355 65.6737 75.6778C69.1273 73.0718 71.3082 69.6911 72.6894 66.5642C74.0695 63.44 74.7339 60.386 75.0614 58.1618C75.227 57.0366 75.3113 56.0895 75.3544 55.4063C75.376 55.0639 75.3874 54.7854 75.3934 54.5814C75.3964 54.4793 75.398 54.3956 75.3989 54.3316L75.3998 54.2505L75.3999 54.2213L75.4 54.2096C75.4 54.2096 75.4 54.1999 70.2 54.2001C65 54.2003 65 54.1962 65 54.1962L65 54.1864L64.9978 54.2815C64.9949 54.3793 64.9885 54.5434 64.9746 54.7642C64.9466 55.2076 64.8888 55.8699 64.7702 56.6759C64.529 58.3142 64.0561 60.4102 63.1613 62.436C62.2676 64.4591 61.0361 66.2284 59.3709 67.4848C57.7741 68.6897 55.4854 69.6501 52 69.6501C48.5146 69.6501 46.2259 68.6897 44.6291 67.4848C42.9639 66.2284 41.7324 64.4591 40.8387 62.436C39.9439 60.4102 39.471 58.3142 39.2298 56.6759C39.1112 55.8699 39.0534 55.2076 39.0254 54.7642C39.0115 54.5434 39.0051 54.3793 39.0022 54.2815L39 54.1868L39 54.1962Z" fill="#0A0A0A"/>
</svg>
