  <svg id="check-filled-black" width="20" height="20" viewBox="0 0 20 20" fill="none" xmlns="http://www.w3.org/2000/svg">
    <path fill-rule="evenodd" clip-rule="evenodd" d="M9.36751 0.646169C9.7059 0.417362 10.1494 0.417362 10.4878 0.646169L12.641 2.10209C12.7772 2.19423 12.9341 2.25133 13.0977 2.26834L15.683 2.53706C16.0893 2.57929 16.429 2.86438 16.5412 3.25717L17.2547 5.75649C17.2999 5.91466 17.3834 6.05925 17.4978 6.17744L19.3055 8.04506C19.5896 8.33857 19.6666 8.77536 19.5 9.14833L18.4401 11.5216C18.373 11.6718 18.344 11.8362 18.3557 12.0003L18.54 14.5929C18.5689 15.0004 18.3472 15.3845 17.9798 15.5631L15.6424 16.6999C15.4945 16.7718 15.3666 16.8791 15.27 17.0123L13.7447 19.1168C13.505 19.4476 13.0882 19.5993 12.692 19.5L10.2348 18.8844C10.1408 18.8566 9.89927 18.8145 9.68462 18.8683L7.16337 19.5C6.76714 19.5993 6.35036 19.4476 6.11064 19.1168L4.58529 17.0123C4.48876 16.8791 4.36086 16.7718 4.21294 16.6999L1.87549 15.5631C1.50815 15.3845 1.28639 15.0004 1.31535 14.5929L1.49964 12.0003C1.5113 11.8362 1.48231 11.6718 1.41523 11.5216L0.355319 9.14833C0.188748 8.77536 0.265765 8.33857 0.549856 8.04506L2.35755 6.17744C2.47195 6.05925 2.55543 5.91466 2.60059 5.75649L3.31415 3.25717C3.42629 2.86438 3.76605 2.57929 4.17234 2.53706L6.7576 2.26834C6.92121 2.25133 7.0781 2.19423 7.21436 2.10209L9.36751 0.646169ZM9.2618 11.5184L6.5361 8.79272L5.12189 10.2069L9.39619 14.4812L14.8653 7.78032L13.3289 6.49995L9.2618 11.5184Z" fill="#0A0A0A"/>
  </svg>