  <svg id="check-black" width="20" height="20" viewBox="0 0 20 20" fill="none" xmlns="http://www.w3.org/2000/svg">
    <g clip-path="url(#clip0_573_5707)">
      <path fill-rule="evenodd" clip-rule="evenodd" d="M10.0001 2.41419L8.4071 3.49135C7.99831 3.76776 7.52765 3.93907 7.03682 3.99009L5.12412 4.1889L4.59619 6.03802C4.46072 6.51253 4.21028 6.9463 3.86708 7.30087L2.52966 8.68264L3.31384 10.4385C3.51507 10.8891 3.60204 11.3823 3.56705 11.8746L3.43071 13.7927L5.16006 14.6337C5.60384 14.8495 5.98753 15.1715 6.27712 15.5711L7.40565 17.1281L9.271 16.6607C9.74967 16.5408 10.2505 16.5408 10.7292 16.6607L12.5946 17.1281L13.7231 15.5711C14.0127 15.1715 14.3964 14.8495 14.8402 14.6337L16.5695 13.7927L16.4332 11.8746C16.3982 11.3823 16.4852 10.8891 16.6864 10.4385L17.4706 8.68264L16.1331 7.30087C15.7899 6.9463 15.5395 6.51253 15.404 6.03802L14.8761 4.1889L12.9634 3.99009C12.4726 3.93907 12.0019 3.76776 11.5931 3.49135L10.0001 2.41419ZM10.5603 0.378637C10.2219 0.149829 9.77835 0.14983 9.43996 0.378637L7.28681 1.83456C7.15055 1.9267 6.99366 1.9838 6.83005 2.00081L4.24479 2.26953C3.8385 2.31176 3.49874 2.59685 3.3866 2.98963L2.67304 5.48896C2.62788 5.64713 2.5444 5.79171 2.43 5.90991L0.622304 7.77753C0.338214 8.07104 0.261196 8.50783 0.427768 8.8808L1.48768 11.2541C1.55476 11.4043 1.58375 11.5687 1.57209 11.7327L1.3878 14.3254C1.35883 14.7328 1.5806 15.117 1.94794 15.2956L4.28539 16.4323C4.43331 16.5043 4.56121 16.6116 4.65774 16.7448L6.18309 18.8493C6.4228 19.18 6.83958 19.3317 7.23582 19.2325L9.75707 18.6008C9.91663 18.5608 10.0836 18.5608 10.2431 18.6008L12.7644 19.2325C13.1606 19.3317 13.5774 19.18 13.8171 18.8493L15.3425 16.7448C15.439 16.6116 15.5669 16.5043 15.7148 16.4323L18.0523 15.2956C18.4196 15.117 18.6414 14.7328 18.6124 14.3254L18.4281 11.7327C18.4165 11.5687 18.4455 11.4043 18.5125 11.2541L19.5724 8.8808C19.739 8.50783 19.662 8.07104 19.3779 7.77753L17.5702 5.90991C17.4558 5.79171 17.3723 5.64713 17.3272 5.48896L16.6136 2.98963C16.5015 2.59685 16.1617 2.31176 15.7554 2.26953L13.1702 2.00081C13.0066 1.9838 12.8497 1.9267 12.7134 1.83456L10.5603 0.378637Z" fill="#0A0A0A"/>
      <path fill-rule="evenodd" clip-rule="evenodd" d="M15.0364 7.78037L9.56731 14.4813L5.293 10.207L6.70722 8.79277L9.43291 11.5185L13.5 6.5L15.0364 7.78037Z" fill="#0A0A0A"/>
    </g>
    <defs>
      <clipPath id="clip0_573_5707">
        <rect width="20" height="20" fill="white"/>
      </clipPath>
    </defs>
  </svg>