<svg id="clap" width="162" height="167" viewBox="0 0 162 167" fill="none" xmlns="http://www.w3.org/2000/svg">
  <g clip-path="url(#clip0_1679_6986)">
    <path d="M52.2076 120.55L31.0273 153.071L64.3235 165.116L78.7543 133.92C89.3223 131.639 94.6279 123.3 95.9597 119.416L119.251 99.3797C117.574 95.6433 112.997 95.4186 110.918 95.7732L93.8493 104.304C92.0721 103.024 91.881 100.527 92.0076 99.4392L100.345 60.1091C98.7101 57.1769 95.1947 57.5297 93.6414 58.0726L84.2524 85.422L90.1369 52.9499C88.1457 48.8102 84.161 49.9018 82.4176 50.9651L72.7505 84.3156L73.404 54.704C71.0007 52.0367 67.0719 52.9718 65.8367 53.8882L62.1352 85.5536L57.0453 67.9736C53.4863 66.5748 51.2328 68.7137 50.5509 69.9579L55.0552 106.798C55.7754 112.809 53.4568 118.471 52.2076 120.55Z" fill="#FFCF4B"/>
    <path fill-rule="evenodd" clip-rule="evenodd" d="M79.133 52.8901L81.0175 88.9797L78.0097 89.2835L73.0927 57.0081C71.3992 55.7059 70.219 55.7748 69.4665 56.0622C68.6307 56.3815 67.9387 57.1168 67.5142 57.8333L70.5625 90.6615C70.5627 90.6632 70.5629 90.6648 70.563 90.6665C71.4244 99.3475 67.8515 103.333 65.0349 104.088L64.0604 104.349L63.4434 103.555C62.0972 101.821 59.7157 99.1467 56.9976 96.8194C54.223 94.4435 51.3396 92.6424 48.9696 92.2996C46.4684 91.9378 45.202 92.5372 44.5617 93.1246C44.0531 93.591 43.7913 94.1839 43.6889 94.6907L61.3974 115.135L61.4918 115.38C65.2736 125.199 74.1362 129.782 77.987 130.816L78.6527 130.994L94.3975 163.231L123.567 152.53L105.138 124.281L105.11 124.229C104.574 123.248 104.363 122.078 104.305 120.946C104.247 119.795 104.343 118.561 104.515 117.373C104.848 115.064 105.489 112.777 105.999 111.31L112.968 69.9766C111.253 69.6962 109.632 70.3272 108.741 70.8851L102.278 89.5483L99.3334 89.0578V55.1463C98.4241 54.1478 97.4585 53.8717 96.6048 53.874C95.8727 53.8759 95.1734 54.0871 94.6363 54.3426L91.9054 86.8475L88.8913 86.8717L85.4218 52.3145C83.7971 51.0969 82.4714 51.0538 81.4861 51.3315C80.4997 51.6096 79.6696 52.2655 79.133 52.8901ZM80.6609 48.4344C82.8134 47.8276 85.3301 48.2351 87.8533 50.3997L88.3109 50.7922L90.2633 70.239L91.7446 52.6077L92.3274 52.203C93.2615 51.5545 94.8222 50.8674 96.5969 50.8627C98.4568 50.8579 100.457 51.6098 102.051 53.6939L102.36 54.0979V80.0656L106.185 69.0215L106.539 68.7469C107.89 67.6983 111.498 65.9419 115.27 67.5248L116.372 67.9874L108.941 112.063L108.898 112.185C108.433 113.499 107.82 115.658 107.511 117.801C107.356 118.871 107.283 119.899 107.328 120.794C107.373 121.677 107.528 122.324 107.746 122.747L128.168 154.052L92.8729 167L76.5232 133.524C71.8257 132.032 62.8334 126.986 58.7622 116.706L40.6094 95.7484V95.1892C40.6094 93.9565 41.0797 92.2225 42.5098 90.9108C43.9889 89.5541 46.2547 88.864 49.4051 89.3197C52.6868 89.7944 56.1321 92.1052 58.9723 94.5371C61.3997 96.6157 63.5623 98.939 65.0527 100.736C66.2854 99.7834 68.166 97.1516 67.5503 90.9578L67.5494 90.9482L64.4203 57.2507L64.6 56.8764C65.1917 55.6438 66.4467 53.9902 68.3814 53.2511C70.4728 52.4522 72.938 52.8726 75.4927 55.0732L75.9147 55.4367L76.402 58.6353L76.0547 51.9845L76.3449 51.5639C77.1261 50.4314 78.622 49.0091 80.6609 48.4344Z" fill="url(#paint0_linear_1679_6986)"/>
    <path d="M2.09456 66.3308L28.4561 72.1723L31.7191 69.3705L9.93985 57.0338L2.09456 66.3308Z" fill="#FFCF4B"/>
    <path d="M54.7344 12.0449L68.3554 37.1385L72.3913 35.6329L66.842 12.0449H54.7344Z" fill="#FFCF4B"/>
    <path d="M103.669 0L97.6152 31.6179H103.669L117.795 6.02245L103.669 0Z" fill="#FFCF4B"/>
    <path d="M37.078 43.6628L47.0164 53.5835L49.4063 52.6096L41.7886 36.6363L37.078 43.6628Z" fill="#FFCF4B"/>
    <path d="M155.989 63.2086L136.617 73.0098L136.615 76.9901L161.529 70.4659L155.989 63.2086Z" fill="#FFCF4B"/>
    <path d="M130.933 40.4672L121.346 52.0395L124.879 52.0394L135.978 42.0018L130.933 40.4672Z" fill="#FFCF4B"/>
  </g>
  <defs>
    <linearGradient id="paint0_linear_1679_6986" x1="73.4804" y1="165.116" x2="145.965" y2="136.449" gradientUnits="userSpaceOnUse">
      <stop stop-color="#FF197A"/>
      <stop offset="1" stop-color="#FFCF4B"/>
    </linearGradient>
    <clipPath id="clip0_1679_6986">
      <rect width="162" height="167" fill="white"/>
    </clipPath>
  </defs>
</svg>