  <svg id="contacts-clock" width="20" height="21" viewBox="0 0 20 21" fill="none" xmlns="http://www.w3.org/2000/svg">
    <path fill-rule="evenodd" clip-rule="evenodd" d="M9.99984 3.16699C5.94975 3.16699 2.6665 6.45024 2.6665 10.5003C2.6665 14.5504 5.94975 17.8337 9.99984 17.8337C14.0499 17.8337 17.3332 14.5504 17.3332 10.5003C17.3332 6.45024 14.0499 3.16699 9.99984 3.16699ZM0.666504 10.5003C0.666504 5.34567 4.84518 1.16699 9.99984 1.16699C15.1545 1.16699 19.3332 5.34567 19.3332 10.5003C19.3332 15.655 15.1545 19.8337 9.99984 19.8337C4.84518 19.8337 0.666504 15.655 0.666504 10.5003Z" fill="#FF197A"/>
    <path fill-rule="evenodd" clip-rule="evenodd" d="M10.9999 4.50024V9.88221L14.6749 11.7197L13.7804 13.5086L8.99988 11.1183V4.50024H10.9999Z" fill="#FF197A"/>
  </svg>