<svg id="contacts-mail" width="21" height="21" viewBox="0 0 21 21" fill="none" xmlns="http://www.w3.org/2000/svg">
    <path d="M19.2006 17.2H1.50061V3.5H19.2006V17.2ZM3.20061 15.5H17.5006V5.2H3.20061V15.5Z" fill="#FF197A"/>
    <path d="M10.9505 11.9602C10.595 12.2267 10.1063 12.2267 9.7508 11.9602L1.84065 6.02992C1.46065 5.74992 1.39065 5.21992 1.67065 4.83992C1.95065 4.45992 2.48065 4.38992 2.86065 4.66992L9.75048 9.83959C10.1061 10.1064 10.5952 10.1064 10.9508 9.83959L17.8407 4.66992C18.2207 4.38992 18.7507 4.46992 19.0307 4.83992C19.3107 5.21992 19.2407 5.74992 18.8607 6.02992L10.9505 11.9602Z" fill="#FF197A"/>
  </svg>