  <svg id="contacts-metro" width="20" height="21" viewBox="0 0 20 21" fill="none" xmlns="http://www.w3.org/2000/svg">
    <path d="M6.42372 7.23525C6.1539 6.41001 5.42149 6.50046 4.92072 6.88482C3.68715 7.9135 2.08095 10.0727 3.10893 13.1817C3.96985 15.8156 7.55215 17.5 7.55215 17.5H3.37614C3.37614 17.5 1.21989 15.3182 1.02714 12.7522C0.783001 9.50783 2.22228 7.4617 3.89273 6.12783C5.46038 4.87303 6.95094 4.5 6.95094 4.5L10 13.5188L13.0491 4.5C13.0491 4.5 14.5396 4.87303 16.1073 6.12783C17.7777 7.4617 19.217 9.50783 18.9729 12.7522C18.7801 15.3182 16.6239 17.5 16.6239 17.5H12.4478C12.4478 17.5 16.0299 15.8156 16.8911 13.1817C17.9191 10.073 16.3128 7.91386 15.0793 6.88482C14.5781 6.50046 13.8457 6.41001 13.5763 7.23525C12.6511 9.86916 10.0004 17.4159 10.0004 17.4159C10.0004 17.4159 7.34966 9.86664 6.42448 7.23525H6.42372Z" fill="#FF197A"/>
  </svg>