  <svg id="contacts-phone" width="18" height="18" viewBox="0 0 18 18" fill="none" xmlns="http://www.w3.org/2000/svg">
    <g clip-path="url(#clip0_2994_5459)">
      <path d="M14.77 17.15C14.7 17.15 14.63 17.15 14.56 17.15C12.12 16.88 9.74998 16.04 7.69998 14.71C5.79998 13.5 4.15998 11.86 2.94998 9.95C1.60998 7.89 0.769979 5.51 0.509979 3.07C0.479979 2.73 0.509979 2.41 0.619979 2.1C0.719979 1.79 0.889979 1.51 1.10998 1.27C1.32998 1.03 1.59998 0.84 1.89998 0.7C2.19998 0.57 2.51998 0.5 2.84998 0.5H6.93998L8.83998 5.56L7.41998 6.98C8.26998 8.3 9.39998 9.42 10.72 10.28L12.16 8.84L17.82 11.27L16.92 15.73C16.79 16.03 16.6 16.3 16.35 16.52C16.11 16.74 15.83 16.91 15.52 17.01C15.27 17.09 15.02 17.13 14.77 17.13V17.15ZM2.84998 2.2C2.75998 2.2 2.66998 2.22 2.58998 2.26C2.50998 2.3 2.42998 2.35 2.36998 2.42C2.30998 2.49 2.25998 2.56 2.22998 2.65C2.19998 2.74 2.18998 2.83 2.19998 2.92C2.42998 5.08 3.17998 7.2 4.36998 9.04C5.44998 10.74 6.91998 12.21 8.60998 13.28C10.44 14.47 12.55 15.22 14.72 15.46C14.8 15.46 14.89 15.46 14.97 15.43C15.05 15.4 15.13 15.35 15.2 15.29C15.2 15.29 15.29 15.19 15.32 15.14L15.88 12.31L12.54 10.88L10.99 12.43L10.43 12.11C8.41998 10.97 6.74998 9.3 5.60998 7.29L5.28998 6.73L6.85998 5.16L5.75998 2.22H2.84998V2.2Z" fill="#FF197A"/>
    </g>
    <defs>
      <clipPath id="clip0_2994_5459">
        <rect width="17.32" height="16.65" fill="white" transform="translate(0.5 0.5)"/>
      </clipPath>
    </defs>
  </svg>