  <svg id="contacts-geo" width="20" height="21" viewBox="0 0 20 21" fill="none" xmlns="http://www.w3.org/2000/svg">
    <path d="M10 19.01L9.53 18.7C9.36 18.59 9.15 18.44 8.91 18.27C8.04 17.64 7.23 16.96 6.5 16.25C4.21 13.99 3 11.6 3 9.35C3 5.3 6.14 2 10 2C13.86 2 17 5.3 17 9.35C17 11.6 15.79 13.99 13.5 16.24C12.78 16.95 11.97 17.63 11.09 18.26C10.85 18.43 10.64 18.58 10.47 18.69L10 19V19.01ZM10 3.7C7.08 3.7 4.7 6.24 4.7 9.35C4.7 11.61 6.33 13.69 7.69 15.03C8.51 15.84 9.35 16.49 9.9 16.89C9.93 16.91 9.97 16.94 10 16.96C10.03 16.94 10.06 16.91 10.1 16.89C10.65 16.49 11.48 15.84 12.31 15.03C13.68 13.69 15.3 11.61 15.3 9.35C15.3 6.23 12.92 3.7 10 3.7Z" fill="#FF197A"/>
    <path d="M10 12C8.35 12 7 10.65 7 9C7 7.35 8.35 6 10 6C11.65 6 13 7.35 13 9C13 10.65 11.65 12 10 12ZM10 7.7C9.28 7.7 8.7 8.28 8.7 9C8.7 9.72 9.28 10.3 10 10.3C10.72 10.3 11.3 9.72 11.3 9C11.3 8.28 10.72 7.7 10 7.7Z" fill="#FF197A"/>
  </svg>