<svg width="310" height="310" viewBox="0 0 310 310" fill="none" xmlns="http://www.w3.org/2000/svg">
<rect width="310" height="310" rx="155" fill="#0A0A0A"/>
<path fill-rule="evenodd" clip-rule="evenodd" d="M153.823 223.488C173.847 223.488 190.054 207.104 190.054 186.845C190.054 166.586 173.847 150.203 153.823 150.203C133.798 150.203 117.65 166.586 117.65 186.845C117.65 207.104 133.857 223.488 153.823 223.488ZM153.823 264.652C196.279 264.652 230.69 229.83 230.69 186.845C230.69 143.861 196.279 109.039 153.823 109.039C111.367 109.039 76.9554 143.861 76.9554 186.845C76.9554 229.83 111.367 264.652 153.823 264.652Z" fill="#FF197A"/>
<path fill-rule="evenodd" clip-rule="evenodd" d="M153.826 82.4387C132.275 82.4387 112.251 88.9568 95.5742 100.173C95.1631 100.466 94.5759 100.349 94.2823 99.9378L72.4964 67.3472C72.2028 66.9361 72.3203 66.4076 72.7313 66.114C95.9265 50.4352 123.878 41.3333 153.768 41.3333C183.657 41.3333 211.609 50.4352 234.863 66.114C235.274 66.4076 235.391 66.9361 235.098 67.3472L213.312 99.9378C213.018 100.349 212.49 100.466 212.02 100.173C195.343 88.9568 175.319 82.4387 153.709 82.4387H153.826Z" fill="#FF197A"/>
</svg>
