<svg id="logo" width="93" height="46" viewBox="0 0 93 46" fill="none" xmlns="http://www.w3.org/2000/svg">
    <path d="M71.6529 8.43261C71.7122 8.43261 71.7602 8.48066 71.7602 8.53994V25.5581C71.7602 25.6174 71.7122 25.6654 71.6529 25.6654H67.2739C67.2146 25.6654 67.1665 25.6174 67.1665 25.5581V18.6459C67.1665 18.5867 67.1184 18.5386 67.0591 18.5386H60.3479C60.2886 18.5386 60.2405 18.5867 60.2405 18.6459V25.5581C60.2405 25.6174 60.1924 25.6654 60.1331 25.6654H55.7541C55.6948 25.6654 55.6467 25.6174 55.6467 25.5581V8.53994C55.6467 8.48066 55.6948 8.43261 55.7541 8.43261H60.1331C60.1924 8.43261 60.2405 8.48066 60.2405 8.53994V14.329C60.2405 14.3883 60.2886 14.4363 60.3479 14.4363H67.0591C67.1184 14.4363 67.1665 14.3883 67.1665 14.329V8.53994C67.1665 8.48066 67.2146 8.43261 67.2739 8.43261H71.6529Z" fill="#FAFAFA"/>
    <path d="M47.4935 16.7038C47.4674 16.7408 47.4674 16.7902 47.4934 16.8272L53.5858 25.4963C53.6358 25.5674 53.5849 25.6653 53.498 25.6653H48.4978C48.4614 25.6653 48.4275 25.6469 48.4077 25.6164L44.7839 20.0331C44.7415 19.9679 44.646 19.9679 44.6037 20.0331L40.9799 25.6164C40.9601 25.6469 40.9262 25.6653 40.8898 25.6653H35.9603C35.8733 25.6653 35.8225 25.5674 35.8724 25.4963L41.9649 16.8272C41.9909 16.7901 41.9909 16.7408 41.9649 16.7038L36.2751 8.60161C36.2251 8.53048 36.276 8.43261 36.363 8.43261H41.2222C41.2584 8.43261 41.2922 8.45082 41.312 8.48106L44.6749 13.6044C44.7172 13.6689 44.8119 13.669 44.8543 13.6045L48.229 8.48092C48.2488 8.45076 48.2825 8.43261 48.3187 8.43261H53.1071C53.1941 8.43261 53.245 8.53058 53.1949 8.60169L47.4935 16.7038Z" fill="#FAFAFA"/>
    <path d="M22.2844 14.6806C22.2636 14.7486 22.315 14.8166 22.3862 14.8166H30.6515C30.7182 14.8166 30.7689 14.7562 30.7557 14.6908C30.5588 13.7147 30.1097 12.9354 29.4084 12.3527C28.7 11.7451 27.7859 11.4414 26.6662 11.4414C25.5694 11.4414 24.6325 11.7451 23.8555 12.3527C23.1122 12.9124 22.5885 13.6883 22.2844 14.6806ZM26.9404 25.6172C25.5922 25.6172 24.3468 25.4035 23.2043 24.9759C22.0845 24.5259 21.1134 23.9071 20.2907 23.1196C19.4909 22.332 18.8625 21.387 18.4055 20.2844C17.9713 19.1818 17.7542 17.978 17.7542 16.6729C17.7542 15.3453 17.9827 14.1415 18.4398 13.0615C18.8968 11.9589 19.5252 11.0251 20.325 10.26C21.1248 9.47249 22.0731 8.86496 23.17 8.43743C24.2668 8.00991 25.4665 7.79614 26.7691 7.79614C28.0487 7.79614 29.2027 7.99865 30.231 8.40368C31.2822 8.8087 32.1734 9.38249 32.9046 10.125C33.6359 10.8676 34.2071 11.7564 34.6185 12.7914C35.0298 13.804 35.2355 14.9291 35.2355 16.1666C35.2355 16.4142 35.224 16.6842 35.2012 16.9767C35.1804 17.2429 35.1501 17.6223 35.1104 17.9428C35.1038 17.9961 35.0583 18.0358 35.0045 18.0358H22.2595C22.1963 18.0358 22.1466 18.0902 22.1547 18.1529C22.2917 19.2101 22.9371 20.1178 23.7527 20.7907C24.5982 21.4882 25.6722 21.837 26.9747 21.837C27.9345 21.837 28.78 21.6457 29.5112 21.2632C30.2312 20.8765 30.8157 20.3155 31.2649 19.5802C31.2988 19.5246 31.3736 19.51 31.425 19.55L34.3659 21.8412C34.4113 21.8766 34.4207 21.9415 34.3868 21.988C33.5292 23.1619 32.4752 24.0566 31.2251 24.6722C29.9682 25.3022 28.54 25.6172 26.9404 25.6172Z" fill="#FAFAFA"/>
    <path d="M16.1249 8.43261C16.1842 8.43261 16.2323 8.48066 16.2323 8.53994V12.7757C16.2323 12.835 16.1842 12.8831 16.1249 12.8831H10.7396C10.6803 12.8831 10.6322 12.9311 10.6322 12.9904V25.5051C10.6322 25.5643 10.5842 25.6124 10.5249 25.6124H6.18175C6.12244 25.6124 6.07437 25.5643 6.07437 25.5051V12.9904C6.07437 12.9311 6.02629 12.8831 5.96699 12.8831H0.60738C0.548075 12.8831 0.5 12.835 0.5 12.7757V8.53994C0.5 8.48066 0.548076 8.43261 0.60738 8.43261H16.1249Z" fill="#FAFAFA"/>
    <path d="M42.6914 45.9995C40.8026 45.9995 39.2053 45.6498 37.8995 44.9503C36.6449 44.244 35.6358 43.2031 34.8721 41.8275C34.8437 41.7764 34.8621 41.7121 34.9129 41.6833L38.1161 39.862C38.1695 39.8316 38.2374 39.8522 38.266 39.9066C38.7243 40.7795 39.3017 41.4116 39.9981 41.8029C40.721 42.209 41.5721 42.4121 42.5515 42.4121C43.5542 42.4121 44.382 42.2316 45.0349 41.8706C45.6878 41.487 46.0142 40.9907 46.0142 40.3815C46.0142 39.8625 45.7811 39.4564 45.3147 39.1631C44.8483 38.8698 44.2071 38.7232 43.3909 38.7232H40.2198C40.1605 38.7232 40.1124 38.6751 40.1124 38.6158V35.2769C40.1124 35.2177 40.1605 35.1696 40.2198 35.1696L43.4609 35.1696C44.1604 35.1696 44.7084 35.0342 45.1048 34.7635C45.5012 34.4702 45.6994 34.0753 45.6994 33.579C45.6994 32.9923 45.4196 32.5298 44.86 32.1914C44.3237 31.8304 43.5891 31.6499 42.6564 31.6499C40.8546 31.6499 39.5547 32.3946 38.7568 33.884C38.7276 33.9384 38.659 33.9588 38.6057 33.9276L35.4373 32.0754C35.3867 32.0459 35.3691 31.9811 35.3985 31.9305C36.1166 30.6899 37.0902 29.7503 38.3192 29.1116C39.5784 28.4573 41.0824 28.1302 42.8313 28.1302C43.8806 28.1302 44.8367 28.2543 45.6994 28.5025C46.5855 28.7281 47.3434 29.0665 47.973 29.5178C48.6026 29.9464 49.0806 30.4767 49.407 31.1084C49.7568 31.7401 49.9317 32.4396 49.9317 33.2067C49.9317 34.0866 49.6869 34.8312 49.1972 35.4403C48.7722 35.9954 48.115 36.4849 47.2254 36.9089C47.1351 36.9519 47.1441 37.0874 47.239 37.1191C49.2673 37.7964 50.2815 39.0418 50.2815 40.8553C50.2815 41.6224 50.0949 42.3331 49.7218 42.9874C49.3488 43.6192 48.8241 44.1607 48.1479 44.6119C47.4716 45.0406 46.6672 45.379 45.7344 45.6272C44.825 45.8754 43.8107 45.9995 42.6914 45.9995Z" fill="#FAFAFA"/>
    <path d="M56.7219 45.8429C56.6849 45.9143 56.7368 45.9995 56.8172 45.9995L61.7508 45.9995C61.79 45.9995 61.8261 45.9782 61.8449 45.9439L71.2036 28.9274C71.243 28.8559 71.1912 28.7684 71.1095 28.7684L66.2001 28.7684C66.1593 28.7684 66.1221 28.7915 66.1039 28.828L62.0943 36.9027C62.058 36.9757 61.9568 36.9833 61.9101 36.9164L56.2488 28.8142C56.2287 28.7855 56.1958 28.7684 56.1608 28.7684H51.4292C51.3435 28.7684 51.2924 28.8637 51.3397 28.9351L59.2462 40.8414C59.2677 40.8738 59.27 40.9154 59.2521 40.95L56.7219 45.8429Z" fill="#FAFAFA"/>
    <path d="M82.5332 37.5662C82.5731 37.6493 82.6181 37.6509 82.6545 37.5662L86.8509 28.8334C86.8678 28.7939 86.9066 28.7684 86.9495 28.7684H92.045C92.1043 28.7684 92.1523 28.8164 92.1523 28.8757V45.8921C92.1523 45.9514 92.1043 45.9995 92.045 45.9995H88.1112C88.0519 45.9995 88.0038 45.9514 88.0038 45.8921V35.8221C88.0038 35.7059 87.8448 35.6725 87.7981 35.7789L83.7816 43.6354C83.7644 43.6744 83.7258 43.6995 83.6832 43.6995H81.4294C81.3886 43.6995 81.3512 43.6763 81.3331 43.6397L77.312 35.7237C77.2618 35.6219 77.1083 35.6576 77.1083 35.7712V45.8921C77.1083 45.9514 77.0603 45.9995 77.001 45.9995H73.0672C73.0079 45.9995 72.9598 45.9514 72.9598 45.8921V28.8757C72.9598 28.8164 73.0079 28.7684 73.0672 28.7684H78.2361C78.2774 28.7684 78.315 28.792 78.3329 28.8293L82.5332 37.5662Z" fill="#FAFAFA"/>
    <path fill-rule="evenodd" clip-rule="evenodd" d="M82.8912 21.6237C85.2643 21.6237 87.188 19.6768 87.188 17.2752C87.188 14.8735 85.2643 12.9266 82.8912 12.9266C80.5182 12.9266 78.5944 14.8735 78.5944 17.2752C78.5944 19.6768 80.5182 21.6237 82.8912 21.6237ZM82.8912 26.5084C87.9299 26.5084 92.0145 22.3746 92.0145 17.2752C92.0145 12.1758 87.9299 8.04189 82.8912 8.04189C77.8526 8.04189 73.7679 12.1758 73.7679 17.2752C73.7679 22.3746 77.8526 26.5084 82.8912 26.5084Z" fill="#FF197A"/>
    <path fill-rule="evenodd" clip-rule="evenodd" d="M82.8324 4.8847C80.2716 4.8847 77.8967 5.65912 75.915 6.98885C75.8654 7.02216 75.798 7.00914 75.7648 6.95943L73.1824 3.09026C73.1497 3.04135 73.1625 2.97527 73.2112 2.94238C75.9663 1.08354 79.2779 0 82.8324 0C86.3869 0 89.6985 1.08354 92.4535 2.94238C92.5023 2.97527 92.5151 3.04135 92.4824 3.09026L89.9 6.95943C89.8668 7.00914 89.7994 7.02216 89.7498 6.98885C87.7681 5.65912 85.3932 4.8847 82.8324 4.8847Z" fill="#FF197A"/>
</svg>