<svg id="logo-map" width="74" height="46" viewBox="0 0 74 46" fill="none" xmlns="http://www.w3.org/2000/svg">
  <path d="M39.0564 43.9464C39.0564 45.0806 38.1361 46 37.0009 46C35.8656 46 34.9453 45.0806 34.9453 43.9464C34.9453 42.8123 35.8656 41.8929 37.0009 41.8929C38.1361 41.8929 39.0564 42.8123 39.0564 43.9464Z" fill="#101010"/>
  <path d="M36.9988 39.4285C35.9281 36.7545 34.0652 34.472 31.6599 32.8874L31.3023 32.6517L42.6953 32.6517L42.3376 32.8874C39.9324 34.472 38.0694 36.7545 36.9988 39.4285Z" fill="#101010"/>
  <g clip-path="url(#clip0_1292_6314)">
    <path d="M16.28 0H57.72C59.8579 0 61.9749 0.424935 63.9501 1.25054C65.9253 2.07615 67.72 3.28626 69.2317 4.81179C70.7434 6.33731 71.9426 8.14838 72.7608 10.1416C73.5789 12.1348 74 14.2711 74 16.4285C74 18.5859 73.5789 20.7222 72.7608 22.7154C71.9426 24.7086 70.7434 26.5196 69.2317 28.0452C67.72 29.5707 65.9253 30.7808 63.9501 31.6064C61.9749 32.432 59.8579 32.857 57.72 32.857H16.28C11.9623 32.857 7.82139 31.1261 4.7683 28.0452C1.71521 24.9642 0 20.7856 0 16.4285C0 12.0714 1.71521 7.89273 4.7683 4.81179C7.82139 1.73085 11.9623 0 16.28 0Z" fill="#101010"/>
    <path d="M47.9459 9.75178C47.972 9.75178 47.9933 9.77302 47.9933 9.79922V17.3214C47.9933 17.3476 47.972 17.3688 47.9459 17.3688H46.0132C45.987 17.3688 45.9658 17.3476 45.9658 17.3214V14.2662C45.9658 14.24 45.9446 14.2187 45.9184 14.2187H42.9565C42.9303 14.2187 42.9091 14.24 42.9091 14.2662V17.3214C42.9091 17.3476 42.8879 17.3688 42.8617 17.3688H40.9291C40.9029 17.3688 40.8817 17.3476 40.8817 17.3214V9.79922C40.8817 9.77302 40.9029 9.75178 40.9291 9.75178H42.8617C42.8879 9.75178 42.9091 9.77302 42.9091 9.79922V12.358C42.9091 12.3842 42.9303 12.4055 42.9565 12.4055H45.9184C45.9446 12.4055 45.9658 12.3842 45.9658 12.358V9.79922C45.9658 9.77302 45.987 9.75178 46.0132 9.75178H47.9459Z" fill="#FAFAFA"/>
    <path d="M37.2833 13.4077C37.2718 13.4241 37.2718 13.4459 37.2833 13.4623L39.9721 17.2941C39.9942 17.3255 39.9717 17.3688 39.9333 17.3688H37.7265C37.7105 17.3688 37.6955 17.3606 37.6868 17.3472L36.0874 14.8793C36.0687 14.8505 36.0266 14.8505 36.0079 14.8793L34.4085 17.3472C34.3998 17.3606 34.3848 17.3688 34.3688 17.3688H32.1932C32.1548 17.3688 32.1323 17.3255 32.1544 17.2941L34.8432 13.4622C34.8547 13.4459 34.8547 13.4241 34.8433 13.4077L32.3321 9.82648C32.3101 9.79504 32.3325 9.75178 32.3709 9.75178H34.5155C34.5315 9.75178 34.5464 9.75983 34.5551 9.7732L36.0393 12.0377C36.058 12.0663 36.0997 12.0663 36.1185 12.0378L37.6079 9.77314C37.6166 9.75981 37.6315 9.75178 37.6475 9.75178H39.7608C39.7992 9.75178 39.8217 9.79509 39.7996 9.82652L37.2833 13.4077Z" fill="#FAFAFA"/>
    <path d="M26.1574 12.5134C26.1482 12.5435 26.1709 12.5735 26.2023 12.5735H29.8501C29.8796 12.5735 29.902 12.5469 29.8961 12.5179C29.8093 12.0865 29.6111 11.742 29.3015 11.4845C28.9889 11.2159 28.5855 11.0817 28.0913 11.0817C27.6072 11.0817 27.1937 11.2159 26.8508 11.4845C26.5227 11.7319 26.2916 12.0749 26.1574 12.5134ZM28.2123 17.3475C27.6173 17.3475 27.0676 17.253 26.5634 17.0641C26.0692 16.8651 25.6406 16.5916 25.2775 16.2435C24.9245 15.8954 24.6472 15.4777 24.4454 14.9904C24.2538 14.503 24.158 13.9709 24.158 13.3941C24.158 12.8073 24.2589 12.2752 24.4606 11.7978C24.6623 11.3104 24.9396 10.8977 25.2926 10.5595C25.6456 10.2114 26.0641 9.94288 26.5482 9.75391C27.0323 9.56494 27.5618 9.47046 28.1367 9.47046C28.7014 9.47046 29.2107 9.55997 29.6646 9.73899C30.1285 9.91802 30.5218 10.1716 30.8446 10.4998C31.1673 10.8281 31.4194 11.2209 31.601 11.6784C31.7825 12.126 31.8733 12.6233 31.8733 13.1703C31.8733 13.2797 31.8682 13.399 31.8581 13.5283C31.849 13.646 31.8356 13.8137 31.8181 13.9554C31.8151 13.9789 31.7951 13.9965 31.7713 13.9965H26.1464C26.1185 13.9965 26.0966 14.0205 26.1001 14.0482C26.1606 14.5155 26.4455 14.9167 26.8054 15.2141C27.1786 15.5225 27.6526 15.6766 28.2274 15.6766C28.651 15.6766 29.0242 15.5921 29.3469 15.423C29.6646 15.2521 29.9226 15.0041 30.1209 14.6791C30.1358 14.6545 30.1689 14.6481 30.1915 14.6658L31.4895 15.6785C31.5095 15.6941 31.5137 15.7228 31.4987 15.7434C31.1202 16.2623 30.6551 16.6577 30.1033 16.9298C29.5486 17.2083 28.9183 17.3475 28.2123 17.3475Z" fill="#FAFAFA"/>
    <path d="M23.4389 9.75178C23.4651 9.75178 23.4863 9.77302 23.4863 9.79922V11.6715C23.4863 11.6977 23.4651 11.7189 23.4389 11.7189H21.0622C21.036 11.7189 21.0148 11.7402 21.0148 11.7664V17.2979C21.0148 17.3241 20.9936 17.3454 20.9674 17.3454H19.0506C19.0244 17.3454 19.0032 17.3241 19.0032 17.2979V11.7664C19.0032 11.7402 18.982 11.7189 18.9558 11.7189H16.5904C16.5642 11.7189 16.543 11.6977 16.543 11.6715V9.79922C16.543 9.77302 16.5642 9.75178 16.5904 9.75178H23.4389Z" fill="#FAFAFA"/>
    <path d="M35.1639 26.3566C34.3303 26.3566 33.6253 26.2021 33.049 25.8929C32.4953 25.5807 32.0499 25.1206 31.7129 24.5126C31.7004 24.49 31.7085 24.4616 31.7309 24.4488L33.1446 23.6438C33.1682 23.6304 33.1982 23.6395 33.2108 23.6635C33.413 24.0494 33.6679 24.3288 33.9752 24.5017C34.2943 24.6812 34.6699 24.771 35.1021 24.771C35.5447 24.771 35.91 24.6912 36.1982 24.5316C36.4863 24.3621 36.6304 24.1427 36.6304 23.8734C36.6304 23.6441 36.5275 23.4646 36.3217 23.3349C36.1158 23.2053 35.8328 23.1404 35.4726 23.1404H34.0731C34.0469 23.1404 34.0257 23.1192 34.0257 23.093V21.6172C34.0257 21.591 34.0469 21.5697 34.0731 21.5697L35.5035 21.5697C35.8122 21.5697 36.0541 21.5099 36.2291 21.3902C36.404 21.2606 36.4915 21.0861 36.4915 20.8667C36.4915 20.6074 36.368 20.4029 36.121 20.2533C35.8843 20.0938 35.5601 20.014 35.1485 20.014C34.3532 20.014 33.7795 20.3432 33.4274 21.0015C33.4145 21.0255 33.3842 21.0346 33.3607 21.0208L31.9623 20.2021C31.94 20.189 31.9323 20.1604 31.9452 20.138C32.2621 19.5897 32.6918 19.1744 33.2343 18.8921C33.79 18.6029 34.4538 18.4583 35.2256 18.4583C35.6888 18.4583 36.1107 18.5131 36.4915 18.6228C36.8825 18.7225 37.217 18.8721 37.4949 19.0716C37.7728 19.2611 37.9837 19.4954 38.1278 19.7747C38.2822 20.0539 38.3594 20.363 38.3594 20.7021C38.3594 21.0911 38.2513 21.4202 38.0352 21.6894C37.8476 21.9348 37.5576 22.1511 37.1649 22.3385C37.1251 22.3575 37.1291 22.4174 37.171 22.4314C38.0661 22.7308 38.5137 23.2813 38.5137 24.0829C38.5137 24.4219 38.4314 24.7361 38.2667 25.0253C38.1021 25.3045 37.8705 25.5439 37.5721 25.7433C37.2736 25.9328 36.9186 26.0824 36.5069 26.1921C36.1056 26.3018 35.6579 26.3566 35.1639 26.3566Z" fill="#FAFAFA"/>
    <path d="M41.3562 26.2874C41.3399 26.319 41.3627 26.3566 41.3983 26.3566L43.5757 26.3566C43.593 26.3566 43.6089 26.3472 43.6172 26.3321L47.7476 18.8106C47.765 18.779 47.7421 18.7403 47.7061 18.7403L45.5393 18.7403C45.5213 18.7403 45.5049 18.7506 45.4969 18.7667L43.7272 22.3358C43.7112 22.3681 43.6665 22.3714 43.6459 22.3419L41.1474 18.7606C41.1385 18.7479 41.124 18.7403 41.1085 18.7403H39.0203C38.9825 18.7403 38.9599 18.7825 38.9808 18.814L42.4703 24.0767C42.4798 24.0911 42.4808 24.1094 42.4729 24.1247L41.3562 26.2874Z" fill="#FAFAFA"/>
    <path d="M52.7479 22.6291C52.7655 22.6658 52.7853 22.6665 52.8014 22.6291L54.6534 18.7691C54.6609 18.7517 54.678 18.7403 54.697 18.7403H56.9458C56.972 18.7403 56.9932 18.7616 56.9932 18.7878V26.3092C56.9932 26.3354 56.972 26.3566 56.9458 26.3566H55.2096C55.1835 26.3566 55.1623 26.3354 55.1623 26.3092V21.8581C55.1623 21.8068 55.0921 21.792 55.0715 21.8391L53.2988 25.3117C53.2912 25.3289 53.2742 25.34 53.2554 25.34H52.2607C52.2427 25.34 52.2262 25.3298 52.2182 25.3136L50.4435 21.8147C50.4213 21.7697 50.3536 21.7855 50.3536 21.8357V26.3092C50.3536 26.3354 50.3324 26.3566 50.3062 26.3566H48.5701C48.5439 26.3566 48.5227 26.3354 48.5227 26.3092V18.7878C48.5227 18.7616 48.5439 18.7403 48.5701 18.7403H50.8513C50.8696 18.7403 50.8862 18.7508 50.8941 18.7673L52.7479 22.6291Z" fill="#FAFAFA"/>
    <path fill-rule="evenodd" clip-rule="evenodd" d="M52.9062 15.5823C53.9535 15.5823 54.8026 14.7218 54.8026 13.6602C54.8026 12.5987 53.9535 11.7381 52.9062 11.7381C51.8589 11.7381 51.0098 12.5987 51.0098 13.6602C51.0098 14.7218 51.8589 15.5823 52.9062 15.5823ZM52.9062 17.7414C55.13 17.7414 56.9327 15.9142 56.9327 13.6602C56.9327 11.4063 55.13 9.57905 52.9062 9.57905C50.6824 9.57905 48.8797 11.4063 48.8797 13.6602C48.8797 15.9142 50.6824 17.7414 52.9062 17.7414Z" fill="#FF197A"/>
    <path fill-rule="evenodd" clip-rule="evenodd" d="M52.8802 8.18355C51.7501 8.18355 50.7019 8.52585 49.8273 9.1136C49.8054 9.12833 49.7757 9.12257 49.761 9.1006L48.6213 7.39039C48.6068 7.36878 48.6125 7.33957 48.634 7.32503C49.8499 6.50341 51.3115 6.02448 52.8802 6.02448C54.449 6.02448 55.9106 6.50341 57.1265 7.32503C57.148 7.33957 57.1536 7.36878 57.1392 7.39039L55.9995 9.1006C55.9848 9.12257 55.9551 9.12833 55.9332 9.1136C55.0586 8.52585 54.0104 8.18355 52.8802 8.18355Z" fill="#FF197A"/>
  </g>
  <defs>
    <clipPath id="clip0_1292_6314">
      <rect width="74" height="32.857" fill="white"/>
    </clipPath>
  </defs>
</svg>