<svg width="750" height="216" viewBox="0 0 750 216" fill="none" xmlns="http://www.w3.org/2000/svg">
<rect width="750" height="216" fill="white"/>
<path d="M335.373 85.9766C335.634 85.9766 335.862 86.2046 335.862 86.4978V167.135C335.862 167.428 335.634 167.656 335.373 167.656H315.364C315.103 167.656 314.875 167.428 314.875 167.135V134.391C314.875 134.098 314.647 133.87 314.386 133.87H283.687C283.426 133.87 283.198 134.098 283.198 134.391V167.135C283.198 167.428 282.97 167.656 282.709 167.656H262.699C262.439 167.656 262.21 167.428 262.21 167.135V86.4978C262.21 86.2046 262.439 85.9766 262.699 85.9766H282.709C282.97 85.9766 283.198 86.2046 283.198 86.4978V113.931C283.198 114.224 283.426 114.452 283.687 114.452H314.386C314.647 114.452 314.875 114.224 314.875 113.931V86.4978C314.875 86.2046 315.103 85.9766 315.364 85.9766H335.373Z" fill="#0A0A0A"/>
<path d="M224.891 125.171C224.761 125.334 224.761 125.595 224.891 125.758L252.755 166.842C252.983 167.168 252.755 167.656 252.364 167.656H229.486C229.323 167.656 229.16 167.559 229.063 167.428L212.507 140.973C212.312 140.68 211.888 140.68 211.692 140.973L195.137 167.428C195.137 167.428 194.876 167.656 194.713 167.656H172.162C171.771 167.656 171.542 167.2 171.771 166.842L199.634 125.758C199.765 125.595 199.765 125.334 199.634 125.171L173.628 86.7911C173.4 86.4653 173.628 85.9766 174.019 85.9766H196.245C196.408 85.9766 196.571 86.0743 196.669 86.2046L212.051 110.477C212.246 110.77 212.67 110.77 212.866 110.477L228.313 86.2046C228.313 86.2046 228.574 85.9766 228.737 85.9766H250.637C251.028 85.9766 251.256 86.4327 251.028 86.7911L224.956 125.171H224.891Z" fill="#0A0A0A"/>
<path d="M109.629 115.592C109.531 115.918 109.759 116.244 110.085 116.244H147.888C148.182 116.244 148.41 115.95 148.377 115.657C147.465 111.031 145.412 107.349 142.218 104.58C138.992 101.713 134.788 100.246 129.671 100.246C124.554 100.246 120.383 101.68 116.831 104.58C113.442 107.219 111.03 110.9 109.661 115.625L109.629 115.592ZM130.909 167.395C124.75 167.395 119.047 166.385 113.833 164.365C108.716 162.248 104.284 159.315 100.504 155.568C96.8536 151.822 93.9857 147.358 91.8674 142.145C89.8795 136.932 88.9018 131.231 88.9018 125.04C88.9018 118.85 89.9446 113.051 92.0304 107.935C94.1161 102.723 96.9839 98.2916 100.667 94.6751C104.317 90.9283 108.651 88.0612 113.67 86.0412C118.688 84.0212 124.163 83.0112 130.127 83.0112C136.091 83.0112 141.24 83.9561 145.966 85.8783C150.789 87.8006 154.863 90.5048 158.187 94.0235C161.543 97.5422 164.15 101.745 166.008 106.665C167.898 111.454 168.843 116.797 168.843 122.662C168.843 123.835 168.778 125.106 168.68 126.506C168.583 127.777 168.452 129.569 168.257 131.068C168.257 131.328 168.029 131.524 167.768 131.524H109.498C109.205 131.524 108.977 131.785 109.009 132.078C109.629 137.095 112.594 141.396 116.309 144.589C120.188 147.879 125.076 149.541 131.04 149.541C135.439 149.541 139.285 148.629 142.642 146.837C145.933 145.012 148.605 142.341 150.659 138.855C150.821 138.594 151.147 138.529 151.375 138.724L164.835 149.574C165.03 149.737 165.096 150.062 164.933 150.258C161.022 155.829 156.199 160.065 150.463 162.964C144.727 165.962 138.177 167.428 130.877 167.428L130.909 167.395Z" fill="#0A0A0A"/>
<path d="M81.4357 85.9766C81.6964 85.9766 81.9245 86.2046 81.9245 86.4978V106.568C81.9245 106.861 81.6964 107.089 81.4357 107.089H56.7982C56.5375 107.089 56.3094 107.317 56.3094 107.61V166.907C56.3094 167.2 56.0812 167.428 55.8205 167.428H35.9737C35.7129 167.428 35.4848 167.2 35.4848 166.907V107.61C35.4848 107.317 35.2567 107.089 34.996 107.089H10.4888C10.2281 107.089 10 106.861 10 106.568V86.4978C10 86.2046 10.2281 85.9766 10.4888 85.9766H81.4357Z" fill="#0A0A0A"/>
<path d="M468.203 167.722C459.567 167.722 452.267 166.06 446.303 162.737C440.567 159.381 435.939 154.461 432.452 147.945C432.322 147.717 432.42 147.391 432.648 147.261L447.281 138.627C447.509 138.497 447.835 138.595 447.965 138.823C450.051 142.96 452.69 145.958 455.884 147.815C459.176 149.737 463.086 150.715 467.551 150.715C472.016 150.715 475.927 149.868 478.892 148.141C481.89 146.316 483.357 143.97 483.357 141.071C483.357 138.627 482.281 136.672 480.163 135.304C478.045 133.903 475.112 133.219 471.364 133.219H456.862C456.601 133.219 456.373 132.991 456.373 132.698V116.863C456.373 116.57 456.601 116.342 456.862 116.342H471.69C474.884 116.342 477.393 115.69 479.218 114.42C481.043 113.019 481.956 111.162 481.956 108.816C481.956 106.047 480.685 103.831 478.11 102.235C475.666 100.54 472.309 99.6607 468.04 99.6607C459.795 99.6607 453.864 103.179 450.214 110.249C450.083 110.51 449.757 110.608 449.529 110.445L435.027 101.681C434.799 101.55 434.701 101.225 434.864 100.997C438.156 95.132 442.588 90.6684 448.226 87.6384C453.994 84.5432 460.87 82.9794 468.855 82.9794C473.645 82.9794 478.012 83.5658 481.988 84.7387C486.029 85.8139 489.516 87.4104 492.384 89.5607C495.252 91.5807 497.435 94.0894 498.935 97.0868C500.531 100.084 501.346 103.407 501.346 107.024C501.346 111.194 500.238 114.713 497.989 117.613C496.034 120.252 493.036 122.565 488.962 124.585C488.539 124.78 488.604 125.432 489.027 125.595C498.315 128.82 502.943 134.718 502.943 143.286C502.943 146.935 502.096 150.291 500.401 153.386C498.706 156.384 496.295 158.958 493.199 161.075C490.103 163.095 486.42 164.724 482.151 165.897C477.98 167.07 473.352 167.657 468.235 167.657L468.203 167.722Z" fill="#0A0A0A"/>
<path d="M532.37 166.971C532.208 167.297 532.436 167.721 532.794 167.721H555.346C555.541 167.721 555.704 167.623 555.77 167.46L598.559 86.823C598.722 86.4971 598.494 86.0736 598.136 86.0736H575.682C575.486 86.0736 575.323 86.1713 575.225 86.3668L556.878 124.617C556.715 124.975 556.258 125.008 556.03 124.682L530.154 86.3017C530.154 86.3017 529.926 86.0736 529.763 86.0736H508.124C507.733 86.0736 507.505 86.5297 507.733 86.8555L543.875 143.285C543.875 143.285 543.972 143.644 543.875 143.807L532.305 167.004L532.37 166.971Z" fill="#0A0A0A"/>
<path d="M650.38 127.778C650.575 128.169 650.771 128.169 650.934 127.778L670.129 86.4003C670.194 86.2048 670.389 86.1071 670.585 86.1071H693.886C694.147 86.1071 694.375 86.3351 694.375 86.6283V167.266C694.375 167.559 694.147 167.787 693.886 167.787H675.897C675.636 167.787 675.408 167.559 675.408 167.266V119.567C675.408 119.014 674.691 118.851 674.463 119.372L656.115 156.612C656.05 156.807 655.855 156.905 655.659 156.905H645.361C645.165 156.905 645.002 156.807 644.937 156.612L626.557 119.111C626.329 118.623 625.612 118.785 625.612 119.339V167.298C625.612 167.591 625.384 167.819 625.123 167.819H607.134C606.873 167.819 606.645 167.591 606.645 167.298V86.6609C606.645 86.3677 606.873 86.1396 607.134 86.1396H630.761C630.956 86.1396 631.119 86.2374 631.217 86.4329L650.412 127.843L650.38 127.778Z" fill="#0A0A0A"/>
<path fill-rule="evenodd" clip-rule="evenodd" d="M386.506 148.499C397.358 148.499 406.157 139.279 406.157 127.908C406.157 116.538 397.358 107.317 386.506 107.317C375.653 107.317 365.616 116.538 365.616 127.908C365.616 139.279 375.653 148.499 386.506 148.499ZM386.506 169.84C409.546 169.84 428.22 152.051 428.22 127.876C428.22 103.701 409.546 85.4883 386.506 85.4883C363.465 85.4883 344.791 103.701 344.791 127.876C344.791 152.051 363.465 169.84 386.506 169.84Z" fill="#FF197A"/>
<path fill-rule="evenodd" clip-rule="evenodd" d="M386.504 69.1649C374.804 69.1649 363.92 72.8465 354.86 79.1346C354.632 79.2975 354.306 79.2323 354.175 79.0043L342.378 60.6613C342.248 60.4333 342.28 60.1074 342.508 59.9445C355.12 51.1477 370.242 46 386.504 46C402.766 46 417.887 51.1477 430.499 59.9445C430.728 60.1074 430.793 60.4007 430.63 60.6613L418.832 79.0043C418.67 79.2323 418.376 79.2975 418.148 79.1346C409.088 72.8465 398.236 69.1649 386.504 69.1649Z" fill="#FF197A"/>
<path d="M720.446 85.1397C709.667 85.1397 700.893 76.3656 700.893 65.5861C700.893 54.8066 709.667 46.0325 720.446 46.0325C731.226 46.0325 740 54.8066 740 65.5861C740 76.3656 731.226 85.1397 720.446 85.1397ZM720.446 50.0435C711.873 50.0435 704.904 57.0126 704.904 65.5861C704.904 74.1596 711.873 81.1287 720.446 81.1287C729.02 81.1287 735.989 74.1596 735.989 65.5861C735.989 57.0126 729.02 50.0435 720.446 50.0435Z" fill="#0A0A0A"/>
<path d="M717.338 65.1348H721.148C721.9 65.1348 722.502 64.8841 723.053 64.3828C723.605 63.8814 723.856 63.1293 723.856 62.2269C723.856 61.3244 723.605 60.5723 723.053 60.071C722.502 59.5195 721.9 59.2186 721.148 59.2186H717.338V65.1348ZM720.597 68.7949H717.338V75.6135H713.678V55.5586H721.249C722.201 55.5586 723.104 55.709 723.856 56.06C724.658 56.3608 725.31 56.812 725.861 57.4137C726.413 57.9652 726.864 58.6671 727.165 59.5195C727.466 60.3216 727.666 61.2743 727.666 62.277C727.666 63.731 727.365 64.9844 726.764 65.9872C726.162 66.9899 725.31 67.742 724.257 68.2434L728.719 75.6637H724.608L720.647 68.845L720.597 68.7949Z" fill="#0A0A0A"/>
</svg>
