<svg id="search" width="77" height="22" viewBox="0 0 77 22" fill="none" xmlns="http://www.w3.org/2000/svg">
    <path fill-rule="evenodd" clip-rule="evenodd" d="M8.7637 15.7006C12.0426 15.7006 14.7006 13.0426 14.7006 9.7637C14.7006 6.48481 12.0426 3.82675 8.7637 3.82675C5.48481 3.82675 2.82675 6.48481 2.82675 9.7637C2.82675 13.0426 5.48481 15.7006 8.7637 15.7006ZM8.7637 17.5274C13.0515 17.5274 16.5274 14.0515 16.5274 9.7637C16.5274 5.47593 13.0515 2 8.7637 2C4.47593 2 1 5.47593 1 9.7637C1 14.0515 4.47593 17.5274 8.7637 17.5274Z" fill="white"/>
    <path fill-rule="evenodd" clip-rule="evenodd" d="M17.7083 20L13.1414 15.4331L14.4331 14.1414L19 18.7083L17.7083 20Z" fill="white"/>
    <path d="M29.392 6.3H38.192V17.5H36.496V7.868H31.088V17.5H29.392V6.3ZM44.4101 17.724C43.8021 17.724 43.2421 17.6173 42.7301 17.404C42.2181 17.1907 41.7755 16.8973 41.4021 16.524C41.0395 16.14 40.7515 15.692 40.5381 15.18C40.3355 14.668 40.2341 14.108 40.2341 13.5C40.2341 12.892 40.3355 12.332 40.5381 11.82C40.7515 11.308 41.0395 10.8653 41.4021 10.492C41.7755 10.108 42.2181 9.80933 42.7301 9.596C43.2421 9.38267 43.8021 9.276 44.4101 9.276C45.0181 9.276 45.5781 9.38267 46.0901 9.596C46.6021 9.80933 47.0395 10.108 47.4021 10.492C47.7755 10.8653 48.0635 11.308 48.2661 11.82C48.4795 12.332 48.5861 12.892 48.5861 13.5C48.5861 14.108 48.4795 14.668 48.2661 15.18C48.0635 15.692 47.7755 16.14 47.4021 16.524C47.0395 16.8973 46.6021 17.1907 46.0901 17.404C45.5781 17.6173 45.0181 17.724 44.4101 17.724ZM44.4101 16.268C44.7941 16.268 45.1408 16.1987 45.4501 16.06C45.7701 15.9213 46.0421 15.7293 46.2661 15.484C46.5008 15.2387 46.6821 14.9453 46.8101 14.604C46.9381 14.2627 47.0021 13.8947 47.0021 13.5C47.0021 13.0947 46.9381 12.7267 46.8101 12.396C46.6821 12.0547 46.5008 11.7613 46.2661 11.516C46.0421 11.2707 45.7701 11.0787 45.4501 10.94C45.1408 10.8013 44.7941 10.732 44.4101 10.732C44.0261 10.732 43.6741 10.8013 43.3541 10.94C43.0448 11.0787 42.7728 11.2707 42.5381 11.516C42.3141 11.7613 42.1381 12.0547 42.0101 12.396C41.8821 12.7267 41.8181 13.0947 41.8181 13.5C41.8181 13.8947 41.8821 14.2627 42.0101 14.604C42.1381 14.9453 42.3141 15.2387 42.5381 15.484C42.7728 15.7293 43.0448 15.9213 43.3541 16.06C43.6741 16.1987 44.0261 16.268 44.4101 16.268ZM51.9849 9.5V15.244L55.8729 9.5H57.4249V17.5H55.8729V11.756L52.0009 17.5H50.4329V9.5H51.9849ZM63.3945 17.724C62.7758 17.724 62.2105 17.6227 61.6985 17.42C61.1865 17.2067 60.7438 16.9133 60.3705 16.54C60.0078 16.156 59.7252 15.708 59.5225 15.196C59.3198 14.6733 59.2185 14.108 59.2185 13.5C59.2185 12.892 59.3198 12.332 59.5225 11.82C59.7252 11.2973 60.0078 10.8493 60.3705 10.476C60.7438 10.092 61.1865 9.79867 61.6985 9.596C62.2105 9.38267 62.7758 9.276 63.3945 9.276C64.2158 9.276 64.9305 9.46267 65.5385 9.836C66.1465 10.2093 66.6212 10.748 66.9625 11.452L65.6185 12.172C65.1812 11.212 64.4452 10.732 63.4105 10.732C63.0265 10.732 62.6745 10.8013 62.3545 10.94C62.0345 11.0787 61.7572 11.2707 61.5225 11.516C61.2985 11.7613 61.1225 12.0547 60.9945 12.396C60.8665 12.7267 60.8025 13.0947 60.8025 13.5C60.8025 13.8947 60.8665 14.2627 60.9945 14.604C61.1225 14.9453 61.2985 15.2387 61.5225 15.484C61.7572 15.7293 62.0345 15.9213 62.3545 16.06C62.6745 16.1987 63.0265 16.268 63.4105 16.268C64.4452 16.268 65.1812 15.788 65.6185 14.828L66.9625 15.548C66.6212 16.252 66.1465 16.7907 65.5385 17.164C64.9305 17.5373 64.2158 17.724 63.3945 17.724ZM71.4821 14.06H70.2661V17.5H68.7141V9.5H70.2661V12.668H71.4821L73.9781 9.5H75.7061L72.6661 13.292L75.7701 17.5H73.9781L71.4821 14.06Z" fill="white"/>
  </svg>