<?xml version="1.0" encoding="UTF-8"?>
<svg viewBox="0 0 500 500" xmlns="http://www.w3.org/2000/svg" xmlns:xlink="http://www.w3.org/1999/xlink">
	<style>:root>svg{display:none}:root>svg:target{display:block}</style>
  <svg id="logo" width="93" height="46" viewBox="0 0 93 46" fill="none" xmlns="http://www.w3.org/2000/svg">
    <path d="M71.6529 8.43261C71.7122 8.43261 71.7602 8.48066 71.7602 8.53994V25.5581C71.7602 25.6174 71.7122 25.6654 71.6529 25.6654H67.2739C67.2146 25.6654 67.1665 25.6174 67.1665 25.5581V18.6459C67.1665 18.5867 67.1184 18.5386 67.0591 18.5386H60.3479C60.2886 18.5386 60.2405 18.5867 60.2405 18.6459V25.5581C60.2405 25.6174 60.1924 25.6654 60.1331 25.6654H55.7541C55.6948 25.6654 55.6467 25.6174 55.6467 25.5581V8.53994C55.6467 8.48066 55.6948 8.43261 55.7541 8.43261H60.1331C60.1924 8.43261 60.2405 8.48066 60.2405 8.53994V14.329C60.2405 14.3883 60.2886 14.4363 60.3479 14.4363H67.0591C67.1184 14.4363 67.1665 14.3883 67.1665 14.329V8.53994C67.1665 8.48066 67.2146 8.43261 67.2739 8.43261H71.6529Z" fill="#FAFAFA"/>
    <path d="M47.4935 16.7038C47.4674 16.7408 47.4674 16.7902 47.4934 16.8272L53.5858 25.4963C53.6358 25.5674 53.5849 25.6653 53.498 25.6653H48.4978C48.4614 25.6653 48.4275 25.6469 48.4077 25.6164L44.7839 20.0331C44.7415 19.9679 44.646 19.9679 44.6037 20.0331L40.9799 25.6164C40.9601 25.6469 40.9262 25.6653 40.8898 25.6653H35.9603C35.8733 25.6653 35.8225 25.5674 35.8724 25.4963L41.9649 16.8272C41.9909 16.7901 41.9909 16.7408 41.9649 16.7038L36.2751 8.60161C36.2251 8.53048 36.276 8.43261 36.363 8.43261H41.2222C41.2584 8.43261 41.2922 8.45082 41.312 8.48106L44.6749 13.6044C44.7172 13.6689 44.8119 13.669 44.8543 13.6045L48.229 8.48092C48.2488 8.45076 48.2825 8.43261 48.3187 8.43261H53.1071C53.1941 8.43261 53.245 8.53058 53.1949 8.60169L47.4935 16.7038Z" fill="#FAFAFA"/>
    <path d="M22.2844 14.6806C22.2636 14.7486 22.315 14.8166 22.3862 14.8166H30.6515C30.7182 14.8166 30.7689 14.7562 30.7557 14.6908C30.5588 13.7147 30.1097 12.9354 29.4084 12.3527C28.7 11.7451 27.7859 11.4414 26.6662 11.4414C25.5694 11.4414 24.6325 11.7451 23.8555 12.3527C23.1122 12.9124 22.5885 13.6883 22.2844 14.6806ZM26.9404 25.6172C25.5922 25.6172 24.3468 25.4035 23.2043 24.9759C22.0845 24.5259 21.1134 23.9071 20.2907 23.1196C19.4909 22.332 18.8625 21.387 18.4055 20.2844C17.9713 19.1818 17.7542 17.978 17.7542 16.6729C17.7542 15.3453 17.9827 14.1415 18.4398 13.0615C18.8968 11.9589 19.5252 11.0251 20.325 10.26C21.1248 9.47249 22.0731 8.86496 23.17 8.43743C24.2668 8.00991 25.4665 7.79614 26.7691 7.79614C28.0487 7.79614 29.2027 7.99865 30.231 8.40368C31.2822 8.8087 32.1734 9.38249 32.9046 10.125C33.6359 10.8676 34.2071 11.7564 34.6185 12.7914C35.0298 13.804 35.2355 14.9291 35.2355 16.1666C35.2355 16.4142 35.224 16.6842 35.2012 16.9767C35.1804 17.2429 35.1501 17.6223 35.1104 17.9428C35.1038 17.9961 35.0583 18.0358 35.0045 18.0358H22.2595C22.1963 18.0358 22.1466 18.0902 22.1547 18.1529C22.2917 19.2101 22.9371 20.1178 23.7527 20.7907C24.5982 21.4882 25.6722 21.837 26.9747 21.837C27.9345 21.837 28.78 21.6457 29.5112 21.2632C30.2312 20.8765 30.8157 20.3155 31.2649 19.5802C31.2988 19.5246 31.3736 19.51 31.425 19.55L34.3659 21.8412C34.4113 21.8766 34.4207 21.9415 34.3868 21.988C33.5292 23.1619 32.4752 24.0566 31.2251 24.6722C29.9682 25.3022 28.54 25.6172 26.9404 25.6172Z" fill="#FAFAFA"/>
    <path d="M16.1249 8.43261C16.1842 8.43261 16.2323 8.48066 16.2323 8.53994V12.7757C16.2323 12.835 16.1842 12.8831 16.1249 12.8831H10.7396C10.6803 12.8831 10.6322 12.9311 10.6322 12.9904V25.5051C10.6322 25.5643 10.5842 25.6124 10.5249 25.6124H6.18175C6.12244 25.6124 6.07437 25.5643 6.07437 25.5051V12.9904C6.07437 12.9311 6.02629 12.8831 5.96699 12.8831H0.60738C0.548075 12.8831 0.5 12.835 0.5 12.7757V8.53994C0.5 8.48066 0.548076 8.43261 0.60738 8.43261H16.1249Z" fill="#FAFAFA"/>
    <path d="M42.6914 45.9995C40.8026 45.9995 39.2053 45.6498 37.8995 44.9503C36.6449 44.244 35.6358 43.2031 34.8721 41.8275C34.8437 41.7764 34.8621 41.7121 34.9129 41.6833L38.1161 39.862C38.1695 39.8316 38.2374 39.8522 38.266 39.9066C38.7243 40.7795 39.3017 41.4116 39.9981 41.8029C40.721 42.209 41.5721 42.4121 42.5515 42.4121C43.5542 42.4121 44.382 42.2316 45.0349 41.8706C45.6878 41.487 46.0142 40.9907 46.0142 40.3815C46.0142 39.8625 45.7811 39.4564 45.3147 39.1631C44.8483 38.8698 44.2071 38.7232 43.3909 38.7232H40.2198C40.1605 38.7232 40.1124 38.6751 40.1124 38.6158V35.2769C40.1124 35.2177 40.1605 35.1696 40.2198 35.1696L43.4609 35.1696C44.1604 35.1696 44.7084 35.0342 45.1048 34.7635C45.5012 34.4702 45.6994 34.0753 45.6994 33.579C45.6994 32.9923 45.4196 32.5298 44.86 32.1914C44.3237 31.8304 43.5891 31.6499 42.6564 31.6499C40.8546 31.6499 39.5547 32.3946 38.7568 33.884C38.7276 33.9384 38.659 33.9588 38.6057 33.9276L35.4373 32.0754C35.3867 32.0459 35.3691 31.9811 35.3985 31.9305C36.1166 30.6899 37.0902 29.7503 38.3192 29.1116C39.5784 28.4573 41.0824 28.1302 42.8313 28.1302C43.8806 28.1302 44.8367 28.2543 45.6994 28.5025C46.5855 28.7281 47.3434 29.0665 47.973 29.5178C48.6026 29.9464 49.0806 30.4767 49.407 31.1084C49.7568 31.7401 49.9317 32.4396 49.9317 33.2067C49.9317 34.0866 49.6869 34.8312 49.1972 35.4403C48.7722 35.9954 48.115 36.4849 47.2254 36.9089C47.1351 36.9519 47.1441 37.0874 47.239 37.1191C49.2673 37.7964 50.2815 39.0418 50.2815 40.8553C50.2815 41.6224 50.0949 42.3331 49.7218 42.9874C49.3488 43.6192 48.8241 44.1607 48.1479 44.6119C47.4716 45.0406 46.6672 45.379 45.7344 45.6272C44.825 45.8754 43.8107 45.9995 42.6914 45.9995Z" fill="#FAFAFA"/>
    <path d="M56.7219 45.8429C56.6849 45.9143 56.7368 45.9995 56.8172 45.9995L61.7508 45.9995C61.79 45.9995 61.8261 45.9782 61.8449 45.9439L71.2036 28.9274C71.243 28.8559 71.1912 28.7684 71.1095 28.7684L66.2001 28.7684C66.1593 28.7684 66.1221 28.7915 66.1039 28.828L62.0943 36.9027C62.058 36.9757 61.9568 36.9833 61.9101 36.9164L56.2488 28.8142C56.2287 28.7855 56.1958 28.7684 56.1608 28.7684H51.4292C51.3435 28.7684 51.2924 28.8637 51.3397 28.9351L59.2462 40.8414C59.2677 40.8738 59.27 40.9154 59.2521 40.95L56.7219 45.8429Z" fill="#FAFAFA"/>
    <path d="M82.5332 37.5662C82.5731 37.6493 82.6181 37.6509 82.6545 37.5662L86.8509 28.8334C86.8678 28.7939 86.9066 28.7684 86.9495 28.7684H92.045C92.1043 28.7684 92.1523 28.8164 92.1523 28.8757V45.8921C92.1523 45.9514 92.1043 45.9995 92.045 45.9995H88.1112C88.0519 45.9995 88.0038 45.9514 88.0038 45.8921V35.8221C88.0038 35.7059 87.8448 35.6725 87.7981 35.7789L83.7816 43.6354C83.7644 43.6744 83.7258 43.6995 83.6832 43.6995H81.4294C81.3886 43.6995 81.3512 43.6763 81.3331 43.6397L77.312 35.7237C77.2618 35.6219 77.1083 35.6576 77.1083 35.7712V45.8921C77.1083 45.9514 77.0603 45.9995 77.001 45.9995H73.0672C73.0079 45.9995 72.9598 45.9514 72.9598 45.8921V28.8757C72.9598 28.8164 73.0079 28.7684 73.0672 28.7684H78.2361C78.2774 28.7684 78.315 28.792 78.3329 28.8293L82.5332 37.5662Z" fill="#FAFAFA"/>
    <path fill-rule="evenodd" clip-rule="evenodd" d="M82.8912 21.6237C85.2643 21.6237 87.188 19.6768 87.188 17.2752C87.188 14.8735 85.2643 12.9266 82.8912 12.9266C80.5182 12.9266 78.5944 14.8735 78.5944 17.2752C78.5944 19.6768 80.5182 21.6237 82.8912 21.6237ZM82.8912 26.5084C87.9299 26.5084 92.0145 22.3746 92.0145 17.2752C92.0145 12.1758 87.9299 8.04189 82.8912 8.04189C77.8526 8.04189 73.7679 12.1758 73.7679 17.2752C73.7679 22.3746 77.8526 26.5084 82.8912 26.5084Z" fill="#FF197A"/>
    <path fill-rule="evenodd" clip-rule="evenodd" d="M82.8324 4.8847C80.2716 4.8847 77.8967 5.65912 75.915 6.98885C75.8654 7.02216 75.798 7.00914 75.7648 6.95943L73.1824 3.09026C73.1497 3.04135 73.1625 2.97527 73.2112 2.94238C75.9663 1.08354 79.2779 0 82.8324 0C86.3869 0 89.6985 1.08354 92.4535 2.94238C92.5023 2.97527 92.5151 3.04135 92.4824 3.09026L89.9 6.95943C89.8668 7.00914 89.7994 7.02216 89.7498 6.98885C87.7681 5.65912 85.3932 4.8847 82.8324 4.8847Z" fill="#FF197A"/>
  </svg>


  <svg id="logo-map" width="74" height="46" viewBox="0 0 74 46" fill="none" xmlns="http://www.w3.org/2000/svg">
    <path d="M39.0564 43.9464C39.0564 45.0806 38.1361 46 37.0009 46C35.8656 46 34.9453 45.0806 34.9453 43.9464C34.9453 42.8123 35.8656 41.8929 37.0009 41.8929C38.1361 41.8929 39.0564 42.8123 39.0564 43.9464Z" fill="#101010"/>
    <path d="M36.9988 39.4285C35.9281 36.7545 34.0652 34.472 31.6599 32.8874L31.3023 32.6517L42.6953 32.6517L42.3376 32.8874C39.9324 34.472 38.0694 36.7545 36.9988 39.4285Z" fill="#101010"/>
    <g clip-path="url(#clip0_1292_6314)">
      <path d="M16.28 0H57.72C59.8579 0 61.9749 0.424935 63.9501 1.25054C65.9253 2.07615 67.72 3.28626 69.2317 4.81179C70.7434 6.33731 71.9426 8.14838 72.7608 10.1416C73.5789 12.1348 74 14.2711 74 16.4285C74 18.5859 73.5789 20.7222 72.7608 22.7154C71.9426 24.7086 70.7434 26.5196 69.2317 28.0452C67.72 29.5707 65.9253 30.7808 63.9501 31.6064C61.9749 32.432 59.8579 32.857 57.72 32.857H16.28C11.9623 32.857 7.82139 31.1261 4.7683 28.0452C1.71521 24.9642 0 20.7856 0 16.4285C0 12.0714 1.71521 7.89273 4.7683 4.81179C7.82139 1.73085 11.9623 0 16.28 0Z" fill="#101010"/>
      <path d="M47.9459 9.75178C47.972 9.75178 47.9933 9.77302 47.9933 9.79922V17.3214C47.9933 17.3476 47.972 17.3688 47.9459 17.3688H46.0132C45.987 17.3688 45.9658 17.3476 45.9658 17.3214V14.2662C45.9658 14.24 45.9446 14.2187 45.9184 14.2187H42.9565C42.9303 14.2187 42.9091 14.24 42.9091 14.2662V17.3214C42.9091 17.3476 42.8879 17.3688 42.8617 17.3688H40.9291C40.9029 17.3688 40.8817 17.3476 40.8817 17.3214V9.79922C40.8817 9.77302 40.9029 9.75178 40.9291 9.75178H42.8617C42.8879 9.75178 42.9091 9.77302 42.9091 9.79922V12.358C42.9091 12.3842 42.9303 12.4055 42.9565 12.4055H45.9184C45.9446 12.4055 45.9658 12.3842 45.9658 12.358V9.79922C45.9658 9.77302 45.987 9.75178 46.0132 9.75178H47.9459Z" fill="#FAFAFA"/>
      <path d="M37.2833 13.4077C37.2718 13.4241 37.2718 13.4459 37.2833 13.4623L39.9721 17.2941C39.9942 17.3255 39.9717 17.3688 39.9333 17.3688H37.7265C37.7105 17.3688 37.6955 17.3606 37.6868 17.3472L36.0874 14.8793C36.0687 14.8505 36.0266 14.8505 36.0079 14.8793L34.4085 17.3472C34.3998 17.3606 34.3848 17.3688 34.3688 17.3688H32.1932C32.1548 17.3688 32.1323 17.3255 32.1544 17.2941L34.8432 13.4622C34.8547 13.4459 34.8547 13.4241 34.8433 13.4077L32.3321 9.82648C32.3101 9.79504 32.3325 9.75178 32.3709 9.75178H34.5155C34.5315 9.75178 34.5464 9.75983 34.5551 9.7732L36.0393 12.0377C36.058 12.0663 36.0997 12.0663 36.1185 12.0378L37.6079 9.77314C37.6166 9.75981 37.6315 9.75178 37.6475 9.75178H39.7608C39.7992 9.75178 39.8217 9.79509 39.7996 9.82652L37.2833 13.4077Z" fill="#FAFAFA"/>
      <path d="M26.1574 12.5134C26.1482 12.5435 26.1709 12.5735 26.2023 12.5735H29.8501C29.8796 12.5735 29.902 12.5469 29.8961 12.5179C29.8093 12.0865 29.6111 11.742 29.3015 11.4845C28.9889 11.2159 28.5855 11.0817 28.0913 11.0817C27.6072 11.0817 27.1937 11.2159 26.8508 11.4845C26.5227 11.7319 26.2916 12.0749 26.1574 12.5134ZM28.2123 17.3475C27.6173 17.3475 27.0676 17.253 26.5634 17.0641C26.0692 16.8651 25.6406 16.5916 25.2775 16.2435C24.9245 15.8954 24.6472 15.4777 24.4454 14.9904C24.2538 14.503 24.158 13.9709 24.158 13.3941C24.158 12.8073 24.2589 12.2752 24.4606 11.7978C24.6623 11.3104 24.9396 10.8977 25.2926 10.5595C25.6456 10.2114 26.0641 9.94288 26.5482 9.75391C27.0323 9.56494 27.5618 9.47046 28.1367 9.47046C28.7014 9.47046 29.2107 9.55997 29.6646 9.73899C30.1285 9.91802 30.5218 10.1716 30.8446 10.4998C31.1673 10.8281 31.4194 11.2209 31.601 11.6784C31.7825 12.126 31.8733 12.6233 31.8733 13.1703C31.8733 13.2797 31.8682 13.399 31.8581 13.5283C31.849 13.646 31.8356 13.8137 31.8181 13.9554C31.8151 13.9789 31.7951 13.9965 31.7713 13.9965H26.1464C26.1185 13.9965 26.0966 14.0205 26.1001 14.0482C26.1606 14.5155 26.4455 14.9167 26.8054 15.2141C27.1786 15.5225 27.6526 15.6766 28.2274 15.6766C28.651 15.6766 29.0242 15.5921 29.3469 15.423C29.6646 15.2521 29.9226 15.0041 30.1209 14.6791C30.1358 14.6545 30.1689 14.6481 30.1915 14.6658L31.4895 15.6785C31.5095 15.6941 31.5137 15.7228 31.4987 15.7434C31.1202 16.2623 30.6551 16.6577 30.1033 16.9298C29.5486 17.2083 28.9183 17.3475 28.2123 17.3475Z" fill="#FAFAFA"/>
      <path d="M23.4389 9.75178C23.4651 9.75178 23.4863 9.77302 23.4863 9.79922V11.6715C23.4863 11.6977 23.4651 11.7189 23.4389 11.7189H21.0622C21.036 11.7189 21.0148 11.7402 21.0148 11.7664V17.2979C21.0148 17.3241 20.9936 17.3454 20.9674 17.3454H19.0506C19.0244 17.3454 19.0032 17.3241 19.0032 17.2979V11.7664C19.0032 11.7402 18.982 11.7189 18.9558 11.7189H16.5904C16.5642 11.7189 16.543 11.6977 16.543 11.6715V9.79922C16.543 9.77302 16.5642 9.75178 16.5904 9.75178H23.4389Z" fill="#FAFAFA"/>
      <path d="M35.1639 26.3566C34.3303 26.3566 33.6253 26.2021 33.049 25.8929C32.4953 25.5807 32.0499 25.1206 31.7129 24.5126C31.7004 24.49 31.7085 24.4616 31.7309 24.4488L33.1446 23.6438C33.1682 23.6304 33.1982 23.6395 33.2108 23.6635C33.413 24.0494 33.6679 24.3288 33.9752 24.5017C34.2943 24.6812 34.6699 24.771 35.1021 24.771C35.5447 24.771 35.91 24.6912 36.1982 24.5316C36.4863 24.3621 36.6304 24.1427 36.6304 23.8734C36.6304 23.6441 36.5275 23.4646 36.3217 23.3349C36.1158 23.2053 35.8328 23.1404 35.4726 23.1404H34.0731C34.0469 23.1404 34.0257 23.1192 34.0257 23.093V21.6172C34.0257 21.591 34.0469 21.5697 34.0731 21.5697L35.5035 21.5697C35.8122 21.5697 36.0541 21.5099 36.2291 21.3902C36.404 21.2606 36.4915 21.0861 36.4915 20.8667C36.4915 20.6074 36.368 20.4029 36.121 20.2533C35.8843 20.0938 35.5601 20.014 35.1485 20.014C34.3532 20.014 33.7795 20.3432 33.4274 21.0015C33.4145 21.0255 33.3842 21.0346 33.3607 21.0208L31.9623 20.2021C31.94 20.189 31.9323 20.1604 31.9452 20.138C32.2621 19.5897 32.6918 19.1744 33.2343 18.8921C33.79 18.6029 34.4538 18.4583 35.2256 18.4583C35.6888 18.4583 36.1107 18.5131 36.4915 18.6228C36.8825 18.7225 37.217 18.8721 37.4949 19.0716C37.7728 19.2611 37.9837 19.4954 38.1278 19.7747C38.2822 20.0539 38.3594 20.363 38.3594 20.7021C38.3594 21.0911 38.2513 21.4202 38.0352 21.6894C37.8476 21.9348 37.5576 22.1511 37.1649 22.3385C37.1251 22.3575 37.1291 22.4174 37.171 22.4314C38.0661 22.7308 38.5137 23.2813 38.5137 24.0829C38.5137 24.4219 38.4314 24.7361 38.2667 25.0253C38.1021 25.3045 37.8705 25.5439 37.5721 25.7433C37.2736 25.9328 36.9186 26.0824 36.5069 26.1921C36.1056 26.3018 35.6579 26.3566 35.1639 26.3566Z" fill="#FAFAFA"/>
      <path d="M41.3562 26.2874C41.3399 26.319 41.3627 26.3566 41.3983 26.3566L43.5757 26.3566C43.593 26.3566 43.6089 26.3472 43.6172 26.3321L47.7476 18.8106C47.765 18.779 47.7421 18.7403 47.7061 18.7403L45.5393 18.7403C45.5213 18.7403 45.5049 18.7506 45.4969 18.7667L43.7272 22.3358C43.7112 22.3681 43.6665 22.3714 43.6459 22.3419L41.1474 18.7606C41.1385 18.7479 41.124 18.7403 41.1085 18.7403H39.0203C38.9825 18.7403 38.9599 18.7825 38.9808 18.814L42.4703 24.0767C42.4798 24.0911 42.4808 24.1094 42.4729 24.1247L41.3562 26.2874Z" fill="#FAFAFA"/>
      <path d="M52.7479 22.6291C52.7655 22.6658 52.7853 22.6665 52.8014 22.6291L54.6534 18.7691C54.6609 18.7517 54.678 18.7403 54.697 18.7403H56.9458C56.972 18.7403 56.9932 18.7616 56.9932 18.7878V26.3092C56.9932 26.3354 56.972 26.3566 56.9458 26.3566H55.2096C55.1835 26.3566 55.1623 26.3354 55.1623 26.3092V21.8581C55.1623 21.8068 55.0921 21.792 55.0715 21.8391L53.2988 25.3117C53.2912 25.3289 53.2742 25.34 53.2554 25.34H52.2607C52.2427 25.34 52.2262 25.3298 52.2182 25.3136L50.4435 21.8147C50.4213 21.7697 50.3536 21.7855 50.3536 21.8357V26.3092C50.3536 26.3354 50.3324 26.3566 50.3062 26.3566H48.5701C48.5439 26.3566 48.5227 26.3354 48.5227 26.3092V18.7878C48.5227 18.7616 48.5439 18.7403 48.5701 18.7403H50.8513C50.8696 18.7403 50.8862 18.7508 50.8941 18.7673L52.7479 22.6291Z" fill="#FAFAFA"/>
      <path fill-rule="evenodd" clip-rule="evenodd" d="M52.9062 15.5823C53.9535 15.5823 54.8026 14.7218 54.8026 13.6602C54.8026 12.5987 53.9535 11.7381 52.9062 11.7381C51.8589 11.7381 51.0098 12.5987 51.0098 13.6602C51.0098 14.7218 51.8589 15.5823 52.9062 15.5823ZM52.9062 17.7414C55.13 17.7414 56.9327 15.9142 56.9327 13.6602C56.9327 11.4063 55.13 9.57905 52.9062 9.57905C50.6824 9.57905 48.8797 11.4063 48.8797 13.6602C48.8797 15.9142 50.6824 17.7414 52.9062 17.7414Z" fill="#FF197A"/>
      <path fill-rule="evenodd" clip-rule="evenodd" d="M52.8802 8.18355C51.7501 8.18355 50.7019 8.52585 49.8273 9.1136C49.8054 9.12833 49.7757 9.12257 49.761 9.1006L48.6213 7.39039C48.6068 7.36878 48.6125 7.33957 48.634 7.32503C49.8499 6.50341 51.3115 6.02448 52.8802 6.02448C54.449 6.02448 55.9106 6.50341 57.1265 7.32503C57.148 7.33957 57.1536 7.36878 57.1392 7.39039L55.9995 9.1006C55.9848 9.12257 55.9551 9.12833 55.9332 9.1136C55.0586 8.52585 54.0104 8.18355 52.8802 8.18355Z" fill="#FF197A"/>
    </g>
    <defs>
      <clipPath id="clip0_1292_6314">
        <rect width="74" height="32.857" fill="white"/>
      </clipPath>
    </defs>
  </svg>

  <svg id="menu-black" width="16" height="14" viewBox="0 0 16 14" fill="none" xmlns="http://www.w3.org/2000/svg">
    <path d="M0.272949 11.5458H15.7275V13.364H0.272949L0.272949 11.5458Z" fill="#0A0A0A"/>
    <path d="M0.272949 6.09126H15.7275V7.90945H8.00022H0.272949L0.272949 6.09126Z" fill="#0A0A0A"/>
    <path d="M0.272949 0.636719H15.7275V2.4549H0.272949L0.272949 0.636719Z" fill="#0A0A0A"/>
  </svg>
  
  <svg id="menu-white" width="16" height="16" viewBox="0 0 16 16" fill="none" xmlns="http://www.w3.org/2000/svg">
    <path d="M1.81824 11.6363H14.1819V13.0909H1.81824L1.81824 11.6363Z" fill="#FAFAFA"/>
    <path d="M1.81824 7.27269H14.1819V8.72724H8.00006H1.81824L1.81824 7.27269Z" fill="#FAFAFA"/>
    <path d="M1.81824 2.90906H14.1819V4.3636H1.81824L1.81824 2.90906Z" fill="#FAFAFA"/>
  </svg>

  <svg id="search" width="77" height="22" viewBox="0 0 77 22" fill="none" xmlns="http://www.w3.org/2000/svg">
    <path fill-rule="evenodd" clip-rule="evenodd" d="M8.7637 15.7006C12.0426 15.7006 14.7006 13.0426 14.7006 9.7637C14.7006 6.48481 12.0426 3.82675 8.7637 3.82675C5.48481 3.82675 2.82675 6.48481 2.82675 9.7637C2.82675 13.0426 5.48481 15.7006 8.7637 15.7006ZM8.7637 17.5274C13.0515 17.5274 16.5274 14.0515 16.5274 9.7637C16.5274 5.47593 13.0515 2 8.7637 2C4.47593 2 1 5.47593 1 9.7637C1 14.0515 4.47593 17.5274 8.7637 17.5274Z" fill="white"/>
    <path fill-rule="evenodd" clip-rule="evenodd" d="M17.7083 20L13.1414 15.4331L14.4331 14.1414L19 18.7083L17.7083 20Z" fill="white"/>
    <path d="M29.392 6.3H38.192V17.5H36.496V7.868H31.088V17.5H29.392V6.3ZM44.4101 17.724C43.8021 17.724 43.2421 17.6173 42.7301 17.404C42.2181 17.1907 41.7755 16.8973 41.4021 16.524C41.0395 16.14 40.7515 15.692 40.5381 15.18C40.3355 14.668 40.2341 14.108 40.2341 13.5C40.2341 12.892 40.3355 12.332 40.5381 11.82C40.7515 11.308 41.0395 10.8653 41.4021 10.492C41.7755 10.108 42.2181 9.80933 42.7301 9.596C43.2421 9.38267 43.8021 9.276 44.4101 9.276C45.0181 9.276 45.5781 9.38267 46.0901 9.596C46.6021 9.80933 47.0395 10.108 47.4021 10.492C47.7755 10.8653 48.0635 11.308 48.2661 11.82C48.4795 12.332 48.5861 12.892 48.5861 13.5C48.5861 14.108 48.4795 14.668 48.2661 15.18C48.0635 15.692 47.7755 16.14 47.4021 16.524C47.0395 16.8973 46.6021 17.1907 46.0901 17.404C45.5781 17.6173 45.0181 17.724 44.4101 17.724ZM44.4101 16.268C44.7941 16.268 45.1408 16.1987 45.4501 16.06C45.7701 15.9213 46.0421 15.7293 46.2661 15.484C46.5008 15.2387 46.6821 14.9453 46.8101 14.604C46.9381 14.2627 47.0021 13.8947 47.0021 13.5C47.0021 13.0947 46.9381 12.7267 46.8101 12.396C46.6821 12.0547 46.5008 11.7613 46.2661 11.516C46.0421 11.2707 45.7701 11.0787 45.4501 10.94C45.1408 10.8013 44.7941 10.732 44.4101 10.732C44.0261 10.732 43.6741 10.8013 43.3541 10.94C43.0448 11.0787 42.7728 11.2707 42.5381 11.516C42.3141 11.7613 42.1381 12.0547 42.0101 12.396C41.8821 12.7267 41.8181 13.0947 41.8181 13.5C41.8181 13.8947 41.8821 14.2627 42.0101 14.604C42.1381 14.9453 42.3141 15.2387 42.5381 15.484C42.7728 15.7293 43.0448 15.9213 43.3541 16.06C43.6741 16.1987 44.0261 16.268 44.4101 16.268ZM51.9849 9.5V15.244L55.8729 9.5H57.4249V17.5H55.8729V11.756L52.0009 17.5H50.4329V9.5H51.9849ZM63.3945 17.724C62.7758 17.724 62.2105 17.6227 61.6985 17.42C61.1865 17.2067 60.7438 16.9133 60.3705 16.54C60.0078 16.156 59.7252 15.708 59.5225 15.196C59.3198 14.6733 59.2185 14.108 59.2185 13.5C59.2185 12.892 59.3198 12.332 59.5225 11.82C59.7252 11.2973 60.0078 10.8493 60.3705 10.476C60.7438 10.092 61.1865 9.79867 61.6985 9.596C62.2105 9.38267 62.7758 9.276 63.3945 9.276C64.2158 9.276 64.9305 9.46267 65.5385 9.836C66.1465 10.2093 66.6212 10.748 66.9625 11.452L65.6185 12.172C65.1812 11.212 64.4452 10.732 63.4105 10.732C63.0265 10.732 62.6745 10.8013 62.3545 10.94C62.0345 11.0787 61.7572 11.2707 61.5225 11.516C61.2985 11.7613 61.1225 12.0547 60.9945 12.396C60.8665 12.7267 60.8025 13.0947 60.8025 13.5C60.8025 13.8947 60.8665 14.2627 60.9945 14.604C61.1225 14.9453 61.2985 15.2387 61.5225 15.484C61.7572 15.7293 62.0345 15.9213 62.3545 16.06C62.6745 16.1987 63.0265 16.268 63.4105 16.268C64.4452 16.268 65.1812 15.788 65.6185 14.828L66.9625 15.548C66.6212 16.252 66.1465 16.7907 65.5385 17.164C64.9305 17.5373 64.2158 17.724 63.3945 17.724ZM71.4821 14.06H70.2661V17.5H68.7141V9.5H70.2661V12.668H71.4821L73.9781 9.5H75.7061L72.6661 13.292L75.7701 17.5H73.9781L71.4821 14.06Z" fill="white"/>
  </svg>

  <svg id="tzm-icon" width="16" height="16" viewBox="0 0 16 16" fill="none" xmlns="http://www.w3.org/2000/svg">
    <path fill-rule="evenodd" clip-rule="evenodd" d="M7.99996 3.19995C6.23265 3.19995 4.79996 4.63264 4.79996 6.39995C4.79996 8.16726 6.23265 9.59995 7.99996 9.59995C9.76727 9.59995 11.2 8.16726 11.2 6.39995C11.2 4.63264 9.76728 3.19995 7.99996 3.19995ZM7.99996 1.59995C5.349 1.59995 3.19996 3.74898 3.19996 6.39995C3.19996 9.05092 5.349 11.1999 7.99996 11.1999C10.6509 11.2 12.8 9.05092 12.8 6.39995C12.8 3.74899 10.6509 1.59995 7.99996 1.59995Z" fill="#FAFAFA"/>
    <path fill-rule="evenodd" clip-rule="evenodd" d="M12.2611 12.2086C12.2611 12.2086 12.2606 12.209 12.7999 12.8C13.3391 13.3909 13.3386 13.3914 13.3386 13.3914L13.3368 13.393L13.3338 13.3957L13.3258 13.4028C13.3197 13.4083 13.3117 13.4153 13.302 13.4237C13.2826 13.4404 13.2561 13.4627 13.2228 13.4898C13.1562 13.5439 13.0618 13.6171 12.9404 13.703C12.698 13.8745 12.3467 14.0975 11.8934 14.3188C10.9862 14.7618 9.66654 15.2 7.99988 15.1999C6.33322 15.1999 5.01354 14.7618 4.10634 14.3188C3.65311 14.0975 3.30174 13.8745 3.05933 13.703C2.93801 13.6171 2.84359 13.5439 2.77695 13.4898C2.74362 13.4627 2.71719 13.4404 2.69778 13.4237C2.68807 13.4153 2.68011 13.4083 2.67391 13.4028L2.66594 13.3957L2.66295 13.393L2.6617 13.3919C2.6617 13.3919 2.66062 13.3909 3.19988 12.7999C3.73914 12.209 3.73866 12.2086 3.73866 12.2086L3.73746 12.2075L3.73639 12.2065L3.74285 12.2122C3.75061 12.2188 3.76483 12.2309 3.78538 12.2476C3.82653 12.281 3.89289 12.3328 3.98355 12.3969C4.16509 12.5254 4.44246 12.7024 4.80839 12.8811C5.53952 13.2381 6.61983 13.5999 7.99988 13.5999C9.37993 13.5999 10.4602 13.2381 11.1914 12.8811C11.5573 12.7024 11.8347 12.5254 12.0162 12.3969C12.1069 12.3328 12.1732 12.281 12.2144 12.2476C12.2349 12.2309 12.2492 12.2188 12.2569 12.2122L12.2637 12.2063L12.2623 12.2075L12.2611 12.2086Z" fill="#FAFAFA"/>
  </svg>

  <svg id="heart" width="20" height="20" viewBox="0 0 20 20" fill="none" xmlns="http://www.w3.org/2000/svg">
    <path fill-rule="evenodd" clip-rule="evenodd" d="M9.4406 4.44114C8.23557 3.23715 6.48734 2.75328 4.83468 3.16645C1.40505 4.02386 0.0144269 8.14365 2.22284 10.9042L2.49967 11.2502L9.82286 18.5734C9.92049 18.6711 10.0788 18.6711 10.1764 18.5734L17.4997 11.2502L17.7765 10.9042C19.9849 8.14366 18.5943 4.02386 15.1646 3.16646C13.5121 2.75332 11.764 3.2371 10.5589 4.44092L10.5572 4.44266L9.99967 5.00021L9.44206 4.4426L9.4406 4.44114ZM16.1004 9.99781L16.3124 9.73288C17.6673 8.03919 16.8141 5.51153 14.7099 4.98547C13.6955 4.73187 12.6224 5.0291 11.883 5.76848L10.1765 7.47508C10.0788 7.57271 9.92055 7.57271 9.82292 7.47508L8.11624 5.76843C7.37688 5.02908 6.30382 4.73187 5.28943 4.98547C3.18522 5.51152 2.33202 8.03917 3.68697 9.73286L3.89893 9.99782L9.82287 15.9218C9.9205 16.0194 10.0788 16.0194 10.1764 15.9218L16.1004 9.99781Z" fill="#DBDBDB"/>
  </svg>

  <svg width="20" height="20" viewBox="0 0 20 20" fill="none" xmlns="http://www.w3.org/2000/svg">
    <path id="heart-pink" fill-rule="evenodd" clip-rule="evenodd" d="M9.4406 4.44114C8.23557 3.23715 6.48734 2.75328 4.83468 3.16645C1.40505 4.02386 0.0144269 8.14365 2.22284 10.9042L2.49967 11.2502L9.82286 18.5734C9.92049 18.6711 10.0788 18.6711 10.1764 18.5734L17.4997 11.2502L17.7765 10.9042C19.9849 8.14366 18.5943 4.02386 15.1646 3.16646C13.5121 2.75332 11.764 3.2371 10.5589 4.44092L10.5572 4.44266L9.99967 5.00021L9.44206 4.4426L9.4406 4.44114ZM16.1004 9.99781L16.3124 9.73288C17.6673 8.03919 16.8141 5.51153 14.7099 4.98547C13.6955 4.73187 12.6224 5.0291 11.883 5.76848L10.1765 7.47508C10.0788 7.57271 9.92055 7.57271 9.82292 7.47508L8.11624 5.76843C7.37688 5.02908 6.30382 4.73187 5.28943 4.98547C3.18522 5.51152 2.33202 8.03917 3.68697 9.73286L3.89893 9.99782L9.82287 15.9218C9.9205 16.0194 10.0788 16.0194 10.1764 15.9218L16.1004 9.99781Z" fill="#FF197A"/>
  </svg>

  <svg id="heart-filled" width="20" height="20" viewBox="0 0 20 20" fill="none" xmlns="http://www.w3.org/2000/svg">
    <path fill-rule="evenodd" clip-rule="evenodd" d="M9.4406 4.44114C8.23557 3.23715 6.48734 2.75328 4.83468 3.16645C1.40505 4.02386 0.0144269 8.14365 2.22284 10.9042L2.49967 11.2502L9.82286 18.5734C9.92049 18.6711 10.0788 18.6711 10.1764 18.5734L17.4997 11.2502L17.7765 10.9042C19.9849 8.14366 18.5943 4.02386 15.1646 3.16646C13.5121 2.75332 11.764 3.2371 10.5589 4.44092L10.5572 4.44266L9.99967 5.00021L9.44206 4.4426L9.4406 4.44114Z" fill="#DBDBDB"/>
  </svg>

  <svg id="heart-filled-pink" width="20" height="20" viewBox="0 0 20 20" fill="none" xmlns="http://www.w3.org/2000/svg">
    <path fill-rule="evenodd" clip-rule="evenodd" d="M9.4406 4.44114C8.23557 3.23715 6.48734 2.75328 4.83468 3.16645C1.40505 4.02386 0.0144269 8.14365 2.22284 10.9042L2.49967 11.2502L9.82286 18.5734C9.92049 18.6711 10.0788 18.6711 10.1764 18.5734L17.4997 11.2502L17.7765 10.9042C19.9849 8.14366 18.5943 4.02386 15.1646 3.16646C13.5121 2.75332 11.764 3.2371 10.5589 4.44092L10.5572 4.44266L9.99967 5.00021L9.44206 4.4426L9.4406 4.44114Z" fill="#FF197A"/>
  </svg>

  <svg id="cart-black" width="20" height="20" viewBox="0 0 20 20" fill="none" xmlns="http://www.w3.org/2000/svg">
    <g clip-path="url(#clip0_573_5715)">
      <path fill-rule="evenodd" clip-rule="evenodd" d="M4.903 6.36372L3.06024 17.2728H16.9399L15.0972 6.36372H4.903ZM16.634 4.54554H3.36618L0.90918 19.091H19.091L16.634 4.54554Z" fill="#0A0A0A"/>
      <path fill-rule="evenodd" clip-rule="evenodd" d="M11.4922 3.18122C11.1895 2.93901 10.742 2.72736 10.0001 2.72736C9.25814 2.72736 8.81071 2.93901 8.50794 3.18122C8.17666 3.44624 7.90743 3.8404 7.70106 4.33572C7.67208 4.40528 7.64496 4.47534 7.61961 4.54554H12.3806C12.3552 4.47534 12.3281 4.40528 12.2991 4.33572C12.0927 3.8404 11.8235 3.44624 11.4922 3.18122ZM14.2822 4.54554C13.865 2.95908 12.7868 0.90918 10.0001 0.90918C7.21341 0.90918 6.13516 2.95908 5.71795 4.54554C5.4546 5.54696 5.45463 6.36372 5.45463 6.36372H14.5455C14.5455 6.36372 14.5456 5.54696 14.2822 4.54554Z" fill="#0A0A0A"/>
      <path fill-rule="evenodd" clip-rule="evenodd" d="M7.72736 8.18121C7.72736 8.18121 7.72736 8.18195 6.81827 8.18191C5.90918 8.18186 5.90918 8.18268 5.90918 8.18268L5.90919 8.18566L5.90921 8.19081L5.90937 8.20512C5.90952 8.21641 5.90981 8.23118 5.91034 8.24921C5.91139 8.28522 5.91338 8.33438 5.91715 8.39482C5.92469 8.51542 5.93942 8.68261 5.96838 8.88124C6.02562 9.27385 6.14179 9.81295 6.38306 10.3645C6.62452 10.9164 7.0058 11.5132 7.60958 11.9732C8.22533 12.4423 9.01843 12.7274 10.0001 12.7274C10.9818 12.7274 11.7748 12.4423 12.3906 11.9732C12.9944 11.5132 13.3757 10.9164 13.6171 10.3645C13.8584 9.81295 13.9746 9.27385 14.0318 8.88124C14.0608 8.68261 14.0755 8.51542 14.083 8.39482C14.0868 8.33438 14.0888 8.28522 14.0898 8.24921C14.0904 8.23118 14.0907 8.21641 14.0908 8.20512L14.091 8.19081L14.091 8.18566L14.091 8.18359C14.091 8.18359 14.091 8.18186 13.1819 8.18191C12.2728 8.18195 12.2728 8.18121 12.2728 8.18121L12.2728 8.17948L12.2724 8.19628C12.2719 8.21353 12.2708 8.2425 12.2684 8.28149C12.2635 8.35976 12.2534 8.47666 12.2326 8.61894C12.1905 8.90814 12.1078 9.27813 11.9514 9.63572C11.7951 9.99286 11.5798 10.3052 11.2887 10.527C11.0095 10.7397 10.6094 10.9092 10.0001 10.9092C9.39075 10.9092 8.99063 10.7397 8.71147 10.527C8.42035 10.3052 8.20505 9.99286 8.04881 9.63572C7.89237 9.27813 7.80971 8.90814 7.76754 8.61894C7.7468 8.47666 7.73669 8.35976 7.7318 8.28149C7.72937 8.2425 7.72825 8.21353 7.72775 8.19628L7.72737 8.17955L7.72736 8.18121ZM7.72737 8.17955L7.72735 8.17827L7.72737 8.17955Z" fill="#0A0A0A"/>
    </g>
    <defs>
      <clipPath id="clip0_573_5715">
        <rect width="20" height="20" fill="white"/>
      </clipPath>
    </defs>
  </svg>

  <svg id="arrow-left" width="40" height="40" viewBox="0 0 40 40" fill="none" xmlns="http://www.w3.org/2000/svg">
    <path d="M13.9532 19.1159L27.6471 19.1159L27.6471 20.8852L21.5062 20.8852L13.9532 20.8852L13.9532 19.1159Z" fill="#0A0A0A"/>
    <path fill-rule="evenodd" clip-rule="evenodd" d="M14.6649 20.0015L18.6346 15.2589L17.2693 14.1262L12.353 19.9997L17.2684 25.8909L18.6354 24.7603L14.6649 20.0015Z" fill="#0A0A0A"/>
  </svg>

  <svg id="arrow-right" width="40" height="40" viewBox="0 0 40 40" fill="none" xmlns="http://www.w3.org/2000/svg">
    <path d="M26.0468 19.1159L12.3529 19.1159L12.3529 20.8852L18.4938 20.8852L26.0468 20.8852L26.0468 19.1159Z" fill="#0A0A0A"/>
    <path fill-rule="evenodd" clip-rule="evenodd" d="M25.3351 20.0015L21.3654 15.2589L22.7307 14.1262L27.647 19.9997L22.7316 25.8909L21.3646 24.7603L25.3351 20.0015Z" fill="#0A0A0A"/>
  </svg>

  <svg id="arrow-small-left" width="20" height="20" viewBox="0 0 20 20" fill="none" xmlns="http://www.w3.org/2000/svg">
    <path d="M3.95319 9.11589L17.6471 9.11589L17.6471 10.8852L11.5062 10.8852L3.95319 10.8852L3.95319 9.11589Z" fill="#0A0A0A"/>
    <path fill-rule="evenodd" clip-rule="evenodd" d="M4.6649 10.0015L8.63456 5.25888L7.26929 4.12616L2.35303 9.99971L7.2684 15.8909L8.63544 14.7603L4.6649 10.0015Z" fill="#0A0A0A"/>
  </svg>

  <svg id="arrow-small-right" width="20" height="20" viewBox="0 0 20 20" fill="none" xmlns="http://www.w3.org/2000/svg">
    <path d="M16.0468 9.11589L2.35285 9.11589L2.35285 10.8852L8.49378 10.8852L16.0468 10.8852L16.0468 9.11589Z" fill="#0A0A0A"/>
    <path fill-rule="evenodd" clip-rule="evenodd" d="M15.3351 10.0015L11.3654 5.25888L12.7307 4.12616L17.647 9.99971L12.7316 15.8909L11.3646 14.7603L15.3351 10.0015Z" fill="#0A0A0A"/>
  </svg>

  <svg id="arrow-small-right-pink" width="16" height="16" viewBox="0 0 16 16" fill="none" xmlns="http://www.w3.org/2000/svg">
    <path d="M12.8375 7.29271L1.88238 7.29271L1.88238 8.7082L6.79512 8.7082L12.8375 8.7082L12.8375 7.29271Z" fill="#FF197A"/>
    <path fill-rule="evenodd" clip-rule="evenodd" d="M12.2682 8.00121L9.09245 4.2071L10.1847 3.30093L14.1177 7.99977L10.1854 12.7127L9.09174 11.8082L12.2682 8.00121Z" fill="#FF197A"/>
  </svg>

  <svg id="arrow-small-left-white" width="16" height="16" viewBox="0 0 16 16" fill="none" xmlns="http://www.w3.org/2000/svg">
    <path d="M3.16294 7.29271L14.1181 7.29271L14.1181 8.7082L9.20536 8.7082L3.16294 8.7082L3.16294 7.29271Z" fill="#FAFAFA"/>
    <path fill-rule="evenodd" clip-rule="evenodd" d="M3.73231 8.00121L6.90804 4.2071L5.81582 3.30093L1.88281 7.99977L5.81511 12.7127L6.90875 11.8082L3.73231 8.00121Z" fill="#FAFAFA"/>
  </svg>

  <svg id="dot" width="6" height="6" viewBox="0 0 6 6" fill="none" xmlns="http://www.w3.org/2000/svg">
    <rect width="6" height="6" fill="#DBDBDB"/>
  </svg>

  <svg id="dot-active" width="6" height="6" viewBox="0 0 6 6" fill="none" xmlns="http://www.w3.org/2000/svg">
    <rect width="6" height="6" fill="#FF197A"/>
  </svg>

  <svg id="close" width="20" height="20" viewBox="0 0 20 20" fill="none" xmlns="http://www.w3.org/2000/svg">
    <g clip-path="url(#clip0_2994_3953)">
      <path d="M3.99991 14.9276L14.9279 3.99963L16.2136 5.28528L5.28556 16.2133L3.99991 14.9276Z" fill="#0A0A0A"/>
      <path d="M16.2135 14.9276L5.28552 3.99963L3.99987 5.28528L14.9279 16.2133L16.2135 14.9276Z" fill="#0A0A0A"/>
    </g>
    <defs>
      <clipPath id="clip0_2994_3953">
        <rect width="20" height="20" fill="white"/>
      </clipPath>
    </defs>
  </svg>

  <svg id="minus-black" width="16" height="16" viewBox="0 0 16 16" fill="none" xmlns="http://www.w3.org/2000/svg">
    <path d="M1.90332 7.35828L14.267 7.35828V8.81282L1.90332 8.81282L1.90332 7.35828Z" fill="#0A0A0A"/>
  </svg>

  <svg id="plus-black" width="16" height="16" viewBox="0 0 16 16" fill="none" xmlns="http://www.w3.org/2000/svg">
    <path d="M1.9043 7.35789L14.2679 7.35789V8.81243L1.9043 8.81243L1.9043 7.35789Z" fill="#0A0A0A"/>
    <path d="M8.81337 14.267L8.81337 1.90332H7.35882L7.35882 14.267H8.81337Z" fill="#0A0A0A"/>
  </svg>

  <svg id="minus-pink" width="20" height="20" viewBox="0 0 20 20" fill="none" xmlns="http://www.w3.org/2000/svg">
    <path d="M2.37891 9.19824L17.8335 9.19824V11.0164L2.37891 11.0164L2.37891 9.19824Z" fill="#FF197A"/>
  </svg>

  <svg id="plus-pink" width="20" height="21" viewBox="0 0 20 21" fill="none" xmlns="http://www.w3.org/2000/svg">
    <path d="M2.37891 9.69785L17.8335 9.69785V11.516L2.37891 11.516L2.37891 9.69785Z" fill="#FF197A"/>
    <path d="M11.0152 18.3342L11.0152 2.87964H9.19706L9.19706 18.3342H11.0152Z" fill="#FF197A"/>
  </svg>

  <svg id="minus-blue" width="16" height="16" viewBox="0 0 16 16" fill="none" xmlns="http://www.w3.org/2000/svg">
    <path d="M1.90332 7.3584L14.267 7.3584V8.81294L1.90332 8.81294L1.90332 7.3584Z" fill="#8123FF"/>
  </svg>

  <svg id="sorting-black" width="20" height="20" viewBox="0 0 20 20" fill="none" xmlns="http://www.w3.org/2000/svg">
    <path d="M4.73156 15.8998L4.73156 2.20588L6.50093 2.20588L6.50093 8.34681L6.50093 15.8998L4.73156 15.8998Z" fill="#0A0A0A"/>
    <path fill-rule="evenodd" clip-rule="evenodd" d="M5.61719 15.1881L2.38272 12.7266L1.25 14.0919L5.61539 17.5L9.99926 14.0919L8.86866 12.7249L5.61719 15.1881Z" fill="#0A0A0A"/>
    <path d="M15.2684 3.80597L15.2684 17.4999L13.4991 17.4999L13.4991 11.359L13.4991 3.80597L15.2684 3.80597Z" fill="#0A0A0A"/>
    <path fill-rule="evenodd" clip-rule="evenodd" d="M14.3828 4.51768L17.6173 6.97917L18.75 5.61389L14.3846 2.20581L10.0007 5.61389L11.1313 6.98094L14.3828 4.51768Z" fill="#0A0A0A"/>
  </svg>

  <svg id="filter-black" width="20" height="20" viewBox="0 0 20 20" fill="none" xmlns="http://www.w3.org/2000/svg">
    <path d="M4.80409 6.24988L4.8041 2.5L6.57346 2.5L6.57346 6.24988L4.80409 6.24988Z" fill="#0A0A0A"/>
    <path d="M1.25 4.99988L10 4.99988V6.76924L1.25 6.76924V4.99988Z" fill="#0A0A0A"/>
    <path d="M4.80402 17.7939L4.80402 8.12483H6.57339L6.57339 17.7939H4.80402Z" fill="#0A0A0A"/>
    <path d="M13.5543 17.7939L13.5543 12.903H15.3237L15.3237 17.7939H13.5543Z" fill="#0A0A0A"/>
    <path d="M10 11.5441H18.75V13.3134H10V11.5441Z" fill="#0A0A0A"/>
    <path d="M13.5544 9.89095V2.5H15.3238L15.3238 9.89095H13.5544Z" fill="#0A0A0A"/>
  </svg>

  <svg id="up-black" width="20" height="20" viewBox="0 0 20 20" fill="none" xmlns="http://www.w3.org/2000/svg">
    <path d="M9.975 6.78738L16.875 13.6874L15.5625 14.9999L9.975 9.39988L4.375 14.9999L3.0625 13.6874L9.975 6.78738Z" fill="#0A0A0A"/>
  </svg>

  <svg id="down-black" width="20" height="20" viewBox="0 0 20 20" fill="none" xmlns="http://www.w3.org/2000/svg">
    <path d="M9.96256 14.4001L3.06256 7.50006L4.37506 6.18756L9.96256 11.7876L15.5626 6.18756L16.8751 7.50006L9.96256 14.4001Z" fill="#0A0A0A"/>
  </svg>

  <svg id="up-blue" width="16" height="16" viewBox="0 0 16 16" fill="none" xmlns="http://www.w3.org/2000/svg">
    <path d="M7.98 5.43L13.5 10.95L12.45 12L7.98 7.52L3.5 12L2.45 10.95L7.98 5.43Z" fill="#8123FF"/>
  </svg>

  <svg id="down-blue" width="16" height="17" viewBox="0 0 16 17" fill="none" xmlns="http://www.w3.org/2000/svg">
    <path d="M7.97024 12.0202L2.45024 6.50024L3.50024 5.45024L7.97024 9.93024L12.4502 5.45024L13.5002 6.50024L7.97024 12.0202Z" fill="#8123FF"/>
  </svg>

  <svg id="down-pink" width="16" height="16" viewBox="0 0 16 16" fill="none" xmlns="http://www.w3.org/2000/svg">
    <path d="M7.97024 11.5202L2.45024 6.00024L3.50024 4.95024L7.97024 9.43024L12.4502 4.95024L13.5002 6.00024L7.97024 11.5202Z" fill="#FF197A"/>
  </svg>

  <svg id="check-black" width="20" height="20" viewBox="0 0 20 20" fill="none" xmlns="http://www.w3.org/2000/svg">
    <g clip-path="url(#clip0_573_5707)">
      <path fill-rule="evenodd" clip-rule="evenodd" d="M10.0001 2.41419L8.4071 3.49135C7.99831 3.76776 7.52765 3.93907 7.03682 3.99009L5.12412 4.1889L4.59619 6.03802C4.46072 6.51253 4.21028 6.9463 3.86708 7.30087L2.52966 8.68264L3.31384 10.4385C3.51507 10.8891 3.60204 11.3823 3.56705 11.8746L3.43071 13.7927L5.16006 14.6337C5.60384 14.8495 5.98753 15.1715 6.27712 15.5711L7.40565 17.1281L9.271 16.6607C9.74967 16.5408 10.2505 16.5408 10.7292 16.6607L12.5946 17.1281L13.7231 15.5711C14.0127 15.1715 14.3964 14.8495 14.8402 14.6337L16.5695 13.7927L16.4332 11.8746C16.3982 11.3823 16.4852 10.8891 16.6864 10.4385L17.4706 8.68264L16.1331 7.30087C15.7899 6.9463 15.5395 6.51253 15.404 6.03802L14.8761 4.1889L12.9634 3.99009C12.4726 3.93907 12.0019 3.76776 11.5931 3.49135L10.0001 2.41419ZM10.5603 0.378637C10.2219 0.149829 9.77835 0.14983 9.43996 0.378637L7.28681 1.83456C7.15055 1.9267 6.99366 1.9838 6.83005 2.00081L4.24479 2.26953C3.8385 2.31176 3.49874 2.59685 3.3866 2.98963L2.67304 5.48896C2.62788 5.64713 2.5444 5.79171 2.43 5.90991L0.622304 7.77753C0.338214 8.07104 0.261196 8.50783 0.427768 8.8808L1.48768 11.2541C1.55476 11.4043 1.58375 11.5687 1.57209 11.7327L1.3878 14.3254C1.35883 14.7328 1.5806 15.117 1.94794 15.2956L4.28539 16.4323C4.43331 16.5043 4.56121 16.6116 4.65774 16.7448L6.18309 18.8493C6.4228 19.18 6.83958 19.3317 7.23582 19.2325L9.75707 18.6008C9.91663 18.5608 10.0836 18.5608 10.2431 18.6008L12.7644 19.2325C13.1606 19.3317 13.5774 19.18 13.8171 18.8493L15.3425 16.7448C15.439 16.6116 15.5669 16.5043 15.7148 16.4323L18.0523 15.2956C18.4196 15.117 18.6414 14.7328 18.6124 14.3254L18.4281 11.7327C18.4165 11.5687 18.4455 11.4043 18.5125 11.2541L19.5724 8.8808C19.739 8.50783 19.662 8.07104 19.3779 7.77753L17.5702 5.90991C17.4558 5.79171 17.3723 5.64713 17.3272 5.48896L16.6136 2.98963C16.5015 2.59685 16.1617 2.31176 15.7554 2.26953L13.1702 2.00081C13.0066 1.9838 12.8497 1.9267 12.7134 1.83456L10.5603 0.378637Z" fill="#0A0A0A"/>
      <path fill-rule="evenodd" clip-rule="evenodd" d="M15.0364 7.78037L9.56731 14.4813L5.293 10.207L6.70722 8.79277L9.43291 11.5185L13.5 6.5L15.0364 7.78037Z" fill="#0A0A0A"/>
    </g>
    <defs>
      <clipPath id="clip0_573_5707">
        <rect width="20" height="20" fill="white"/>
      </clipPath>
    </defs>
  </svg>

  <svg id="check-filled-black" width="20" height="20" viewBox="0 0 20 20" fill="none" xmlns="http://www.w3.org/2000/svg">
    <path fill-rule="evenodd" clip-rule="evenodd" d="M9.36751 0.646169C9.7059 0.417362 10.1494 0.417362 10.4878 0.646169L12.641 2.10209C12.7772 2.19423 12.9341 2.25133 13.0977 2.26834L15.683 2.53706C16.0893 2.57929 16.429 2.86438 16.5412 3.25717L17.2547 5.75649C17.2999 5.91466 17.3834 6.05925 17.4978 6.17744L19.3055 8.04506C19.5896 8.33857 19.6666 8.77536 19.5 9.14833L18.4401 11.5216C18.373 11.6718 18.344 11.8362 18.3557 12.0003L18.54 14.5929C18.5689 15.0004 18.3472 15.3845 17.9798 15.5631L15.6424 16.6999C15.4945 16.7718 15.3666 16.8791 15.27 17.0123L13.7447 19.1168C13.505 19.4476 13.0882 19.5993 12.692 19.5L10.2348 18.8844C10.1408 18.8566 9.89927 18.8145 9.68462 18.8683L7.16337 19.5C6.76714 19.5993 6.35036 19.4476 6.11064 19.1168L4.58529 17.0123C4.48876 16.8791 4.36086 16.7718 4.21294 16.6999L1.87549 15.5631C1.50815 15.3845 1.28639 15.0004 1.31535 14.5929L1.49964 12.0003C1.5113 11.8362 1.48231 11.6718 1.41523 11.5216L0.355319 9.14833C0.188748 8.77536 0.265765 8.33857 0.549856 8.04506L2.35755 6.17744C2.47195 6.05925 2.55543 5.91466 2.60059 5.75649L3.31415 3.25717C3.42629 2.86438 3.76605 2.57929 4.17234 2.53706L6.7576 2.26834C6.92121 2.25133 7.0781 2.19423 7.21436 2.10209L9.36751 0.646169ZM9.2618 11.5184L6.5361 8.79272L5.12189 10.2069L9.39619 14.4812L14.8653 7.78032L13.3289 6.49995L9.2618 11.5184Z" fill="#0A0A0A"/>
  </svg>

  <svg id="check-violet" width="12" height="12" viewBox="0 0 12 12" fill="none" xmlns="http://www.w3.org/2000/svg">
    <path fill-rule="evenodd" clip-rule="evenodd" d="M5.05821 8.09948L9.26839 2.54393L10.2002 3.3001L5.14207 9.90048L1.54236 6.2396L2.39983 5.40012L5.05821 8.09948Z" fill="#8123FF"/>
  </svg>

  <svg id="utp-original" width="146" height="146" viewBox="0 0 146 146" fill="none" xmlns="http://www.w3.org/2000/svg">
    <path fill-rule="evenodd" clip-rule="evenodd" d="M72.9999 146C108.75 146 138.497 120.302 144.778 86.3708L131.904 89.8205C126.177 109.794 110.416 126.367 88.8679 132.141C67.3195 137.915 45.3836 131.442 30.4376 117.008L17.536 120.465C30.9246 136.095 50.8056 146 72.9999 146ZM10.0811 110.039L145.997 73.6208C145.999 73.4141 146 73.2071 146 73C146 59.752 142.471 47.3282 136.302 36.6175L0 73.1394C0.0251684 86.6068 3.69718 99.2185 10.0811 110.039ZM116.21 29.5776L128.988 26.1538C115.597 10.1665 95.4858 0 72.9999 0C36.9704 0 7.03735 26.1017 1.07854 60.4271L13.9068 56.9897C19.4336 36.6512 35.329 19.7017 57.1717 13.849C79.0141 7.99633 101.254 14.7267 116.21 29.5776ZM103.423 33.0039L26.6943 53.5633C32.5064 39.735 44.4203 28.6537 60.0187 24.4742C75.6171 20.2946 91.4759 23.9347 103.423 33.0039ZM86.0209 121.516C70.7466 125.609 55.223 122.204 43.3661 113.544L118.975 93.2847C113.037 106.712 101.295 117.423 86.0209 121.516ZM13.1144 90.6991C14.4479 95.6756 19.1796 98.2506 24.4033 96.851C29.627 95.4513 32.4373 90.8553 31.1038 85.8789C29.7538 80.8406 25.0387 78.3273 19.8149 79.727C14.5912 81.1267 11.7644 85.6608 13.1144 90.6991ZM25.6328 87.3448C26.196 89.4467 25.1408 91.3196 23.0699 91.8745C21.0607 92.4128 19.1486 91.335 18.5854 89.2332C18.0222 87.1313 19.1393 85.2418 21.1484 84.7035C23.2193 84.1486 25.0696 85.243 25.6328 87.3448ZM43.1475 73.8726C42.457 73.892 41.814 73.9649 41.1958 74.1306C39.4648 74.5944 38.0933 75.6576 37.4128 77.1982L36.7801 75.5788L31.7728 76.9205L36.1623 93.3026L41.6333 91.8366L39.5793 84.171C38.8836 81.5746 39.9576 79.8954 42.4304 79.2329C43.0795 79.0589 43.7452 78.9468 44.4975 78.9109L43.1475 73.8726ZM44.1441 69.0338C44.6079 70.7647 46.159 71.608 48.0136 71.1111C49.8372 70.6224 50.7898 69.1083 50.326 67.3774C49.8622 65.6464 48.2802 64.8114 46.4565 65.3001C44.6019 65.797 43.6803 67.3029 44.1441 69.0338ZM50.0475 89.5821L55.5185 88.1161L51.1289 71.734L45.6579 73.2L50.0475 89.5821ZM66.9457 67.4959L67.1247 68.9056C65.4974 68.149 63.6627 67.9781 61.6844 68.5081C57.2026 69.709 54.8145 74.0262 56.0155 78.5081C57.2412 83.0827 61.4635 85.3637 65.8835 84.1793C67.5217 83.7403 68.8895 82.9101 69.8879 81.8143L69.9955 82.2161C70.5256 84.1944 69.2595 85.5275 67.2504 86.0658C65.8903 86.4302 64.639 86.3349 64.071 85.3276L58.7854 86.7438C60.2971 90.778 64.2023 91.7525 68.6533 90.5598C73.7225 89.2016 76.678 85.3949 75.2203 79.9548L71.5513 66.2619L66.9457 67.4959ZM68.1961 75.3768C68.7013 77.2623 67.7675 78.9702 65.6966 79.5251C63.6256 80.08 61.9939 79.0596 61.4887 77.1741C60.9835 75.2886 61.8946 73.6199 63.9656 73.065C66.0365 72.5101 67.6909 73.4913 68.1961 75.3768ZM73.967 61.0428C74.4308 62.7737 75.982 63.617 77.8365 63.1201C79.6602 62.6314 80.6128 61.1173 80.149 59.3863C79.6852 57.6554 78.1031 56.8204 76.2795 57.309C74.4249 57.806 73.5032 59.3118 73.967 61.0428ZM79.8705 81.591L85.3415 80.1251L80.9519 63.743L75.4809 65.2089L79.8705 81.591ZM103.126 65.0566C101.983 60.7911 99.2514 58.5084 95.0168 59.643C93.0076 60.1814 91.4054 61.3726 90.5892 63.1484L89.9068 61.3435L84.8685 62.6935L89.2581 79.0756L94.7291 77.6097L92.3438 68.7077C91.8469 66.8531 92.7089 65.4958 94.5326 65.0071C96.1399 64.5764 97.293 65.2944 97.79 67.149L100.2 76.1437L105.702 74.6695L103.126 65.0566ZM117.366 53.9859L117.547 55.5275C115.911 54.74 113.967 54.5321 111.989 55.0621C107.291 56.321 104.788 60.7022 106.146 65.7714C107.446 70.6242 111.708 73.4245 116.561 72.1242C118.539 71.5942 120.065 70.4896 121.119 68.9815L121.755 70.368L126.361 69.1339L121.971 52.7518L117.366 53.9859ZM118.726 62.4005C119.289 64.5024 118.234 66.3753 116.132 66.9385C114.03 67.5017 112.18 66.4073 111.617 64.3055C111.054 62.2036 112.109 60.3307 114.211 59.7675C116.313 59.2043 118.163 60.2987 118.726 62.4005ZM130.28 68.0839L135.782 66.6097L129.984 44.9729L124.482 46.4472L130.28 68.0839Z" fill="url(#paint0_linear_2630_10643)"/>
    <defs>
      <linearGradient id="paint0_linear_2630_10643" x1="91.0352" y1="178.069" x2="146.511" y2="71.4199" gradientUnits="userSpaceOnUse">
        <stop stop-color="#FF197A"/>
        <stop offset="1" stop-color="#FFCF4B"/>
      </linearGradient>
    </defs>
  </svg>

  <svg id="utp-doc" width="150" height="146" viewBox="0 0 150 146" fill="none" xmlns="http://www.w3.org/2000/svg">
    <path fill-rule="evenodd" clip-rule="evenodd" d="M120.447 0H7.5816C3.57852 0 0.333374 3.24514 0.333374 7.24822V128.397C0.333374 138.119 8.21443 146 17.9362 146H127.695V7.24823C127.695 3.24514 124.45 0 120.447 0ZM105.95 33.1347V44.5248L22.078 44.5248V33.1347L105.95 33.1347ZM105.95 59.0213V70.4113L22.078 70.4113V59.0213H105.95ZM105.95 96.2978V84.9078L22.078 84.9078V96.2978L105.95 96.2978Z" fill="url(#paint0_linear_2630_10655)"/>
    <path d="M32.0307 111.872L25.3424 118.56V129.432C25.3424 137.429 18.8602 144.447 10.864 144.447L10.9741 144.49C13.5228 145.488 16.2356 146 18.9727 146L127.251 146C139.665 146 149.729 132.189 149.729 119.775C149.729 118.997 149.42 118.251 148.871 117.701L143.041 111.872C141.828 110.659 139.861 110.659 138.648 111.872L134.156 116.364C132.943 117.577 130.976 117.577 129.763 116.364L125.272 111.872C124.058 110.659 122.092 110.659 120.878 111.872L116.387 116.364C115.174 117.577 113.207 117.577 111.994 116.364L107.502 111.872C106.289 110.659 104.322 110.659 103.109 111.872L98.6172 116.364C97.4041 117.577 95.4372 117.577 94.2241 116.364L89.7324 111.872C88.5193 110.659 86.5525 110.659 85.3393 111.872L80.8476 116.364C79.6345 117.577 77.6677 117.577 76.4546 116.364L71.9629 111.872C70.7497 110.659 68.7829 110.659 67.5698 111.872L63.0781 116.364C61.865 117.577 59.8981 117.577 58.685 116.364L54.1933 111.872C52.9802 110.659 51.0133 110.659 49.8002 111.872L45.3085 116.364C44.0954 117.577 42.1286 117.577 40.9154 116.364L36.4238 111.872C35.2106 110.659 33.2438 110.659 32.0307 111.872Z" fill="url(#paint1_linear_2630_10655)"/>
    <defs>
      <linearGradient id="paint0_linear_2630_10655" x1="148.482" y1="170.127" x2="139.675" y2="7.01476" gradientUnits="userSpaceOnUse">
        <stop stop-color="#FF197A"/>
        <stop offset="0.407587" stop-color="#FF6C45"/>
        <stop offset="1" stop-color="#FFB119"/>
      </linearGradient>
      <linearGradient id="paint1_linear_2630_10655" x1="118.139" y1="158.504" x2="111.519" y2="103.077" gradientUnits="userSpaceOnUse">
        <stop stop-color="#FF197A"/>
        <stop offset="0.407587" stop-color="#FF6C45"/>
        <stop offset="1" stop-color="#FFB119"/>
      </linearGradient>
    </defs>
  </svg>

  <svg id="utp-discount" width="126" height="146" viewBox="0 0 126 146" fill="none" xmlns="http://www.w3.org/2000/svg">
    <path fill-rule="evenodd" clip-rule="evenodd" d="M125.33 84.7621C125.33 118.583 97.4784 146 63.1215 146C28.7645 146 0.91272 118.639 0.91272 84.7621C0.91272 74.7865 4.55421 60.8644 12.4441 49.8117C18.3425 41.5488 26.5528 36.4814 30.1903 34.2363C31.2042 33.6106 31.8628 33.2041 32.0171 33.0087C32.0171 33.9235 31.9644 34.9568 31.9083 36.0557C31.5753 42.5821 31.1245 51.4174 40.9041 51.4174C46.6171 51.4174 50.5775 45.7044 50.881 40.9249C50.8912 40.7643 50.9014 40.5825 50.9127 40.3806C51.2384 34.5723 52.4971 12.1248 81.5302 0C83.2498 8.46378 86.9172 23.4024 110.764 49.8117C119.769 59.784 125.33 69.7065 125.33 84.7621ZM73.8642 62.8885L40.8664 110.509H52.533L85.5308 62.8885H73.8642ZM38.9334 87.2429C40.8664 88.2406 43.0524 88.7395 45.4916 88.7395C47.9307 88.7395 50.1168 88.2406 52.0497 87.2429C53.9827 86.1998 55.5014 84.6804 56.6059 82.6849C57.7565 80.6894 58.3317 78.2857 58.3317 75.4739C58.3317 72.662 57.7565 70.281 56.6059 68.3308C55.5014 66.3353 53.9827 64.816 52.0497 63.7729C50.1168 62.7298 47.9307 62.2082 45.4916 62.2082C43.0524 62.2082 40.8664 62.7298 38.9334 63.7729C37.0005 64.816 35.4588 66.3353 34.3082 68.3308C33.2037 70.281 32.6514 72.662 32.6514 75.4739C32.6514 78.2857 33.2037 80.6894 34.3082 82.6849C35.4588 84.6804 37.0005 86.1998 38.9334 87.2429ZM47.5626 80.1679C46.9643 80.9842 46.274 81.3924 45.4916 81.3924C44.7552 81.3924 44.0649 80.9842 43.4206 80.1679C42.7763 79.3062 42.4541 77.7415 42.4541 75.4739C42.4541 73.2062 42.7763 71.6643 43.4206 70.8479C44.0649 69.9862 44.7552 69.5554 45.4916 69.5554C46.274 69.5554 46.9643 69.9862 47.5626 70.8479C48.2069 71.6643 48.529 73.2062 48.529 75.4739C48.529 77.7415 48.2069 79.3062 47.5626 80.1679ZM74.3474 109.692C76.2804 110.69 78.4664 111.189 80.9056 111.189C83.3447 111.189 85.5308 110.69 87.4637 109.692C89.3967 108.649 90.9154 107.13 92.0199 105.134C93.1705 103.139 93.7457 100.735 93.7457 97.9234C93.7457 95.1115 93.1705 92.7305 92.0199 90.7804C90.9154 88.7849 89.3967 87.2655 87.4637 86.2224C85.5308 85.1793 83.3447 84.6578 80.9056 84.6578C78.4664 84.6578 76.2804 85.1793 74.3474 86.2224C72.4145 87.2655 70.8728 88.7849 69.7222 90.7804C68.6177 92.7305 68.0654 95.1115 68.0654 97.9234C68.0654 100.735 68.6177 103.139 69.7222 105.134C70.8728 107.13 72.4145 108.649 74.3474 109.692ZM82.9766 102.617C82.3783 103.434 81.688 103.842 80.9056 103.842C80.1692 103.842 79.4789 103.434 78.8346 102.617C78.1903 101.756 77.8681 100.191 77.8681 97.9234C77.8681 95.6558 78.1903 94.1138 78.8346 93.2974C79.4789 92.4357 80.1692 92.0049 80.9056 92.0049C81.688 92.0049 82.3783 92.4357 82.9766 93.2974C83.6209 94.1138 83.943 95.6558 83.943 97.9234C83.943 100.191 83.6209 101.756 82.9766 102.617Z" fill="url(#paint0_linear_2630_10665)"/>
    <defs>
      <linearGradient id="paint0_linear_2630_10665" x1="78.4906" y1="193.81" x2="78.4906" y2="-6.26022e-08" gradientUnits="userSpaceOnUse">
        <stop stop-color="#FF197A"/>
        <stop offset="0.407587" stop-color="#FF6C45"/>
        <stop offset="1" stop-color="#FFB119"/>
      </linearGradient>
    </defs>
  </svg>

  <svg id="utp-check" width="149" height="146" viewBox="0 0 149 146" fill="none" xmlns="http://www.w3.org/2000/svg">
  <path fill-rule="evenodd" clip-rule="evenodd" d="M78.3268 2.13765C76.1574 -0.71255 71.8706 -0.712551 69.7013 2.13765L56.768 19.1301C55.483 20.8185 53.3316 21.6018 51.2623 21.1348L30.4365 16.4343C26.9433 15.6458 23.6594 18.4024 23.8289 21.9807L24.8399 43.3142C24.9404 45.4339 23.7956 47.4174 21.9104 48.3902L2.93655 58.1811C-0.245991 59.8233 -0.990389 64.0466 1.43875 66.6787L15.9209 82.371C17.3598 83.9302 17.7574 86.1858 16.9383 88.1433L8.6946 107.844C7.31185 111.149 9.45526 114.863 13.0073 115.317L34.1843 118.025C36.2884 118.295 38.0423 119.767 38.6726 121.793L45.0163 142.186C46.0804 145.606 50.1087 147.073 53.1217 145.137L71.0845 133.594C72.8693 132.448 75.1588 132.448 76.9436 133.594L94.9064 145.137C97.9194 147.073 101.948 145.606 103.012 142.186L109.355 121.793C109.986 119.767 111.74 118.295 113.844 118.025L135.021 115.317C138.573 114.863 140.716 111.149 139.333 107.844L131.09 88.1433C130.271 86.1858 130.668 83.9302 132.107 82.371L146.589 66.6787C149.018 64.0466 148.274 59.8233 145.092 58.1811L126.118 48.3902C124.232 47.4174 123.088 45.4339 123.188 43.3142L124.199 21.9807C124.369 18.4024 121.085 15.6458 117.592 16.4343L96.7658 21.1348C94.6965 21.6018 92.5451 20.8185 91.26 19.1301L78.3268 2.13765ZM42.2948 74.3183L50.2904 65.9033L67.6843 82.4528L100.087 49.9148L108.223 58.0493L67.8246 98.5815L42.2948 74.3183Z" fill="url(#paint0_linear_2630_10674)"/>
    <defs>
      <linearGradient id="paint0_linear_2630_10674" x1="73.3837" y1="192.639" x2="73.3837" y2="4.5625" gradientUnits="userSpaceOnUse">
        <stop stop-color="#FF197A"/>
        <stop offset="0.407587" stop-color="#FF6C45"/>
        <stop offset="1" stop-color="#FFB119"/>
      </linearGradient>
    </defs>
  </svg>

  <svg id="utp-check-light" width="16" height="16" viewBox="0 0 16 16" fill="none" xmlns="http://www.w3.org/2000/svg">
    <g clip-path="url(#clip0_2994_4874)">
      <path fill-rule="evenodd" clip-rule="evenodd" d="M7.49389 0.517131C7.76459 0.334085 8.11942 0.334085 8.39012 0.51713L10.1126 1.68187C10.2217 1.75558 10.3472 1.80126 10.4781 1.81487L12.5463 2.02984C12.8713 2.06363 13.1431 2.2917 13.2328 2.60593L13.8037 4.60539C13.8398 4.73192 13.9066 4.84759 13.9981 4.94215L15.4442 6.43625C15.6715 6.67105 15.7331 7.02048 15.5999 7.31886L14.7519 9.21747C14.6983 9.33763 14.6751 9.46916 14.6844 9.60042L14.8319 11.6745C14.855 12.0005 14.6776 12.3078 14.3837 12.4507L12.5138 13.3601C12.3954 13.4176 12.2931 13.5035 12.2159 13.61L10.9956 15.2937C10.8038 15.5583 10.4704 15.6796 10.1534 15.6002L8.1877 15.1077C8.11254 15.0855 7.91929 15.0518 7.74758 15.0948L5.73057 15.6002C5.41359 15.6796 5.08016 15.5583 4.88839 15.2937L3.66811 13.61C3.59088 13.5035 3.48857 13.4176 3.37023 13.3601L1.50027 12.4507C1.2064 12.3078 1.02899 12.0005 1.05216 11.6745L1.19959 9.60042C1.20892 9.46916 1.18572 9.33763 1.13206 9.21747L0.284133 7.31886C0.150876 7.02048 0.21249 6.67105 0.439762 6.43625L1.88592 4.94215C1.97744 4.84759 2.04422 4.73192 2.08035 4.60539L2.6512 2.60593C2.74091 2.2917 3.01272 2.06363 3.33775 2.02984L5.40596 1.81487C5.53685 1.80126 5.66236 1.75558 5.77137 1.68187L7.49389 0.517131ZM7.40931 9.21493L5.22876 7.03438L4.09739 8.16575L7.51683 11.5852L11.8921 6.22445L10.663 5.20016L7.40931 9.21493Z" fill="white"/>
    </g>
    <defs>
      <clipPath id="clip0_2994_4874">
       <rect width="16" height="16" fill="white"/>
      </clipPath>
    </defs>
  </svg>


  <svg id="utp-box" width="129" height="146" viewBox="0 0 129 146" fill="none" xmlns="http://www.w3.org/2000/svg">
    <path d="M59.055 2.15089C60.0466 1.5809 61.357 0.832794 61.9236 0.547791C63.3048 -0.200317 66.1025 -0.164688 67.5191 0.547791C70.9189 2.29338 125.812 34.3552 126.484 34.9964C128.397 36.7777 128.326 34.9608 128.326 73.0075C128.326 111.054 128.397 109.237 126.484 111.019C125.812 111.66 71.0252 143.615 67.4483 145.503C66.5629 145.93 65.713 146.073 64.261 145.966C62.4194 145.788 60.4008 144.684 32.7065 128.617C15.0346 118.357 2.78118 111.019 2.24996 110.377C2.24996 110.377 1.53575 109.851 1.36459 109.344C0.83328 107.77 0.833374 103.288 0.833374 103.288V89.5728V75.8575V70.1576V54.661V43.1009C0.833374 43.1009 0.833542 39.584 0.833374 37.6774C0.833207 35.7708 5.72059 33.1084 5.72059 33.1084L14.6805 27.9072C22.1884 23.5611 23.7466 22.7773 24.3487 23.0979L88.4137 58.4C88.5908 71.4385 88.4137 87.5422 88.4137 87.5422L105.484 77.7099L105.554 63.4958V49.4516L73.7875 30.8284C56.2573 20.6755 41.9143 12.3038 41.9143 12.2325C41.9143 12.1613 42.9768 11.5201 44.2517 10.772L46.5537 9.41823L57.2489 3.18399L59.055 2.15089Z" fill="url(#paint0_linear_2630_10680)"/>
    <defs>
      <linearGradient id="paint0_linear_2630_10680" x1="65.1067" y1="196.417" x2="65.1067" y2="-6.69708e-07" gradientUnits="userSpaceOnUse">
        <stop stop-color="#FF197A"/>
        <stop offset="0.407587" stop-color="#FF6C45"/>
        <stop offset="1" stop-color="#FFB119"/>
      </linearGradient>
    </defs>
  </svg>

  <svg id="utp-truck" width="169" height="146" viewBox="0 0 169 146" fill="none" xmlns="http://www.w3.org/2000/svg">
    <path d="M1.23508 1.07584C0.669387 1.92661 0.666626 3.06097 0.666626 3.06097V62.4514C0.668275 64.0871 0.669987 65.6916 0.671775 67.265H74.6997V57.623L101.259 77.424L74.6997 96.0184V86.3764H0.701585C0.761183 114.059 0.888624 127.778 1.24008 128.198C2.29876 129.561 3.71033 129.913 8.34206 129.913C8.72444 129.913 9.07662 129.915 9.40117 129.917H9.40508C11.4044 129.927 12.3539 129.932 12.8526 129.462C13.3036 129.037 13.386 128.223 13.5429 126.672C13.5706 126.399 13.6007 126.102 13.6355 125.78C13.8119 124.549 14.6941 122 15.6646 120.021C17.6055 115.933 21.5756 111.8 25.3692 109.909C39.3085 102.875 55.8503 111.844 57.7913 127.451L58.1 129.913H111.435L111.964 126.528C113.685 115.713 123.125 107.491 133.888 107.491C139.975 107.491 144.695 109.382 149.327 113.69C152.679 116.812 155.547 122.044 155.988 125.736C156.023 126.061 156.053 126.361 156.08 126.638C156.238 128.209 156.32 129.032 156.776 129.461C157.277 129.932 158.229 129.927 160.227 129.917C160.55 129.915 160.901 129.913 161.281 129.913C165.913 129.913 167.325 129.561 168.383 128.198C168.78 127.671 168.913 122.835 168.957 108.986V81.8748C168.957 78.0157 167.608 74.2773 165.142 71.3031L150.479 53.6164C142.98 43.9883 136.363 35.8549 135.833 35.5472C135.128 35.1515 131.555 35.0196 123.306 34.9757H116.464V2.54993C116.464 2.54993 116.633 1.64303 115.78 0.792262C115.089 0.103293 113.905 0 113.905 0H3.51164C3.51164 0 1.80078 0.225075 1.23508 1.07584Z" fill="url(#paint0_linear_2630_10686)"/>
    <path d="M149.919 130.574C149.919 139.094 142.994 146 134.451 146C125.908 146 118.983 139.094 118.983 130.574C118.983 122.055 125.908 115.148 134.451 115.148C142.994 115.148 149.919 122.055 149.919 130.574Z" fill="url(#paint1_linear_2630_10686)"/>
    <path d="M35.1725 146C43.7153 146 50.6406 139.094 50.6406 130.574C50.6406 122.055 43.7153 115.148 35.1725 115.148C26.6297 115.148 19.7043 122.055 19.7043 130.574C19.7043 139.094 26.6297 146 35.1725 146Z" fill="url(#paint2_linear_2630_10686)"/>
    <defs>
      <linearGradient id="paint0_linear_2630_10686" x1="85.0553" y1="201.855" x2="85.0553" y2="-1.18863e-05" gradientUnits="userSpaceOnUse">
        <stop stop-color="#FF197A"/>
        <stop offset="0.407587" stop-color="#FF6C45"/>
        <stop offset="1" stop-color="#FFB119"/>
      </linearGradient>
      <linearGradient id="paint1_linear_2630_10686" x1="85.0553" y1="201.855" x2="85.0553" y2="-1.18863e-05" gradientUnits="userSpaceOnUse">
        <stop stop-color="#FF197A"/>
        <stop offset="0.407587" stop-color="#FF6C45"/>
        <stop offset="1" stop-color="#FFB119"/>
      </linearGradient>
      <linearGradient id="paint2_linear_2630_10686" x1="85.0553" y1="201.855" x2="85.0553" y2="-1.18863e-05" gradientUnits="userSpaceOnUse">
        <stop stop-color="#FF197A"/>
        <stop offset="0.407587" stop-color="#FF6C45"/>
        <stop offset="1" stop-color="#FFB119"/>
      </linearGradient>
    </defs>
  </svg>

  <svg id="trash" width="18" height="20" viewBox="0 0 18 20" fill="none" xmlns="http://www.w3.org/2000/svg">
    <path fill-rule="evenodd" clip-rule="evenodd" d="M3.38416 6.36372L4.29435 17.2728H13.6267L14.6267 6.36372H3.38416ZM17.999 4.54554H-0.000976562V6.36372H1.49902L2.49902 19.091H15.499L16.499 6.36372H17.999V4.54554Z" fill="#0A0A0A"/>
    <path fill-rule="evenodd" clip-rule="evenodd" d="M10.4912 3.18122C10.1885 2.93901 9.74103 2.72736 8.99908 2.72736C8.25713 2.72736 7.8097 2.93901 7.50693 3.18122C7.17565 3.44624 6.90642 3.8404 6.70005 4.33572C6.67107 4.40528 6.64395 4.47534 6.6186 4.54554H11.3796C11.3542 4.47534 11.3271 4.40528 11.2981 4.33572C11.0917 3.8404 10.8225 3.44624 10.4912 3.18122ZM13.2812 4.54554C12.864 2.95908 11.7858 0.90918 8.99908 0.90918C6.2124 0.90918 5.13414 2.95908 4.71694 4.54554C4.45359 5.54696 4.45362 6.36372 4.45362 6.36372H13.5445C13.5445 6.36372 13.5446 5.54696 13.2812 4.54554Z" fill="#0A0A0A"/>
    <path d="M7.5 8V15H6L6.00003 8H7.5Z" fill="#0A0A0A"/>
    <path d="M12 8V15H10.5V8H12Z" fill="#0A0A0A"/>
  </svg>

  <svg id="contacts-geo" width="20" height="21" viewBox="0 0 20 21" fill="none" xmlns="http://www.w3.org/2000/svg">
    <path d="M10 19.01L9.53 18.7C9.36 18.59 9.15 18.44 8.91 18.27C8.04 17.64 7.23 16.96 6.5 16.25C4.21 13.99 3 11.6 3 9.35C3 5.3 6.14 2 10 2C13.86 2 17 5.3 17 9.35C17 11.6 15.79 13.99 13.5 16.24C12.78 16.95 11.97 17.63 11.09 18.26C10.85 18.43 10.64 18.58 10.47 18.69L10 19V19.01ZM10 3.7C7.08 3.7 4.7 6.24 4.7 9.35C4.7 11.61 6.33 13.69 7.69 15.03C8.51 15.84 9.35 16.49 9.9 16.89C9.93 16.91 9.97 16.94 10 16.96C10.03 16.94 10.06 16.91 10.1 16.89C10.65 16.49 11.48 15.84 12.31 15.03C13.68 13.69 15.3 11.61 15.3 9.35C15.3 6.23 12.92 3.7 10 3.7Z" fill="#FF197A"/>
    <path d="M10 12C8.35 12 7 10.65 7 9C7 7.35 8.35 6 10 6C11.65 6 13 7.35 13 9C13 10.65 11.65 12 10 12ZM10 7.7C9.28 7.7 8.7 8.28 8.7 9C8.7 9.72 9.28 10.3 10 10.3C10.72 10.3 11.3 9.72 11.3 9C11.3 8.28 10.72 7.7 10 7.7Z" fill="#FF197A"/>
  </svg>

  <svg id="contacts-metro" width="20" height="21" viewBox="0 0 20 21" fill="none" xmlns="http://www.w3.org/2000/svg">
    <path d="M6.42372 7.23525C6.1539 6.41001 5.42149 6.50046 4.92072 6.88482C3.68715 7.9135 2.08095 10.0727 3.10893 13.1817C3.96985 15.8156 7.55215 17.5 7.55215 17.5H3.37614C3.37614 17.5 1.21989 15.3182 1.02714 12.7522C0.783001 9.50783 2.22228 7.4617 3.89273 6.12783C5.46038 4.87303 6.95094 4.5 6.95094 4.5L10 13.5188L13.0491 4.5C13.0491 4.5 14.5396 4.87303 16.1073 6.12783C17.7777 7.4617 19.217 9.50783 18.9729 12.7522C18.7801 15.3182 16.6239 17.5 16.6239 17.5H12.4478C12.4478 17.5 16.0299 15.8156 16.8911 13.1817C17.9191 10.073 16.3128 7.91386 15.0793 6.88482C14.5781 6.50046 13.8457 6.41001 13.5763 7.23525C12.6511 9.86916 10.0004 17.4159 10.0004 17.4159C10.0004 17.4159 7.34966 9.86664 6.42448 7.23525H6.42372Z" fill="#FF197A"/>
  </svg>

  <svg id="contacts-phone" width="18" height="18" viewBox="0 0 18 18" fill="none" xmlns="http://www.w3.org/2000/svg">
    <g clip-path="url(#clip0_2994_5459)">
      <path d="M14.77 17.15C14.7 17.15 14.63 17.15 14.56 17.15C12.12 16.88 9.74998 16.04 7.69998 14.71C5.79998 13.5 4.15998 11.86 2.94998 9.95C1.60998 7.89 0.769979 5.51 0.509979 3.07C0.479979 2.73 0.509979 2.41 0.619979 2.1C0.719979 1.79 0.889979 1.51 1.10998 1.27C1.32998 1.03 1.59998 0.84 1.89998 0.7C2.19998 0.57 2.51998 0.5 2.84998 0.5H6.93998L8.83998 5.56L7.41998 6.98C8.26998 8.3 9.39998 9.42 10.72 10.28L12.16 8.84L17.82 11.27L16.92 15.73C16.79 16.03 16.6 16.3 16.35 16.52C16.11 16.74 15.83 16.91 15.52 17.01C15.27 17.09 15.02 17.13 14.77 17.13V17.15ZM2.84998 2.2C2.75998 2.2 2.66998 2.22 2.58998 2.26C2.50998 2.3 2.42998 2.35 2.36998 2.42C2.30998 2.49 2.25998 2.56 2.22998 2.65C2.19998 2.74 2.18998 2.83 2.19998 2.92C2.42998 5.08 3.17998 7.2 4.36998 9.04C5.44998 10.74 6.91998 12.21 8.60998 13.28C10.44 14.47 12.55 15.22 14.72 15.46C14.8 15.46 14.89 15.46 14.97 15.43C15.05 15.4 15.13 15.35 15.2 15.29C15.2 15.29 15.29 15.19 15.32 15.14L15.88 12.31L12.54 10.88L10.99 12.43L10.43 12.11C8.41998 10.97 6.74998 9.3 5.60998 7.29L5.28998 6.73L6.85998 5.16L5.75998 2.22H2.84998V2.2Z" fill="#FF197A"/>
    </g>
    <defs>
      <clipPath id="clip0_2994_5459">
        <rect width="17.32" height="16.65" fill="white" transform="translate(0.5 0.5)"/>
      </clipPath>
    </defs>
  </svg>

  <svg id="contacts-mail" width="21" height="21" viewBox="0 0 21 21" fill="none" xmlns="http://www.w3.org/2000/svg">
    <path d="M19.2006 17.2H1.50061V3.5H19.2006V17.2ZM3.20061 15.5H17.5006V5.2H3.20061V15.5Z" fill="#FF197A"/>
    <path d="M10.9505 11.9602C10.595 12.2267 10.1063 12.2267 9.7508 11.9602L1.84065 6.02992C1.46065 5.74992 1.39065 5.21992 1.67065 4.83992C1.95065 4.45992 2.48065 4.38992 2.86065 4.66992L9.75048 9.83959C10.1061 10.1064 10.5952 10.1064 10.9508 9.83959L17.8407 4.66992C18.2207 4.38992 18.7507 4.46992 19.0307 4.83992C19.3107 5.21992 19.2407 5.74992 18.8607 6.02992L10.9505 11.9602Z" fill="#FF197A"/>
  </svg>

  <svg id="contacts-calendar" width="20" height="21" viewBox="0 0 20 21" fill="none" xmlns="http://www.w3.org/2000/svg">
    <path fill-rule="evenodd" clip-rule="evenodd" d="M1.5 2.83366H18.5V17.167C18.5 18.6398 17.3061 19.8337 15.8333 19.8337H4.16667C2.69391 19.8337 1.5 18.6398 1.5 17.167V2.83366ZM3.5 4.83366V17.167C3.5 17.5352 3.79848 17.8337 4.16667 17.8337H15.8333C16.2015 17.8337 16.5 17.5352 16.5 17.167V4.83366H3.5Z" fill="#FF197A"/>
    <path fill-rule="evenodd" clip-rule="evenodd" d="M14.3333 1.16699V6.50033H12.3333V1.16699H14.3333Z" fill="#FF197A"/>
    <path fill-rule="evenodd" clip-rule="evenodd" d="M7.66667 1.16699V6.50033H5.66667V1.16699H7.66667Z" fill="#FF197A"/>
    <path fill-rule="evenodd" clip-rule="evenodd" d="M3 8.50033L17 8.50032V10.5003L3 10.5003L3 8.50033Z" fill="#FF197A"/>
  </svg>

  <svg id="contacts-clock" width="20" height="21" viewBox="0 0 20 21" fill="none" xmlns="http://www.w3.org/2000/svg">
    <path fill-rule="evenodd" clip-rule="evenodd" d="M9.99984 3.16699C5.94975 3.16699 2.6665 6.45024 2.6665 10.5003C2.6665 14.5504 5.94975 17.8337 9.99984 17.8337C14.0499 17.8337 17.3332 14.5504 17.3332 10.5003C17.3332 6.45024 14.0499 3.16699 9.99984 3.16699ZM0.666504 10.5003C0.666504 5.34567 4.84518 1.16699 9.99984 1.16699C15.1545 1.16699 19.3332 5.34567 19.3332 10.5003C19.3332 15.655 15.1545 19.8337 9.99984 19.8337C4.84518 19.8337 0.666504 15.655 0.666504 10.5003Z" fill="#FF197A"/>
    <path fill-rule="evenodd" clip-rule="evenodd" d="M10.9999 4.50024V9.88221L14.6749 11.7197L13.7804 13.5086L8.99988 11.1183V4.50024H10.9999Z" fill="#FF197A"/>
  </svg>

  <svg id="star" width="20" height="20" viewBox="0 0 20 20" fill="none" xmlns="http://www.w3.org/2000/svg">
    <path d="M9.52447 1.46353C9.67415 1.00287 10.3259 1.00287 10.4755 1.46353L12.1329 6.56434C12.1998 6.77035 12.3918 6.90983 12.6084 6.90983H17.9717C18.4561 6.90983 18.6575 7.52964 18.2656 7.81434L13.9266 10.9668C13.7514 11.0941 13.678 11.3198 13.745 11.5258L15.4023 16.6266C15.552 17.0873 15.0248 17.4704 14.6329 17.1857L10.2939 14.0332C10.1186 13.9059 9.88135 13.9059 9.70611 14.0332L5.3671 17.1857C4.97524 17.4704 4.448 17.0873 4.59768 16.6266L6.25503 11.5258C6.32197 11.3198 6.24864 11.0941 6.07339 10.9668L1.73438 7.81434C1.34253 7.52964 1.54392 6.90983 2.02828 6.90983H7.39159C7.6082 6.90983 7.80018 6.77035 7.86712 6.56434L9.52447 1.46353Z" fill="#8A8A8A"/>
  </svg>

  <svg id="star-active" width="20" height="20" viewBox="0 0 20 20" fill="none" xmlns="http://www.w3.org/2000/svg">
    <path d="M9.52447 1.46353C9.67415 1.00287 10.3259 1.00287 10.4755 1.46353L12.1329 6.56434C12.1998 6.77035 12.3918 6.90983 12.6084 6.90983H17.9717C18.4561 6.90983 18.6575 7.52964 18.2656 7.81434L13.9266 10.9668C13.7514 11.0941 13.678 11.3198 13.745 11.5258L15.4023 16.6266C15.552 17.0873 15.0248 17.4704 14.6329 17.1857L10.2939 14.0332C10.1186 13.9059 9.88135 13.9059 9.70611 14.0332L5.3671 17.1857C4.97524 17.4704 4.448 17.0873 4.59768 16.6266L6.25503 11.5258C6.32197 11.3198 6.24864 11.0941 6.07339 10.9668L1.73438 7.81434C1.34253 7.52964 1.54392 6.90983 2.02828 6.90983H7.39159C7.6082 6.90983 7.80018 6.77035 7.86712 6.56434L9.52447 1.46353Z" fill="#FFCF4B"/>
  </svg>

</svg>