<svg width="29" height="28" viewBox="0 0 29 28" fill="none" xmlns="http://www.w3.org/2000/svg">
<path fill-rule="evenodd" clip-rule="evenodd" d="M8.59096 19.6526C8.59096 17.9757 7.23152 16.6162 5.55457 16.6162C3.87763 16.6162 2.51819 17.9757 2.51819 19.6526C2.51819 21.3296 3.87763 22.689 5.55457 22.689C7.23152 22.689 8.59096 21.3296 8.59096 19.6526ZM10.1091 19.6526C10.1091 17.1372 8.07 15.0981 5.55457 15.0981C3.03915 15.0981 1 17.1372 1 19.6526C1 22.168 3.03915 24.2072 5.55457 24.2072C8.07 24.2072 10.1091 22.168 10.1091 19.6526Z" fill="#8A8A8A"/>
<path fill-rule="evenodd" clip-rule="evenodd" d="M18.9198 17.0479C17.4675 17.8863 16.9699 19.7434 17.8084 21.1956C18.6468 22.6479 20.5039 23.1455 21.9561 22.307C23.4084 21.4686 23.906 19.6115 23.0675 18.1593C22.2291 16.707 20.372 16.2094 18.9198 17.0479ZM18.1607 15.7331C15.9822 16.9908 15.2359 19.7763 16.4936 21.9547C17.7513 24.1332 20.5368 24.8795 22.7152 23.6218C24.8937 22.3641 25.64 19.5786 24.3823 17.4002C23.1246 15.2218 20.3391 14.4754 18.1607 15.7331Z" fill="#8A8A8A"/>
<path fill-rule="evenodd" clip-rule="evenodd" d="M4.52165 11.3026C4.52165 6.7172 8.23885 3 12.8243 3C17.4097 3 21.1269 6.7172 21.1269 11.3026H19.7036C19.7036 7.50327 16.6236 4.4233 12.8243 4.4233C9.02492 4.4233 5.94495 7.50327 5.94495 11.3026V16.047H4.52165V11.3026Z" fill="#8A8A8A"/>
</svg>
